<?xml version="1.0" encoding="utf-8"?>
<!-- Generator: Adobe Illustrator 16.0.0, SVG Export Plug-In . SVG Version: 6.00 Build 0)  -->
<!DOCTYPE svg PUBLIC "-//W3C//DTD SVG 1.1//EN" "http://www.w3.org/Graphics/SVG/1.1/DTD/svg11.dtd">
<svg version="1.1" id="图层_1" xmlns="http://www.w3.org/2000/svg" xmlns:xlink="http://www.w3.org/1999/xlink" x="0px" y="0px"
	 width="600px" height="600px" viewBox="0 0 600 600" enable-background="new 0 0 600 600" xml:space="preserve">
<g>
	<rect x="251.442" y="353.004" fill="#2F4555" width="134.216" height="9.728"/>
	<rect x="313.686" y="304.559" fill="#2F4555" width="9.729" height="53.308"/>
</g>
<rect x="255.608" y="250.584" fill="none" stroke="#2F4555" stroke-width="8" stroke-miterlimit="10" width="127.027" height="51.605"/>
<rect x="257.043" y="267.103" fill="#2F4555" width="123.013" height="9.728"/>
<g>
	<rect x="490.691" y="94.158" fill="#C13531" width="87.285" height="9.728"/>
	<rect x="529.469" y="96.615" fill="#C13531" width="9.729" height="108.454"/>
</g>
<rect x="494.719" y="203.044" fill="none" stroke="#C13531" stroke-width="8" stroke-miterlimit="10" width="79.23" height="133.677"/>
<rect x="493.611" y="247.796" fill="#C13531" width="81.445" height="9.728"/>
<rect x="22.025" y="144.75" fill="#C13531" width="134.215" height="9.728"/>
<rect x="22.023" y="501.863" fill="#C13531" width="134.215" height="9.729"/>
<rect x="84.267" y="145.666" fill="#C13531" width="9.729" height="126.962"/>
<rect x="84.267" y="371.12" fill="#C13531" width="9.729" height="135.607"/>
<rect x="28.36" y="276.476" fill="none" stroke="#C13531" stroke-width="9" stroke-miterlimit="10" width="121.542" height="91.381"/>
<rect x="26.889" y="302.722" fill="#C13531" width="123.014" height="9.728"/>
<g>
	<rect x="490.691" y="437.904" fill="#C13531" width="87.285" height="9.729"/>
	<rect x="529.471" y="336.721" fill="#C13531" width="9.729" height="108.455"/>
</g>
<g>
	<rect x="251.442" y="189.267" fill="#2F4555" width="134.216" height="9.728"/>
	<rect x="313.686" y="194.131" fill="#2F4555" width="9.729" height="53.309"/>
</g>
</svg>
