<?xml version="1.0" encoding="utf-8"?>
<!-- Generator: Adobe Illustrator 16.0.0, SVG Export Plug-In . SVG Version: 6.00 Build 0)  -->
<!DOCTYPE svg PUBLIC "-//W3C//DTD SVG 1.1//EN" "http://www.w3.org/Graphics/SVG/1.1/DTD/svg11.dtd">
<svg version="1.1" id="图层_1" xmlns="http://www.w3.org/2000/svg" xmlns:xlink="http://www.w3.org/1999/xlink" x="0px" y="0px"
	 width="600px" height="600px" viewBox="0 0 600 600" enable-background="new 0 0 600 600" xml:space="preserve">
<g>
	<path fill="#293C54" d="M382.523,190.122l-55.727,55.683c6.088,2.702,11.936,6.058,16.97,11.055
		c11.108,11.174,16.507,25.357,16.549,39.961c-0.042,14.536-5.44,28.805-16.549,39.929l-20.782,20.792v0.034l-95.823,95.722v-0.036
		l-28.216,28.257c-11.074,11.028-25.374,16.447-39.877,16.474c-14.632-0.026-28.854-5.445-39.949-16.504
		c-11.114-11.108-16.508-25.32-16.508-39.93s5.394-28.756,16.508-39.93l22.135-22.011c-22.045-42.359-16.874-76.995-9.173-98.81
		l-66.936,66.89c-25.827,25.782-38.892,60.029-38.857,93.86c-0.035,33.831,12.965,68.032,38.857,93.891
		c25.85,25.9,60.094,38.937,93.923,38.894h0.129c33.819,0,67.869-13.148,93.661-38.814l144.857-144.846
		c25.878-25.856,38.956-60.031,38.892-93.861c0.064-33.898-13.078-68.07-38.892-93.892
		C392.952,198.164,387.824,193.967,382.523,190.122L382.523,190.122z"/>
	<path fill="#C23531" d="M536.379,64.309c-25.855-25.938-60.092-38.943-93.912-38.901h-0.136c-33.822,0-67.876,13.151-93.689,38.783
		L203.809,209.067c-25.877,25.858-38.935,59.994-38.893,93.868c-0.042,33.894,13.059,68.105,38.893,93.92
		c4.799,4.727,9.927,8.97,15.25,12.853l55.702-55.756c-6.117-2.666-11.932-6.02-16.98-11.06
		c-11.131-11.099-16.513-25.355-16.551-39.957c0.038-14.499,5.419-28.839,16.551-39.936l114.027-113.992l4.076-4.119l26.66-26.622
		c11.131-11.099,25.414-16.473,39.922-16.508c14.582,0.035,28.83,5.409,39.961,16.546c11.078,11.019,16.486,25.328,16.486,39.93
		c0,14.572-5.408,28.756-16.486,39.856l-22.158,22.041c22.047,42.403,16.891,76.996,9.174,98.817l66.936-66.854
		c25.828-25.789,38.891-59.993,38.857-93.86C575.27,124.406,562.271,90.166,536.379,64.309L536.379,64.309z"/>
</g>
</svg>
