<?xml version="1.0" encoding="utf-8"?>
<!-- Generator: Adobe Illustrator 16.0.4, SVG Export Plug-In . SVG Version: 6.00 Build 0)  -->
<!DOCTYPE svg PUBLIC "-//W3C//DTD SVG 1.1//EN" "http://www.w3.org/Graphics/SVG/1.1/DTD/svg11.dtd">
<svg version="1.1" id="图层_1" xmlns="http://www.w3.org/2000/svg" xmlns:xlink="http://www.w3.org/1999/xlink" x="0px" y="0px"
	 width="600px" height="600px" viewBox="0 0 600 600" enable-background="new 0 0 600 600" xml:space="preserve">
<path fill="#C13531" d="M377.241,516.588c-5.35-2.785-14.184-2.693-19.377,0l-76.328,39.951c-32.221,16.846-53.27,1.57-47.16-34.088
	l14.566-84.58c1.041-5.939-1.76-14.281-5.975-18.385l-61.75-59.896c-26.01-25.221-17.932-49.93,17.977-55.137l85.402-12.336
	c5.955-0.889,13.041-6.1,15.662-11.34l38.145-76.979c16.105-32.467,42.203-32.389,58.266,0l38.18,76.979
	c2.697,5.381,9.84,10.475,15.697,11.34l85.326,12.336c35.945,5.207,43.975,29.947,17.998,55.137l-61.752,59.896
	c-4.365,4.217-6.949,12.547-5.961,18.385l14.592,84.58c6.09,35.713-15.062,50.9-47.18,34.088L377.241,516.588z"/>
<path fill="#293C54" d="M91.782,493.984H28.472c-5.359,0-9.711-4.387-9.711-9.754V36.553c0-5.357,4.352-9.744,9.711-9.744h451.008
	c5.377,0,9.711,4.387,9.711,9.744c0,5.367-4.334,9.742-9.711,9.742H38.21v428.193h53.572c5.365,0,9.746,4.377,9.746,9.742
	C101.528,489.598,97.147,493.984,91.782,493.984z"/>
<path fill="#293C54" d="M148.453,319.378c3.311-10.444,13.995-28.804,48.079-33.959l84.713-12.859
	c0.508-0.202,1.162-0.744,1.555-1.108l37.391-76.712c15.047-30.864,35.707-35.579,46.669-35.654
	c10.977-0.076,31.705,4.354,47.131,35.008l38.448,76.189c0.4,0.359,1.059,0.892,1.537,1.088l25.601,3.519l-1.248-181.187
	L90.64,96.373l2.294,332.961l131.421-0.905l-56.166-53.74C143.309,350.888,145.157,329.829,148.453,319.378z"/>
</svg>
