<?xml version="1.0" encoding="utf-8"?>
<!-- Generator: Adobe Illustrator 16.0.0, SVG Export Plug-In . SVG Version: 6.00 Build 0)  -->
<!DOCTYPE svg PUBLIC "-//W3C//DTD SVG 1.1//EN" "http://www.w3.org/Graphics/SVG/1.1/DTD/svg11.dtd">
<svg version="1.1" id="图层_1" xmlns="http://www.w3.org/2000/svg" xmlns:xlink="http://www.w3.org/1999/xlink" x="0px" y="0px"
	 width="600px" height="600px" viewBox="0 0 600 600" enable-background="new 0 0 600 600" xml:space="preserve">
<g>
	<g>
		<path fill="#C23531" d="M557.673,270.294c0,5.764-27.453,24.45-61.327,24.45c-33.873,0-61.33-19.245-61.33-24.45
			c0-6.47,27.457-24.473,61.33-24.473C530.22,245.821,557.673,264.933,557.673,270.294z"/>
		<path fill="#C23531" d="M578.892,271.061c0,3.447-4.825,6.242-10.774,6.242h-177.77c-5.939,0-10.774-2.794-10.774-6.242v-1.558
			c0-3.434,4.835-6.224,10.774-6.224h177.77c5.949,0,10.774,2.79,10.774,6.224V271.061z"/>
	</g>
	<path fill="#293C54" d="M313.037,163.529c0-8.963,80.086-27.988,119.742-27.988c41.979,0,69.774,11.27,68.608,27.988
		c-1.16,16.725-35.187,25.333-66.649,26.181C393.908,190.798,313.037,173.95,313.037,163.529z"/>
	<path fill="#293C54" d="M507.998,443.828c0-11.08-107.748-28.299-161.104-28.299c-56.485,0-90.886,7.41-90.886,24.097
		c0,16.418,48.554,22.903,90.886,23.946C401.811,464.926,507.998,456.71,507.998,443.828z"/>
	<path fill="#C23531" d="M298.923,359.678c0,8.404-31.19,35.645-69.668,35.645c-38.485,0-69.678-28.055-69.678-35.645
		c0-9.42,31.193-35.652,69.678-35.652C267.733,324.025,298.923,351.872,298.923,359.678z"/>
	<path fill="#C23531" d="M224.635,227.062c0,5.787-31.205,24.533-69.708,24.533c-38.504,0-69.708-19.306-69.708-24.533
		c0-6.473,31.203-24.518,69.708-24.518C193.43,202.544,224.635,221.698,224.635,227.062z"/>
	<path fill="#C23531" d="M248.756,227.84c0,3.461-5.482,6.257-12.251,6.257H34.427c-6.765,0-12.24-2.796-12.24-6.257v-1.558
		c0-3.45,5.475-6.238,12.24-6.238h202.078c6.769,0,12.251,2.788,12.251,6.238V227.84z"/>
	<path fill="#C23531" d="M329.156,360.443c0,3.461-5.105,6.253-11.41,6.253H129.482c-6.302,0-11.406-2.792-11.406-6.253v-1.558
		c0-3.452,5.104-6.241,11.406-6.241h188.264c6.305,0,11.41,2.789,11.41,6.241V360.443z"/>
</g>
</svg>
