<?xml version="1.0" encoding="utf-8"?>
<!-- Generator: Adobe Illustrator 16.0.0, SVG Export Plug-In . SVG Version: 6.00 Build 0)  -->
<!DOCTYPE svg PUBLIC "-//W3C//DTD SVG 1.1//EN" "http://www.w3.org/Graphics/SVG/1.1/DTD/svg11.dtd">
<svg version="1.1" id="图层_1" xmlns="http://www.w3.org/2000/svg" xmlns:xlink="http://www.w3.org/1999/xlink" x="0px" y="0px"
	 width="600px" height="600px" viewBox="0 0 600 600" enable-background="new 0 0 600 600" xml:space="preserve">
<g>
	<path fill="#CECECE" d="M333.316,309.417c0,19.216-15.566,34.785-34.775,34.785c-19.214,0-34.787-15.569-34.787-34.785
		c0-19.202,15.573-34.775,34.787-34.775C317.75,274.642,333.316,290.215,333.316,309.417z"/>
	<g>
		<path fill="#CECECE" d="M281.93,233.099c-1.1,0-1.884-0.893-1.742-1.983l18.097-139.26c0.142-1.091,0.374-1.091,0.516,0
			l18.093,139.26c0.143,1.091-0.643,1.983-1.742,1.983H281.93z"/>
	</g>
	<rect x="290.81" y="226.451" fill="#CECECE" width="15.466" height="81.341"/>
	<path fill="#293C54" d="M383.801,119.907c75.986,32.485,129.248,107.9,129.248,195.769c0,23.281-3.756,45.679-10.672,66.644
		l60.5,21.62c9.32-27.722,14.387-57.398,14.387-88.264c0-115.895-71.17-215.144-172.176-256.484L383.801,119.907z"/>
	<path fill="#C23531" d="M497.01,396.82c-19.961,48.328-57.207,87.701-104.035,110.414l32.182,55.743
		c59.9-30.319,107.275-81.759,132.377-144.525L497.01,396.82z"/>
	<path fill="#C23531" d="M300.225,102.853c24.205,0,47.441,4.102,69.121,11.543l21.266-60.663
		c-28.328-9.777-58.736-15.097-90.387-15.097c-153.008,0-277.039,124.037-277.039,277.041c0,108.057,61.879,201.629,152.116,247.308
		l32.182-55.749C136.42,472.767,87.401,399.957,87.401,315.676C87.401,198.137,182.691,102.853,300.225,102.853z"/>
	<rect x="23.186" y="23.768" fill="none" width="554.078" height="554.08"/>
</g>
</svg>
