<?xml version="1.0" encoding="utf-8"?>
<!-- Generator: Adobe Illustrator 16.0.0, SVG Export Plug-In . SVG Version: 6.00 Build 0)  -->
<!DOCTYPE svg PUBLIC "-//W3C//DTD SVG 1.1//EN" "http://www.w3.org/Graphics/SVG/1.1/DTD/svg11.dtd">
<svg version="1.1" id="图层_1" xmlns="http://www.w3.org/2000/svg" xmlns:xlink="http://www.w3.org/1999/xlink" x="0px" y="0px"
	 width="600px" height="600px" viewBox="0 0 600 600" enable-background="new 0 0 600 600" xml:space="preserve">
<rect x="239.369" y="294.821" transform="matrix(0.8293 0.5588 -0.5588 0.8293 222.7425 -127.6094)" fill="#CECECE" width="161.778" height="11.972"/>
<polygon fill="#CECECE" points="284.846,291.839 202.198,163.293 212.265,156.817 294.912,285.36 "/>
<path fill="#CECECE" d="M452.248,410.18l-11.259,4.082l16.946,46.78c3.689-1.864,7.537-3.062,11.425-3.632L452.248,410.18z"/>
<path fill="#CECECE" d="M507.492,476.277c-7.729-14.018-23.16-21.069-38.132-18.867c-3.888,0.569-7.735,1.768-11.425,3.632
	c-0.385,0.2-0.781,0.366-1.168,0.574c-18.055,9.963-24.627,32.665-14.674,50.711c9.961,18.067,32.668,24.632,50.723,14.682
	C510.871,517.064,517.443,494.345,507.492,476.277z"/>
<path fill="#CECECE" d="M281.33,465.293c-3.577-15.562-19.083-25.262-34.645-21.675c-8.934,2.05-15.828,8.107-19.486,15.784
	c-1.721,3.6-2.709,7.537-2.812,11.64c-0.06,2.374,0.075,4.776,0.631,7.196c3.58,15.557,19.072,25.261,34.635,21.689
	C275.205,496.357,284.922,480.852,281.33,465.293z"/>
<path fill="#CECECE" d="M504.61,318.476l-34.127,18.471l5.694,10.533l33.635-18.199c-0.759-1.079-1.469-2.21-2.115-3.392
	C506.369,323.486,505.357,321.004,504.61,318.476z"/>
<path fill="#CECECE" d="M573.072,289.84c-9.949-18.047-32.658-24.612-50.714-14.662c-15.649,8.628-22.655,26.842-17.748,43.298
	c0.747,2.528,1.759,5.011,3.087,7.413c0.646,1.182,1.356,2.312,2.115,3.392c10.773,15.46,31.711,20.594,48.596,11.28
	c12.396-6.828,19.363-19.668,19.306-32.896v-0.105C577.666,301.552,576.171,295.468,573.072,289.84z"/>
<path fill="#CECECE" d="M93.432,521.05c-2.906-2.694-6.415-4.763-10.317-6.082c-1.606-0.553-3.254-1.017-4.998-1.28
	c-15.772-2.374-30.505,8.482-32.879,24.252c-2.386,15.782,8.476,30.504,24.251,32.896c15.774,2.381,30.508-8.481,32.882-24.27
	C103.86,536.742,100.206,527.338,93.432,521.05z"/>
<path fill="#CECECE" d="M78.117,513.688c-15.772-2.374-30.505,8.482-32.879,24.252c-2.386,15.782,8.476,30.504,24.251,32.896
	c15.774,2.381,30.508-8.481,32.882-24.27c1.489-9.823-2.165-19.228-8.939-25.516c-2.906-2.694-6.415-4.763-10.317-6.082
	C81.508,514.415,79.86,513.951,78.117,513.688z"/>
<path opacity="0.6" fill="#CECECE" d="M170.372,445.806l56.828,13.597c-1.721,3.6-2.709,7.537-2.812,11.64l-56.792-13.588
	c-1.838,4.431-4.514,8.595-8.092,12.219c-10.885,11.028-26.83,14.008-40.476,8.934L93.432,521.05
	c6.774,6.288,10.428,15.692,8.939,25.516c-2.374,15.788-17.108,26.65-32.882,24.27c-15.776-2.392-26.638-17.113-24.251-32.896
	c2.374-15.77,17.107-26.626,32.879-24.252c1.744,0.264,3.392,0.728,4.998,1.28l25.477-42.242c-1.055-0.836-2.066-1.728-3.042-2.69
	c-12.406-12.236-14.633-30.876-6.659-45.446l-24.393-24.063c0.58-0.503,1.213-0.906,1.76-1.46c2.403-2.435,4.175-5.229,5.538-8.163
	l24.498,24.171c13.263-12.447,33.241-13.645,47.806-3.508L286.542,259.98l9.013,7.884L162.739,419.872
	C168.504,427.472,171.063,436.729,170.372,445.806z"/>
<path fill="#CECECE" d="M286.542,259.98L154.1,411.565c1.759,1.229,3.461,2.585,5.039,4.14c1.334,1.313,2.502,2.722,3.601,4.167
	l132.815-152.008L286.542,259.98z"/>
<path fill="#CECECE" d="M224.387,471.042c0.103-4.103,1.092-8.04,2.812-11.64l-56.828-13.597c-0.304,3.977-1.234,7.905-2.777,11.648
	L224.387,471.042z"/>
<path fill="#CECECE" d="M83.115,514.968c3.902,1.319,7.412,3.388,10.317,6.082l25.594-42.443c-3.696-1.373-7.226-3.319-10.435-5.881
	L83.115,514.968z"/>
<path fill="#CECECE" d="M106.294,415.073l-24.498-24.171c-1.363,2.935-3.135,5.729-5.538,8.163c-0.547,0.554-1.181,0.957-1.76,1.46
	l24.393,24.063c1.667-3.039,3.743-5.916,6.297-8.506C105.545,415.722,105.93,415.409,106.294,415.073z"/>
<path fill="#CECECE" d="M75.966,358.201c-11.353-11.199-29.641-11.074-40.843,0.284c-11.214,11.358-11.096,29.653,0.269,40.864
	c10.799,10.646,27.811,10.939,39.105,1.176c0.58-0.503,1.213-0.906,1.76-1.46c2.403-2.435,4.175-5.229,5.538-8.163
	C86.783,380.152,84.896,367.007,75.966,358.201z"/>
<path fill="#CECECE" d="M233.138,91.322l3.123,11.552l101.473-27.462c-1.83-3.555-2.96-7.428-3.317-11.5L233.138,91.322z"/>
<path fill="#CECECE" d="M372.222,30.852c-16.793-3.799-33.489,6.722-37.29,23.516c-0.73,3.227-0.783,6.417-0.516,9.545
	c0.357,4.072,1.487,7.945,3.317,11.5c4.067,7.911,11.358,14.105,20.724,16.217c16.768,3.81,33.455-6.722,37.266-23.511
	C399.523,51.336,388.988,34.658,372.222,30.852z"/>
<path fill="#C23531" d="M217.066,342.786c-29.923-29.523-30.249-77.714-0.736-107.634c29.523-29.922,77.712-30.249,107.633-0.726
	c29.924,29.515,30.252,77.7,0.725,107.622C295.175,371.972,246.989,372.305,217.066,342.786z"/>
<path fill="#293C54" d="M156.719,163.217c-30.181-12.097-44.832-46.387-32.73-76.576c12.104-30.193,46.387-44.867,76.58-32.768
	c30.189,12.115,44.854,46.411,32.749,76.604C221.219,160.657,186.921,175.333,156.719,163.217z"/>
<path fill="#293C54" d="M162.739,419.872c-1.099-1.445-2.267-2.854-3.601-4.167c-1.578-1.555-3.28-2.911-5.039-4.14
	c-14.564-10.137-34.542-8.939-47.806,3.508c-0.364,0.336-0.749,0.648-1.106,1.01c-2.554,2.59-4.63,5.467-6.297,8.506
	c-7.974,14.57-5.747,33.21,6.659,45.446c0.976,0.963,1.987,1.854,3.042,2.69c3.209,2.562,6.739,4.508,10.435,5.881
	c13.646,5.074,29.591,2.095,40.476-8.934c3.578-3.624,6.253-7.788,8.092-12.219c1.543-3.743,2.473-7.672,2.777-11.648
	C171.063,436.729,168.504,427.472,162.739,419.872z"/>
<path fill="#293C54" d="M387.34,389.601c-13.09-23.744-4.461-53.6,19.277-66.693c23.76-13.086,53.622-4.448,66.712,19.308
	c13.091,23.74,4.45,53.605-19.292,66.689C430.29,421.99,400.426,413.358,387.34,389.601z"/>
</svg>
