<?xml version="1.0" encoding="utf-8"?>
<!-- Generator: Adobe Illustrator 16.0.4, SVG Export Plug-In . SVG Version: 6.00 Build 0)  -->
<!DOCTYPE svg PUBLIC "-//W3C//DTD SVG 1.1//EN" "http://www.w3.org/Graphics/SVG/1.1/DTD/svg11.dtd">
<svg version="1.1" id="图层_1" xmlns="http://www.w3.org/2000/svg" xmlns:xlink="http://www.w3.org/1999/xlink" x="0px" y="0px"
	 width="600px" height="600px" viewBox="0 0 600 600" enable-background="new 0 0 600 600" xml:space="preserve">
<path fill="#CDCECD" d="M596.762,409.176c-18.291,123.622-90.432,62.955-165.688,64.391c-56.816,1.082-136.723,20.07-186.868,39.789
	c-67.564,26.582-145.549,54.075-192.684,18.899C4.369,497.056-26.358,421.852,31.736,345.818
	c58.092-76.005,82.109-70.346,80.252-125.901c-1.84-55.562-14.764-134.736,66.691-158.399
	c95.654-27.794,134.709,122.839,203.461,115.016C585.939,153.367,610.838,313.935,596.762,409.176z"/>
<path fill="#C13531" d="M185.56,118.166c-40.578,7.465-12.549,94.996-31.76,158.246c-23.473,77.214-94.615,108.272-93.865,157.956
	c1.373,89.891,134.211,68.15,161.834,23.896c30.465-48.717,4.24-100.027,14.426-144.896c10.189-44.862,52.025-75.1,44.91-116.199
	C273.572,153.524,236.789,108.772,185.56,118.166z"/>
<path fill="#293C54" d="M430.916,230.427c122.926-9.415,175.064,215.912,56.416,186.993c-94-22.879-154.617,50.549-183.902,6.617
	c-23.526-35.242-22.129-72.92-16.991-96.802C297.304,276.395,341.848,237.211,430.916,230.427z"/>
</svg>
