<?xml version="1.0" encoding="UTF-8"?>
<svg xmlns="http://www.w3.org/2000/svg" xmlns:xlink="http://www.w3.org/1999/xlink" width="128pt" height="128pt" viewBox="0 0 128 128" version="1.1">
<g id="surface1">
<path style=" stroke:none;fill-rule:nonzero;fill:rgb(75.686275%,20.784314%,19.215686%);fill-opacity:0.454902;" d="M 0 106.667969 L 21.332031 106.667969 L 21.332031 128 L 0 128 Z M 0 106.667969 Z M 0 106.667969 "/>
<path style=" stroke:none;fill-rule:nonzero;fill:rgb(75.686275%,20.784314%,19.215686%);fill-opacity:0.294118;" d="M 0 85.332031 L 21.332031 85.332031 L 21.332031 106.664062 L 0 106.664062 Z M 0 85.332031 Z M 0 85.332031 "/>
<path style=" stroke:none;fill-rule:nonzero;fill:rgb(75.686275%,20.784314%,19.215686%);fill-opacity:0.211765;" d="M 0 64 L 21.332031 64 L 21.332031 85.332031 L 0 85.332031 Z M 0 64 Z M 0 64 "/>
<path style=" stroke:none;fill-rule:nonzero;fill:rgb(75.686275%,20.784314%,19.215686%);fill-opacity:0.576471;" d="M 0 42.667969 L 21.332031 42.667969 L 21.332031 64 L 0 64 Z M 0 42.667969 Z M 0 42.667969 "/>
<path style=" stroke:none;fill-rule:nonzero;fill:rgb(75.686275%,20.784314%,19.215686%);fill-opacity:0.596078;" d="M 0 21.332031 L 21.332031 21.332031 L 21.332031 42.664062 L 0 42.664062 Z M 0 21.332031 Z M 0 21.332031 "/>
<path style=" stroke:none;fill-rule:nonzero;fill:rgb(75.686275%,20.784314%,19.215686%);fill-opacity:0.341176;" d="M 0 0 L 21.332031 0 L 21.332031 21.332031 L 0 21.332031 Z M 0 0 Z M 0 0 "/>
<path style=" stroke:none;fill-rule:nonzero;fill:rgb(75.686275%,20.784314%,19.215686%);fill-opacity:0.796078;" d="M 21.332031 106.667969 L 42.664062 106.667969 L 42.664062 128 L 21.332031 128 Z M 21.332031 106.667969 Z M 21.332031 106.667969 "/>
<path style=" stroke:none;fill-rule:nonzero;fill:rgb(75.686275%,20.784314%,19.215686%);fill-opacity:0.509804;" d="M 21.332031 85.332031 L 42.664062 85.332031 L 42.664062 106.664062 L 21.332031 106.664062 Z M 21.332031 85.332031 Z M 21.332031 85.332031 "/>
<path style=" stroke:none;fill-rule:nonzero;fill:rgb(75.686275%,20.784314%,19.215686%);fill-opacity:0.227451;" d="M 21.332031 64 L 42.664062 64 L 42.664062 85.332031 L 21.332031 85.332031 Z M 21.332031 64 Z M 21.332031 64 "/>
<path style=" stroke:none;fill-rule:nonzero;fill:rgb(75.686275%,20.784314%,19.215686%);fill-opacity:0.427451;" d="M 21.332031 42.667969 L 42.664062 42.667969 L 42.664062 64 L 21.332031 64 Z M 21.332031 42.667969 Z M 21.332031 42.667969 "/>
<path style=" stroke:none;fill-rule:nonzero;fill:rgb(75.686275%,20.784314%,19.215686%);fill-opacity:0.156863;" d="M 21.332031 21.332031 L 42.664062 21.332031 L 42.664062 42.664062 L 21.332031 42.664062 Z M 21.332031 21.332031 Z M 21.332031 21.332031 "/>
<path style=" stroke:none;fill-rule:nonzero;fill:rgb(75.686275%,20.784314%,19.215686%);fill-opacity:0.396078;" d="M 21.332031 0 L 42.664062 0 L 42.664062 21.332031 L 21.332031 21.332031 Z M 21.332031 0 Z M 21.332031 0 "/>
<path style=" stroke:none;fill-rule:nonzero;fill:rgb(75.686275%,20.784314%,19.215686%);fill-opacity:0.447059;" d="M 42.667969 106.667969 L 64 106.667969 L 64 128 L 42.667969 128 Z M 42.667969 106.667969 Z M 42.667969 106.667969 "/>
<path style=" stroke:none;fill-rule:nonzero;fill:rgb(75.686275%,20.784314%,19.215686%);fill-opacity:0.188235;" d="M 42.667969 85.332031 L 64 85.332031 L 64 106.664062 L 42.667969 106.664062 Z M 42.667969 85.332031 Z M 42.667969 85.332031 "/>
<path style=" stroke:none;fill-rule:nonzero;fill:rgb(75.686275%,20.784314%,19.215686%);fill-opacity:0.45098;" d="M 42.667969 64 L 64 64 L 64 85.332031 L 42.667969 85.332031 Z M 42.667969 64 Z M 42.667969 64 "/>
<path style=" stroke:none;fill-rule:nonzero;fill:rgb(75.686275%,20.784314%,19.215686%);fill-opacity:0.894118;" d="M 42.667969 42.667969 L 64 42.667969 L 64 64 L 42.667969 64 Z M 42.667969 42.667969 Z M 42.667969 42.667969 "/>
<path style=" stroke:none;fill-rule:nonzero;fill:rgb(75.686275%,20.784314%,19.215686%);fill-opacity:0.360784;" d="M 42.667969 21.332031 L 64 21.332031 L 64 42.664062 L 42.667969 42.664062 Z M 42.667969 21.332031 Z M 42.667969 21.332031 "/>
<path style=" stroke:none;fill-rule:nonzero;fill:rgb(75.686275%,20.784314%,19.215686%);fill-opacity:0.423529;" d="M 42.667969 0 L 64 0 L 64 21.332031 L 42.667969 21.332031 Z M 42.667969 0 Z M 42.667969 0 "/>
<path style=" stroke:none;fill-rule:nonzero;fill:rgb(75.686275%,20.784314%,19.215686%);fill-opacity:0.431373;" d="M 64 106.667969 L 85.332031 106.667969 L 85.332031 128 L 64 128 Z M 64 106.667969 Z M 64 106.667969 "/>
<path style=" stroke:none;fill-rule:nonzero;fill:rgb(75.686275%,20.784314%,19.215686%);fill-opacity:0.584314;" d="M 64 85.332031 L 85.332031 85.332031 L 85.332031 106.664062 L 64 106.664062 Z M 64 85.332031 Z M 64 85.332031 "/>
<path style=" stroke:none;fill-rule:nonzero;fill:rgb(75.686275%,20.784314%,19.215686%);fill-opacity:0.541176;" d="M 64 64 L 85.332031 64 L 85.332031 85.332031 L 64 85.332031 Z M 64 64 Z M 64 64 "/>
<path style=" stroke:none;fill-rule:nonzero;fill:rgb(75.686275%,20.784314%,19.215686%);fill-opacity:0.823529;" d="M 64 42.667969 L 85.332031 42.667969 L 85.332031 64 L 64 64 Z M 64 42.667969 Z M 64 42.667969 "/>
<path style=" stroke:none;fill-rule:nonzero;fill:rgb(75.686275%,20.784314%,19.215686%);fill-opacity:0.772549;" d="M 64 21.332031 L 85.332031 21.332031 L 85.332031 42.664062 L 64 42.664062 Z M 64 21.332031 Z M 64 21.332031 "/>
<path style=" stroke:none;fill-rule:nonzero;fill:rgb(75.686275%,20.784314%,19.215686%);fill-opacity:0.0862745;" d="M 64 0 L 85.332031 0 L 85.332031 21.332031 L 64 21.332031 Z M 64 0 Z M 64 0 "/>
<path style=" stroke:none;fill-rule:nonzero;fill:rgb(75.686275%,20.784314%,19.215686%);fill-opacity:0.25098;" d="M 85.332031 106.667969 L 106.664062 106.667969 L 106.664062 128 L 85.332031 128 Z M 85.332031 106.667969 Z M 85.332031 106.667969 "/>
<path style=" stroke:none;fill-rule:nonzero;fill:rgb(75.686275%,20.784314%,19.215686%);fill-opacity:0.737255;" d="M 85.332031 85.332031 L 106.664062 85.332031 L 106.664062 106.664062 L 85.332031 106.664062 Z M 85.332031 85.332031 Z M 85.332031 85.332031 "/>
<path style=" stroke:none;fill-rule:nonzero;fill:rgb(75.686275%,20.784314%,19.215686%);fill-opacity:0.00784314;" d="M 85.332031 64 L 106.664062 64 L 106.664062 85.332031 L 85.332031 85.332031 Z M 85.332031 64 Z M 85.332031 64 "/>
<path style=" stroke:none;fill-rule:nonzero;fill:rgb(75.686275%,20.784314%,19.215686%);fill-opacity:0.27451;" d="M 85.332031 42.667969 L 106.664062 42.667969 L 106.664062 64 L 85.332031 64 Z M 85.332031 42.667969 Z M 85.332031 42.667969 "/>
<path style=" stroke:none;fill-rule:nonzero;fill:rgb(75.686275%,20.784314%,19.215686%);fill-opacity:0.258824;" d="M 85.332031 21.332031 L 106.664062 21.332031 L 106.664062 42.664062 L 85.332031 42.664062 Z M 85.332031 21.332031 Z M 85.332031 21.332031 "/>
<path style=" stroke:none;fill-rule:nonzero;fill:rgb(75.686275%,20.784314%,19.215686%);fill-opacity:0.764706;" d="M 85.332031 0 L 106.664062 0 L 106.664062 21.332031 L 85.332031 21.332031 Z M 85.332031 0 Z M 85.332031 0 "/>
<path style=" stroke:none;fill-rule:nonzero;fill:rgb(75.686275%,20.784314%,19.215686%);fill-opacity:0.909804;" d="M 106.667969 106.667969 L 128 106.667969 L 128 128 L 106.667969 128 Z M 106.667969 106.667969 Z M 106.667969 106.667969 "/>
<path style=" stroke:none;fill-rule:nonzero;fill:rgb(75.686275%,20.784314%,19.215686%);fill-opacity:0.654902;" d="M 106.667969 85.332031 L 128 85.332031 L 128 106.664062 L 106.667969 106.664062 Z M 106.667969 85.332031 Z M 106.667969 85.332031 "/>
<path style=" stroke:none;fill-rule:nonzero;fill:rgb(75.686275%,20.784314%,19.215686%);fill-opacity:0.101961;" d="M 106.667969 64 L 128 64 L 128 85.332031 L 106.667969 85.332031 Z M 106.667969 64 Z M 106.667969 64 "/>
<path style=" stroke:none;fill-rule:nonzero;fill:rgb(75.686275%,20.784314%,19.215686%);fill-opacity:0.631373;" d="M 106.667969 42.667969 L 128 42.667969 L 128 64 L 106.667969 64 Z M 106.667969 42.667969 Z M 106.667969 42.667969 "/>
<path style=" stroke:none;fill-rule:nonzero;fill:rgb(75.686275%,20.784314%,19.215686%);fill-opacity:0.466667;" d="M 106.667969 21.332031 L 128 21.332031 L 128 42.664062 L 106.667969 42.664062 Z M 106.667969 21.332031 Z M 106.667969 21.332031 "/>
<path style=" stroke:none;fill-rule:nonzero;fill:rgb(75.686275%,20.784314%,19.215686%);fill-opacity:0.956863;" d="M 106.667969 0 L 128 0 L 128 21.332031 L 106.667969 21.332031 Z M 106.667969 0 Z M 106.667969 0 "/>
</g>
</svg>
