<?xml version="1.0" encoding="utf-8"?>
<!-- Generator: Adobe Illustrator 16.0.4, SVG Export Plug-In . SVG Version: 6.00 Build 0)  -->
<!DOCTYPE svg PUBLIC "-//W3C//DTD SVG 1.1//EN" "http://www.w3.org/Graphics/SVG/1.1/DTD/svg11.dtd">
<svg version="1.1" id="图层_1" xmlns="http://www.w3.org/2000/svg" xmlns:xlink="http://www.w3.org/1999/xlink" x="0px" y="0px"
	 width="600px" height="600px" viewBox="0 0 600 600" enable-background="new 0 0 600 600" xml:space="preserve">
<path fill="#C13531" d="M10.57,459.24c-2.211,0-4.466-0.686-6.386-2.122c-4.607-3.594-5.567-10.194-1.981-14.884l150.523-197.91
	l145.317,91.23l144.009-162.988l151.907,71.574c5.281,2.487,7.512,8.824,5.022,14.111c-2.451,5.311-8.758,7.592-14.064,5.066
	l-137.551-64.847L301.989,363l-144.085-90.434L19.032,455.073C16.899,457.808,13.737,459.24,10.57,459.24z"/>
<path fill="#293C54" d="M588.417,600H0V10.622C0,4.73,4.746,0,10.57,0c5.845,0,10.597,4.73,10.597,10.621v568.219h567.25
	c5.827,0,10.565,4.751,10.565,10.598C598.982,595.271,594.244,600,588.417,600z"/>
</svg>
