<?xml version="1.0" encoding="utf-8"?>
<!-- Generator: Adobe Illustrator 16.0.0, SVG Export Plug-In . SVG Version: 6.00 Build 0)  -->
<!DOCTYPE svg PUBLIC "-//W3C//DTD SVG 1.1//EN" "http://www.w3.org/Graphics/SVG/1.1/DTD/svg11.dtd">
<svg version="1.1" id="图层_1" xmlns="http://www.w3.org/2000/svg" xmlns:xlink="http://www.w3.org/1999/xlink" x="0px" y="0px"
	 width="600px" height="600px" viewBox="0 0 600 600" enable-background="new 0 0 600 600" xml:space="preserve">
<rect x="21.433" y="21.667" fill="none" width="557.638" height="557.641"/>
<g>
	<path fill="#CDCECD" d="M495.596,95.7l-0.955-3.008l-2.463-4.238l-2.049-1.095l-2.052,1.095l-1.23,2.46l-0.136,0.274h-0.273H486.3
		l-3.825,0.682c-0.41,0.275-0.821,0.414-1.096,0.822l-0.82,0.957l-2.051,1.641l-0.547,0.271l-1.777,0.275
		c-0.819-0.137-2.049-0.819-3.69-2.051l-0.138-0.137c-2.734-2.735-4.102-4.648-4.102-5.741v-3.557v-0.137v-0.134l0.412-0.687
		l-3.965-1.364l-0.137,1.364c0,0.411-0.41,0.957-1.096,1.368l-1.367,0.549l-0.545-0.138v-0.14l-2.051-0.408l0.411,1.505
		l-3.556-2.325h-0.137l-0.137-0.139l0,0c-0.547-1.504-0.821-3.005-0.821-4.645c0-1.369,0.138-2.189,0.685-2.735l0.82-1.505
		l-0.271-1.228l-3.558,0.542c-1.776,0.139-3.005,1.233-3.689,3.285v0.137l0,0l-2.051,3.144l2.051-0.138h0.137l0.137-0.137
		l0.14,0.274l1.637,0.685h0.275l0.271,0.137v0.41l0.273,2.869l0.82,2.734v0.139v0.135v0.138l-4.511,8.887
		c-0.818,1.229-1.229,4.51-1.502,9.431v0.408l-1.778,3.422l1.229,1.367v0.271c0.139,2.051,0,3.281-0.547,3.553l-0.409,0.137
		c-0.957,0.549-4.1,3.83-9.159,9.98l-0.411,0.412l-0.272-0.138l-0.41-0.274c-1.777-1.229-3.418-2.32-4.375-3.418
		c-0.819-0.545-2.871-0.955-6.287-0.955l-0.137,6.289l-0.139,0.136l-2.46,11.892c-0.548,1.506-0.685,4.241-0.685,8.342l0.957,1.229
		l0.822-1.64h0.137l0.137-0.271l3.146-1.642l8.747,1.364l0.958-1.092l1.229-2.189l0.271-0.135l0,0l0.139-0.137l3.418-0.684
		l4.51-0.273c1.369,0.273,3.01,2.053,5.059,4.787c5.469,2.732,8.477,5.191,9.16,7.38c0.41,1.093,0.41,1.912,0,2.872
		c-0.41,0.955-1.365,1.502-2.732,1.639h-0.139c-6.697-0.273-10.527-0.273-11.895,0.139l-3.28,2.184
		c-4.101,3.01-6.835,4.512-8.339,4.512l-2.734,0.414l-1.641,6.834c-0.409,2.052-1.094,3.418-2.324,4.373
		c-1.092,1.094-2.732,1.777-4.921,2.188c-2.597,0.409-4.784,1.366-6.835,2.597l-2.324,4.922l-0.139,0.137h-0.135h-0.137
		l-6.287,2.598h-0.412l-3.143-0.682c-2.462-0.41-4.377-1.097-5.607-1.916c-1.639-0.82-3.417-0.957-5.33-0.411
		c-1.641,2.327-2.461,5.196-2.324,8.339c0.137,1.641,0.547,2.734,0.956,3.008l0.958-0.135l1.094-0.684l0.274,4.375
		c0,1.502-0.548,2.596-1.642,3.418c-0.685,0.546-1.913,1.094-3.691,1.639l-1.094,0.273c-1.367,0.547-4.238,4.238-8.476,10.936v0.138
		h-0.136l-4.104,2.46c0.686,0,1.094,0.275,0.957,0.822s-0.545,0.684-1.641,0.82l-11.619-0.273
		c-12.987-0.41-23.104,3.143-30.348,10.525l-0.139,0.138l-0.271,0.138h-0.137l-4.785,0.547l-0.275,0.135h-0.273l-1.367-3.279
		l-4.922,1.229c-2.596,0.135-6.014-0.546-9.842-2.461c-3.554-1.502-6.697-3.554-9.844-6.014c-2.049-1.641-4.649-2.734-7.656-3.283
		l-4.374-0.409l-4.921,0.685c-3.555,0.545-7.109,0.545-10.391,0.273c-3.964-0.273-8.749-1.367-14.49-3.145l-0.411,0.82h0.138h0.136
		l0.137,0.135v0.138l0.135,1.367l1.232,2.599l2.869,3.555l0.137,0.41l-0.546,2.596v0.139h-0.136l-1.642,2.186l1.778,1.779
		c0.685,0.682,1.092,1.227,1.092,1.775l0.412,2.599l2.051,2.05v0.273l0.272,1.775v1.366l1.231,0.96l0.82-0.273l0.136-0.412
		c0.41-1.092,1.093-1.641,2.051-1.775l1.093-0.409l7.247-0.683l2.871-1.097l0.272-0.136l0.41-0.273l1.505,3.281h0.136l0,0
		c0.139,0.817,0,1.504-0.408,2.186l-3.967,5.608l0.273,0.955l1.778,1.778l1.777,1.094h0.139c0.82,1.094,1.501,1.774,2.322,2.048
		c0.956,0.276,1.915,1.095,2.734,2.188l0.136,0.41l1.368,0.545l0.41,0.138h0.138l0.41,1.505l0,0l0.137,1.504l0.546,2.189
		l3.416,0.545h0.274l0.136,0.139v0.135l0.136,0.274l0.959,1.913l2.734,0.955l1.914-0.955l-0.274-1.095l-1.775-1.64l0.272-0.271
		v-0.277l1.503-2.871h3.281l0.137,0.139l4.648,1.641l2.598-0.41l2.051-1.914c2.324-2.873,3.826-4.1,4.784-3.415l1.095-0.138
		c1.23,0,1.912,0.138,2.324,0.271c0.136,0.276,0.273,0.55,0.273,0.824c0,0.544,0.547,1.636,1.367,3.142v0.137v0.139l0.41,1.911
		v0.411l-0.545,2.188l0,0v0.136l-0.139,0.136l-2.324,2.736l-0.137,0.135l0,0l-4.921,2.188l-0.685,1.367l-0.684,3.965l0.412,1.916
		l1.229,2.05l0.546,0.409l1.641,1.096h5.742l4.785-0.683l0.684-0.687c0.684-0.818,1.366-1.095,1.777-1.095l3.278,0.548l0.274-0.548
		c-0.274-0.953-0.274-1.775,0.273-2.595l1.367-2.326v-4.371v-0.141l2.463-7.109l0.137-0.135v-0.137h0.135v-0.135l4.238-3.421
		l0.272-0.273l3.692,1.642l0,0c1.914,1.367,2.871,2.459,2.871,3.145l-0.275,3.006l-1.229,1.916l-0.957,2.734v3.006l0.957,1.369
		l1.229-0.139l0.275-0.137l2.05,0.137c1.095,0.547,1.778,1.506,2.325,2.873l1.229,0.408h0.139l0,0h0.137l4.645,2.188l2.055,0.686
		l2.869-0.409l1.23-1.642l1.641-6.699l0.137-3.693v-0.273l0.273-0.135l0.139-0.138l2.597-2.188l1.503-1.912l0.137-0.137l2.733-1.231
		l1.64-0.956l2.051-0.819l-1.092-4.101l4.647,0.548l0,0v0.136l0,0l2.46,0.955l0,0v-0.138l0.684-2.595v-0.41l0.412,0.135h0.271
		l2.188,0.547h1.094l2.051-2.324h0.136l0.138-0.137h0.137l2.735-0.545l2.322-2.189l1.229-1.775v-2.188
		c0-0.821,0.41-1.367,1.231-1.777l0,0h0.274h0.136l2.599,0.271l1.092-0.684l0.412-1.912l2.732-0.82h0.137h0.137l0,0l3.418,0.41
		l2.734-0.684l1.641-1.641l1.094-2.186l-2.051-2.191v-0.135l0,0l-0.409-1.643l0,0l-0.548-2.458v-0.137l1.23-2.188
		c0-0.682,0.408-1.641,1.504-2.734l1.504-3.006v-0.138h0.137l1.367-2.187l2.05-4.103l1.913,2.734l0.137,0.138v0.135l0.686,2.736
		v0.137l0.408,2.732l1.915,0.82h0.136l0,0l0,0l0.549,0.275l0.137-0.139l1.639-2.869l0.958-2.734l0.409,0.137l0.411,0.137
		l3.964,1.367l1.914-1.504l0.137-0.137h0.273l1.914-0.139l1.367-2.322v-2.869l0.957-4.379l0.272,0.141h0.411l3.007,0.682
		l1.366-2.459h0.138h0.273l2.735-0.273h0.41v0.135l0.273,0.139l1.367,1.912v0.136l0.137,0.138v0.273l0.271,2.734l1.367,1.23
		l1.913-1.777l0.411,0.547c0.684,0.684,0.956,1.366,0.956,2.187v2.46l-0.956,2.463l0.684,1.094l1.367,1.502l5.74,0.822l0.139,0.135
		l0,0l0.273,0.137l0,0l0.41,0.409l1.641-2.321h0.137l1.367-1.369l-0.549-2.051l-1.501-8.748l3.963,1.915h0.138h0.135l1.778,2.188
		l1.093,1.092l1.643-1.092l5.74-6.289l0,0h0.137l2.052-1.506l2.323-3.279l0.138-0.273l3.143,0.818h1.505
		c0-1.23,0.272-2.053,0.41-2.598l2.322-2.732l0.686-0.412l2.732,0.957l3.281-0.409l2.189-2.325l1.092-2.05l-0.683-1.097
		l-1.915,0.959l-0.135-0.135l-0.139-0.139l-2.461-2.184l-0.136-0.14l0.958-3.689l0.271-2.734l-0.684-2.323l-1.914-0.684v-0.139
		l-0.137-0.137l-0.137-0.136l-1.641-3.282l-0.271-0.409l-2.324,2.736l-2.325,1.501l-0.547,0.274l-0.136-0.136l-0.139-0.273
		l-2.459-2.325v-0.136l-1.776-3.83v-0.135l-0.819-2.734v-0.135l0,0v-4.105l-0.274-2.459l-1.915-0.682h-0.137v-0.138l-4.373-3.419
		l0.271-0.41l2.052-2.186v-0.139v-0.136h0.273l0,0l2.322-0.274h0.139c0.684,0,1.368,0.41,1.914,1.096l1.915,1.5l2.05-1.637
		l1.504-2.053v-1.775l-0.547-4.377l-0.41-1.775l-3.008-0.548v-1.777l-2.734-3.417l-0.137-0.138l-1.367-2.462l-0.272-0.271v-0.274
		l0,0l3.007-3.965v-0.137l0.137-0.138v-0.136h0.274l1.229-0.137l1.504-1.23l1.777-5.469h0.136v-0.135l2.188-2.461v-0.137h0.138
		h0.134l2.463-0.686v0.273l1.637,1.367l0.549,0.139l0.958-4.24l-0.958-3.006l-0.135-0.137v-0.275l0.408-3.416v-0.271l1.642-1.779
		l1.095-1.914l0.135-1.641c0-0.818-0.408-2.188-1.229-4.236l0,0l0,0v-3.283v-0.135l0.685-2.871c-0.549-1.23-0.958-2.188-0.958-2.872
		L495.596,95.7z"/>
	<path fill="#CDCECD" d="M302.43,262.21h-2.188l-0.684,1.503l1.23,1.231v0.136v0.137l0.547,1.777l0.136,0.137v0.409l-0.272,0.139
		l-3.006,1.503l-0.138,0.138l0,0h-0.136h-0.137c-2.325-0.276-3.554-0.958-3.965-1.917l-0.82-1.64l-4.102-0.818l-1.095-5.196
		c-0.819-0.137-1.504-0.549-1.913-1.095l-0.137-0.272c-0.684-0.955-1.23-1.505-2.049-1.638c-1.093-0.413-2.053-1.233-2.872-2.462
		l-1.64-0.957h-0.137l0,0l0,0l-2.188-2.189l0,0l-0.547-1.912v-0.139l4.375-6.014c0.137-0.41,0.273-0.685,0.137-0.82l-0.82-1.914
		l-2.325,0.957h-0.139v0.136h-0.135l-6.016,0.411l-2.323,0.546l-0.82,0.821l-0.412,0.822c-0.545,0.682-1.365,1.091-2.597,0.816l0,0
		l-0.135-0.135l-2.052-1.504l-0.137-3.419c-1.095-0.817-1.779-1.638-2.051-2.323l-0.547-3.008l-1.368-1.639l-1.501-1.231
		l-0.685-0.411l2.46-3.144l0.547-1.779l-2.735-3.415h-0.135v-0.136l-1.232-2.736v-0.136l0,0l-0.272-1.367l-1.779-1.367v-0.137l0,0
		l0,0l-1.913-2.053l-2.46-0.408l-2.736,0.82l-0.41,0.549l-0.409,3.824v4.24l-0.41,0.135l-2.598,0.957l0,0v0.137l0,0l-2.46,0.138
		c-1.23,0.685-2.598,1.366-4.101,1.912l-0.275,0.14l0,0h-0.136l-4.649-1.097l-1.914,2.052c-0.41,0.547-1.366,1.094-2.596,1.369
		l-2.872,2.321l-1.505,2.326v0.136l-0.136,0.137c-0.819,1.23-1.504,2.188-2.051,2.6l-1.638,2.051v0.135l-0.137,0.137l-0.956,0.682
		c-0.685,0.275-1.368,0.413-1.916,0.413l-3.418-0.274l-0.82,1.229l-1.229,2.188l0.547,2.186l-0.273,5.332l0.954,1.643v0.135
		l0.411,1.232h1.913l3.282,0.685l4.238,0.271l1.912-0.271h0.275h0.137l3.689,1.364l0,0h0.138l1.912,1.506l4.103,1.5h0.137
		l2.734,1.643l6.7,6.152l3.007,1.366l1.23-0.544l1.23-2.326l-0.684-3.691c0-1.094,0.821-1.777,2.461-2.46l0.272-0.14l8.341,4.924
		l0.955-0.272l1.916-1.095h0.272l1.093,0.136l1.641-1.366l0.274-0.135l0.411,0.271l4.919,3.418l0.138,0.137l3.146,2.6
		c0.819,0.544,1.912,1.501,2.87,2.867l1.504,1.643l1.23-0.139l1.367-2.594l2.87,2.049h0.138h0.136l0,0l2.324,2.867l6.151,4.649l0,0
		l1.779,2.054l5.334-1.506l0.271,3.964l2.325,2.325l0,0v0.137l1.912,2.872v0.136v0.137v0.137l2.051,9.431l2.052,3.831l-2.735,6.971
		v0.41l-2.323,0.549v2.051l-0.136,0.133l-2.326,3.828h-0.272l-3.282,0.277l-3.281,2.732c0.411,0.41,0.958,0.682,1.915,1.092
		c1.366,0.412,1.504,1.508,0.819,3.418v0.139l-2.323,2.324h-0.138l-0.136,0.273h-0.137h-0.136l-6.562-0.955l-0.138,2.32l0.684,4.924
		l5.467,2.324v0.273l0,0l2.051-0.686l0.138-0.135l0.274-0.137l0.137,0.271h0.136l1.504,0.82h2.324l0.819-0.135l-0.819-2.598l0,0l0,0
		l-0.547-2.736v-0.137v-0.271l0.136-0.139v-0.139l0.821-0.953l0.274-0.273l0,0l0.135-0.137l1.503-2.053l0.14-0.137l2.46-1.912h0.136
		v-0.139h0.138l0,0l3.007-0.41v0.822c0,0.955,0.137,1.639,0.274,2.051l0.546,1.23l0.819,1.775l2.734,1.506l7.521,0.682h0.273h0.408
		v0.412v0.273l-0.271,2.461l2.189,2.322l1.638,0.684l0.274,0.137v0.139l0.137,0.271v0.955v1.369l-0.683,2.732l0.954,0.686
		c1.096-0.137,2.051-0.137,3.008,0.547l3.146,1.502l1.912-1.502l2.051-2.188l0.137-0.957l0.137-0.273l0.273-0.137l0.273-0.273
		v-0.273l-0.684-2.871l-0.137-1.506l-0.136-0.133v-0.139l0.136-0.137v-0.135l1.094-1.777l0.139-0.139l0,0l2.186-1.506h0.137h4.512
		l0.684-0.27l-0.137-2.328l-0.685-2.047l-1.505-2.461l-0.135-0.137v-0.137v-3.416v-0.141l0,0l0.82-2.051l0,0l0.136-0.135l0,0
		l3.692-5.332l0.137-0.139h0.136l0.275-0.133h0.821l1.364,0.133l3.146,1.777l2.051,0.549l0.273-0.957l-0.412-0.273v-0.41
		c0-0.818,0.412-1.504,1.232-2.188l2.46-1.777l0.136-0.137l0,0v-0.137c1.369-0.408,2.188-0.682,2.734-0.682l2.188-0.275h0.274l0,0
		l1.366,0.275l0.957-3.42v-2.322c0-1.506,0-2.461,0.41-2.734l0.957-1.779l-1.23-1.639l-1.639-1.094l-3.419-0.957
		c-0.685,0-1.915-0.684-3.966-2.461l-2.049-0.959h-0.137l-0.137-0.137l-2.461-3.005h-2.326l-0.136-0.138h-0.138l-2.049-1.096
		l-1.23,1.643l-0.273,6.426l0.41,2.461h0.957l0.137,0.133l1.913,0.55v0.136v0.137l0.956,2.326h0.137v0.137l0,0v0.137l-0.547,4.236
		v0.273v0.137l-0.137,0.137c-0.683,0.41-1.227,0.682-1.912,1.094l-0.274,0.139l-0.136-0.139h-0.137l-0.957-0.273l-2.189,0.82h-0.136
		l0.136,0.41l0.139,0.139l0.409,3.688c0,0.549-0.272,0.822-0.82,0.959h-1.64c-0.821-0.137-1.23-0.41-1.641-0.818l-1.639-1.23
		l-0.137-0.139h-0.139v-0.139l-0.956-2.32c-0.272-0.273-0.958-0.684-2.324-1.096h-0.139h-0.136l-1.915-1.367h-0.272v-0.273l0,0
		L331,303.906l0.273-1.777h0.137v-0.137l0,0l0.82-0.959v-0.683l-0.82-2.461l-1.912-1.777v-0.273l-0.548-5.604l-1.367-1.365h-0.138
		l-0.135-0.139l0,0l-1.096-2.598l-4.92-0.546c-1.23-0.411-2.051-1.231-2.598-2.327h-2.189c-0.818-0.271-1.64-0.82-2.596-1.773
		l-0.273-0.275c-0.549-0.547-1.094-1.367-1.64-2.461l0,0l-0.138-0.137l-0.41-2.189l0,0v-0.135v-0.137l0,0l0.82-4.238v-0.135
		l0.818-1.775v-0.141v-0.133h0.14l5.192-2.19l2.052-2.46l0.411-2.052l-0.273-1.501c-0.82-1.779-1.367-2.874-1.367-3.557
		l-1.094,0.137l-1.916-0.137c-0.408,0.137-1.5,1.365-3.005,3.146l-2.325,2.188h-0.137l-0.137,0.135
		c-1.778,0.412-3.007,0.684-3.691,0.412L302.43,262.21z"/>
	<path fill="#CDCECD" d="M338.792,263.44l-2.459,6.835v4.512v0.138l-1.368,2.324l-0.272,1.641c0.272,0.955-0.138,1.775-1.095,2.322
		l-0.273,0.139h-0.138l-0.137-0.139l-3.416-0.41l-1.777,1.639l-5.193,0.82l0,0h-2.189l1.37,0.959l4.92,0.549h0.271h0.275
		l0.135,0.135v0.137l1.232,3.008l1.367,0.957c0.408,0.547,0.684,1.366,0.684,2.872l0.135,3.69l1.639,1.502h0.139v0.138h0.137
		l0.82,2.734v1.504l-0.957,1.367l-0.273,1.229l0.41,1.367l1.641,1.094c1.779,0.684,2.736,1.094,3.146,1.779l0.957,2.049
		c1.092,0.547,1.638,1.094,1.911,1.641l1.231,0.41h0.137l-0.547-3.008c-0.139-0.682-0.139-1.365,0.137-1.641
		c0.273-0.408,0.547-0.684,1.093-0.82l2.052-0.684l0,0l0.135-0.137h0.139l0.137,0.137l0.957,0.273l1.232-0.684v-0.27l0.407-3.42
		l-0.821-1.642l-1.093-0.546l-1.366-0.138h-0.273l-0.273-0.137l-0.547-3.555l0.136-6.97l0.274-0.272l2.05-2.873l3.009,1.641h1.776
		l1.368-8.887c-0.412-0.956-0.822-1.641-1.643-2.049l-0.82-0.137v0.137h-0.41l-2.188,0.408l-0.133-0.271l-0.139-0.137l-1.504-1.915
		v-0.14l-0.137-0.133v-3.418l0.547-1.914l0.547-0.82c0-0.549,0.137-1.096,0.686-1.777l0.547-0.686l0.135-2.324l-2.051-1.912
		l-2.735-1.367L338.792,263.44z"/>
	<path fill="#CDCECD" d="M245.42,214.225l0.137-0.137h0.137v-0.135l-4.375-12.443l-2.733-2.185v-0.274l-0.685-5.062l-5.741-0.815
		h-0.136h-0.275v-0.14l-0.136-0.272v-0.137c-0.683-1.916-2.461-3.963-5.193-6.152c-1.505-1.229-3.01-2.051-4.241-2.324
		c-0.956-0.545-1.914-0.956-2.596-1.504c-1.777-1.231-7.929-2.188-18.729-2.461h-0.411l0,0l-1.23-1.914
		c-0.548-1.229-0.959-2.323-1.094-3.553c0-1.505,1.779-6.428,5.605-14.492l-1.914-6.016l0,0l-2.051-9.566
		c-0.274-1.369-2.596-2.6-6.697-3.83c-0.821-0.275-1.643-0.549-2.463-1.094c-1.504-0.685-2.598-1.912-3.145-3.419
		c-0.82-1.776-2.187-3.278-4.1-4.101l-0.138-0.137l-0.136-0.136l-1.64-8.478l-6.563,0.686l-0.683,1.777
		c-0.821,2.869-1.64,4.237-2.597,4.237l-4.237,1.364c-2.601,0.959-4.24,2.055-5.058,3.285c-0.411,0.547-0.821,2.186-1.094,4.372
		c-0.411,2.462-0.82,4.237-1.368,5.332c-0.82,1.775-2.051,3.146-3.965,3.829c-3.554,1.367-9.569-0.957-17.909-6.836l-11.209,14.354
		l1.368,5.883h0.136l0.136,0.27l-0.272,0.135v0.139c-0.547,0.82-1.368,1.365-2.326,1.504c-1.092,0.275-2.187-0.139-3.417-0.959
		c-1.092-0.818-4.238-1.5-9.296-1.775l-2.324-0.135l0,0l-3.417-0.274l-3.693,0.685l1.641,2.32c1.367,1.779,1.912,2.873,1.778,3.557
		l-1.504,8.887l0.684,4.783h0.136v0.135l-0.136,0.141l0,0l-2.735,8.887c-0.138,0.818-0.411,1.228-0.684,1.092h-0.273v-0.139
		l-0.412-0.818c-0.547-1.092-0.819-1.502-1.23-1.367c-0.273,0.135-0.682,0.685-0.819,1.912c-0.547,2.465-2.05,4.512-4.374,6.7
		l-2.462,1.916l-1.23,0.683l0,0h-0.137l-8.885,0.136l-3.418,3.28h-0.137h-0.273h-0.137l-9.434-1.366
		c-1.501,1.642-3.005,2.187-4.509,1.913c-1.369-0.41-3.693,0.137-6.972,1.367l-3.829,4.514l-0.137,0.271l-6.014,0.136v-5.057h-3.83
		l-0.684,2.188l-2.869,0.683h-0.274l0,0l-0.137-0.137h-0.137c-1.777-1.094-3.965-1.914-6.152-2.186
		c-1.229-0.138-2.734,0.683-4.922,2.597c-2.323,1.911-3.964,3.69-4.785,5.332c0.411,0.274,0.684,0.819,0.684,1.64
		c0.275,0.957,0.411,1.777,0.411,2.871c-0.135,1.094-0.546,1.776-1.095,2.322c-0.683,0.411-1.093,1.643-1.503,3.83l2.187,1.502
		l3.008-3.142l3.828,4.237v0.271l0.821,7.519v0.137h-0.138l-2.188,10.393h-0.548c-3.143,0-5.193,0.137-6.014,0.682
		c0.138,0.686,1.506,1.777,3.831,3.283l1.91-0.273h0.411l0.137,0.135l4.512,4.377c1.776,1.505,1.64,4.1-0.683,7.927l0.683,4.239
		l1.776,0.41h6.975l-3.557,3.282l2.053,1.093l0,0l2.731,1.502l7.384,3.143l0.137,0.139h0.273l0.684,11.21
		c0.137,2.188,1.776,3.829,5.059,4.921l0.547-0.27h0.136h0.138l7.655,1.09h0.545v-0.135l0.139-0.275
		c0.82-1.502,1.367-2.595,1.367-2.867v-0.275c-0.138-1.229,0.409-2.324,1.503-3.145c1.094-0.821,1.777-1.642,2.187-2.599
		l0.138-0.136c0.41-1.092,1.776-1.365,4.101-0.685h0.135l0,0l2.6,1.505l8.611,1.641l5.332-0.408l3.83-1.643
		c0.682-0.955,1.229-1.365,1.639-1.639c0.686-0.137,1.639,0.137,2.734,1.092l0.546,0.272c0.547,0.409,0.957,1.231,1.504,2.736
		l2.735,2.05h2.049h0.136h0.273h0.137l2.873,1.232l5.331-0.412l3.007-0.957l7.793,0.685l3.419-0.958l3.963-1.64
		c0.819-0.548,1.778-0.959,3.146-1.368h7.518l2.734-0.959c1.092-0.682,2.051-1.09,2.87-1.09h4.375l2.048,1.503l5.881,1.229
		c0.82,0,1.639,0.685,3.007,1.914l2.461,1.641l0.272,0.273l5.606,0.139l0,0h0.138l2.597,1.365l3.417,0.685h0.138l2.871,0.407
		l0.82-1.641l-1.231-2.734l-0.546-2.732v-0.137h-0.138l0.41-0.409l1.917-2.596v-0.138l0,0h0.137v-0.139l1.912-1.365l0,0l-0.41-0.822
		l-0.819-2.734c0-0.408-0.411-0.684-1.231-1.232l0,0l-2.051-2.184l-2.599-2.188l-0.136-0.271l-0.272-0.141l0.136-0.133v-0.276
		l0.41-2.597v-1.913l-1.228-3.282l3.142-0.684l1.504-1.503h3.828l3.829-0.549h0.136l2.598,0.272l3.007-1.092l3.418-0.407
		l2.186-0.957h0.137l5.879-1.095l0.958-0.959l-0.274-1.092l-1.094-1.916v-0.135l-0.137-0.14v-0.136l0.275-2.049l0.136-0.139v-2.869
		l-0.546-2.461l0,0v-0.139l1.366-2.734c0.547-1.229,1.23-1.91,2.051-1.91l3.554,0.273c0.548,0,1.231-0.273,1.916-0.822l5.33-7.246
		v-0.135l0.137-0.139l2.871-2.324l0.275-0.273c1.091-0.272,1.776-0.682,2.187-0.955l0.682-0.686
		c0.956-1.229,1.778-1.775,2.324-1.775l4.649,0.955l3.964-1.912l0,0h0.136l0,0h0.136l2.326-0.273l1.913-0.82v-3.146l0.545-3.963
		v-0.137l0,0v-0.136l0.685-1.095V214.225z"/>
	<path fill="#CDCECD" d="M250.069,260.979l-1.23,0.957c0,0.547,0.274,1.777,0.684,3.553v0.139l0.137,0.136h-0.137l-1.503,3.419
		l-2.051,0.822l-0.411,0.135h-0.137l-3.554-1.642h-0.135v-0.136l-6.701-6.151l-2.598-1.507l-4.101-1.504v-0.137l0,0h-0.137l0,0
		l-1.914-1.362l-3.419-1.095l-1.912,0.138h-0.138l-4.373-0.276h-0.136l-3.147-0.684h-1.914l-1.503,1.093
		c-0.82,0.409-1.914,0.55-3.281,0.824l-2.871,0.544l-2.46,0.818l-0.136,0.137v0.137V259.2l-3.008,0.276l-3.146,1.228l0,0h-0.407
		l-2.598-0.271l-3.964,0.546h-3.282l-1.367,1.369h-0.136l-1.64,0.406l0.684,1.643v2.598l-0.412,2.325l2.325,1.912h0.138l0,0l0,0
		l1.912,2.188c1.231,0.955,1.778,1.637,1.778,2.459l0.682,2.051l0.957,2.053c-0.137,0-0.137,0.136-0.274,0.136l-2.596,1.912
		l-1.775,2.325l0.408,2.05l1.232,2.872l0.135,0.273l0,0v0.135l-0.272,1.094c-0.275,0.684-0.548,1.232-0.958,1.504
		c-0.821,0.686-2.188,0.686-4.375,0l-3.417-0.682h-0.137l0,0h-0.137l-2.462-1.231l-3.966-0.136l0.138,0.136l-0.409,6.836
		c-0.136,0.957-0.819,1.364-1.778,1.505c-0.409,0.135-0.685,0.682-0.546,1.775v0.138h-0.139l-0.272,1.775
		c0.957,0.82,1.64,1.506,1.916,2.053l0.683,3.279v1.232c-0.137,0.684-0.274,1.229-0.547,1.777l-0.958,2.732l-1.777,3.418v0.684
		l0.273,1.641l1.778,2.322c0.548,0.686,0.82,1.094,0.957,1.506l1.64,2.324l2.46,2.734c0.958,0.955,1.643,1.367,1.915,1.367
		l2.599-1.641c0.547-0.412,0.955-0.686,1.637-0.686c0.549,0,1.366,0.41,2.599,1.23l0,0h0.136v0.139l1.367,1.641l0.684,1.639
		l0.547,0.682l0.413,0.275l1.774,1.23l0.958,0.139c0.545,0.135,1.092,0.545,1.502,1.092c0.275,0.412,1.779,0.957,4.374,1.641h0.138
		l4.103,1.506h0.137h0.137l2.871,1.367l4.921,1.229l0.138,0.137l6.424,0.273l2.872-1.096h2.596v0.139l0.137,0.137l2.188,2.734l0,0
		v0.135l1.366,2.189l1.096,1.229l1.503,0.686l0.136,0.137l0,0l0.137,0.137l1.229,2.732v0.139h0.138v0.135l0.684,3.008l1.912,0.684
		h0.139h0.137l0,0l1.504,0.957l2.052-0.41l0.548-2.049v-0.137l0.135-0.137l2.322-2.324l2.599,0.682v0.273l1.231,2.734l2.599-0.953
		l0.271-2.602v-0.135v-0.139l0.137-0.137l1.778-0.955l-0.413-3.83v-0.271v-0.137l0,0l2.052-4.24l2.052-0.82l-0.819-3.826h2.05
		l-0.136-1.777l-1.094-3.691l0,0v-0.273l0.274-2.598v-0.41l0.274-0.137l1.365-1.775l0.272-0.273h0.412l3.692,0.684h0.136
		l3.008,0.818l2.597-0.818l1.503,3.008l0.137,0.137v2.186l0.411,2.051c0.272,0.82,0.82,1.367,1.368,1.504h0.272
		c1.231,0.275,1.916,0.82,2.051,1.643c0.136,0.684,0.684,1.639,1.641,2.732l1.23,1.777l0,0v0.137l0.821,1.504l1.229-0.135
		l2.325-2.055l1.503,3.145l3.008,0.959h0.138l0.135,0.137l1.505,2.732l0.683,0.412l0.136-2.598v-0.137v-0.41l6.016-0.137
		l0.136-0.547c0.137-0.273,0.137-0.82-0.136-1.23c-0.41-0.82-0.548-1.504-0.685-2.461c-0.135-1.094,0-1.914,0.275-2.188
		c0.41-0.547,0.683-0.547,1.367-0.41l2.461,0.822l0.273-1.781l-4.512-2.049h-0.274l-0.137-0.273v-0.135v-0.139l-0.684-5.467
		l0.136-3.418v-0.41v-0.273l7.52,0.957l1.913-1.779c0.412-0.686,0.274-1.227,0-1.365c-1.913-0.686-2.871-1.504-2.871-2.324
		c0-0.412,0.136-0.955,0.819-1.23l3.146-3.145l3.417-0.137l1.779-3.008v-2.873l2.596-0.543c0.684-2.053,1.096-3.146,1.367-3.557
		l1.094-2.324l-1.913-3.417v-0.139l0,0v-0.135l-1.231-4.646v-0.136l-0.82-4.788l-1.64-2.73l-2.46-2.464v-0.136v-0.137l-0.137-0.137
		l-0.135-2.596l-4.513,1.365l-0.136-0.138l-2.052-2.321l-6.151-4.65h-0.137l-2.324-3.006l-1.503-0.959l-0.957,1.506v0.273
		l-0.137,0.136h-0.137h-0.272l-1.915,0.135l-0.272,0.138h-0.139l-4.508-4.92c-0.959-0.412-1.916-1.369-3.284-2.736l-2.049-1.501
		l-0.138-0.139l-2.323-1.366l-1.368,1.096l-0.137,0.271l-0.136-0.136h-0.137l-1.23-0.273l-1.367,0.684l-0.137,0.137l-0.135,0.137
		h-0.138L258,265.627C255.401,264.124,252.803,262.62,250.069,260.979z"/>
	<path fill="#CDCECD" d="M258.136,328.104l-3.146-0.959l-3.28-0.408l-1.092,1.23l-0.273,2.322l0.137,0.137l0.956,3.555l0.137,2.736
		v0.818h-1.64l0.684,3.281l-2.598,0.957l-1.095,2.051l1.368,1.094l0.274,0.137l0,0l4.783,3.826l0.137,0.137h0.136v0.139v0.137
		l0.685,3.418l2.188,3.143c0.546,0.822,1.231,1.643,2.46,2.736h0.136l0.138,0.133v0.139l-0.138,0.273v3.008
		c0.411,0.82,0.549,2.598,0.549,5.195c1.23,1.779,1.778,3.006,1.778,3.828c0,0.545,0.408,1.641,1.092,3.145l0,0v0.137l0,0
		c0.273,1.914,0.137,3.553-0.273,4.922c-0.412,0.953,0.136,2.734,1.64,5.195l0.138,0.133l0.137,0.275l-0.137,0.275l-2.189,4.783
		c0.412,1.094,0.548,1.914,0.548,2.463l-0.548,4.51c-0.272,1.504-0.272,2.322,0.412,2.6l0.82,0.543
		c1.231,0.549,1.641,1.23,1.641,1.914l-0.137,2.326l0.683,0.271l0.138,0.137l0.41-0.408c0.411-0.412,0.82-0.959,0.957-1.643
		l0.272-0.408l0.138-0.275c0.547-0.271,0.82-0.684,1.229-1.23c0.137-0.818,0.137-1.641-0.135-2.596l-0.274-0.686l0.682-0.137
		c2.189-0.545,3.418-0.408,3.831,0.549l1.093,2.734v0.135v0.139l0.546,4.512l1.779,0.955h0.135h0.137l1.093,0.957l1.094-1.229
		l1.23-0.961h0.411c0.956,0.277,1.503,0.961,1.777,1.916l0.546,3.557l0.139,0.545l3.69,7.928l1.504,1.504l0.135,0.139v0.135
		l0.685,3.283l0,0l0.274,3.143l0.136,0.275c0.957-1.369,1.778-2.053,2.323-1.779c0.547,0.139,0.683,0.41,0.683,0.957v0.822v2.461
		v0.68c0.683,0.141,1.232,0,1.368-0.406l1.367-1.914l1.506-1.508c0.957-0.682,1.913-1.227,3.006-1.227h0.137l2.87,0.682l0.82-0.408
		l1.506-1.916l-0.275-3.008c-0.955-1.641-1.367-3.008-1.092-3.963l0.408-2.461v-0.275l0.137-0.27l0,0l2.598-1.506h0.139l0,0
		l1.91-1.23l2.189-3.145l0.273-2.322l-2.463-5.744l5.471,2.461v-2.322l0,0v-0.139l2.051-1.777l3.965-1.09h0.273l2.324,5.057v0.271
		l-0.273,1.914l0.273,1.777c0.274,0.82,0.821,1.232,1.23,1.232c0.545,0,1.092-0.412,1.641-1.096l0.135-0.271l0,0h0.137l3.282-1.094
		l0,0h0.137c1.778,0,2.597,0.41,3.007,1.229l0.273,3.691v0.135l0.684,0.139l1.367,0.412l2.052-0.141l3.417-0.953l2.051-1.779
		l0.137-1.504l-0.957-1.096l-3.553-1.229l0,0l-0.273-0.137l0,0v-0.137l-4.104-4.098l0.411-0.277l2.053-1.777l0.135-0.137l0,0
		l2.051-0.82l0,0h0.411l2.733,0.547h0.137l0.135,0.141v-1.096l-1.229-2.051l-1.914-0.957l-2.598-3.828l0,0l-0.138-0.139v-0.135
		l-1.229-4.51v-3.418l2.188-2.051h3.279l7.658,0.682l3.553-5.059v-0.271h0.271l2.873-1.504l1.502-3.008l0.137-0.139l3.418-2.871
		l1.641-3.006v-0.137h0.137v-0.135l0,0l1.368-1.369l1.64-2.732l0.547-4.242v-0.408l0.137-0.137l2.188-1.504l0.547-0.545
		l-3.283-0.547l-5.467,0.271l-0.135-0.135l-2.053-1.641h-0.273v-0.139l0,0l-1.092-1.641l-0.273,0.137l-0.139,0.275
		c-0.272,0.41-0.955,0.545-1.775,0.545l-0.82,0.41c-0.275,0.139-0.412,0.273-0.822,0.139c-0.271,0-0.408-0.408-0.684-1.094
		c-0.137-0.684-0.409-1.367-1.23-2.053l-0.137-0.137v-0.135h-0.135l-0.686-1.777h-0.546l-2.051,1.367l-0.136,0.137h-0.137
		l-4.786,0.957h-0.273l-0.272-0.137l-3.145-2.189l0,0l-0.137-0.135v-0.137h-0.137l-0.82-1.643l-2.324,2.461
		c-1.64,1.916-2.871,2.463-3.69,1.916l-3.146-1.641l-2.188-0.275l-0.273,0.137l-2.049-1.502l-0.135-0.137l-0.411-0.137l0.956-3.691
		v-1.23l-1.23-0.549h-0.137l-2.871-3.141l0.136-2.324l-7.106-0.684l-2.737-1.506c-0.682-0.412-1.229-1.232-1.641-2.596l-0.407-0.959
		l-0.547-2.049l-0.959,0.135l-2.188,1.777l-2.597,3.145l0.546,2.326l0.819,3.008v0.135h0.14l-0.14,0.137v0.139
		c-0.272,0.818-1.092,1.229-2.323,1.229h-2.732l-1.642-0.818l-2.05,0.818l-0.411,0.139l-0.274-0.139l-0.273,1.916l-0.135,0.273
		v0.408h-0.412l-3.418-1.094c0,1.094,0.138,1.914,0.685,2.871c0.41,0.957,0.548,1.641,0.137,2.461l-0.41,1.092
		c-0.412,0.41-1.641,0.547-3.418,0.41h-2.323l-0.139,3.83l-3.006-1.094h-0.137l-0.137-0.139l-1.506-2.869l-3.278-1.094l-0.821-1.777
		l-1.229,0.955h-0.139l-2.051,0.412h-0.545l-1.095-2.461l-1.092-1.504l-0.137-0.139c-1.094-1.365-1.639-2.596-1.915-3.277
		c0-0.141-0.272-0.41-0.956-0.549l-0.547-0.137c-0.958-0.408-1.64-1.232-2.051-2.461l-0.548-2.322v-1.916l-0.956-1.777l-1.639,0.549
		h-0.139h-0.135H258.136z"/>
	<path fill="#CDCECD" d="M73.854,283.399v0.137c-0.548,1.232-1.505,2.052-2.599,3.007c-0.82,0.409-1.094,1.095-1.094,1.915v0.412
		c0,0.682-0.41,1.773-1.503,3.414l-0.138,0.686c-0.273,0.41-0.82,0.683-1.775,0.683l-7.792-0.957v0.137l-0.546,1.779v0.136
		l-0.139,0.136l0,0c-2.05,2.872-3.418,4.921-3.554,6.29c-0.138,0.684,0.684,3.145,2.46,7.379l1.232,2.873
		c0.546,1.369,0.135,3.01-1.096,4.785l-2.462,2.461h-4.1l-0.82-4.512l-1.093,5.605l1.777,2.732c0.137,0.408,0.137,0.684,0,0.822
		l-0.274,0.271c-0.545,0.41-1.366,1.779-2.187,4.102c-0.821,2.051-0.411,4.102,1.229,6.289h3.282
		c1.092,0.273,2.735,2.051,5.06,5.195l0.136,0.275l0,0c0,0.955,0.41,1.639,1.095,2.186l7.244,6.699v0.135l3.282,4.1h1.913
		l2.053-3.689l0.272-0.271l0.137-0.139l5.059,1.232v0.135v0.273l0.683,3.418l6.013,6.973l2.052,0.82l0.137,0.137l0.956,0.547
		l0.138,0.137l4.51,6.699l3.694-0.547h0.273h0.136l0.273,0.273l0.137,0.273l3.143,6.562l3.83,2.322l3.143,0.82l1.502,4.24h2.324
		l0.137,0.133l0,0l4.921,2.736v0.137l0,0l0.137,0.137l3.556,4.375l5.193-0.957h0.274l1.914,0.82h0.138l3.28,2.873l5.879,0.41
		l3.552-0.551l0,0c4.787-0.818,7.795-0.406,8.888,0.82c0.684,1.094,0.273,2.188-1.367,3.559l-1.368,1.363
		c-0.408,0.684,0.137,1.777,1.915,3.418l0.135,0.275h-0.135l1.093,0.816l0.41-0.408c3.418-6.426,6.152-9.98,8.065-10.662
		c2.051-0.684,6.287,1.094,12.987,5.197l8.203,1.502l-0.137,0.271v0.273l-0.41,3.826l4.101,0.549l-0.136,5.195
		c1.23,2.324,2.187,3.691,2.734,4.102c0.82,0.549,4.922,0.549,12.167,0l4.238-2.188l4.101-5.74l4.784-0.139l2.324-0.684l9.025-5.195
		h0.135l0.137-0.137l0,0c5.195-0.547,8.203-0.682,9.022,0l5.88,4.922l1.775,0.684l0.275,0.273l2.324,0.957l0.137,0.139v-0.41v-0.137
		v-0.141v-0.133l0.956-4.102c-0.41-1.23-0.41-2.188,0-3.008c0.273-0.682,0.957-1.094,2.051-1.369
		c2.051-0.408,3.965,1.369,5.876,5.197l0.275,0.133h0.137l3.418-1.502c0.683-0.135,0.957-0.816,0.957-1.504l-0.683-2.459v-0.139
		c-0.274-1.094,0-2.049,1.094-2.461l1.231-0.957l3.004-3.277l2.052-4.514c-1.777-2.871-2.324-4.922-1.777-6.289l0.409-3.828
		c-0.819-1.637-1.229-2.734-1.229-3.693c0-0.406-0.546-1.637-1.639-3.279h-0.137v-0.41l-0.411-4.922
		c-0.136-0.816-0.272-1.914,0-3.279c-1.231-0.957-2.052-1.912-2.597-2.869l-2.052-2.736l-0.137-0.137v-0.271v-0.139l-0.683-3.418
		l-2.051-1.641v0.139l-3.965-3.145v0.271l0.546,4.24v0.135v0.41l-2.052,0.959l-0.272,2.596v0.41l-4.784,1.912l-1.641-3.824
		l-0.959-0.273l-1.501,1.502l-0.956,2.734l-3.419,0.959l-1.914-1.369l-2.734-0.82l-0.821-3.826l-1.092-2.326l-1.642-0.684
		l-0.138-0.271l-1.229-1.506l0,0l-1.229-2.186l-1.914-2.461h-1.642l-2.734,0.957l-0.138,0.137l-6.971-0.41l-5.332-1.094
		c-0.409-0.273-1.367-0.686-2.871-1.639l-4.099-1.367c-3.146-0.822-4.923-1.506-5.334-2.326l-0.684-0.408l-0.956-0.275l-2.46-1.367
		l-0.272-0.137c-0.411-0.545-0.819-0.955-1.094-1.502l-0.546-1.232l-1.094-1.639l-1.779-0.82l-0.682,0.408l-0.684,0.549l-0.409,0.27
		c-0.683,0.549-1.367,0.82-1.915,0.959c-1.094,0.273-2.186-0.273-3.418-1.639l-2.596-2.736c-0.957-1.229-1.639-2.188-1.915-2.871
		l-0.685-1.094c-0.956-0.957-1.641-1.91-2.051-2.732c-0.408-1.23-0.547-2.326-0.135-3.418v-0.137l0,0l1.778-3.008l0.955-3.145
		l0.413-2.049l-0.685-3.145l-2.051-1.779l0.409-2.597c0-1.916,0.684-2.871,2.051-3.141c0.411-0.14,0.683-0.414,0.548-0.96v-0.137
		l0.135-2.735v-0.135l0,0v-3.145h-0.272l-0.135-0.138l0,0l0,0l-0.548-0.274v-0.137h-0.137l-2.461-1.639l0,0h-0.137l-1.915-1.642
		l-6.424-1.229l0,0l-2.048-1.503h-3.831c-0.547,0-1.23,0.409-2.188,0.955h-0.135l-3.008,1.097h-7.52
		c-1.092,0.271-2.051,0.545-2.598,1.092c-0.821,0.684-2.324,1.23-4.375,1.914l-3.553,0.82v0.135h-0.274l-5.059-0.544l-0.408-0.138
		l0.137,0.138l-0.137-0.138l-1.777-0.135l-3.009,0.953l-6.014,0.548h-0.137l-0.136-0.136l-3.009-1.093h-2.459
		c-1.093-0.272-2.325-1.095-3.692-2.736l-0.138-0.272c-0.273-1.23-0.682-1.777-0.819-2.051l-0.685-0.409l-1.227-0.685l-1.096,1.094
		l-0.137,0.273l-4.375,1.777h-0.136h-0.275l-5.331,0.547c-0.82,0-2.323-0.41-4.374-0.955l-4.649-0.822h-0.135l0,0l-2.735-1.504
		H73.854z"/>
	<path fill="#CDCECD" d="M243.916,453.602l-0.546,1.777c0.82,0,1.915-0.549,3.009-1.369l0.134-0.137h0.273l5.469-0.684l3.555-1.777
		l1.368,1.914l0.274,0.137l-1.642,2.598l1.914,1.914v0.139v0.406l-1.368,5.744l3.555,2.598l6.427,0.273l-0.958,1.23
		c-4.103,5.059-6.016,8.066-5.88,9.021l2.462,0.549c3.28,0.273,5.194,1.23,5.877,2.459c0.819,1.643,1.642,3.281,2.325,5.193
		l3.691,2.053l2.324,0.412l4.784-4.104l2.461,3.691v0.137l0,0l0.138,0.137l0.818,3.418l2.051,0.408l0,0l3.147,1.094l0.819-0.271
		v-0.137l-0.547-3.555l-0.137-0.135l-1.777-8.068v-0.273l1.095-5.605l0.273,0.137h0.408l3.691,0.273l4.648-3.418l0.412,0.273
		c2.46,1.916,4.1,3.418,4.919,4.51c0.82-0.27,2.326-1.775,4.376-4.096l0.137-0.139l0.272-0.275l6.834,1.777l3.01-2.459l0.137-0.139
		l0.136-0.137h0.136l0.137,0.137l2.874,0.547l9.296-8.201l2.869,0.82l0,0l0.137,0.137l0.136,0.137l0.139,0.137l0.684,1.229
		l0.683-0.816h0.139v-0.141h0.135l2.735-1.502l2.049-1.914l-0.546-4.238l-0.41-0.547l-2.596,1.094l0,0
		c-0.82,0.273-1.506,0.545-2.463,0.545h-3.008c-0.957-0.137-1.503-0.406-1.912-0.955l-0.273-4.375
		c-0.957-0.545-1.368-0.82-1.779-0.82l-0.682,0.275l-0.958,0.545l-1.913,0.412h-0.549l-0.134-0.275l-1.095-1.914l-0.137-1.777l0,0
		l1.092-5.195l0,0h0.14v-0.135l1.228-2.598l-3.826-3.418l-0.138-0.137l-0.136-0.135v-3.967l0.136-0.137l2.189-6.287l-1.368-3.418
		l-1.23-0.273l-1.506,0.135l-1.504,2.324l-1.912-1.367l-1.913-1.092l-1.506-3.828l0,0l0,0l-0.544-2.732V417.1l-0.14-0.135
		l0.411-0.275l1.778-2.461l0.409-0.273l0,0h0.137l1.367-0.275l1.504-0.408l7.109-0.273h0.137l0.956,0.41l0.272,0.139l1.094,0.408
		l1.916-0.82l1.641-1.232l0.82-1.367l0.137-0.684l-0.137-3.006l-1.506-0.273l-2.871,0.959c-0.82,0.957-1.777,1.639-2.733,1.639
		s-1.776-0.822-2.597-2.324l0,0h-0.137v-0.137l-0.137-1.914v-0.273l0.137-1.777l-1.504-3.691l-2.872,0.822l-1.229,1.094l0.41,4.102
		l-4.513-2.051l1.095,2.461l0.137,0.133v0.277l-0.41,2.732v0.273h-0.138l-2.597,3.691l0,0l-4.238,2.598l-0.408,2.461
		c-0.138,0.408,0.408,1.502,1.092,2.869l0.139,0.137v0.139l0.271,3.553v0.41l-0.135,0.141l-1.643,2.182l0,0l-0.136,0.141h-0.136
		l-1.232,0.82h-0.136h-0.136h-0.139h-0.137l-3.141-0.686c-0.548,0-1.232,0.275-1.916,0.82l-1.368,1.504l-1.095,1.367
		c-0.683,1.229-1.639,1.502-3.143,1.229c-0.958-0.133-1.229-1.092-0.958-2.322v-0.957l-0.135-0.955l-0.547,0.682
		c-0.409,0.551-0.819,0.684-1.367,0.684c-0.547-0.133-0.957-0.684-1.231-1.641v-0.135l-0.272-3.146l-0.685-3.006l-1.367-1.367l0,0
		l-0.135-0.139l-2.869-6.561l-0.139-0.137l-0.821-1.914v-0.137h-0.136v-0.137l-0.547-3.553l-0.409-0.547l-0.546,0.408
		c-0.958,1.096-1.642,1.777-1.915,1.777c-0.412,0-1.094-0.547-2.188-1.367l-2.049-0.957l-0.273-0.137l-0.138-0.137v-0.137
		l-0.137-0.271l-0.135-2.736l0,0l-0.413-2.051l-1.092-2.734h-1.095c0.136,1.096,0,2.053-0.273,2.734
		c-0.273,0.82-0.82,1.367-1.641,2.051c-0.272,0.959-0.683,1.643-1.23,2.186c-0.82,0.822-1.504,0.822-2.324,0.277l-0.41-0.139
		c-0.821-0.271-0.957-1.23-0.821-3.008v-0.684l-1.775-1.092c-0.685-0.273-1.095-1.094-1.232-2.326l0.684-6.148l-0.273-0.959
		l-2.188,2.461l-1.502,1.094l-0.411,0.955c0.546,1.234,0.821,2.189,0.821,2.871c0,1.369-0.683,2.461-1.914,2.873l-2.462,0.955
		l-0.683,0.408l-0.137,0.961v3.826c0.137,1.23,0.273,1.912,0.684,1.912c0.819,0.412,1.778,0.412,2.598-0.27l0.821-0.412l2.599,6.016
		v0.137l0,0v0.273c-0.958,10.799-1.916,16.949-3.147,18.592c-0.545,0.547-0.956,0.816-1.776,0.957c-0.958,0-1.641-0.141-2.598-0.686
		c-3.552,7.109-5.879,10.801-6.971,11.348h0.135c-0.547,0.137-0.819,1.914-0.682,5.059l0.82,0.684l0.273,0.277l0.274,0.27
		L243.916,453.602z"/>
	<path fill="#CDCECD" d="M364.357,391.125l-0.957-0.408l-1.092,0.682l-0.684,1.229c-0.547,1.23-1.096,1.916-2.053,1.916
		c-0.547,0-1.23-0.41-1.641-0.822l-0.137-0.135l-0.137-0.135l0,0l-0.411-1.369v-0.137l-0.137-1.777l-0.819-0.137l-0.137,0.137
		l-0.41,1.367v1.916l-0.136,0.135l-0.138,0.135l-1.639,2.188l-0.274,0.275h-0.272l-3.282-0.275h-0.272v0.137l0,0v0.139l-1.094,1.504
		l0.408,0.955h0.139l-0.958,1.504h-3.007v-0.543l-0.273-0.277l-0.41-0.273l-0.547,0.959l-0.137,0.408h-2.051l-0.137-0.135
		l-1.231-0.959l-0.136-0.273v-0.137h-0.138v-0.273l-2.187-0.408l-1.64,0.682l-0.958,0.688l2.735,3.141l3.554,1.094l0.137,0.137l0,0
		l0.137,0.139l1.777,1.639l-0.684,2.736l0,0v0.408h-0.137l-2.324,1.914v0.135h-0.138l-3.827,1.096h-0.137l-2.188,0.273l0,0h-0.136
		l0,0h-0.137l-1.507-0.549l-0.817-0.137l-0.821,1.369h-0.135v0.137l-1.778,1.229h-0.137l0,0l-2.462,1.094h-0.137l-2.871-0.957
		l-6.289,0.275l-1.365,0.41l-0.137,0.137h-1.229l-1.505,2.053l0.271,2.32l1.369,3.145l1.502,0.822h0.139v0.137l0.547,0.41
		l0.957-1.369l0.136-0.137l0.137-0.137h0.138l2.051-0.271h0.273v0.137l2.051,0.547l2.049,4.648h-0.137v0.135l-0.819,2.6l0,0
		l-0.685,1.641v0.137l-0.953,2.32v2.871l1.638,1.643h0.138l2.187,1.914l0.274,0.137l0.135,0.135l-1.64,3.83l-0.411,1.775
		l0.547-0.273h0.138l1.366-0.547l2.463-1.365h0.136l2.733,0.41h0.138l0,0l4.101,1.639h4.512l1.229-1.639l0.138-0.137l0.137-0.137
		l2.323-1.094l2.188-1.914l0.275-0.139l0,0l1.638-0.545l1.777-1.369l2.051-2.73l2.87,1.094l0.41,0.135v0.137l0.137,0.137
		c0.41,1.094,0.82,1.641,1.231,1.779l1.776-0.277h0.41l0.956,0.277h0.138v0.135l2.326,0.818h0.682l0.136-0.545l0.274-0.82v-0.139
		l0.137-0.135l0.137-0.139v-0.133l0.82-0.551l0.135-0.133l1.504-1.234h0.139l0.137-0.135h0.271l1.367,0.135
		c0-0.816,0.413-1.639,1.233-2.459c0.957-0.684,1.639-1.092,2.05-0.957l0.819-0.545h0.137v-0.139l0.683-0.686v-0.135h0.139
		l0.135-0.139h0.137l2.188-0.545h1.23l0.549-0.408l0.408-0.822l0,0l0.686-1.369l-0.273-0.135c-0.82-0.955-1.369-2.053-1.641-3.555
		l-0.139-0.137l0,0h0.139v-0.135l0.546-3.008c0-0.957,0.274-1.643,0.958-2.326l-0.275-2.457c-0.136-0.275-0.408-0.549-1.092-0.686
		l-4.376,1.777l0.272-4.512c0.137-0.684,1.504-1.914,4.104-3.42l-1.232-4.783c-0.271-1.639,0.137-2.873,1.232-3.963l-0.275-0.82
		h-1.365l-0.411,0.137l-0.683,1.914c-0.549,0.682-1.096,1.094-1.642,1.094h-0.273l-1.368-0.961h-0.133h-0.139v-0.133v-0.275
		l-0.41-0.955l-0.137-1.369v-0.135l-0.136,0.273l-0.138,0.41h-2.461l-0.273-0.549l-0.41-1.504v-2.049l-1.504-2.598v-2.188
		L364.357,391.125z"/>
	<path fill="#CDCECD" d="M392.109,426.531l0.138,0.137l0.272,0.271l-1.777,2.736c-0.685,0.82-1.641,1.367-2.736,1.367h-0.272
		l-1.364-0.82L385,430.361l-2.734,2.049c-0.684,0.275-1.504-0.408-2.734-2.049l-0.818,1.777h-0.137l0,0l-0.137,0.133l0,0
		l-0.958,0.959h-1.776l-1.777,0.549l-2.188,1.639h-0.682l-0.821,0.547c-0.685,0.682-0.957,1.23-0.547,1.777l0.954,1.365l-3.826-0.41
		l-2.051,1.643l-0.273,0.684v0.135l-0.411,1.098l-0.137,0.133l-0.138,0.139h-1.912l-2.46-0.959l-0.821-0.135l-1.913,0.273
		c-0.821,0-1.778-0.957-2.598-2.459l-1.642-0.684l-1.365,2.049l0,0h-0.139l-1.914,1.643h-0.137v0.133h-0.271l-1.502,0.41
		l-2.189,1.916l0,0l-2.325,1.092l-1.64,2.188h-5.467l0,0l-4.24-1.637l-2.323-0.277l-2.051,1.094h-0.136l0,0l-1.369,0.547
		c-0.684,0.273-1.23,0.686-1.639,0.822l-0.274,0.684v1.639l0.683,1.096l3.281-1.096c0.686,0,1.641,0.41,2.873,1.096l0.273,0.135
		l0.137,0.137l0.135,4.648l0.684,0.137h2.871l1.779-0.41l0.271-0.271c1.096-0.549,2.053-0.957,3.281-1.094l0.547-0.139l0.273,0.41
		l0.82,1.643v0.135l0.41,4.512v0.41l-2.461,2.598h-0.137v0.135l-2.87,1.369l-0.958,1.094l0.41,0.82l5.879,0.545l0.137,0.139l0,0
		l0.137,0.137l2.324,1.365l5.193-0.135v0.682l0.275,2.6v0.271h0.136l-2.324,2.326c-0.272,3.008,0.274,4.785,1.503,5.193l4.377,2.324
		l3.416,2.324l2.871-1.367l0.273-0.137l0.273-0.137l0.137,0.137l4.375,3.281l0.684,0.275l1.094-1.369l0.273-0.273l0.137-0.139h0.137
		h0.137l2.598,0.412l0.547-4.512l3.281,5.881l2.732,0.135l0.41,0.135h0.274v0.277v1.775l1.095-0.273l4.51-6.016l1.914,2.873V486l0,0
		v-0.135v-0.139l1.367-2.732l1.23-2.051h3.416l0.548-3.828h0.411l0.273,0.135l2.599,0.412l0.271-1.367l-0.955-2.188v-0.275
		l0.547-1.502v-0.275l0.138-0.137h0.135v-0.137l7.11-3.824l-0.274-3.693l0,0v-0.137l1.366-2.734l0.273-0.547l0,0l2.189-5.059
		l0.136-0.137l0,0l1.775-1.777l1.095-2.047v-0.277l0,0l0.959-1.641l-0.822-2.051v-0.137h-0.137v-2.186h-1.095l-2.05,0.955
		c-0.957,0.684-2.324,0.41-4.1-0.684c-0.685-0.547-0.685-1.914-0.274-3.961l-1.093-0.139l-0.547,0.682
		c-1.23,1.369-2.189,2.189-2.461,2.189c-0.274,0-0.412,0-0.685-0.139c-0.136-0.408-0.41-1.094-0.41-2.184
		c0-1.232,0-2.051,0.41-2.328c0.272-0.408,0.547-0.547,0.819-0.273l2.599-4.783l0.685-1.777l0.41-2.051l-1.505-1.23
		c-0.409-0.41-0.546-1.365-0.272-2.736v-0.818c0-0.41-0.273-0.957-0.82-1.363h-0.274l-0.138,0.406
		c-0.408,1.094-1.366,1.639-2.87,1.23C393.887,426.258,393.066,426.258,392.109,426.531L392.109,426.531z"/>
	<path fill="#CDCECD" d="M383.906,363.1l-0.957-2.186l-1.503-2.191l-1.642-0.406h-0.137v-0.139h-0.137l-1.365-0.682l0,0h-0.272
		l-0.548,0.135l-1.779,0.271h-0.137l-0.271-0.135l-1.779-0.686v-0.137h-0.137v-0.135l0,0l-1.365-1.367l-1.504-1.502l-1.367-0.818
		l-1.504,1.363l-1.916,1.367l-0.545,4.102v0.139l0,0l-1.777,3.006v0.273h-0.138l-1.366,1.367l-1.64,3.143l0,0l-0.138,0.275
		c-1.23,0.959-2.324,1.914-3.418,2.734l-1.367,2.463c-0.273,0.68-1.365,1.5-3.416,2.322L350.413,378l0,0l-2.325,3.146h-0.136v0.133
		h-0.273l-10.937-0.682l-1.229,1.23v2.326l1.092,4.51l2.326,3.281l1.912,1.096v0.135h0.137l0,0c1.092,1.367,1.64,2.322,1.64,3.008
		v1.777l-0.683,0.682l0.41,0.273h0.547l0.82-1.637h0.273l2.187,0.682l0.138,0.682h1.093l0,0l-0.271-0.816l-0.14-0.277l1.503-2.324
		c0.275-0.682,0.957-0.955,1.915-0.682l2.462,0.135l1.367-1.777v-1.641l0.547-1.777v-0.135l0.135-0.139l0.137-0.135l0.959-0.549
		v-0.137h0.135l0.137,0.137l2.051,0.275v0.273l0.41,1.643v0.818l0.273,1.229l0.547,0.137l0.684-0.955v-0.137l1.096-1.504
		l0.137-0.273l1.502-0.684h0.136l0.138-0.139l1.777,0.549h0.137l0.273,0.137l0.957,1.914v1.912l1.367,2.598l0,0v0.273v1.916
		l0.41,0.818h0.41l0.547-0.684l0.138-0.273l1.639,0.957h0.14h0.133v0.277v0.135l0.549,2.322l0.682,0.41l0.137-0.273l0.684-1.777
		v-0.135l0.137-0.273h0.136h0.14l0.956-0.551h0.137v-0.135h1.231l-0.273-0.684v-0.273l-0.684-6.424l-2.6-4.238l-4.92-5.742
		l-0.138-0.137l-0.272-3.689l-1.641-2.873v-0.135l-0.138-0.139l0,0l0.138-0.273l0.82-3.553h0.273h0.273l8.611-0.547l4.648-2.461l0,0
		l0.137-0.139c1.642-0.545,2.734-1.229,3.008-1.914C383.633,365.424,383.906,364.465,383.906,363.1z"/>
	<path fill="#CDCECD" d="M353.969,279.983l-0.82-0.139l-1.367,8.341l2.323,2.734l2.187,0.957l0,0h0.136l0.138,0.136l2.872,2.324
		l3.964,0.957h0.137l2.049,1.367h0.139l0,0v0.271l1.504,2.188l0.273,0.272l-0.138,0.273l-1.368,2.189
		c-0.271,0.273-0.271,0.957-0.271,2.051h0.136v2.596l-0.136,0.137l0,0l-1.23,4.104l-0.137,0.682h-0.274l-0.409-0.139l-1.777-0.408
		l-2.324,0.137l-2.051,0.686l-2.324,1.912l-0.545,0.547l3.006,1.502l-0.271,0.549c-0.14,0.684-0.822,1.367-1.916,1.777l-1.913,0.137
		l-3.145-1.23l0,0l0,0l-2.871-1.641h-1.229l-3.418,4.922l-0.685,1.639v2.873l1.368,2.324v0.135l0,0l0,0l0.82,2.188v0.275
		l0.137,3.143v0.41l0.135,0.273l-2.187,0.41h-4.1l-1.915,1.232l-0.82,1.363l0.137,0.137l0.82,4.102h0.137v1.645l0.957,1.912
		l2.871,1.914l4.238-0.957l2.049-1.367l0.277-0.139h1.91l1.094,2.598c0.685,0.686,1.23,1.369,1.505,2.188l0.958-0.135h0.273h0.273
		l0.137-0.275l1.912-1.502l1.777,3.145l1.914,1.229h2.736l2.049-0.271h0.409l4.923,0.682h0.137v0.137l2.049,1.232l0,0l0,0v0.137
		l1.777,1.365v0.137l1.23,1.369l1.367,0.545l2.188-0.273v-2.867l-1.092-1.916h-0.137v-0.139l-0.82-3.553l1.913-1.914l0.136-0.139
		h0.14l1.638-0.271h1.779l0.546-0.684l-1.095-1.504l-3.965-2.598l-0.955-1.506l-0.137-0.137l-0.139-0.135l0.139-0.271l1.092-2.051
		l0.274,0.27l2.733,0.686l7.246-0.271l0.137,0.135h0.137l2.051,0.684l1.367-1.232l-0.685-4.234l-2.597-1.645
		c-2.186-1.227-2.871-4.236-2.461-9.158l-2.187-1.094l-0.274-0.135h-0.273v-0.275V319.9l-0.409-3.555l3.007-13.945
		c-1.23-4.099-1.914-6.833-1.914-8.201l-0.273-4.103l0.273-4.51v-0.276l0.273-0.271l0,0l2.734-2.051v-2.188
		c0-0.546-0.273-1.365-0.957-2.458l-1.777-1.919h-0.273v-0.408l-0.273-3.279V272.6l-0.137-0.137l0.274-0.139v-0.135l3.556-4.511
		v-1.916l-1.094-2.05v-0.139l-0.14-0.27l1.776-2.188v-0.139h0.139l1.914-1.503l-0.273-1.775h-0.958l-1.502-0.274l-0.819,3.277
		L385,260.569l-3.554-1.369l-2.188-0.408l0.82,3.419l-3.007,0.957l-4.376,2.321l-1.365,1.777l0,0v0.137h-0.139l-2.322,2.052
		l-0.409,3.282v0.272l-1.231,4.651h0.136l-0.546,2.184v0.139l0,0l-0.139,0.136l-1.502,2.052h-0.137v0.133l-0.137,0.137h-0.137
		l-3.279,0.411l0,0v0.138l-0.137-0.138l0,0l-4.925-1.64l-0.136-0.134L353.969,279.983z"/>
	<path fill="#CDCECD" d="M417.811,243.208l0.548-0.687l-0.959-2.185l-0.956-1.092l-1.094,1.775v0.135l0,0l0,0l-1.777,2.053l0,0
		l-0.137,0.136h-0.273l-3.281,0.957h-0.273l-3.145-0.546l-1.777,0.546l-0.411,1.505l0,0l-0.136,0.274l-1.502,0.956l-0.273,0.137
		h-0.273l-2.735-0.272l-0.136,0.272v2.734l-0.137,0.135l-1.505,1.914l0,0v0.137h-0.138l-2.598,2.598h-0.137l-0.136,0.135
		l-2.733,0.548l-1.778,1.913l0.411,2.326v0.547l-0.411,0.137l-2.052,1.915l-1.094,1.364l0.821,1.779v0.135v0.139v2.596l0,0v0.139
		l-1.502,2.188v0.137l-2.051,2.323l0.272,2.734l1.778,1.64v0.138l0,0c0.819,1.368,1.229,2.462,1.229,3.419v3.006h-0.137
		l-0.137,0.137l-2.734,2.051l-0.272,4.102l0.272,4.102c0,1.367,0.547,3.965,1.916,7.792v0.135v0.273l-3.009,13.947l0.272,2.732
		l2.051,0.957l3.281-3.281l0,0h0.137l10.527-4.1l2.734-2.463l0.273-0.273l0.135,0.137h0.273l6.016,0.549
		c0.82,0,2.596-0.686,5.195-1.777v-2.873l0.137-0.137h0.135l1.643-1.502l-0.41-1.779v-0.137V302.4v-0.271l0.135-0.137
		c0.549-0.547,0.549-1.096,0.139-1.505c-0.41-0.82-0.273-1.916,0.41-3.141l0.685-0.96l0,0l-0.138-1.912l-2.051-2.462
		c-0.959-0.686-1.096-1.642-0.547-2.598c0.273-0.82,0.684-1.639,1.367-2.322l0.548-2.324l0,0l0,0l1.503-3.281l0.411-1.504
		l2.185-4.104l-1.5-2.598l-4.24-2.596h-0.273v-0.273l0,0l-0.82-2.189v-0.135v-0.275l0.408-3.689l0,0v-0.136l0.959-2.734
		c-0.136-0.958,0-1.642,0.41-2.19c0.273-0.271,0.684-0.547,1.094-0.547l2.597-0.408l0.685-1.502l0.682-4.514l-0.547-1.64
		l-2.32-0.546h-0.14l0,0l-2.733-1.367l-0.139-0.139v-0.273l-0.135-0.137l-0.137-3.279v-0.273v-0.408L417.811,243.208z"/>
	<path fill="#CDCECD" d="M425.057,388.801l0.136-0.137h-0.272v-0.275l-1.094-2.049l-0.137-0.137v-0.273l0.273-3.281
		c0-0.41-0.411-0.82-1.231-1.369h-0.821l-1.366,1.641h-0.138l0,0l-3.416,1.645l-0.547-2.326v-0.273l0.273-1.094l-0.273-1.369
		l-0.41-0.133l-0.546,1.092h-0.138v0.137l-4.239,3.691l-0.138,0.275h-0.135h-0.273h-0.271l-1.232-0.549l-0.135-0.135l-1.369-1.232
		l-2.187-0.82l0,0l-0.136-0.135l-1.367-0.957l-4.513-0.959l0,0h-0.136l-3.01-1.502v0.135l-2.322-1.09l-3.008-0.275l-1.094,0.137
		l0.957,5.057h-0.411l-3.007,0.273h-1.641h-0.135l0,0l-1.643-1.092l-2.734,1.229l-2.459,3.281l-2.188,5.879l0.684,6.426l0.957,3.688
		c0.135,0.414,0.135,0.549,0,0.686l-0.412,0.137c-0.683,0.408-0.957,1.369-0.82,2.736l1.367,5.604l-0.407,0.273
		c-2.464,1.367-3.694,2.461-3.831,3.006l-0.271,1.916l2.324-0.957l0.135-0.137h0.137c1.643,0,2.598,0.545,2.734,1.914l0.41,3.008
		l-0.137,0.408l-0.273,0.275c-0.408,0.41-0.682,0.818-0.682,1.367l-0.41,3.143c0.137,1.094,0.547,1.916,1.092,2.326l2.871,3.416
		l2.598-2.051l2.05-0.273h0.14l0.133,0.273l1.369,0.41c0.41,0,0.82-0.133,1.23-0.549l1.23-1.777l-0.273-1.09
		c0.273-0.412,0.683-0.686,1.23-0.959h3.283c0.544,0.273,0.954,0.139,0.954-0.133c0.41-0.959,0.819-1.371,1.229-1.643
		c0.411,0,1.095,0.135,1.506,0.547c0.957,0.82,1.64,1.502,1.64,2.459l-0.272,2.461l0.546,0.408c0.82,0.686,1.368,1.369,1.368,1.916
		l-0.548,2.461c-0.409,1.367-0.82,2.324-1.366,2.598v-0.137l-2.053,4.375l0.686,0.273l3.281,0.137l0.684,0.273l-0.273,0.545
		c-0.41,1.369-0.547,2.324-0.41,3.01c1.092,0.682,1.775,1.096,2.186,0.682l1.915-0.82l0.956-0.408h1.778l1.776-1.912v-2.326
		c-0.137-0.82,0-1.367,0.273-1.775c0.547-0.412,1.639-0.412,3.281,0.547l3.28,2.049c1.095,0.82,1.915,1.094,2.46,1.094v-0.139
		c0.274-0.545,0-1.641-0.682-3.004l-1.778-2.736v-0.273h0.14l0.135-0.275c1.777-2.457,3.689-3.277,5.878-2.457l5.059,2.322
		l2.05-1.365h0.137v-0.139v-0.137l-0.273-0.273l0.137-0.137l0.137-0.271c1.642-2.734,2.187-4.785,1.642-5.883
		c-0.412-0.953-1.095-1.365-1.642-1.365h-0.409l-0.274-1.365h0.274c0.956-0.41,1.504-0.822,1.639-1.369l-0.41-0.682l-2.186-2.051
		l0,0v-0.139l-1.095-3.004c-0.41-2.326-0.684-4.377-0.41-6.289v-1.369l-1.364,1.229l-1.233,1.367l-0.408-5.738l0,0v-0.273h0.137
		c3.007-4.375,5.057-6.975,5.74-7.656l-1.366-4.102c-0.411-2.051-0.685-3.281-0.685-3.828l-2.458-1.096L425.057,388.801z"/>
	<path fill="#CDCECD" d="M377.481,338.082l-0.136,0.547l0.684,0.822l3.553,2.459l0,0v0.137h0.137l2.188,2.461l-0.273,0.271
		l-1.367,1.641l-0.135,0.139l-0.139,0.271h-2.324l-1.367,0.139l-0.955,0.957l0.408,1.23v0.137l0.14,1.367l1.228,1.775v0.135v3.828
		l1.094,0.412l1.916,0.547h0.135l0,0l0.137,0.139l0.137,0.135l1.777,2.463v0.137l0,0l0.959,2.457v0.141l0,0v1.637
		c-0.14,0.959-0.412,1.779-0.686,2.326c-0.684,0.957-1.914,1.777-3.828,2.598l-4.646,2.732h-0.137l-8.477,0.549l-0.547,2.049
		l1.505,2.736v0.135v0.137l0.409,3.553l4.646,5.471h0.14l0,0v0.137l1.912,3.145l0.139-0.408v-0.141l1.504-4.234l0,0l0.137-0.139l0,0
		l2.732-3.555l0.137-0.135l3.418-1.643h0.273l2.189,1.369l2.869-0.275l-0.959-4.783l0.547-0.139l2.599-0.271l2.735,0.135h0.274
		v0.137l5.468,2.461l4.646,0.959h0.139l0,0h0.136l1.505,1.092l2.187,0.818v0.141l0,0l0,0l0,0l1.367,1.229l0.82,0.271l1.504-1.365
		v-0.135l2.324-1.777l1.231-2.322l2.187,1.227v0.135v0.139l0.548,1.777v0.41l-0.275,1.096l0.138,0.271l1.367-0.682l1.912-1.916
		h1.779v0.137h0.135l1.232,0.822c0.818,0.818,1.094,1.502,0.818,2.184l-0.136,3.01l0.821,1.504l0.274,0.135
		c3.276-3.553,5.466-5.33,6.835-5.33h3.688l0.822-1.777l2.871-1.365h0.137l3.553-0.275l3.693-1.916v-0.135h2.324l-0.412-1.092
		l0.139-0.273l0.546-0.549l-5.059-10.799v-0.273l-0.138-0.135l2.188-3.01l-0.683-0.684l-3.692-0.682h-0.411l0,0V359l-2.323-2.461
		l0.138-0.549l-0.138,0.135l-0.137,0.139l-2.052-1.367c-0.955,1.229-1.912,2.049-3.006,2.326c-0.955,0.408-2.461-0.684-4.512-3.146
		l-1.096-1.365c-0.134-0.275-1.092,0-2.596,0.545c-2.323,0.82-3.826,0.957-4.511,0.547c-0.684-0.68-0.957-2.049-0.684-3.824
		c0.136-1.508,0-2.326-0.273-2.738l-17.772-0.957c-1.639-0.682-3.007-1.365-3.689-2.049l-2.735-0.684
		c-1.095-0.408-3.143-2.188-5.878-5.605l-1.777,1.506l-2.736-0.822l-7.381,0.135l0,0l0,0L377.481,338.082z"/>
	<path fill="#CDCECD" d="M466.754,457.428c1.228-0.137,1.912-0.684,2.183-1.367v-0.137l0.138-0.41h0.547l2.463-0.135v-1.777
		c-0.685,0-1.367-0.275-2.052-0.82l-4.101-3.689v-0.141l-1.777-5.193l-2.463-2.461c-3.006-0.139-5.33-0.139-6.971,0l-0.547,0.137
		l0.137,1.639v0.273v0.412h-0.411l-2.185,0.957l-0.412-0.275c-1.776-1.775-2.871-2.459-3.555-2.051
		c-4.783,2.326-7.519,3.418-8.337,2.871c-0.55,0.139-1.233,0.684-2.188,1.641l-0.412,0.549l-0.545-0.549
		c-1.367-1.227-2.049-2.322-2.049-3.143c0-0.549,0.955-1.639,2.594-3.418c1.916-2.188,2.873-3.416,2.873-3.693l-0.41-0.682
		c-0.547-0.273-1.641,0.273-3.008,1.365c-1.367,0.959-2.188,1.367-2.733,1.234c-0.272,0-0.549-0.412-0.684-1.092l-0.138-0.277
		l-1.23-2.191l-2.598,1.643l-0.272,0.277l-0.138-0.277h-0.137c-1.912-1.092-3.69-1.775-5.467-2.459
		c-1.23-0.408-2.463,0.135-3.691,1.641l1.229,2.049c0.82,2.051,1.232,3.42,0.82,4.379c-0.137,0.408-0.547,0.816-1.093,0.816
		c-0.819,0.273-2.05,0-3.554-1.227c-1.23-0.822-2.188-1.506-3.008-1.918l-1.641-0.68v0.133l0,0l0.137,0.273v3.01l-2.188,2.459v2.326
		l0.957,2.459l0.135,0.139l-1.5,2.322l-0.959,2.189v0.135l-2.051,2.051l-3.418,7.793l0.137,4.236l-0.137,0.139l-7.381,4.238
		l-0.411,0.82l0.956,2.188v0.137v0.137l-0.683,2.869l-3.007-0.41l-0.684,3.691h-3.83l-0.818,1.367l0,0l-1.092,2.322l-0.684,8.615
		l0.819,1.777l0.138,0.275v1.773l1.637,2.051l0.141,0.275v1.639l4.373-0.273l0.273-0.41v-0.135h0.137v-0.139l1.231-1.639
		l-2.735-2.461l-0.274-0.273l-1.503-1.232l-0.137-0.135l-0.137-0.137v-2.734h2.324l0.273-0.955l-0.957-2.736h5.331l9.434-4.514
		l1.229-2.051l0.275-0.682l1.914,0.822h0.137l0.137,0.408l0.82,0.957l0.955-0.137l-0.275-2.051h3.146l3.009,0.547l1.23-2.051
		l0.136-0.135v-0.139l0.271-0.135l3.281-0.959l0.548-4.785l3.419,3.006l1.365,0.277l0.685-0.822l-0.411-10.389v-0.273v-0.549
		l2.325,0.412h0.136c0,0,0.211,0.094,0.274,0.137c0.04,0.025,0.107,0.096,0.136,0.135c1.148,1.531,3.693,6.701,3.693,6.701
		l4.645-0.547l0.822-0.273l0.683-1.643l-1.366-1.09l-0.41-0.549l3.144-1.092l0.274-0.141l0.137-0.135l1.23,1.367l1.093-0.549v-2.051
		l0.684-0.135h2.324c1.64,0.135,2.872,0.955,3.827,2.186l0.275,0.549l0.955-3.283c0.549-0.82,1.641-0.955,3.283-0.271l0.271,0.135
		v0.137l0.137,0.139c0.137,0.135,0.409,0.273,0.547,0.273c0.684-0.273,3.146-1.914,7.109-5.059
		C463.881,459.07,464.977,457.975,466.754,457.428z"/>
	<path fill="#CDCECD" d="M467.299,377.32l-0.137-0.139l-3.008-2.596l-1.641,0.818c-1.095,2.461-2.597,3.965-4.512,4.646
		c-0.547,0.271-1.23,0.137-1.641-0.273c-0.545-0.682-0.273-2.188,0.686-4.512l-4.514,2.873l-0.136,0.271h-0.138h-3.963l-3.555,1.777
		v0.273l-3.829,0.137l-2.052,1.096l-0.955,1.914l-0.273,0.273h-4.51c-0.822,0-2.6,1.367-5.471,4.236
		c1.367,0.547,2.052,1.092,2.325,1.506l0.136,0.818v-0.137l2.052,7.656l0,0l0.136,0.408v0.547h-0.136l-0.273,0.137h-0.138
		l-5.466,7.52l0.273,1.916c0.817-0.686,1.502-0.824,2.049-0.549c0.683,0.273,0.954,1.367,0.683,3.006
		c-0.273,2.602,0.138,5.471,1.367,8.203l1.916,2.053c0.684,0.684,0.956,1.365,0.818,2.051l-0.956,1.367l1.229,1.639
		c0.684,1.369,0.138,3.691-1.503,6.973l1.777,3.008l0.274,0.686l1.092-0.686c1.777-1.641,3.281-2.051,4.511-1.641
		c0.821,0.273,1.231,0.957,1.368,1.641c0.138,0.957-0.958,2.598-3.419,5.059l-1.914,2.461l0.956,1.502
		c1.367-1.229,2.463-1.639,3.146-1.367c0.82,0,3.144-0.82,7.108-2.869c1.231-0.684,2.872,0,4.921,2.049l0.82-0.408l-0.137-1.641
		l-0.41-0.273c-0.273-0.41,0-0.822,0.41-1.23l-0.684-2.596c-0.138-0.41-0.138-0.959,0-1.369c0.411-0.41,0.956-0.684,1.502-0.957
		l1.232-1.094l-0.684-1.641v-0.137h0.137v-0.139c0.547-0.82,0.547-1.5,0.409-1.912c-0.546-0.957-0.135-1.639,0.958-2.6l1.506-1.363
		l-0.275-0.275l-0.41-0.41l1.779-0.818v-2.189c0-0.818,0.681-1.912,2.595-3.279l0.821-0.686l0,0l-2.051-2.324
		c-0.685-0.955-0.41-2.184,0.818-3.416v-0.273l4.24-3.553l0.137-0.957c-0.82-0.275-1.094-1.779-0.683-4.104
		c0.546-3.689,2.186-5.467,5.056-5.879l0,0h0.274l1.776,0.959h1.914l1.777-2.189l0,0l0,0l0.137-0.135l2.186-1.369l-0.271-1.914
		v-0.406l0.271-0.277l0.55-0.271l0.683-0.82l0.137-0.137l-1.369-2.324c-1.366-1.777-2.597-3.416-3.415-5.332
		c-0.685-1.229-0.548-2.596,0.411-4.102l-2.463-1.504L467.299,377.32z"/>
	<path fill="#CDCECD" d="M478.508,395.635l-0.272,0.139l-2.325,1.639l-2.05,2.326h-0.137v0.273h-3.007l0,0l-1.643-0.959
		c-2.049,0.551-3.143,1.916-3.555,4.512l-0.134,2.326l1.64-1.504l-1.094,4.51v0.137v0.137l-4.513,3.965
		c-0.684,0.82-0.956,1.504-0.684,1.914l0.821,0.957c0.957,0.82,1.503,1.504,1.367,2.049c0,0.412-0.138,0.82-0.41,1.094l-2.871,2.461
		c0.137,0.686,0.137,1.777,0,3.01v0.408l-0.137,0.139l-1.092,0.408c0,0.684-0.273,1.094-0.959,1.777l-1.504,1.502v0.139
		c0.273,0.684,0.273,1.504-0.273,2.734c0.684,1.367,0.684,2.324,0,2.732l-1.367,1.369l-0.273,0.137l-0.684,0.273v0.275l0.957,3.279
		h0.272c2.325-0.273,4.786-0.273,7.519,0h0.273v0.135l3.011,3.01v0.135h0.134l1.779,5.062l3.689,3.414l1.505,0.547l0.136-4.238
		l3.416,3.418l0.549-0.547l2.463-5.055l0.408-2.875l0.41,0.139h0.273l2.598,0.135l-0.137-2.049v-0.41v-0.273h0.41l3.418,0.135
		c1.777-1.777,2.598-3.279,2.598-4.51l-0.547-4.922l3.008,0.959l0.819-1.367l-1.367-1.365l-0.411-0.551l2.736-2.732l0.135,0.271
		h0.273l1.642,0.959v-0.412l-1.096-2.461l0.413-0.408l0.683-0.412l-0.273-0.957l-1.368-2.598l0.273-0.137l0.272-0.271l3.692-2.051
		l0.14-1.504c-3.147-1.643-4.786-3.008-4.515-3.691c0.137-0.549,0.41-0.686,1.096-0.686l4.1,0.686l0.138-2.463v-0.27l2.052-2.051
		l0.546-1.506c-0.821-0.273-1.368-0.822-1.913-1.367l-0.137-0.271v-0.273l0.137-0.686l-0.137-0.275l-0.274-0.133l-0.138,0.133
		c-0.273,0.549-0.954,0.961-1.912,0.961c-1.506,0-2.735-0.686-3.693-1.643v-0.135h-0.135l-1.096-1.916l-0.272,0.275
		c-0.138,0.82-0.683,1.641-1.64,2.324c-1.777,0.818-3.419,1.094-5.059,0.408c-1.094-0.408-1.777-1.23-2.188-2.459l-0.41-2.734
		c-0.41-2.6-0.956-4.102-1.777-4.514c-0.82-0.545-1.643-0.68-2.324-0.545l0.137,2.322L478.508,395.635z"/>
	<path fill="#CDCECD" d="M500.107,356.539c-1.504,0.684-2.732,1.229-3.689,1.363c-0.822,0-2.19-0.271-4.103-0.957l-3.144-0.406
		c-0.957,0.406-2.051,1.777-3.556,4.1l2.052,4.375l-3.419,1.912h-0.136l-2.734-0.82c1.096,2.053,1.367,3.283,0.959,3.83
		l-0.273,1.092c-0.686,1.643-1.232,2.6-1.778,3.143l-4.785,4.24l1.229,0.686l-0.82,0.682c-1.094,0.959-1.368,2.051-0.82,2.871
		l3.281,5.059h0.137v0.135l1.504,2.734v0.141l0.137,0.135l-0.137,0.273v0.273v0.137l-0.272,0.273c0.685,0,1.231,0.273,1.914,0.686
		c1.093,0.682,1.913,2.596,2.321,5.467l0.549,2.734c0.273,0.682,0.546,1.094,1.23,1.365c1.093,0.547,2.461,0.41,3.69-0.408
		c0.685-0.408,1.093-0.822,0.958-1.232l-0.137-0.135v-0.273l2.324-1.643l0.27,0.273l1.781,3.01c0.683,0.545,1.367,0.818,2.461,0.818
		l0.684-0.135l0,0l-0.549-1.641l2.599,1.094h0.683h0.137l0.137,0.271l2.461,1.914l0.684-1.096l-0.137-4.645l0.137-0.139l0,0
		l1.642-2.051c0.136-0.271,0-0.82-0.683-1.502l-0.412-0.41l0.273-0.275l0.139-0.271l0.408-0.135l3.416-5.609l0.275,0.141
		l0.684,0.135l0.271,0.137v0.271l-0.271,2.191h0.271l3.83-3.418l-0.273-1.779h-0.683l-1.368,0.137l2.324-6.287l-2.051-0.273l0,0
		h-0.273v-0.275l-0.685-0.82c-0.409-0.818-0.409-1.504,0.138-2.188l3.281-0.135h2.051c0-0.686-0.411-1.914-1.639-3.967l-2.873-0.957
		l3.007-2.871v-0.682l-1.502,0.273h-0.549v-0.137l-0.135-0.137l-0.138-0.275c-0.41-1.365-1.229-2.461-2.463-2.869l-5.467,0.135
		l-2.323,2.734v0.139l-0.684-0.139l-8.616-2.734l8.343-2.186c0.546,0,1.911-1.367,4.238-4.104l-2.872-2.049L500.107,356.539z"/>
	<path fill="#CDCECD" d="M467.57,332.75h-0.135v-0.135c-1.504-5.197-2.871-8.068-3.828-8.477l-4.786-1.643
		c-2.733-0.816-4.647-1.367-5.468-1.91c-1.367-0.822-3.143-2.734-5.193-5.883h-0.822l0.138,0.137
		c0.272,1.096,1.368,3.012,3.69,5.746l0.137,0.135l0.139,0.273l-2.188,3.963c-0.821,1.504-1.64,2.188-2.46,1.914
		c-0.547-0.273-1.642-1.502-3.418-3.826l-2.324-0.682c0,0.682,0.41,2.049,1.366,4.234v0.139v0.135v0.139v0.135l-0.409,1.506
		l-2.463,1.092l0,0l-0.818,0.273c-0.41,0.41-0.41,1.094-0.275,1.914c0.275,2.051,0.139,3.281-0.273,3.828
		c-0.271,0.273-0.409,0.273-0.684,0.273h-0.135l0,0l-2.732-0.547c0.134,0.547,0.545,1.092,1.228,1.506
		c1.368,1.229,2.462,3.004,3.557,5.057l0.134,0.41l0,0l1.232-0.273c1.504-0.273,2.87,0,4.236,0.959l1.506,1.775l0.135,0.137v0.137
		h-0.135l-0.139,3.553c0.412,0.549,0.685,1.234,0.412,1.777c-0.273,0.686-0.822,1.094-1.779,1.232c-1.094,0-1.639,0.682-1.913,2.049
		l0,0l0,0v0.139l-1.093,2.322l1.64,1.639l3.555,0.688h0.273l0,0l1.777,1.912l-2.188,3.281l5.057,10.936l0.138,0.273l-0.818,0.957
		l0.273,0.82h0.134l9.298-5.877l-1.504,2.734c-1.229,2.051-1.914,3.828-2.188,5.055c1.641-0.682,3.008-1.912,3.828-4.096
		l0.136-0.275h0.138l2.598-1.367l0.137-0.273l3.69,3.279l4.103,0.139l0.137,0.137l1.914,1.23l5.055-4.375
		c0.413-0.41,0.822-1.23,1.369-2.598l0.549-1.094c0.135-0.547-0.549-1.914-1.918-4.238l-1.229-1.777l6.014,2.051l1.779-0.959
		l-1.779-3.826l-0.133-0.137l3.005-3.963l-1.23-1.916c-1.229-1.367-2.05-2.053-2.597-2.053l-0.273,0.141l-1.504,1.502l-0.271-0.137
		h-0.274l-2.461-0.82l-0.684-2.188c-0.958-0.137-1.913-0.682-2.735-1.637l-1.504-0.961c-1.229-0.545-1.913-1.23-1.913-1.912
		c-0.274-0.82,0-1.779,0.821-3.008c1.503-2.188,2.321-3.967,2.321-5.332v-1.779l0.959,0.137l3.144,0.141
		c0.274-0.277,0.684-1.641,1.23-4.102l-0.956-0.141c-2.188,1.506-3.829,2.465-5.059,2.873c-1.505,0.41-3.417-0.408-6.152-2.322
		v-0.137L467.57,332.75z"/>
	<path fill="#CDCECD" d="M452.67,241.155l-0.41-0.273c-0.682,0-1.367,0.685-2.049,2.189l-0.412-0.275l-0.133,0.137l0.133,0.139
		l-1.229,1.229l-0.549,0.272l-1.502,0.822l-0.139,0.956c0.139,1.505-0.272,2.599-0.956,3.009l-0.546,1.639
		c-0.137,0.409-0.275,1.504-0.137,3.008l0.818,4.102c0.273,0.546,0.959,1.229,2.326,1.775l3.144,0.82
		c0.818,0,1.912-0.408,3.144-1.228l-0.82-1.505v-0.271v-0.14l0.273-1.23v-0.137l1.506-2.732h2.596l0.686-0.137
		c-0.273-0.822-1.095-2.326-2.598-4.24l-0.959-1.367c-0.547-1.092-1.092-2.322-1.23-3.963
		C453.354,242.521,452.942,241.704,452.67,241.155z"/>
	<path fill="#CDCECD" d="M440.229,235.959l-0.272,0.412l-0.412-0.137l-1.776-0.275l-0.136,0.822v0.412h-0.41l-2.871,1.092
		l-0.135,0.41c-0.411,0.957,0,1.777,0.955,2.87l0.273,0.274l-0.273,0.41c-0.82,1.365-2.049,2.732-3.418,3.689
		c-0.545,0.411-0.684,0.822-0.684,1.232l0.956,1.229l1.506,0.549l1.229,0.135c1.64,0,2.733,0.139,3.146,0.822l1.367,0.956
		c0.956,0.409,1.777,0.685,2.46,0.685c0.548,0,1.231-0.412,1.778-1.506l1.092-1.229l0.821-2.598l-0.683-3.008l1.092,0.273
		l1.779,0.135l0.818-0.545l0.273-0.685l-1.367-3.964l0.41-1.366c0.412-0.821,0.957-1.097,1.505-1.231h0.137l-0.274-0.959
		l-3.281,0.139v-0.139l-3.004-2.047c-1.233-0.823-2.464-0.959-3.557-0.684l-0.412,0.271c-0.271,0.547,0,1.097,0.822,1.369
		C440.366,234.322,440.641,235.004,440.229,235.959z"/>
	<path fill="#CDCECD" d="M491.223,201.237l-1.641,2.188c-0.273,0.409-0.41,1.229-0.138,2.598v0.82h-3.28h-0.139l0,0l-2.323-0.682
		l-1.776,2.734l-0.272,0.272l-2.188,1.366l-1.913,2.053l0,0l-0.274,0.41l0,0l-3.417,3.963v0.137h-0.137l-2.599,1.367l-2.051-1.367
		v-0.137l0,0l0,0l-1.912-2.053l-1.23-0.682l0.956,5.605l0.82,3.008l-2.05,1.912l-2.872,4.239v1.777l-0.136,0.136h-0.137
		l-0.683,1.093l0.544,0.958h1.094l3.967,1.094h0.135h0.138v0.135h0.137l0.821,0.822l1.092,0.547l0,0h0.274v0.135
		c0.411,0.549,0.685,1.096,0.685,1.645l0.408,1.229l4.239,1.229l1.229-0.272l1.23-1.64l3.283-6.289h0.135v-0.14l1.504-2.049
		l0.137-0.137l2.598-1.229l1.779-0.138c0.683-1.094,1.229-1.642,1.912-1.642c0.41,0,1.094,0.274,2.188,0.821l0.271,0.136v0.14
		l2.324,3.553v0.139h0.139v0.271l0.272,2.596l-0.139,2.873l0,0l-0.683,2.463l0,0v0.271h-0.137l-1.777,2.188l-0.818,1.777
		l0.136,3.006h0.274l0.955-0.407l1.096-0.959l0.271-0.274l0.137-0.273l1.368,1.232v0.135v2.188h-0.138l-1.23,0.548l-0.408,0.548
		v1.229l-0.139,0.137l0,0l-0.819,1.503h-0.138l-0.272,0.139l-1.093,0.136l-1.096,0.274l-0.817,1.503l0.136,0.274l4.51-0.549
		l0.821-0.683l1.503-3.964l0,0l10.119-10.392h0.273l2.186-1.093l0.136-0.137v0.137h1.778l1.777-0.408l1.914-0.82l1.367-1.506
		l2.186-6.015l0,0v-0.138l8.477-8.886v-0.136l-0.545-4.785c-0.412-0.139-0.959-0.411-1.232-0.82l-0.273-0.271v0.135l-1.367,0.137
		c-0.682-0.271-1.094-0.546-1.641-1.229l-0.408-0.822v-0.137l-0.139-0.138v-7.38c-0.818-0.275-1.641-0.82-2.598-1.779l-1.777-1.914
		l-1.639-2.322c-0.273-0.547-0.273-1.367-0.137-2.596l0.137-0.688l-0.957-1.231l-0.138,1.095l-1.229,2.325h-0.41
		c-0.958,0-2.051-0.136-2.872-0.546c-0.819-0.272-1.229-0.955-1.229-1.779v-0.545h-0.684l-2.596,0.682l-1.916-1.912l-0.684-0.135
		l-0.685,0.682l0.821,1.365l0.274,0.41l-1.368,2.873h-0.137v0.137h-0.137l-2.458,2.732l-0.14,0.137h-0.273l-3.828,0.41
		L491.223,201.237z"/>
	<path fill="#CDCECD" d="M494.228,159.403l-0.546-2.87l-1.366,0.821h-0.138l-3.278,1.23l-0.14-0.271l-0.545-0.139v1.505
		l-0.138,0.137l-1.64,2.46H486.3v0.138h-0.136l-2.462,2.05h-0.272v0.273l-0.41-0.273c-1.641-0.684-2.733-1.506-3.008-2.188
		c-0.272-0.273-0.409-0.273-0.684-0.412l-1.776,0.273l-1.095,1.095l2.871,2.46l2.325,0.959l0.137,0.137h0.136l0.139,0.275v0.135
		l0.41,2.734h0.135v4.237l0.548,2.462l1.64,3.825l1.914,1.781l1.504-1.095l1.094-1.367v-0.139h0.136l1.915-2.324l1.64,1.506v0.135
		l0,0l0,0v0.137l1.642,3.147l2.051,0.816l1.094,3.282v0.137v0.138l-0.139,3.005v0.139h-0.134l-0.821,2.736l1.504,1.365l1.64-0.821
		l1.641-1.64l0.409,0.273l1.367,0.411l0,0l0,0l1.643,1.503l1.775-0.408c1.367-0.412,2.049,0,2.461,0.953v1.23l0.273,0.139
		l1.913,0.545l0.821-1.777v-0.682c0-0.548,0.136-1.092,0.546-1.23l1.095,0.139c1.504,0.684,2.188,1.637,2.188,2.73l-0.138,0.959
		v1.639l1.504,2.189l1.777,1.912c0.548,0.684,1.231,0.958,1.913,1.23h0.273c0.412,0.273,0.686,0.957,0.686,2.462v6.151
		c0.273,0.547,0.682,0.958,1.092,1.094h0.275c0.819-0.412,1.365-0.271,2.05,0.41l0.409,0.271c0.685,0.14,1.229,0.686,1.368,1.779
		l0.273,3.418l3.144-6.426c0.957-3.416,2.05-5.469,3.554-5.741c1.231-0.409,3.145,0.272,5.606,1.643l8.885,0.683l0.272-1.916
		l-4.1-3.965c-1.914-1.094-2.735-1.913-2.462-2.461l3.145,0.137c2.87,0.959,5.605-0.682,8.203-5.332l0,0h0.139l3.006-2.867
		l0.41-6.291v-0.686h0.41h0.273l2.324-0.544h0.412l0.272,0.136v0.138l4.782,5.059l1.368-0.548l0.272-0.822l-2.596-2.459
		l-0.411-0.273l-0.272-0.411l3.963-2.323l-0.271-5.739l-1.641,0.271l0,0H566l-2.186-1.093c-0.82-0.137-1.915-0.685-3.555-1.642
		c-0.822-0.408-1.367-0.818-1.367-1.367v0.14c0,0.544-0.139,0.819-0.411,0.957c-0.411,0.271-0.956,0.409-1.914,0.409h-0.137
		l-0.136-0.139h-0.137l-1.912-1.367l-1.643,1.367c-0.82,0.685-1.368,1.23-1.368,1.779l0.822,1.777
		c0.409,0.543,0.409,0.818,0.272,1.229c-0.272,0.409-0.957,0.82-1.914,0.955l-0.82,0.411c-0.957,0.274-1.778,0.138-2.322-0.546
		l-0.274-0.411l-3.556-3.689c-1.639-0.548-2.597-1.231-3.006-2.05c-0.274-0.408-0.412-0.822-0.274-1.094
		c-0.138-1.231-0.409-2.051-0.685-2.461l-0.684,0.41l-0.136,0.271c0,0.412,0.136,0.823,0.548,1.368l0.137,0.274l0.135,0.137
		l-0.135,0.271l-1.914,3.146l-3.145-0.684l-0.684-0.411l0,0v-0.411c0.271-0.544,0.271-1.227,0-1.912l-0.411-1.096l-2.597-1.913
		l-0.137-0.134c-0.271,0.408-0.545,0.408-0.819,0.543l-2.461-0.273c-0.822-0.136-1.368-0.27-1.64-0.818
		c-0.138-0.274-0.138-0.821,0.135-1.506l0.137-0.408l-1.094-1.912l-4.783,0.271c0.137,0.686,0,1.094-0.273,1.641
		c-0.139,0.408-0.685,0.547-1.094,0.547c-0.686,0.272-1.506,0-2.189-0.685v-0.136h-0.135c-1.094-1.23-1.505-2.188-1.505-3.008
		l-0.956-1.366l-1.367,0.955c-1.229,0.683-2.051,0.683-2.463,0.138l-0.545-0.138l-1.367,0.138l-3.689,1.229
		c-0.821,0.549-1.505,0.686-2.053,0.686h-0.41c-1.367,0-2.188-0.412-2.733-0.957l-2.188-1.779L494.228,159.403z"/>
	<path fill="#CDCECD" d="M579.264,133.705l-2.051-13.396l0.136-0.274h0.137c0.956-1.504,1.503-2.732,1.229-3.689l-0.545-0.822
		c-1.505-0.957-2.189-3.146-1.777-6.834h-1.233c-0.956-0.138-2.051,0.271-3.144,0.957c-1.094,0.82-1.777,1.777-1.912,2.461
		c-0.547,1.639-2.324,2.731-5.332,3.688l-0.684,4.239v0.136l-0.139,0.139l-1.5,2.735l-0.139,0.27h-0.137h-0.137l-13.535,2.463
		h-0.138h-0.408V125.5l-3.964-4.238l1.229-1.229l-1.505-2.049l-1.912-1.37l-0.139-0.136h-0.137v-0.135v-0.139l-0.683-3.689
		l-3.555,0.271l-0.271-0.271l-3.009-1.779l-10.801-1.912l-9.021-0.412l-0.272,0.275c-0.411,0-0.684-0.138-0.819-0.412l-5.199-11.758
		c-0.545-0.957-2.73-3.963-7.107-9.159c-4.1-5.058-6.425-7.792-7.109-8.337l-7.656-7.52l-1.229-0.685l-9.57-0.137h-0.137
		l-0.273-0.272c-0.956-0.684-2.323-1.366-4.373-1.777c-1.777-0.686-5.879,0.682-12.303,4.102l-0.273,0.137l0.273,1.912h0.135v0.137
		h-0.135v0.275l-1.094,2.188v0.137h-0.139l-0.137,1.504c0,1.229,0.275,2.595,0.684,3.691l0.959,0.681l2.049-0.136l1.777,0.408
		l0.684-0.545c0-1.229,0.411-2.186,0.957-2.46h1.369l4.782,1.368l1.093,0.133l-1.504,2.6v3.146c0,0.685,1.232,2.321,3.691,4.647
		c1.504,1.094,2.46,1.64,3.281,1.779l0.684-0.14l0.684-0.274l2.325-2.322l1.778-1.093v-0.14l0,0l3.689-0.545l1.093-2.324
		l3.282-1.914l2.87,1.641v0.136l0.274,0.138l2.734,4.648l1.094,3.145v0.41l-0.549,3.827l1.094,2.597v0.412l-0.818,3.004v2.736
		c0.818,2.461,1.231,4.1,1.231,4.512l-0.274,2.322l0,0v0.137l-1.367,1.914v0.141l0,0l0,0l-1.368,1.639l-0.138,3.006l0.822,3.146l0,0
		l0.135,0.135l-0.135,0.137l0,0l-0.822,4.786l-0.685,0.683c-0.546,0.41-1.229,0.41-2.05,0h-0.272l-1.228-1.367l-1.369,0.412
		l-1.777,1.912l-1.915,5.607v0.137l-0.136,0.135l-1.914,1.639h-0.273l-1.094,0.139l-2.188,3.145l1.096,2.053l0.271,0.271
		l2.734,3.418v0.137v1.092l3.008,0.409l0.547,2.735v0.139l0.409,3.28l0.822,0.683l2.731-0.822l2.597-1.502l0.413-0.273l0.955,4.648
		l1.232,1.778l0.273,0.136l0.958,1.914l2.048,1.64c0.271,0.411,0.956,0.411,1.641,0.411l0.684,0.137l1.232-0.548
		c0.955-0.411,1.913-0.819,3.006-0.955l0.821-0.413l1.913-0.137c0.684,0,0.957,0.137,1.366,0.55l2.735-1.779h0.273l0.273,0.142
		l0.137-0.142l0.273,0.272c1.092,1.232,1.639,2.326,1.639,2.873l1.231,2.051l0.957,0.275h0.136h0.139l-0.274-0.275
		c-0.139-0.682-0.139-1.096,0-1.367c0.274-0.412,0.82-0.684,1.642-0.684l5.055-0.137l0.139-0.137h0.274v0.273h0.272l1.505,2.873
		l-0.14,1.501h-0.134l1.914,0.411h0.138c-0.138-0.411-0.138-0.685,0.135-0.957l0.684-0.139l4.512,3.146
		c0.409,0.41,0.684,0.955,0.822,1.64l0.133,1.916l1.507,0.272l0.956-1.641c-0.411-0.82-0.683-1.643-0.546-2.188
		c0.135-0.549,0.272-0.958,0.819-1.23l0.41-0.41c0-0.274,0.139-0.41,0.408-0.547l1.23,0.137c0.684,0.41,1.23,1.775,1.504,4.102
		v0.271l0.275,0.14c0.137,0.544,0.956,0.957,2.188,1.366h0.135l0.139,0.135l4.373,4.512l0,0l2.052-0.686l-0.274-0.683
		c-0.547-0.683-0.684-1.366-0.684-1.775c0-0.957,0.684-1.912,2.051-2.869l2.326-2.052l2.732,1.912h0.545l0.549-3.006v-0.547
		l0.546-0.139l2.19,0.277c0.409,0.408,0.682,0.816,0.682,1.502c0,0.545-0.409,1.229-0.821,1.777l0.412,0.274
		c1.366,0.683,2.46,1.228,3.278,1.366h0.138l0,0l1.778,0.957l1.367-0.139l-2.053-9.979c-1.365-0.82-2.596-2.461-3.825-4.377
		c-0.956-1.639-0.413-3.96,1.776-6.696c1.227-1.366,2.734-2.733,4.375-4.101l0,0l0.137-0.274h1.914l0.137,0.274l1.64,0.683h3.418
		c1.368-0.683,2.597-2.734,3.964-6.016C579.809,143.821,579.809,139.856,579.264,133.705z"/>
	<path fill="#CDCECD" d="M500.379,269.731l-0.271,0.133c0,0.686-0.411,1.094-1.094,1.094l-5.332-0.545
		c-3.689-0.682-5.984-2.09-7.382-1.915c-2.567,0.323-7.519,7.108-7.519,7.108l0.275,3.008v0.275l-0.686,0.135
		c-5.878,0.82-9.022,0.272-9.435-1.641l-0.683-8.475l-6.835-0.411l-2.868,6.017l-0.275-2.6c-0.135-2.051-0.547-3.279-0.956-3.553
		l-3.009,1.502l-1.368,1.777l-0.136,0.139h-0.137l-2.732,0.957c-3.008,2.459-5.607,5.058-7.93,7.793l-7.247,9.841l1.505,3.419v0.547
		l0,0l-0.139,0.138c-0.545,0.819-0.272,2.048,0.549,3.415c0.957,1.777,1.641,3.693,1.641,5.878v0.412l-5.878,3.416v1.369
		l2.733,1.229c0.273,0.137,0.41,0.41,0.41,0.549v0.271c-0.137,0.686,0.957,1.639,3.008,2.598l5.058,1.367l1.504-0.957l1.642-2.322
		l1.367-3.967l3.962,1.502l0.548,0.414v0.273l0,0v0.135c-0.684,1.643-0.272,2.736,0.957,3.418l4.375,0.137
		c1.504-0.271,2.733-0.818,3.555-1.502c0.545-0.686,1.367-0.824,2.598-0.686c1.504,0.275,2.871,0.822,3.827,2.051l0.955-2.324
		l0.273-0.408h0.139c0.684-0.412,1.095-1.094,1.64-2.051c0.411-0.959,1.096-1.916,2.188-2.6l1.914-1.094l0.137-0.135l0.138,0.135
		h0.137l1.093,0.277l0,0l0.273,0.133l1.504-6.837v-0.133l2.188-0.412c2.188-1.504,3.283-2.732,3.144-3.826l-0.409-2.053
		c-0.547-1.367-0.547-2.324-0.273-2.732c0.41-0.41,0.683-0.545,1.094-0.545c0.956,0,2.051,0.272,3.146,0.816l0.271-2.186v-0.273
		l0.137-0.135l2.324-1.096l0.273-1.229h-1.366l-0.273-0.14l0.134-0.683v-0.41l0.14-0.275h0.409h0.273
		c0.955,0,2.049-0.545,3.277-1.637l8.616-6.152h0.272l2.734,1.23l1.095-0.137l-0.683-2.871v-0.273l0.137-0.139l0.137-0.135
		l1.502-2.461l-0.408-0.273l-0.959,0.273v0.135h-0.135l-2.736,0.411h-0.684h-0.135v-0.136l-0.138-0.41l-0.546-0.955H500.379z"/>
	<path fill="#CDCECD" d="M512.55,351.068l0.956-1.09l0,0l0,0v-0.141l-3.418-2.734c-1.777-1.23-3.281-1.641-4.375-1.502l-1.503,0.547
		v2.869c-0.274,0.961-0.684,2.051-1.642,2.871l-0.547,0.547l1.367,1.641h0.138l0.409,1.094l1.642,0.684
		c0.956-0.684,1.641-0.957,2.321-0.82l2.872,0.547l0.138-0.957C511.045,352.711,511.729,351.615,512.55,351.068z"/>
	<path fill="#CDCECD" d="M492.727,320.994c-1.504-1.23-2.734-3.418-3.967-6.836c-3.963,0-6.285-0.684-7.381-2.049
		c-0.82-1.232-2.46-2.053-4.785-2.736l-0.684-0.139l0.684-2.322l-0.41-0.273l-0.683-0.137c-1.641,0.822-2.733,1.643-3.146,2.732
		c-0.545,1.096-1.23,2.051-2.051,2.736c-0.684,2.188-1.368,3.281-2.051,3.281c-0.409,0.137-0.684-0.137-0.955-0.549l-1.095-0.953
		c-0.818-0.41-1.64-0.824-2.323-0.824l-1.367,0.275c-0.957,0.957-2.324,1.639-4.373,1.914l-5.198-0.275
		c-1.64-0.818-2.323-2.459-1.912-4.51l-1.915-0.682l-0.955,2.732l0,0v0.139l-0.139,0.133l-0.408,0.549l1.23,0.273h0.271l0.138,0.137
		v0.139c2.325,3.143,4.101,5.195,5.058,5.738c0.547,0.275,2.189,0.822,5.059,1.641l4.922,1.775c1.502,0.686,3.008,3.693,4.646,9.025
		c2.188,1.504,3.557,2.189,4.515,2.051c0.957-0.41,2.594-1.365,4.92-2.871l0.137-0.137l0.137-0.137l0.274,0.137l2.46,0.547h0.274
		v0.41l-0.137,0.412c-0.82,3.281-1.505,5.193-2.052,5.74l-3.281,0.137v0.139c0,1.367-0.957,3.416-2.732,6.014
		c-0.547,0.82-0.684,1.502-0.684,1.912l3.143,2.188c0.82,0.961,1.367,1.232,2.051,1.232h0.684l0.684,2.324l1.504,0.543l0.821-0.816
		c0.411-0.412,0.956-0.686,1.366-0.547c1.367,0,2.461,0.82,3.827,2.596l0,0l1.23,1.641l0.138-0.139
		c0.82-0.545,2.322-0.408,4.512,0.275l3.553,0.818l3.283-1.094l1.367-0.682l0.955-0.682l-0.821-0.957
		c-0.272-0.549,0-1.23,0.685-1.916c0.82-0.682,1.365-1.365,1.365-2.188v-1.641c-0.271-0.82-0.133-1.367,0.139-1.639
		c0.274-0.547,1.23-0.822,2.325-1.094c1.776-0.273,3.963,0.547,6.562,2.732l-0.956-2.732l-1.505-2.051l-0.273-2.463l-2.324-0.41
		h-0.137v-0.133l0,0l0,0l-6.152-3.555l-3.006-0.549v-0.684l-0.139-3.145C495.596,325.779,493.955,322.225,492.727,320.994z"/>
	<path fill="#CDCECD" d="M469.074,236.918l-1.093-0.547l0,0h-0.137l-0.819-0.82l-3.828-1.094h-0.957l-0.684,0.271l-1.506-2.869
		l0.139-0.136l1.094-1.366v-1.641l0.136-0.273l0.683-1.094l-0.545-0.275l-2.051-0.41l0,0l-3.555-0.547h-0.273l-2.051-2.051v-0.135
		l-0.685-1.369l-0.136-0.408l1.093-2.871v-2.052l-0.134-0.546l-1.096,1.094l-0.137,0.135l-0.273,0.412l-0.273-0.412l-0.408-0.135
		l-2.052-1.641l-0.273-0.271v-0.275l-0.409-3.006l-0.957-1.506l-2.053,0.137l-1.23,2.189l-0.136,0.272l-0.138,0.136l-3.279-0.684
		l-0.547,3.008v3.007l-0.138,0.138l-1.776,2.734v0.271l-0.273,0.139h-0.139l-2.051,0.135l-2.049,1.643l-0.272,0.272l0,0h-0.273
		l-0.138-0.136l-3.83-1.23l-0.545,1.366v0.138l-1.641,2.734c-0.273,0.545-0.684,0.82-1.091,0.955l-1.643-0.272l-2.188-0.958
		l-0.411-0.273l-0.137-0.137v-0.137l-0.409-3.279l-0.685-2.461l-0.41-0.684l-0.955,1.914l0,0l0,0l-1.641,2.188l-1.367,3.145v0.134
		l0,0v0.14h-0.136l-1.231,1.775c0,0.547-0.41,1.368-1.232,2.597l0.822,3.144l4.1,4.514l0,0l1.368,2.868v0.274l-0.136,0.275h-0.139
		l-1.094,1.367l-0.271,0.273l-2.734,0.547l0.273,2.186l2.051,1.096l3.006,0.684l0.82,2.732l0,0l0,0v0.137v0.139l-0.684,4.646l0,0
		v0.138l-1.093,2.049v0.413h-0.274l-3.416,0.546v1.366l-0.956,3.009l-0.411,3.416l0.684,1.918l4.238,2.594l0.136,0.139l1.776,3.008
		v0.135l0.137,0.138l-0.137,0.136l-2.186,4.785l-0.547,1.366l0,0l-1.367,3.146l-0.548,2.461l-0.135,0.271v0.139
		c-0.685,0.547-1.095,1.095-1.368,1.912c-0.137,0.275-0.137,0.549,0.135,0.82l0.139,0.14l1.366,1.501l0,0l0,0l0.685,1.094
		l0.274-0.135l0,0l0.136,0.41v0.139v0.408l0,0v0.138l0,0l0,0l0.271,0.819l1.232,0.41l4.922,1.094c1.642,0,3.144-0.411,4.784-1.094
		c1.64-0.684,3.145-0.821,4.786-0.547l0.271-0.957l-1.638-3.691l-0.14-0.273h0.14l7.79-10.799l8.34-8.066h0.137l2.597-0.957
		l1.367-1.504v-0.139c1.095-0.816,2.051-1.367,3.146-1.775l-0.822-0.686l-1.778-1.773v-0.139h-0.134l-1.368-1.643l-0.138-0.271
		v-0.272l0.683-0.822l-1.776,0.411l-3.828-0.957c-1.504-0.684-2.459-1.506-2.734-2.461c-0.82-2.462-1.092-4.646-0.956-6.562
		c-0.547,0.684-1.23,0.822-1.914,0.822l-2.872-0.686l-1.912-1.366l-2.322-0.548h-1.095c-0.684,0-1.506-0.271-2.052-0.818
		c-0.82-0.548-1.23-1.096-1.367-1.643c-0.273-1.094,0-1.775,0.957-2.46c0.956-0.683,2.053-1.777,3.008-3.144
		c-0.955-1.23-1.367-2.461-0.955-3.691l0.137-0.135c0.135-0.686,1.23-1.232,3.279-1.916c0.137-0.684,0.41-1.096,0.684-1.23
		l2.051,0.135L439,234.866c-1.367-0.818-1.777-1.773-1.094-2.87l1.094-0.819c1.229-0.409,2.733-0.273,4.237,0.548l3.144,2.185h2.872
		l0.958,0.82l0.272,1.096c0,0.686-0.41,1.094-0.957,1.094c-0.683,0-0.956,0.684-1.095,1.504l1.367,3.281
		c0.82-1.23,1.643-1.915,2.461-2.051c0.41,0,0.955,0.275,1.367,0.82c0.41,0.682,0.821,1.913,1.094,3.143
		c0.137,1.505,0.546,2.735,0.957,3.42l1.094,1.504c1.643,2.05,2.598,3.553,2.871,4.785l5.334-0.684l2.322-1.233l2.187-2.732
		l0.958-2.596v-0.14v-0.135l0.682-2.734v-0.139l0.138-0.271h0.137l2.052-1.367l0.409-0.273l-0.137-0.139l-3.419-1.093h-0.272v-0.136
		l-0.684-2.051L469.074,236.918z"/>
	<path fill="#CDCECD" d="M400.312,314.021h-0.138l-10.389,4.238l-3.146,3.008c-0.544,4.646,0,7.383,1.642,8.203l3.008,1.912h0.137
		v0.137l0.821,5.057c2.595,3.418,4.374,5.197,5.33,5.607l3.008,0.684l0.411,0.137v0.139c0.409,0.543,1.367,1.092,3.143,1.637
		l8.203,0.412c6.017,0,9.433,0.41,10.116,1.092c0.685,0.547,0.819,1.914,0.685,3.965c-0.137,1.367,0,2.188,0.135,2.322l3.011-0.682
		c2.322-0.82,3.689-0.82,4.372-0.135l1.094,1.369c1.641,2.047,2.736,2.867,3.007,2.73c0.821-0.273,1.778-1.094,2.733-2.459
		l0.274-0.41l2.461,1.502l1.504-1.23c0.411-1.914,1.367-2.869,3.009-3.008l0.683-0.27l-0.273-0.547l-0.272-0.275l0.135-0.139
		l0.138-3.416c-1.094-1.641-2.462-2.189-3.964-1.916c-1.504,0.412-2.598,0.412-3.01-0.135c-0.271-0.408-0.271-0.684-0.271-1.229
		c-0.957-1.645-1.913-3.01-3.146-4.24c-1.638-1.365-2.05-2.598-1.638-3.828l0.271-0.41l3.828,0.684l-0.273-2.322
		c-0.139-1.369,0-2.328,0.684-3.008c0.273-0.547,0.957-0.822,1.641-0.959l1.64-0.547v-0.682c-1.229-2.598-1.64-4.514-1.094-5.33
		l0.821-0.686c0.41-0.139,1.776,0.135,3.689,0.818l0,0l0.138,0.137v0.275c1.503,1.775,2.325,2.871,2.734,3.145l2.597-4.24
		c-2.323-2.869-3.553-4.92-3.965-5.74l-2.051,1.365l-0.271-0.27l-5.468-1.369h-0.138v-0.137c-2.324-1.096-3.689-2.326-3.828-3.555
		l-3.281-1.502v-3.146l6.014-3.555c-0.271-1.639-0.684-3.28-1.365-4.65l-0.955-1.91l-4.103,0.408
		c-1.915,0.82-3.692,1.232-5.468,1.232l-4.24-0.955v-1.508l-0.682-0.135l-1.232-0.41l-0.271-0.819l0,0v-0.138l0,0l0,0l-0.136-0.408
		v-0.139v-0.41l-0.274,0.135l-0.273,3.555l-0.137,1.232c-0.274,0.681-0.546,1.092-0.274,1.365c0.685,0.958,0.547,2.052-0.137,3.007
		l0.548,2.324l-0.137,0.137l-0.274,0.141l-1.64,1.5v3.146l-0.41,0.135c-3.008,1.367-5.057,2.053-6.289,2.053l-6.016-0.41
		l-2.596,2.322H400.312z"/>
	<path fill="#CDCECD" d="M518.974,427.076c-4.372,3.146-7.519,7.111-9.569,11.896c-1.777,4.1-3.143,6.15-4.102,6.701l0.959,7.516
		v0.137l0,0l-0.685,5.193c-0.274,1.643,0,2.734,0.411,3.01l5.602,3.693l0,0h0.139l0.138,0.406l0,0
		c0.272,1.232,1.092,2.328,2.187,3.691c0.549,0.822,1.23,1.23,1.776,1.506l0.821-9.023v-0.273l3.965-9.568l1.367-11.348v-0.139
		l0.137-0.135l1.23-3.01l-0.958-2.596v-0.137h-0.136l-0.273-3.555l0.137-0.135l0.137-0.141l0.683-0.818l0.411-0.957L518.974,427.076
		z"/>
	<path fill="#CDCECD" d="M384.316,507.051l-0.41,0.684v0.141l-0.138,0.271l-5.603,1.367l0.273,0.684l1.775,2.049
		c-0.137,0-0.41,0.141-0.547,0.141l-2.597,1.367l-4.103,3.141c-1.365,1.641-1.092,4.646,0.959,9.16l4.102,0.41h0.137v0.137
		l4.1,1.914l4.374-0.684c1.778-0.408,3.829-2.051,6.427-5.195h0.137l0.273-0.273l1.913-0.547l-0.548-5.742v-0.271l2.462-3.557
		v-0.135h0.136l1.915-1.504c0.274-1.641,0.136-3.143-0.548-4.377c-0.546-1.09-1.229-1.5-1.914-1.5l0.273,2.049l-3.689-0.684
		l-1.641,0.955h-0.137l0,0H384.316z"/>
</g>
</svg>
