<?xml version="1.0" encoding="utf-8"?>
<!-- Generator: Adobe Illustrator 16.0.4, SVG Export Plug-In . SVG Version: 6.00 Build 0)  -->
<!DOCTYPE svg PUBLIC "-//W3C//DTD SVG 1.1//EN" "http://www.w3.org/Graphics/SVG/1.1/DTD/svg11.dtd">
<svg version="1.1" id="图层_1" xmlns="http://www.w3.org/2000/svg" xmlns:xlink="http://www.w3.org/1999/xlink" x="0px" y="0px"
	 width="600px" height="600px" viewBox="0 0 600 600" enable-background="new 0 0 600 600" xml:space="preserve">
<g>
	<g>
		<path fill="#C13531" d="M65.55,174.381c0,20.273,16.434,36.744,36.707,36.744c20.258,0,36.68-16.471,36.68-36.744
			c0-20.248-16.422-36.678-36.68-36.678C81.983,137.703,65.55,154.133,65.55,174.381L65.55,174.381z"/>
		<path fill="#C13531" d="M181.347,259.738c0,0,2.089-40.998-41.168-40.998H65.146c-41.71,0-41.368,37.848-41.4,40.998v116.326
			c0.67,6.258,6.855,13.449,14.558,13.449c7.622,0,13.272-6.924,13.973-13.252l13.038,185.275
			c0.974,9.416,7.582,12.973,15.792,12.973c8.158,0,14.811-3.557,15.794-12.973h11.572c0.972,9.416,7.618,12.973,15.812,12.973
			c8.143,0,14.828-3.557,15.8-12.973l13.386-185.4c0,6.314,6.156,13.377,13.815,13.377c7.632,0,13.765-7.191,14.422-13.449
			L181.347,259.738z"/>
	</g>
	<g>
		<path fill="#C13531" d="M261.759,174.381c0,20.273,16.446,36.744,36.705,36.744c20.266,0,36.713-16.471,36.713-36.744
			c0-20.248-16.447-36.678-36.713-36.678C278.205,137.703,261.759,154.133,261.759,174.381L261.759,174.381z"/>
		<path fill="#C13531" d="M377.558,259.738c0,0,2.119-40.998-41.145-40.998h-75.027c-41.739,0-41.439,37.848-41.463,40.998
			l0.023,116.326c0.671,6.258,6.861,13.449,14.569,13.449c7.653,0,13.269-6.924,13.965-13.252l12.995,185.275
			c1.019,9.416,7.661,12.973,15.876,12.973c8.136,0,14.801-3.557,15.729-12.973h11.578c0.984,9.416,7.64,12.973,15.793,12.973
			c8.215,0,14.816-3.557,15.855-12.973l13.417-185.4c0,6.314,6.065,13.377,13.759,13.377c7.646,0,13.734-7.191,14.467-13.449
			L377.558,259.738z"/>
	</g>
	<g>
		<path fill="#C13531" d="M457.992,174.381c0,20.273,16.424,36.744,36.688,36.744c20.256,0,36.68-16.471,36.68-36.744
			c0-20.248-16.424-36.678-36.68-36.678C474.416,137.703,457.992,154.133,457.992,174.381L457.992,174.381z"/>
		<path fill="#C13531" d="M573.784,259.738c0,0,2.068-40.998-41.209-40.998h-75.009c-41.706,0-41.407,37.848-41.437,40.998
			l0.029,116.326c0.665,6.258,6.853,13.449,14.559,13.449c7.652,0,13.272-6.924,13.963-13.252l12.984,185.275
			c0.994,9.416,7.641,12.973,15.854,12.973c8.182,0,14.838-3.557,15.792-12.973h11.554c0.99,9.416,7.643,12.973,15.795,12.973
			c8.215,0,14.863-3.557,15.819-12.973l13.405-185.4c0,6.314,6.115,13.377,13.778,13.377c7.708,0,13.788-7.191,14.464-13.449
			L573.784,259.738z"/>
	</g>
</g>
<g>
	<path fill="#293C54" d="M102.257,99.096c20.258,0,36.68-16.434,36.68-36.729c0-20.24-16.422-36.676-36.68-36.676
		c-20.273,0-36.707,16.436-36.707,36.676C65.55,82.662,81.983,99.096,102.257,99.096z"/>
	<path fill="#293C54" d="M49.35,174.381c0-29.17,23.722-52.877,52.907-52.877c29.17,0,52.925,23.707,52.925,52.877
		c0,10.475-3.14,20.273-8.454,28.49c17.421,1.502,28.395,8.688,34.842,15.17l-0.223-70.33c0,0,2.089-41.002-41.168-41.002H65.146
		c-41.71,0-41.368,37.881-41.4,41.002v70.166c7.858-7.922,18.993-13.602,34.049-15.006C52.507,194.654,49.35,184.855,49.35,174.381z
		"/>
	<path fill="#293C54" d="M298.464,99.096c20.266,0,36.713-16.434,36.713-36.729c0-20.24-16.447-36.676-36.713-36.676
		c-20.259,0-36.705,16.436-36.705,36.676C261.759,82.662,278.205,99.096,298.464,99.096z"/>
	<path fill="#293C54" d="M245.556,174.381c0-29.17,23.709-52.877,52.908-52.877c29.137,0,52.875,23.707,52.875,52.877
		c0,10.475-3.09,20.273-8.377,28.49c17.389,1.502,28.365,8.688,34.852,15.17l-0.256-70.33c0,0,2.119-41.002-41.145-41.002h-75.027
		c-41.739,0-41.439,37.881-41.463,41.002l0.023,70.166c7.916-7.922,18.994-13.602,34.051-15.006
		C248.677,194.654,245.556,184.855,245.556,174.381z"/>
	<path fill="#293C54" d="M494.681,99.096c20.256,0,36.68-16.434,36.68-36.729c0-20.24-16.424-36.676-36.68-36.676
		c-20.265,0-36.688,16.436-36.688,36.676C457.992,82.662,474.416,99.096,494.681,99.096z"/>
	<path fill="#293C54" d="M441.835,174.381c0-29.17,23.705-52.877,52.846-52.877c29.163,0,52.871,23.707,52.871,52.877
		c0,10.475-3.093,20.273-8.389,28.49c17.398,1.502,28.381,8.688,34.82,15.145l-0.199-70.305c0,0,2.068-41.002-41.209-41.002h-75.009
		c-41.706,0-41.407,37.881-41.437,41.002v70.166c7.939-7.881,19.02-13.602,34.073-15.006
		C444.896,194.654,441.835,184.855,441.835,174.381z"/>
</g>
</svg>
