<?xml version="1.0" encoding="utf-8"?>
<!-- Generator: Adobe Illustrator 16.0.0, SVG Export Plug-In . SVG Version: 6.00 Build 0)  -->
<!DOCTYPE svg PUBLIC "-//W3C//DTD SVG 1.1//EN" "http://www.w3.org/Graphics/SVG/1.1/DTD/svg11.dtd">
<svg version="1.1" id="图层_1" xmlns="http://www.w3.org/2000/svg" xmlns:xlink="http://www.w3.org/1999/xlink" x="0px" y="0px"
	 width="600px" height="600px" viewBox="0 0 600 600" enable-background="new 0 0 600 600" xml:space="preserve">
<g>
	<rect x="9.146" y="10.969" fill="none" width="578.936" height="578.937"/>
	<path fill="#293C54" d="M291.841,156.094c-10.792,0.438-21.699,2.028-32.566,4.957c-78.936,21.254-125.686,102.456-104.427,181.387
		c2.548,9.491,5.992,18.494,10.169,26.988l-99.455,53.947c-8.274-16.119-15.024-33.324-19.926-51.527
		C8.147,232.599,90.616,89.329,229.858,51.833c20.681-5.572,41.442-8.423,61.932-8.907L291.841,156.094z"/>
	<path fill="#CECECE" d="M334.339,446.007c-61.451,15.422-128.051-10.11-162.425-66.775L72.692,433.73
		c0.034,0.064,0.065,0.113,0.089,0.156c60.857,104.449,183.015,150.897,294.31,120.469L334.339,446.007z"/>
	<path fill="#C23531" d="M589.148,296.662C585.191,140.478,459.184,16.09,304.706,12.415v29.869v96.604v16.588
		c77.085,3.292,139.532,65.787,141.513,144.077c1.67,65.964-40.098,122.909-99.235,143.509l5.063,17.104
		c-0.031,0.008-0.064,0.025-0.1,0.039l35.912,121.237C507.428,542.551,592.496,428.787,589.148,296.662z"/>
</g>
</svg>
