<?xml version="1.0" encoding="utf-8"?>
<!-- Generator: Adobe Illustrator 16.0.0, SVG Export Plug-In . SVG Version: 6.00 Build 0)  -->
<!DOCTYPE svg PUBLIC "-//W3C//DTD SVG 1.1//EN" "http://www.w3.org/Graphics/SVG/1.1/DTD/svg11.dtd">
<svg version="1.1" id="图层_1" xmlns="http://www.w3.org/2000/svg" xmlns:xlink="http://www.w3.org/1999/xlink" x="0px" y="0px"
	 width="600px" height="600px" viewBox="0 0 600 600" enable-background="new 0 0 600 600" xml:space="preserve">
<g>
	<g>
		<path fill="#CECECE" d="M304.84,396.35c12.933,0,25.024-3.561,35.447-9.673l-18.101-24.97c-5.258,2.551-11.125,4.029-17.347,4.029
			c-6.766,0-13.139-1.709-18.724-4.701l-18.045,24.84C278.785,392.477,291.354,396.35,304.84,396.35z"/>
		<path fill="#CECECE" d="M375.254,325.934c0-5.428-0.675-10.69-1.847-15.775l-29.312,9.527c0.328,2.042,0.544,4.119,0.544,6.248
			c0,11.327-4.778,21.533-12.396,28.79l18.053,24.896C365.537,366.692,375.254,347.439,375.254,325.934z"/>
		<path fill="#CECECE" d="M203.189,475.161c28.977,19.801,63.982,31.409,101.65,31.409c37.066,0,71.559-11.238,100.261-30.468
			l-17.986-24.817c-23.646,15.572-51.91,24.67-82.274,24.67c-30.953,0-59.745-9.425-83.656-25.552L203.189,475.161z"/>
		<path fill="#CECECE" d="M485.475,325.934c0-17.307-2.497-34.029-7.064-49.888l-29.132,9.469
			c3.61,12.866,5.577,26.418,5.577,40.418c0,47.971-22.656,90.719-57.798,118.2l17.969,24.786
			C457.826,435.86,485.475,384.082,485.475,325.934z"/>
		<path fill="#CECECE" d="M170.815,519.727c38.09,26.418,84.265,41.95,134.024,41.95c49.133,0,94.801-15.132,132.609-40.954
			l-17.963-24.773c-32.744,22.161-72.209,35.111-114.646,35.111c-43.042,0-83.005-13.35-116.037-36.09L170.815,519.727z"/>
		<path fill="#CECECE" d="M540.582,325.934c0-23.248-3.439-45.694-9.737-66.921l-29.125,9.465
			c5.334,18.243,8.243,37.509,8.243,57.457c0,66.287-31.629,125.299-80.564,162.82l17.973,24.795
			C503.967,470.445,540.582,402.398,540.582,325.934z"/>
		<path fill="#CECECE" d="M430.364,325.934c0-11.365-1.657-22.331-4.503-32.814l-29.141,9.473c1.91,7.48,3.027,15.276,3.027,23.342
			c0,29.648-13.683,56.144-35.046,73.564l17.943,24.756C411.666,401.236,430.364,365.76,430.364,325.934z"/>
		<path fill="#CECECE" d="M235.612,430.541c19.864,13.194,43.651,20.92,69.228,20.92c25.001,0,48.26-7.434,67.849-20.08
			l-17.997-24.832c-14.512,9.004-31.562,14.295-49.852,14.295c-18.861,0-36.412-5.596-51.193-15.115L235.612,430.541z"/>
		<g>
			<path fill="#CECECE" d="M299.045,120.959l0.036-30.624c-99.587,2.411-184.055,66.819-216.144,156.058l29.115,9.458
				C140.123,178.884,213.058,123.354,299.045,120.959z"/>
			<path fill="#CECECE" d="M311.328,90.325l-0.037,30.739c86.047,2.695,158.928,58.495,186.662,135.752l29.107-9.458
				C495.314,157.835,410.948,93.032,311.328,90.325z"/>
			<path fill="#CECECE" d="M99.711,325.934c0-20.301,3.008-39.904,8.534-58.442l-29.134-9.46
				c-6.489,21.514-10.014,44.303-10.014,67.903c0,75.844,36.04,143.393,91.854,186.542l17.992-24.766
				C130.774,450.137,99.711,391.617,99.711,325.934z"/>
		</g>
		<g>
			<path fill="#CECECE" d="M154.82,325.934c0-14.36,2.074-28.241,5.856-41.405l-29.136-9.464
				c-4.746,16.147-7.335,33.207-7.335,50.869c0,57.553,27.083,108.857,69.131,141.959l17.998-24.77
				C176.928,415.615,154.82,373.316,154.82,325.934z"/>
			<path fill="#CECECE" d="M298.985,176.066l0.033-30.614c-75.115,2.39-138.804,50.819-163.65,117.979l29.164,9.472
				C185.347,218.021,237.464,178.442,298.985,176.066z"/>
			<path fill="#CECECE" d="M311.268,145.56l-0.037,30.608c61.64,2.612,113.78,42.466,134.292,97.684l29.14-9.464
				C450.139,196.924,386.467,148.212,311.268,145.56z"/>
		</g>
		<g>
			<path fill="#CECECE" d="M298.924,231.325l0.038-30.617c-50.624,2.362-93.44,34.749-111.009,79.807l29.098,9.452
				C230.542,257.167,261.886,233.628,298.924,231.325z"/>
			<path fill="#CECECE" d="M311.205,200.662l-0.033,30.61c37.211,2.471,68.574,26.484,81.801,59.651l29.109-9.452
				C404.796,236.066,361.974,203.221,311.205,200.662z"/>
			<path fill="#CECECE" d="M209.93,325.934c0-8.423,1.213-16.549,3.282-24.336l-29.146-9.465
				c-3.021,10.768-4.753,22.076-4.753,33.801c0,39.252,18.137,74.321,46.433,97.355l18.022-24.809
				C223.102,381.058,209.93,355.021,209.93,325.934z"/>
		</g>
		<g>
			<path fill="#CECECE" d="M298.865,286.632l0.036-30.814c-26.167,2.199-48.292,18.748-58.458,41.75l29.349,9.536
				C275.615,296.312,286.283,288.54,298.865,286.632z"/>
			<path fill="#CECECE" d="M311.146,255.829l-0.036,30.836c12.792,2.045,23.559,10.184,29.226,21.366l29.351-9.537
				C359.75,275.109,337.51,258.179,311.146,255.829z"/>
			<path fill="#CECECE" d="M265.738,318.665l-29.216-9.49c-1.322,5.379-2.101,10.978-2.101,16.759
				c0,20.949,9.247,39.734,23.811,52.645l18.109-24.92c-6.979-7.175-11.302-16.945-11.302-27.725
				C265.038,323.449,265.296,321.025,265.738,318.665z"/>
		</g>
		<path fill="#CECECE" d="M571.029,263.24c0,8.407-6.816,15.224-15.224,15.224s-15.224-6.817-15.224-15.224
			c0-8.401,6.816-15.221,15.224-15.221S571.029,254.839,571.029,263.24z"/>
	</g>
	<g>
		<path fill="#293C54" d="M415.056,527.82c-11.774,0-21.349-9.572-21.349-21.347c0-11.764,9.574-21.337,21.349-21.337
			s21.349,9.573,21.349,21.337C436.404,518.248,426.83,527.82,415.056,527.82z M415.056,497.385c-5.017,0-9.101,4.078-9.101,9.089
			c0,5.015,4.084,9.101,9.101,9.101s9.101-4.086,9.101-9.101C424.156,501.463,420.072,497.385,415.056,497.385z"/>
		<path fill="#293C54" d="M304.258,132.966c-11.774,0-21.346-9.573-21.346-21.349c0-11.766,9.572-21.342,21.346-21.342
			s21.349,9.577,21.349,21.342C325.606,123.393,316.032,132.966,304.258,132.966z M304.258,102.524
			c-5.017,0-9.101,4.076-9.101,9.092s4.084,9.103,9.101,9.103c5.02,0,9.101-4.086,9.101-9.103S309.277,102.524,304.258,102.524z"/>
		<path fill="#293C54" d="M43.992,292.169c-11.774,0-21.347-9.577-21.347-21.349c0-11.768,9.573-21.34,21.347-21.34
			c11.776,0,21.349,9.572,21.349,21.34C65.341,282.592,55.768,292.169,43.992,292.169z M43.992,261.726
			c-5.017,0-9.101,4.08-9.101,9.095c0,5.017,4.084,9.101,9.101,9.101s9.103-4.084,9.103-9.101
			C53.095,265.805,49.009,261.726,43.992,261.726z"/>
		<path fill="#293C54" d="M214.862,480.707c-11.772,0-21.346-9.574-21.346-21.347c0-11.768,9.574-21.341,21.346-21.341
			c11.774,0,21.349,9.573,21.349,21.341C236.21,471.133,226.636,480.707,214.862,480.707z M214.862,450.266
			c-5.017,0-9.099,4.076-9.099,9.095c0,5.018,4.082,9.102,9.099,9.102c5.017,0,9.103-4.084,9.103-9.102
			C223.964,454.342,219.878,450.266,214.862,450.266z"/>
		
			<rect x="166.761" y="51.613" transform="matrix(0.5232 0.8522 -0.8522 0.5232 243.6573 -57.1359)" fill="#293C54" width="12.252" height="275.123"/>
		
			<rect x="300.419" y="174.871" transform="matrix(0.8596 0.511 -0.511 0.8596 153.7348 -197.4739)" fill="#293C54" width="271.526" height="12.242"/>
		
			<rect x="489.752" y="254.262" transform="matrix(0.8489 0.5285 -0.5285 0.8489 278.5813 -203.8583)" fill="#293C54" width="12.243" height="262.191"/>
		<polygon fill="#293C54" points="400.137,519.48 225.104,474.853 228.131,462.992 403.162,507.613 		"/>
		<polygon fill="#293C54" points="197.479,455.689 39.562,290.271 48.426,281.818 206.341,447.232 		"/>
	</g>
	<g>
		<path fill="#C23531" d="M304.831,23.623c-11.755,0-21.287,9.528-21.287,21.287c0,11.761,9.532,21.292,21.287,21.292
			c11.763,0,21.296-9.531,21.296-21.292C326.127,33.15,316.594,23.623,304.831,23.623z M304.831,54.039
			c-5.034,0-9.124-4.089-9.124-9.129c0-5.035,4.09-9.126,9.124-9.126c5.042,0,9.133,4.091,9.133,9.126
			C313.964,49.95,309.873,54.039,304.831,54.039z"/>
		<path fill="#C23531" d="M181.291,534.559l-32.032-214.744c-2.787,1.338-5.873,2.15-9.172,2.15c-1.064,0-2.087-0.161-3.103-0.311
			l32.766,215.07c2.884-1.459,6.102-2.362,9.556-2.362C179.988,534.362,180.629,534.5,181.291,534.559z"/>
		<path fill="#C23531" d="M197.636,544.98c1.62,2.782,2.618,5.942,2.827,9.337l184.951-78.185
			c-2.696-3.209-4.431-7.191-4.854-11.602L197.636,544.98z"/>
		<path fill="#C23531" d="M156.226,286.933L298.59,64.614c-4.042-1.252-7.54-3.638-10.165-6.823L145.833,280.27
			C149.947,281.429,153.53,283.768,156.226,286.933z"/>
		<path fill="#C23531" d="M156.226,286.933c-2.696-3.165-6.279-5.504-10.394-6.663c-1.842-0.52-3.741-0.886-5.746-0.886
			c-11.755,0-21.288,9.531-21.288,21.287c0,10.697,7.91,19.464,18.185,20.983c1.015,0.149,2.038,0.311,3.103,0.311
			c3.299,0,6.385-0.812,9.172-2.15c7.145-3.434,12.121-10.682,12.121-19.144C161.38,295.402,159.396,290.648,156.226,286.933z
			 M140.087,309.803c-1.915,0-3.688-0.6-5.155-1.611c-2.398-1.641-3.97-4.393-3.97-7.521c0-4.49,3.257-8.21,7.538-8.961
			c0.516-0.09,1.042-0.165,1.586-0.165c4.245,0,7.785,2.921,8.809,6.842c0.19,0.736,0.321,1.489,0.321,2.284
			c0,2.122-0.753,4.057-1.973,5.612C145.569,308.41,142.999,309.803,140.087,309.803z"/>
		<path fill="#C23531" d="M200.463,554.317c-0.209-3.395-1.207-6.555-2.827-9.337c-3.374-5.772-9.34-9.762-16.345-10.422
			c-0.662-0.059-1.303-0.196-1.984-0.196c-3.454,0-6.672,0.903-9.556,2.362c-6.93,3.509-11.731,10.625-11.731,18.924
			c0,11.762,9.532,21.295,21.287,21.295c11.761,0,21.294-9.533,21.294-21.295C200.601,555.197,200.495,554.766,200.463,554.317z
			 M179.307,564.781c-0.907,0-1.77-0.173-2.595-0.425c-1.099-0.323-2.104-0.844-2.984-1.531c-2.141-1.667-3.544-4.245-3.544-7.177
			c0-1.94,0.621-3.736,1.656-5.217c1.65-2.358,4.376-3.904,7.468-3.904c1.4,0,2.715,0.338,3.904,0.905
			c1.237,0.588,2.31,1.446,3.164,2.509c1.267,1.564,2.062,3.532,2.062,5.707c0,1.526-0.412,2.945-1.067,4.205
			C185.842,562.768,182.822,564.781,179.307,564.781z"/>
		<path fill="#C23531" d="M419.11,450.365c-2.346-3.367-5.622-6.008-9.468-7.571c-2.474-1.003-5.165-1.58-7.998-1.58
			c-11.758,0-21.287,9.527-21.287,21.286c0,0.693,0.135,1.35,0.203,2.031c0.423,4.41,2.157,8.393,4.854,11.602
			c3.906,4.646,9.688,7.66,16.23,7.66c11.762,0,21.291-9.531,21.291-21.293C422.936,457.983,421.509,453.811,419.11,450.365z
			 M401.645,471.63c-1.317,0-2.565-0.292-3.695-0.796c-3.193-1.424-5.431-4.617-5.431-8.334c0-1.255,0.256-2.454,0.718-3.542
			c1.302-3.096,4.281-5.285,7.791-5.524c0.209-0.012,0.406-0.059,0.617-0.059c4.478,0,8.186,3.229,8.963,7.48
			c0.1,0.531,0.168,1.082,0.168,1.645C410.775,467.541,406.685,471.63,401.645,471.63z"/>
		<path fill="#C23531" d="M316.553,62.118l228.07,191.224c1.111-4.137,3.414-7.743,6.553-10.486L324.436,52.744
			C322.771,56.587,320.014,59.835,316.553,62.118z"/>
		<path fill="#C23531" d="M419.11,450.365l138.974-171.472c-3.982-1.411-7.41-3.945-9.909-7.258L409.643,442.794
			C413.488,444.357,416.765,446.998,419.11,450.365z"/>
		<path fill="#C23531" d="M555.806,241.953c-11.755,0-21.29,9.527-21.29,21.287c0,11.761,9.535,21.289,21.29,21.289
			c11.762,0,21.294-9.528,21.294-21.289C577.1,251.48,567.567,241.953,555.806,241.953z M555.806,272.368
			c-5.036,0-9.126-4.088-9.126-9.128c0-5.038,4.09-9.126,9.126-9.126c5.04,0,9.131,4.088,9.131,9.126
			C564.937,268.28,560.846,272.368,555.806,272.368z"/>
	</g>
</g>
</svg>
