<?xml version="1.0" encoding="utf-8"?>
<!-- Generator: Adobe Illustrator 16.0.4, SVG Export Plug-In . SVG Version: 6.00 Build 0)  -->
<!DOCTYPE svg PUBLIC "-//W3C//DTD SVG 1.1//EN" "http://www.w3.org/Graphics/SVG/1.1/DTD/svg11.dtd">
<svg version="1.1" id="图层_1" xmlns="http://www.w3.org/2000/svg" xmlns:xlink="http://www.w3.org/1999/xlink" x="0px" y="0px"
	 width="600px" height="600px" viewBox="0 0 600 600" enable-background="new 0 0 600 600" xml:space="preserve">
<line fill="none" x1="299.224" y1="21.935" x2="299.224" y2="577.714"/>
<line fill="none" x1="58.107" y1="438.792" x2="540.34" y2="160.856"/>
<line fill="none" x1="58.107" y1="160.856" x2="540.34" y2="438.792"/>
<g>
	<path fill="#293C54" d="M299.26,589.601L47.783,444.765v-289.82L299.26,10.048l251.404,144.896v289.82L299.26,589.601z
		 M68.416,432.817L299.26,565.847l230.842-133.029V166.864L299.26,33.835L68.416,166.864V432.817z"/>
	<path fill="#293C54" d="M299.26,494.491l-168.957-97.326V202.554l168.957-97.348l168.841,97.348v194.611L299.26,494.491z
		 M150.982,385.263l148.277,85.449l148.283-85.449V214.421L299.26,128.987l-148.277,85.434V385.263z"/>
</g>
<polygon fill="#C13531" points="298.649,67.397 187.126,235.235 140.675,391.21 301.868,422.831 494.045,412.112 361.977,264.853 
	"/>
</svg>
