<?xml version="1.0" encoding="utf-8"?>
<!-- Generator: Adobe Illustrator 16.0.4, SVG Export Plug-In . SVG Version: 6.00 Build 0)  -->
<!DOCTYPE svg PUBLIC "-//W3C//DTD SVG 1.1//EN" "http://www.w3.org/Graphics/SVG/1.1/DTD/svg11.dtd">
<svg version="1.1" id="图层_1" xmlns="http://www.w3.org/2000/svg" xmlns:xlink="http://www.w3.org/1999/xlink" x="0px" y="0px"
	 width="600px" height="600px" viewBox="0 0 600 600" enable-background="new 0 0 600 600" xml:space="preserve">
<rect x="358.405" y="299.848" opacity="0.5" fill="#CDCECD" width="220.935" height="242.881"/>
<rect x="287.901" y="56.92" fill="#CDCECD" width="294.15" height="77.668"/>
<rect x="18.54" y="56.92" fill="#CDCECD" width="251.631" height="185.174"/>
<rect x="18.54" y="473.354" opacity="0.5" fill="#CDCECD" width="326.232" height="69.375"/>
<path opacity="0.5" fill="#CDCECD" d="M339.813,299.848c-169.848,0-169.237-57.754-318.692-57.754V416.35
	c135.536,0,135.366,55.783,318.692,57.004V299.848z"/>
<path fill="#CDCECD" d="M579.022,299.848V192.422c-146.726,0-144.072-57.834-288.761-57.834v107.467
	C418.342,242.055,417.769,298.496,579.022,299.848z"/>
<rect x="578.767" y="56.92" fill="#293C54" width="21.169" height="77.668"/>
<rect x="339.603" y="299.848" fill="#293C54" width="21.208" height="242.881"/>
<rect x="269.239" y="56.92" fill="#293C54" width="21.155" height="185.174"/>
<rect x="-0.064" y="56.92" fill="#C13531" width="21.186" height="359.43"/>
<rect x="-0.064" y="473.354" fill="#293C54" width="21.186" height="69.375"/>
<rect x="578.767" y="192.422" fill="#C13531" width="21.169" height="350.307"/>
</svg>
