<?xml version="1.0" encoding="utf-8"?>
<!-- Generator: Adobe Illustrator 16.0.0, SVG Export Plug-In . SVG Version: 6.00 Build 0)  -->
<!DOCTYPE svg PUBLIC "-//W3C//DTD SVG 1.1//EN" "http://www.w3.org/Graphics/SVG/1.1/DTD/svg11.dtd">
<svg version="1.1" id="图层_1" xmlns="http://www.w3.org/2000/svg" xmlns:xlink="http://www.w3.org/1999/xlink" x="0px" y="0px"
	 width="600px" height="600px" viewBox="0 0 600 600" enable-background="new 0 0 600 600" xml:space="preserve">
<rect x="23.152" y="58.778" fill="#C13531" width="39.681" height="142.628"/>
<rect x="23.152" y="229.247" fill="#293C54" width="39.681" height="205.556"/>
<rect x="23.152" y="457.087" fill="#C13531" width="39.681" height="79.599"/>
<rect x="539.471" y="229.247" fill="#C13531" width="39.684" height="163.013"/>
<rect x="539.471" y="411.649" fill="#C13531" width="39.684" height="125.036"/>
<rect x="539.471" y="66.553" fill="#293C54" width="39.684" height="134.854"/>
<path fill="#CDCECD" d="M62.833,58.778c0,0,72.863,17.907,145.391,25.316c72.536,7.404,235.388,13.896,331.247-17.542v120.011
	c0,0-36.203-36.409-164.862-11.084c-8.296,1.631-28.335,50.189-39.185,49.34c-96.935-7.55-272.591-23.413-272.591-23.413V58.778z"/>
<path fill="#CDCECD" d="M62.833,229.247c0,0,194.293-9.893,272.591-4.428c13.897,0.975,26.641-48.466,39.185-49.34
	c108.771-7.618,164.862,13.89,164.862,13.89v12.037c0,0-84.441-13.271-164.358,39.087c-14.374,9.416-31.563,4.913-39.688,4.474
	c-161.785-8.828-272.591,55.599-272.591,55.599V229.247z"/>
<path fill="#CDCECD" d="M62.833,358.858v-58.293c0,0,155.797-55.599,272.591-55.599c6.688,0,38.119-4.196,38.119-4.196
	c60.768-6.8,165.928-11.523,165.928-11.523v71.318c0,0-36.767-35.56-164.358-44.356h-39.688
	C208.394,287.082,119.241,326.44,62.833,358.858z"/>
<path fill="#CDCECD" d="M62.833,457.087h170.85h39.687c0,0,101.743-1.89,266.101-45.438v62.519c0,0-225.137,22.719-266.101,31.832
	l-39.687,30.686l0,0H62.833V457.087z"/>
<path fill="#CDCECD" d="M62.833,434.803c0,0,127.855-39.252,253.261-42.543c9.034-0.241,31.1,0.171,39.688,0
	c110.645-2.229,183.689,0,183.689,0v-28.303c0,0-78.735-0.162-183.689-3.195c-13.062-0.374-26.336-0.721-39.688,0
	C201.668,366.971,82.25,388.751,62.833,392.26V434.803z"/>
<path fill="#CDCECD" d="M539.471,300.565c0,0-52.206-37.104-195.922-25.059c-73.337,6.14-280.716,83.352-280.716,83.352v33.401
	c0,0,151.103-56.246,314.964-60.234c95.578-2.32,161.674,31.932,161.674,31.932V300.565z"/>
<path fill="#CDCECD" d="M273.37,536.686V506c0,0,81.351,6.344,164.964-9.113c68.915-12.748,101.137-22.719,101.137-22.719v62.518
	c0,0-36.093-6.177-111.979-7.41C371.557,528.365,273.37,536.686,273.37,536.686z"/>
<rect x="335.424" y="90.066" fill="#C13531" width="39.688" height="165.99"/>
<rect x="233.683" y="457.087" fill="#293C54" width="39.687" height="79.599"/>
<rect x="316.094" y="360.762" fill="#C13531" width="39.688" height="31.498"/>
</svg>
