<?xml version="1.0" encoding="utf-8"?>
<!-- Generator: Adobe Illustrator 16.0.0, SVG Export Plug-In . SVG Version: 6.00 Build 0)  -->
<!DOCTYPE svg PUBLIC "-//W3C//DTD SVG 1.1//EN" "http://www.w3.org/Graphics/SVG/1.1/DTD/svg11.dtd">
<svg version="1.1" id="图层_1" xmlns="http://www.w3.org/2000/svg" xmlns:xlink="http://www.w3.org/1999/xlink" x="0px" y="0px"
	 width="600px" height="600px" viewBox="0 0 600 600" enable-background="new 0 0 600 600" xml:space="preserve">
<ellipse fill="#C23531" cx="104.332" cy="379.838" rx="46.953" ry="46.958"/>
<path fill="#304555" d="M278.136,441.13c0,21.914-17.762,39.683-39.684,39.683c-21.91,0-39.683-17.769-39.683-39.683
	c0-21.918,17.773-39.683,39.683-39.683C260.374,401.447,278.136,419.212,278.136,441.13z"/>
<path fill="#293C54" d="M484.558,345.852c0,42.829-34.744,77.565-77.581,77.565c-42.848,0-77.579-34.736-77.579-77.565
	c0-42.846,34.731-77.583,77.579-77.583C449.813,268.269,484.558,303.006,484.558,345.852z"/>
<path fill="#304555" d="M542.622,110.502c0,15.051-12.199,27.244-27.253,27.244c-15.044,0-27.233-12.193-27.233-27.244
	c0-15.048,12.189-27.248,27.233-27.248C530.423,83.254,542.622,95.454,542.622,110.502z"/>
<path fill="#C23531" d="M449.917,179.931c0,27.202-22.042,49.248-49.256,49.248c-27.181,0-49.225-22.046-49.225-49.248
	c0-27.188,22.044-49.247,49.225-49.247C427.875,130.684,449.917,152.743,449.917,179.931z"/>
</svg>
