<?xml version="1.0" encoding="utf-8"?>
<!-- Generator: Adobe Illustrator 16.0.4, SVG Export Plug-In . SVG Version: 6.00 Build 0)  -->
<!DOCTYPE svg PUBLIC "-//W3C//DTD SVG 1.1//EN" "http://www.w3.org/Graphics/SVG/1.1/DTD/svg11.dtd">
<svg version="1.1" id="图层_1" xmlns="http://www.w3.org/2000/svg" xmlns:xlink="http://www.w3.org/1999/xlink" x="0px" y="0px"
	 width="600px" height="600px" viewBox="0 0 600 600" enable-background="new 0 0 600 600" xml:space="preserve">
<path fill="#293C54" d="M-0.064,220.543c54.85-17.756,73.306-93.729,112.242-98.489c50.529-6.077,80.664,50.546,114.308,40.549
	C262.451,152.021,282.422,48.75,333.94,48.75c38.905,0,72.795,132.801,107.773,132.801c35.028,0,65.656-102.631,98.685-104.434
	c29.552-1.604,42.807,18.398,59.537,54.688v166.591h-600V220.543z"/>
<path fill="#CDCECD" d="M599.936,440.705c-27.775,46.64-60.874,100.536-99.807,105.264c-50.538,6.125-98.577-93.466-142.618-95.8
	c-34.119-1.853-69.614,66.687-121.898,57.827c-83.553-14.152-73.27-111.52-146.774-125.102
	c-41.059-7.553-58.012-10.616-88.902-9.496v-71.45h600V440.705z"/>
<path fill="#C13531" d="M121.197,210.561c50.626-6.139,80.737,76.75,114.746,80.273c34.004,3.55,80.447-76.532,120.552-78.508
	c25.257-1.235,53.104,47.092,88.082,47.092c35.034,0,40.861-59.595,82.082-59.642c32.262,0,59.641,45.039,73.276,85.143v13.478
	v16.323v63.459c-23.384-22.43-51.234-40.743-72.668-27.742c-27.139,16.457-41.422,70.218-76.444,70.218
	c-34.994,0-67.646-77.146-119.279-81.464c-37.884-3.117-61.05,40.845-94.291,54.29c-43.758,17.73-61.189-76.417-111.812-82.594
	c-38.863-4.729-73.083,20.096-125.506,19.41V314.72v-16.323v-31.176C58.701,267.657,82.363,215.321,121.197,210.561z"/>
</svg>
