<?xml version="1.0" encoding="utf-8"?>
<!-- Generator: Adobe Illustrator 16.0.0, SVG Export Plug-In . SVG Version: 6.00 Build 0)  -->
<!DOCTYPE svg PUBLIC "-//W3C//DTD SVG 1.1//EN" "http://www.w3.org/Graphics/SVG/1.1/DTD/svg11.dtd">
<svg version="1.1" id="图层_1" xmlns="http://www.w3.org/2000/svg" xmlns:xlink="http://www.w3.org/1999/xlink" x="0px" y="0px"
	 width="841.891px" height="1190.551px" viewBox="0 0 841.891 1190.551" enable-background="new 0 0 841.891 1190.551"
	 xml:space="preserve">
<g>
	<path fill="#293C54" d="M523.695,607.336L429.66,429.18c-4.301,1.592-8.934,2.502-13.784,2.502c-4.852,0-9.48-0.91-13.785-2.502
		l-94.034,178.155l-106.209-82.073c0,0-7.727,5.812-13.957,6.961l35.057,160.221c0,34.472,86.375,62.423,192.929,62.423
		c106.549,0,192.936-27.951,192.936-62.423l35.023-160.095c-5.195-1.373-9.955-3.764-14.086-6.964L523.695,607.336z"/>
	<path fill="#C23531" d="M216.955,493.889c0-19.184-13.571-35.2-31.637-38.984c-2.511-0.496-5.104-0.771-7.765-0.771
		c-21.942,0-39.724,17.781-39.724,39.725c0,21.927,17.781,39.721,39.724,39.721c3.576,0,7.041-0.48,10.337-1.368v0.013
		C204.649,527.512,216.955,512.148,216.955,493.889z"/>
	<path fill="#C23531" d="M429.66,429.18l-0.09-0.17c15.187-5.573,26.031-20.173,26.031-37.298c0-20.564-15.626-37.475-35.661-39.511
		c-1.333-0.137-2.688-0.207-4.066-0.207c-1.375,0-2.73,0.07-4.063,0.207c-20.035,2.036-35.658,18.945-35.658,39.511
		c0,17.125,10.843,31.725,26.031,37.298l-0.093,0.17c4.305,1.592,8.935,2.502,13.785,2.502
		C420.727,431.682,425.359,430.771,429.66,429.18z"/>
	<path fill="#C23531" d="M654.198,533.579c21.938,0,39.714-17.781,39.725-39.705c-0.004-9.603-3.408-18.409-9.066-25.29
		c-7.288-8.823-18.312-14.449-30.657-14.449c-21.942,0-39.726,17.781-39.726,39.725c0,12.772,6.048,24.136,15.438,31.403
		l-0.162,0.123c4.132,3.2,8.892,5.591,14.087,6.964l0.026-0.139C647.158,533.098,650.622,533.579,654.198,533.579z"/>
</g>
</svg>
