<?xml version="1.0" encoding="utf-8"?>
<!-- Generator: Adobe Illustrator 16.0.0, SVG Export Plug-In . SVG Version: 6.00 Build 0)  -->
<!DOCTYPE svg PUBLIC "-//W3C//DTD SVG 1.1//EN" "http://www.w3.org/Graphics/SVG/1.1/DTD/svg11.dtd">
<svg version="1.1" id="图层_1" xmlns="http://www.w3.org/2000/svg" xmlns:xlink="http://www.w3.org/1999/xlink" x="0px" y="0px"
	 width="600px" height="600px" viewBox="0 0 600 600" enable-background="new 0 0 600 600" xml:space="preserve">
<g>
	<path fill="#C23531" d="M568.377,332.52"/>
	<rect x="83.504" y="362.661" opacity="0.5" fill="#CECECE" width="447.31" height="145.92"/>
	<rect x="83.504" y="68.739" opacity="0.5" fill="#CECECE" width="446.025" height="145.914"/>
	<rect x="235.682" y="68.739" fill="#C23531" width="4.175" height="448.147"/>
	<rect x="383.522" y="68.739" fill="#C23531" width="4.171" height="448.185"/>
	<rect x="21.722" y="508.581" fill="#293C54" width="509.773" height="8.343"/>
	<polygon fill="#293C54" points="531.495,512.752 531.495,478.506 555.227,495.631 578.949,512.752 555.227,529.877 
		531.495,546.992 	"/>
	<rect x="83.504" y="360.573" fill="#C23531" width="447.31" height="4.174"/>
	<rect x="83.504" y="212.545" fill="#C23531" width="446.025" height="4.171"/>
	<rect x="83.504" y="68.739" fill="#293C54" width="8.336" height="509.954"/>
	<polygon fill="#293C54" points="87.673,68.739 53.427,68.739 70.557,45.012 87.673,21.285 104.801,45.012 121.921,68.739 	"/>
</g>
</svg>
