<?xml version="1.0" encoding="utf-8"?>
<!-- Generator: Adobe Illustrator 16.0.0, SVG Export Plug-In . SVG Version: 6.00 Build 0)  -->
<!DOCTYPE svg PUBLIC "-//W3C//DTD SVG 1.1//EN" "http://www.w3.org/Graphics/SVG/1.1/DTD/svg11.dtd">
<svg version="1.1" id="图层_1" xmlns="http://www.w3.org/2000/svg" xmlns:xlink="http://www.w3.org/1999/xlink" x="0px" y="0px"
	 width="600px" height="600px" viewBox="0 0 600 600" enable-background="new 0 0 600 600" xml:space="preserve">
<g>
	<polygon fill="#293C54" points="461.204,407.341 320.957,281.805 167.592,343.962 26.541,256.398 31.815,247.902 168.547,332.784 
		322.98,270.195 458.544,391.538 566.129,197.883 574.871,202.74 	"/>
	<circle fill="#C23531" cx="32.416" cy="309.405" r="12.416"/>
	<polygon fill="#C23531" points="541.985,309.404 541.985,280.438 560.735,294.921 579.484,309.404 560.735,323.889 
		541.985,338.373 	"/>
	<rect x="36.971" y="303.751" fill="#C23531" width="22.68" height="12.059"/>
	<rect x="36.971" y="303.751" fill="#C23531" width="22.68" height="12.059"/>
	<rect x="76.45" y="303.751" fill="#C23531" width="22.679" height="12.059"/>
	<rect x="115.927" y="303.751" fill="#C23531" width="22.68" height="12.059"/>
	<rect x="155.406" y="303.751" fill="#C23531" width="22.679" height="12.059"/>
	<rect x="194.884" y="303.751" fill="#C23531" width="22.679" height="12.059"/>
	<rect x="234.362" y="303.751" fill="#C23531" width="22.68" height="12.059"/>
	<rect x="273.84" y="303.751" fill="#C23531" width="22.679" height="12.059"/>
	<rect x="313.318" y="303.751" fill="#C23531" width="22.68" height="12.059"/>
	<rect x="352.797" y="303.751" fill="#C23531" width="22.678" height="12.059"/>
	<rect x="392.273" y="303.751" fill="#C23531" width="22.68" height="12.059"/>
	<rect x="431.752" y="303.751" fill="#C23531" width="22.68" height="12.059"/>
	<rect x="471.23" y="303.751" fill="#C23531" width="22.68" height="12.059"/>
	<rect x="510.709" y="303.751" fill="#C23531" width="22.678" height="12.059"/>
	<rect x="544.186" y="303.751" fill="#C23531" width="22.68" height="12.059"/>
	<g>
		<path fill="#FFFFFF" d="M179.793,337.835c0,6.325-5.13,11.462-11.458,11.462c-6.328,0-11.459-5.137-11.459-11.462
			c0-6.331,5.131-11.457,11.459-11.457C174.663,326.378,179.793,331.504,179.793,337.835z"/>
		<path fill="#293C54" d="M168.335,352.297c-7.973,0-14.459-6.487-14.459-14.462c0-7.972,6.486-14.457,14.459-14.457
			c7.972,0,14.458,6.485,14.458,14.457C182.793,345.81,176.307,352.297,168.335,352.297z M168.335,329.378
			c-4.664,0-8.459,3.794-8.459,8.457c0,4.666,3.795,8.462,8.459,8.462c4.664,0,8.458-3.796,8.458-8.462
			C176.793,333.172,172.999,329.378,168.335,329.378z"/>
	</g>
	<path fill="#FFFFFF" d="M46.283,253.585c0,6.325-5.13,11.462-11.458,11.462c-6.328,0-11.459-5.137-11.459-11.462
		c0-6.331,5.131-11.457,11.459-11.457C41.153,242.128,46.283,247.254,46.283,253.585z"/>
	<path fill="#293C54" d="M34.825,268.047c-7.973,0-14.459-6.488-14.459-14.462c0-7.972,6.486-14.457,14.459-14.457
		c7.972,0,14.458,6.485,14.458,14.457C49.283,261.559,42.797,268.047,34.825,268.047z M34.825,245.128
		c-4.664,0-8.459,3.794-8.459,8.457c0,4.666,3.795,8.462,8.459,8.462c4.664,0,8.458-3.796,8.458-8.462
		C43.283,248.922,39.489,245.128,34.825,245.128z"/>
	<g>
		<path fill="#FFFFFF" d="M333.427,274.835c0,6.325-5.13,11.462-11.458,11.462s-11.459-5.137-11.459-11.462
			c0-6.331,5.131-11.457,11.459-11.457S333.427,268.504,333.427,274.835z"/>
		<path fill="#293C54" d="M321.969,289.297c-7.973,0-14.459-6.488-14.459-14.462c0-7.972,6.486-14.457,14.459-14.457
			s14.458,6.485,14.458,14.457C336.427,282.809,329.941,289.297,321.969,289.297z M321.969,266.378
			c-4.664,0-8.459,3.794-8.459,8.457c0,4.666,3.795,8.462,8.459,8.462s8.458-3.796,8.458-8.462
			C330.427,270.172,326.633,266.378,321.969,266.378z"/>
	</g>
	<g>
		<path fill="#FFFFFF" d="M469.869,397.604c0,6.325-5.129,11.462-11.457,11.462s-11.459-5.137-11.459-11.462
			c0-6.331,5.131-11.457,11.459-11.457S469.869,391.273,469.869,397.604z"/>
		<path fill="#293C54" d="M458.412,412.066c-7.973,0-14.459-6.487-14.459-14.462c0-7.972,6.486-14.457,14.459-14.457
			c7.972,0,14.457,6.485,14.457,14.457C472.869,405.579,466.384,412.066,458.412,412.066z M458.412,389.147
			c-4.664,0-8.459,3.794-8.459,8.457c0,4.666,3.795,8.462,8.459,8.462c4.663,0,8.457-3.796,8.457-8.462
			C466.869,392.941,463.075,389.147,458.412,389.147z"/>
	</g>
	<g>
		<path fill="#FFFFFF" d="M578.25,203.643c0,6.325-5.13,11.462-11.458,11.462c-6.327,0-11.459-5.137-11.459-11.462
			c0-6.331,5.132-11.457,11.459-11.457C573.12,192.186,578.25,197.312,578.25,203.643z"/>
		<path fill="#293C54" d="M566.792,218.104c-7.973,0-14.459-6.488-14.459-14.462c0-7.972,6.486-14.457,14.459-14.457
			s14.458,6.485,14.458,14.457C581.25,211.617,574.765,218.104,566.792,218.104z M566.792,195.186c-4.664,0-8.459,3.794-8.459,8.457
			c0,4.666,3.795,8.462,8.459,8.462s8.458-3.796,8.458-8.462C575.25,198.979,571.456,195.186,566.792,195.186z"/>
	</g>
</g>
</svg>
