<?xml version="1.0" encoding="utf-8"?>
<!-- Generator: Adobe Illustrator 16.0.0, SVG Export Plug-In . SVG Version: 6.00 Build 0)  -->
<!DOCTYPE svg PUBLIC "-//W3C//DTD SVG 1.1//EN" "http://www.w3.org/Graphics/SVG/1.1/DTD/svg11.dtd">
<svg version="1.1" id="图层_1" xmlns="http://www.w3.org/2000/svg" xmlns:xlink="http://www.w3.org/1999/xlink" x="0px" y="0px"
	 width="600px" height="600px" viewBox="0 0 600 600" enable-background="new 0 0 600 600" xml:space="preserve">
<g>
	<polygon fill="none" stroke="#293C54" stroke-width="10" stroke-miterlimit="10" points="42.4,412.8 27.5,420.2 82.2,447.5 
		135.3,420.2 120.8,412.8 82.2,432.6 	"/>
	<polygon fill="none" stroke="#293C54" stroke-width="10" stroke-miterlimit="10" points="120.8,397.8 106.3,405.3 82.2,417.7 
		57.4,405.3 42.4,397.8 27.5,405.3 42.4,412.8 82.2,432.6 120.8,412.8 135.3,405.3 	"/>
	<polygon fill="none" stroke="#293C54" stroke-width="10" stroke-miterlimit="10" points="120.8,382.9 106.3,390.4 91.8,397.8 
		82.2,402.8 72.4,397.8 57.4,390.4 42.4,382.9 27.5,390.4 42.4,397.8 57.4,405.3 82.2,417.7 106.3,405.3 120.8,397.8 135.3,390.4 	
		"/>
	<polygon fill="none" stroke="#293C54" stroke-width="10" stroke-miterlimit="10" points="82.2,348 27.5,375.3 42.4,382.8 
		57.4,390.3 72.4,397.7 82.2,402.6 91.8,397.7 106.3,390.3 120.8,382.8 135.3,375.3 	"/>
</g>
<g>
	<rect x="188.3" y="347.8" fill="none" stroke="#C13531" stroke-width="10" stroke-miterlimit="10" width="40.9" height="40.9"/>
	<rect x="246.9" y="347.8" fill="none" stroke="#C13531" stroke-width="10" stroke-miterlimit="10" width="40.9" height="40.9"/>
	<rect x="188.3" y="406.8" fill="none" stroke="#C13531" stroke-width="10" stroke-miterlimit="10" width="40.9" height="40.9"/>
	<rect x="246.9" y="406.8" fill="none" stroke="#C13531" stroke-width="10" stroke-miterlimit="10" width="40.9" height="40.9"/>
</g>
<g>
	<line fill="none" stroke="#293C54" stroke-width="10" stroke-miterlimit="10" x1="501.7" y1="206.2" x2="529.5" y2="206.2"/>
	<line fill="none" stroke="#293C54" stroke-width="10" stroke-miterlimit="10" x1="501.7" y1="206.2" x2="529.5" y2="206.2"/>
	<line fill="none" stroke="#293C54" stroke-width="10" stroke-miterlimit="10" x1="551.9" y1="228.2" x2="501.7" y2="228.2"/>
	<polygon fill="none" stroke="#293C54" stroke-width="10" stroke-miterlimit="10" points="490.9,178.8 490.9,279.3 561.9,279.4 
		561.9,201.8 539.2,178.8 	"/>
	<polyline fill="none" stroke="#293C54" stroke-width="10" stroke-miterlimit="10" points="539.2,179.1 539.2,202 561.9,202 	"/>
	<line fill="none" stroke="#293C54" stroke-width="10" stroke-miterlimit="10" x1="551.9" y1="250.1" x2="501.7" y2="250.1"/>
</g>
<g>
	<line fill="none" stroke="#C13531" stroke-width="10" stroke-miterlimit="10" x1="80.6" y1="258" x2="80.6" y2="177"/>
	<path fill="none" stroke="#C13531" stroke-width="10" stroke-miterlimit="10" d="M36.5,222.9"/>
	<polyline fill="none" stroke="#C13531" stroke-width="10" stroke-miterlimit="10" points="36.5,218.2 80.7,258.7 126.3,219.1 	"/>
	<polyline fill="none" stroke="#C13531" stroke-width="10" stroke-miterlimit="10" points="36.4,255.3 36.4,281.2 124.8,281.2 
		124.8,255.3 	"/>
</g>
<g>
	<polyline fill="none" stroke="#C13531" stroke-width="10" stroke-miterlimit="10" points="480.2,391.4 493,391.4 509.6,351.8 
		522.9,420.1 540.4,384.8 545.8,407.7 572.5,407.7 	"/>
	<line fill="none" stroke="#C13531" stroke-width="10" stroke-miterlimit="10" x1="480.2" y1="443.7" x2="572.5" y2="443.7"/>
</g>
<g>
	<path fill="none" stroke="#293C54" stroke-width="10" stroke-miterlimit="10" d="M191.1,235.2"/>
	<polyline fill="none" stroke="#293C54" stroke-width="10" stroke-miterlimit="10" points="268.6,209.2 286.3,209.2 286.3,190.8 	
		"/>
	<path fill="none" stroke="#293C54" stroke-width="10" stroke-miterlimit="10" d="M187.9,230.2c-0.8-25.9,18.8-48.2,44.4-51.1
		c24.7-2.8,45.5,12.3,53,32.3"/>
	<polyline fill="none" stroke="#293C54" stroke-width="10" stroke-miterlimit="10" points="207.5,249.1 189.8,249.1 189.8,267.5 	
		"/>
	<path fill="none" stroke="#293C54" stroke-width="10" stroke-miterlimit="10" d="M288.2,228c0.8,25.9-18.8,48.2-44.4,51.1
		c-24.7,2.8-45.5-12.3-53-32.3"/>
</g>
<g>
	<g>
		<rect x="341" y="383" fill="none" stroke="#293C54" stroke-width="10" stroke-miterlimit="10" width="18" height="45.6"/>
		<rect x="373.8" y="366.3" fill="none" stroke="#293C54" stroke-width="10" stroke-miterlimit="10" width="18" height="62.3"/>
		<rect x="406.7" y="347.8" fill="none" stroke="#293C54" stroke-width="10" stroke-miterlimit="10" width="18" height="80.8"/>
	</g>
	<line fill="none" stroke="#293C54" stroke-width="10" stroke-miterlimit="10" x1="334.7" y1="447.7" x2="431" y2="447.7"/>
</g>
<g>
	<line fill="none" stroke="#C13531" stroke-width="10" stroke-miterlimit="10" x1="330.7" y1="201.2" x2="379.1" y2="201.2"/>
	<line fill="none" stroke="#C13531" stroke-width="10" stroke-miterlimit="10" x1="354.9" y1="225.4" x2="354.9" y2="177"/>
	<polyline fill="none" stroke="#C13531" stroke-width="10" stroke-miterlimit="10" points="388.4,201.2 434.9,201.2 434.9,281.2 
		354.9,281.2 354.9,234.7 	"/>
</g>
</svg>
