<?xml version="1.0" encoding="utf-8"?>
<!-- Generator: Adobe Illustrator 16.0.0, SVG Export Plug-In . SVG Version: 6.00 Build 0)  -->
<!DOCTYPE svg PUBLIC "-//W3C//DTD SVG 1.1//EN" "http://www.w3.org/Graphics/SVG/1.1/DTD/svg11.dtd">
<svg version="1.1" id="图层_1" xmlns="http://www.w3.org/2000/svg" xmlns:xlink="http://www.w3.org/1999/xlink" x="0px" y="0px"
	 width="600px" height="600px" viewBox="0 0 600 600" enable-background="new 0 0 600 600" xml:space="preserve">
<g>
	<path fill="#CECECE" d="M494.904,110.388l-0.957-3.008l-2.467-4.242l-2.059-1.105l-2.045,1.105l-1.248,2.471l-0.133,0.271h-0.277
		h-0.133l-3.824,0.676c-0.412,0.264-0.822,0.42-1.104,0.824l-0.832,0.967l-2.045,1.627l-0.533,0.28l-1.779,0.268
		c-0.824-0.134-2.057-0.82-3.702-2.042l-0.146-0.133c-2.734-2.739-4.103-4.66-4.103-5.759v-3.563v-0.139v-0.139l0.411-0.659
		l-3.971-1.387l-0.145,1.387c0,0.394-0.411,0.938-1.088,1.355l-1.378,0.55l-0.546-0.157v-0.127l-2.046-0.398l0.425,1.496
		l-3.584-2.324h-0.145l-0.121-0.139c-0.558-1.509-0.822-3.016-0.822-4.648c0-1.381,0.145-2.192,0.688-2.749l0.814-1.506
		l-0.268-1.222l-3.558,0.526c-1.778,0.152-3.013,1.254-3.704,3.304v0.12l-2.044,3.159l2.044-0.129h0.146l0.132-0.149l0.146,0.278
		l1.621,0.685h0.292l0.265,0.146v0.398l0.266,2.887l0.837,2.741v0.126v0.132v0.146l-4.513,8.894
		c-0.837,1.225-1.235,4.521-1.516,9.453v0.411l-1.778,3.418l1.247,1.374v0.285c0.109,2.03,0,3.278-0.557,3.543l-0.423,0.14
		c-0.97,0.539-4.103,3.833-9.163,10.002l-0.423,0.4l-0.253-0.128l-0.424-0.272c-1.777-1.228-3.412-2.328-4.369-3.419
		c-0.835-0.557-2.879-0.967-6.316-0.967l-0.133,6.297l-0.135,0.134l-2.456,11.909c-0.555,1.504-0.689,4.253-0.689,8.361l0.956,1.232
		l0.822-1.643h0.121l0.146-0.287l3.156-1.644l8.764,1.372l0.955-1.095l1.234-2.185l0.269-0.132l0.143-0.157l3.413-0.661l4.524-0.289
		c1.368,0.289,3.003,2.053,5.06,4.79c5.482,2.75,8.496,5.205,9.174,7.407c0.423,1.097,0.423,1.906,0,2.874
		c-0.401,0.952-1.366,1.509-2.734,1.636h-0.132c-6.706-0.261-10.53-0.261-11.911,0.156l-3.291,2.174
		c-4.103,3.03-6.848,4.526-8.348,4.526l-2.748,0.396l-1.635,6.863c-0.412,2.046-1.088,3.418-2.336,4.381
		c-1.09,1.095-2.748,1.787-4.913,2.191c-2.626,0.411-4.815,1.361-6.862,2.603l-2.323,4.928l-0.144,0.122h-0.135h-0.145l-6.291,2.607
		h-0.4l-3.158-0.683c-2.457-0.411-4.382-1.091-5.616-1.924c-1.646-0.818-3.425-0.95-5.335-0.411
		c-1.635,2.335-2.47,5.203-2.324,8.355c0.133,1.635,0.543,2.735,0.967,3.014l0.946-0.129l1.101-0.689l0.265,4.383
		c0,1.494-0.544,2.603-1.644,3.418c-0.668,0.556-1.914,1.093-3.704,1.639l-1.077,0.271c-1.367,0.559-4.248,4.249-8.496,10.967v0.14
		h-0.135l-4.113,2.453c0.689,0,1.092,0.283,0.957,0.816c-0.133,0.565-0.544,0.691-1.633,0.831l-11.63-0.266
		c-13.022-0.417-23.152,3.153-30.413,10.54l-0.131,0.133l-0.268,0.146h-0.146l-4.792,0.54l-0.277,0.132h-0.279l-1.367-3.279
		l-4.914,1.22c-2.602,0.146-6.026-0.537-9.861-2.457c-3.559-1.504-6.705-3.569-9.864-6.014c-2.046-1.656-4.659-2.752-7.659-3.285
		l-4.383-0.41l-4.925,0.676c-3.567,0.548-7.126,0.548-10.405,0.268c-3.969-0.268-8.762-1.354-14.522-3.143l-0.413,0.812h0.148h0.132
		l0.133,0.148v0.14l0.132,1.358l1.248,2.602l2.855,3.563l0.148,0.409l-0.559,2.594v0.158h-0.132l-1.623,2.183l1.755,1.785
		c0.689,0.672,1.103,1.222,1.103,1.759l0.421,2.603l2.046,2.063v0.267l0.268,1.792v1.355l1.232,0.962l0.824-0.287l0.133-0.395
		c0.422-1.085,1.102-1.636,2.057-1.775l1.101-0.411l7.238-0.68l2.893-1.1l0.278-0.139l0.411-0.272l1.501,3.292h0.135
		c0.143,0.805,0,1.48-0.4,2.178l-3.983,5.616l0.28,0.948l1.778,1.78l1.789,1.115h0.135c0.798,1.088,1.5,1.783,2.324,2.045
		c0.968,0.271,1.911,1.093,2.733,2.195l0.135,0.423l1.366,0.526l0.413,0.144h0.144l0.411,1.509l0.135,1.504l0.545,2.208l3.435,0.529
		h0.268l0.133,0.132v0.139l0.133,0.288l0.98,1.903l2.724,0.955l1.911-0.955l-0.268-1.089l-1.791-1.639l0.28-0.263v-0.288
		l1.511-2.874h3.292l0.133,0.133l4.648,1.652l2.602-0.422l2.057-1.913c2.324-2.875,3.838-4.115,4.795-3.425l1.086-0.13
		c1.235,0,1.925,0.13,2.338,0.276c0.133,0.259,0.266,0.531,0.266,0.814c0,0.537,0.557,1.642,1.377,3.146v0.146v0.126l0.414,1.907
		v0.417l-0.557,2.186v0.149l-0.12,0.129l-2.348,2.752l-0.135,0.128l-4.913,2.19l-0.689,1.377l-0.689,3.96l0.41,1.921l1.234,2.046
		l0.545,0.4l1.646,1.108h5.737l4.803-0.687l0.679-0.671c0.702-0.841,1.38-1.1,1.792-1.1l3.266,0.544l0.293-0.544
		c-0.293-0.959-0.293-1.78,0.275-2.596l1.367-2.337v-4.387v-0.124l2.457-7.118l0.133-0.144v-0.128h0.146v-0.149l4.248-3.409
		l0.266-0.285l3.704,1.642c1.911,1.371,2.868,2.474,2.868,3.146l-0.268,3.014l-1.246,1.923l-0.943,2.735v3.013l0.943,1.354
		l1.246-0.126l0.268-0.135l2.057,0.135c1.088,0.544,1.779,1.507,2.323,2.878l1.233,0.412h0.135h0.143l4.662,2.197l2.043,0.691
		l2.881-0.431l1.235-1.638l1.646-6.712l0.133-3.679v-0.289l0.278-0.128l0.119-0.149l2.604-2.191l1.523-1.913l0.123-0.134
		l2.734-1.245l1.657-0.948l2.044-0.831l-1.101-4.102l4.672,0.556v0.127l2.458,0.965V273.6l0.676-2.606v-0.411l0.412,0.144h0.266
		l2.202,0.532h1.09l2.059-2.309h0.144l0.133-0.148h0.135l2.734-0.536l2.322-2.199l1.248-1.783v-2.191
		c0-0.812,0.41-1.357,1.234-1.777h0.264h0.133l2.602,0.272l1.09-0.68l0.413-1.922l2.735-0.807h0.145h0.145l3.439,0.402l2.72-0.68
		l1.647-1.659l1.088-2.191l-2.057-2.188v-0.133l-0.398-1.636l-0.559-2.476v-0.118l1.234-2.2c0-0.674,0.411-1.643,1.516-2.737
		l1.498-3.011v-0.14h0.133l1.38-2.202l2.046-4.1l1.924,2.741l0.133,0.133v0.144l0.689,2.734V238l0.411,2.733l1.902,0.83h0.144
		l0.557,0.272l0.122-0.139l1.655-2.866l0.957-2.75l0.412,0.13l0.398,0.147l3.984,1.378l1.91-1.526l0.133-0.13h0.278l1.924-0.133
		l1.354-2.317v-2.875l0.97-4.394l0.278,0.133h0.399l3.024,0.68l1.367-2.457h0.134h0.268l2.745-0.263h0.4v0.133l0.291,0.13
		l1.367,1.928v0.126l0.12,0.132v0.27l0.278,2.735l1.367,1.244l1.926-1.779l0.412,0.536c0.676,0.689,0.955,1.378,0.955,2.201v2.467
		l-0.955,2.463l0.676,1.106l1.367,1.489l5.751,0.828l0.144,0.146l0.277,0.122l0.4,0.416l1.645-2.319h0.145l1.357-1.377l-0.543-2.058
		l-1.49-8.749l3.955,1.907h0.135h0.146l1.792,2.202l1.076,1.087l1.656-1.087l5.738-6.3h0.135l2.066-1.518l2.324-3.277l0.133-0.273
		l3.146,0.815h1.525c0-1.232,0.266-2.069,0.398-2.596l2.337-2.735l0.677-0.424l2.734,0.968l3.281-0.417l2.201-2.334l1.104-2.04
		l-0.691-1.1l-1.936,0.954l-0.133-0.139l-0.135-0.134l-2.456-2.197l-0.144-0.139l0.965-3.695l0.268-2.736l-0.678-2.317l-1.924-0.683
		v-0.149l-0.123-0.128l-0.156-0.139l-1.633-3.279l-0.268-0.411l-2.333,2.735l-2.339,1.505l-0.543,0.271l-0.146-0.133l-0.119-0.272
		l-2.48-2.341v-0.132l-1.756-3.824v-0.148l-0.846-2.729v-0.147v-4.105l-0.256-2.467l-1.937-0.672h-0.13v-0.154l-4.371-3.41
		l0.278-0.413l2.046-2.197v-0.118v-0.157h0.279l2.32-0.276h0.136c0.688,0,1.378,0.433,1.922,1.105l1.913,1.498l2.057-1.644
		l1.5-2.052v-1.792l-0.557-4.362l-0.398-1.774l-3.012-0.562v-1.772l-2.736-3.432l-0.146-0.125l-1.366-2.47l-0.268-0.272v-0.268
		l3.013-3.97V153.1l0.132-0.129v-0.117h0.281l1.223-0.164l1.5-1.21l1.777-5.489h0.146v-0.133l2.188-2.47v-0.126h0.136h0.156
		l2.457-0.684v0.257l1.635,1.38l0.543,0.139l0.957-4.247l-0.957-3.023l-0.133-0.133v-0.263l0.412-3.441v-0.261l1.645-1.792
		l1.103-1.898l0.122-1.652c0-0.817-0.387-2.198-1.225-4.252v-3.268v-0.154l0.689-2.874c-0.555-1.239-0.965-2.187-0.965-2.868
		L494.904,110.388z"/>
	<path fill="#CECECE" d="M301.426,277.154h-2.179l-0.689,1.511l1.234,1.242v0.139v0.124l0.544,1.781l0.146,0.154v0.389l-0.279,0.148
		l-3.026,1.511l-0.132,0.14h-0.133h-0.133c-2.348-0.289-3.557-0.968-3.97-1.938l-0.824-1.633l-4.103-0.814l-1.1-5.216
		c-0.824-0.126-1.513-0.536-1.913-1.091l-0.133-0.266c-0.702-0.973-1.235-1.504-2.057-1.65c-1.113-0.409-2.071-1.23-2.878-2.456
		l-1.635-0.96h-0.158l-2.177-2.201l-0.559-1.898v-0.154l4.381-6.029c0.147-0.405,0.291-0.68,0.147-0.807l-0.824-1.928l-2.337,0.955
		h-0.12v0.132h-0.146l-6.025,0.431l-2.325,0.537l-0.834,0.811l-0.398,0.844c-0.557,0.666-1.369,1.081-2.602,0.803l-0.146-0.137
		l-2.046-1.51l-0.12-3.417c-1.112-0.804-1.791-1.647-2.069-2.309l-0.556-3.028l-1.37-1.639l-1.5-1.22l-0.676-0.432l2.455-3.133
		l0.559-1.786l-2.748-3.418h-0.132v-0.146l-1.235-2.728v-0.139l-0.278-1.372l-1.779-1.363v-0.14l-1.923-2.062l-2.444-0.397
		l-2.749,0.809l-0.411,0.571l-0.411,3.816v4.244l-0.411,0.14l-2.604,0.954v0.146l-2.467,0.12c-1.222,0.693-2.589,1.376-4.103,1.937
		l-0.265,0.135h-0.146l-4.648-1.104l-1.937,2.064c-0.385,0.526-1.353,1.096-2.587,1.357l-2.881,2.326l-1.5,2.325v0.139l-0.132,0.14
		c-0.811,1.224-1.515,2.191-2.07,2.602l-1.646,2.063v0.133l-0.122,0.128l-0.957,0.683c-0.677,0.289-1.368,0.419-1.922,0.419
		l-3.426-0.278l-0.798,1.252l-1.246,2.165l0.543,2.201l-0.266,5.331l0.968,1.647v0.144l0.398,1.237h1.913l3.292,0.676l4.248,0.271
		l1.898-0.271h0.278h0.148l3.69,1.371h0.146l1.913,1.51l4.113,1.502h0.122l2.733,1.65l6.715,6.168l3.016,1.349l1.246-0.533
		l1.208-2.348l-0.676-3.688c0-1.094,0.824-1.776,2.457-2.459l0.289-0.139l8.354,4.929l0.954-0.271l1.912-1.1h0.265l1.103,0.139
		l1.647-1.354l0.289-0.156l0.388,0.271l4.937,3.426l0.146,0.155l3.136,2.596c0.821,0.533,1.921,1.5,2.878,2.874l1.5,1.643
		l1.235-0.132l1.38-2.602l2.868,2.035h0.133h0.156l2.324,2.879l6.146,4.665l1.781,2.044l5.348-1.518l0.268,3.981l2.324,2.324v0.146
		l1.936,2.883v0.133v0.117v0.153l2.043,9.445l2.059,3.828l-2.734,6.99v0.417l-2.348,0.533v2.051l-0.133,0.157l-2.314,3.822h-0.275
		l-3.281,0.278l-3.302,2.735c0.411,0.402,0.969,0.686,1.924,1.085c1.378,0.417,1.511,1.519,0.822,3.424v0.157l-2.334,2.324h-0.133
		l-0.133,0.271h-0.146h-0.134l-6.571-0.976l-0.143,2.339l0.674,4.926l5.496,2.326v0.272l2.059-0.676l0.132-0.129l0.266-0.144
		l0.146,0.272h0.146l1.488,0.805h2.348l0.811-0.129l-0.811-2.599l-0.557-2.734v-0.131v-0.295l0.133-0.122v-0.134l0.824-0.96
		l0.278-0.266l0.132-0.146l1.514-2.052l0.121-0.139l2.468-1.907h0.146v-0.157h0.133l3.025-0.403v0.802
		c0,0.974,0.121,1.666,0.266,2.083l0.544,1.224l0.812,1.776l2.748,1.509l7.526,0.672h0.278h0.411v0.428v0.272l-0.276,2.474
		l2.189,2.32l1.646,0.688l0.278,0.127v0.153l0.133,0.251v0.976v1.355l-0.68,2.728l0.945,0.696c1.102-0.122,2.059-0.122,3.027,0.558
		l3.146,1.512l1.898-1.512l2.068-2.185l0.134-0.976l0.146-0.257l0.268-0.14l0.266-0.279v-0.272l-0.679-2.874l-0.134-1.509
		l-0.132-0.131v-0.147l0.132-0.149v-0.129l1.091-1.775l0.145-0.131l2.19-1.499h0.132h4.516l0.677-0.291l-0.133-2.318l-0.678-2.052
		l-1.5-2.474l-0.157-0.125v-0.13v-3.441v-0.139l0.848-2.053l0.133-0.126l3.689-5.347l0.146-0.137h0.135l0.266-0.132h0.822
		l1.367,0.132l3.158,1.781l2.046,0.549l0.278-0.954l-0.424-0.277v-0.412c0-0.818,0.424-1.502,1.246-2.19l2.47-1.781l0.132-0.139
		v-0.14c1.368-0.41,2.189-0.683,2.736-0.683l2.188-0.265h0.269l1.367,0.265l0.956-3.417v-2.331c0-1.507,0-2.468,0.425-2.753
		l0.953-1.761l-1.234-1.649l-1.631-1.099l-3.426-0.954c-0.689,0-1.925-0.681-3.971-2.457l-2.057-0.961h-0.133l-0.146-0.139
		l-2.457-3.007h-2.323l-0.157-0.148h-0.121l-2.069-1.095l-1.223,1.646l-0.266,6.432l0.411,2.463h0.957l0.12,0.118l1.924,0.578v0.126
		v0.146l0.956,2.329h0.156v0.135v0.143l-0.556,4.238v0.271v0.133l-0.133,0.158c-0.689,0.398-1.248,0.663-1.922,1.088l-0.281,0.128
		l-0.145-0.128h-0.12l-0.957-0.297l-2.202,0.822h-0.133l0.133,0.426l0.133,0.133l0.411,3.703c0,0.537-0.278,0.821-0.812,0.947
		h-1.646c-0.809-0.126-1.233-0.41-1.644-0.827l-1.635-1.203l-0.146-0.156h-0.132v-0.131l-0.957-2.333
		c-0.278-0.265-0.967-0.682-2.335-1.084h-0.145h-0.121l-1.924-1.379h-0.28v-0.271l-0.544-2.331l0.291-1.779h0.121v-0.128
		l0.811-0.971v-0.672l-0.811-2.48l-1.912-1.774v-0.266l-0.557-5.615l-1.354-1.37h-0.148l-0.133-0.143l-1.1-2.61l-4.927-0.536
		c-1.222-0.407-2.057-1.24-2.601-2.344h-2.191c-0.811-0.266-1.646-0.803-2.6-1.753l-0.268-0.292c-0.557-0.55-1.1-1.379-1.646-2.457
		l-0.133-0.139l-0.426-2.194v-0.126v-0.139l0.838-4.244v-0.15l0.811-1.78v-0.124v-0.13h0.146l5.202-2.209l2.047-2.448l0.41-2.063
		l-0.277-1.511c-0.822-1.781-1.368-2.872-1.368-3.565l-1.089,0.15l-1.924-0.15c-0.412,0.15-1.501,1.38-3.001,3.156l-2.324,2.203
		h-0.144l-0.147,0.121c-1.767,0.411-3.001,0.689-3.69,0.411L301.426,277.154z"/>
	<path fill="#CECECE" d="M337.851,278.387l-2.457,6.849v4.509v0.156l-1.378,2.318l-0.268,1.649c0.268,0.953-0.133,1.758-1.09,2.318
		l-0.275,0.139h-0.146l-0.132-0.139l-3.427-0.411l-1.791,1.654l-5.18,0.803h-2.191l1.357,0.974l4.938,0.552h0.277h0.266l0.133,0.129
		v0.149l1.225,3.001l1.378,0.956c0.399,0.552,0.691,1.374,0.691,2.883l0.133,3.684l1.632,1.511h0.134v0.16h0.146l0.834,2.727v1.507
		l-0.979,1.37l-0.266,1.215l0.411,1.379l1.646,1.096c1.78,0.683,2.735,1.101,3.159,1.781l0.955,2.047
		c1.09,0.557,1.634,1.099,1.912,1.648l1.248,0.411h0.119l-0.557-3.007c-0.121-0.683-0.121-1.374,0.146-1.652
		c0.291-0.413,0.557-0.689,1.1-0.812l2.047-0.688l0.145-0.14h0.133l0.146,0.14l0.957,0.271l1.22-0.676v-0.287l0.413-3.419
		l-0.824-1.649l-1.087-0.535l-1.381-0.146h-0.268l-0.264-0.14l-0.558-3.545l0.146-6.985l0.266-0.276l2.059-2.885l3.014,1.642h1.765
		l1.381-8.895c-0.411-0.959-0.821-1.635-1.633-2.046l-0.823-0.161v0.161h-0.412l-2.204,0.412l-0.132-0.285l-0.131-0.126
		l-1.503-1.937v-0.128l-0.146-0.133v-3.424l0.557-1.918l0.546-0.817c0-0.559,0.12-1.103,0.677-1.773l0.543-0.7l0.135-2.318
		l-2.046-1.92l-2.735-1.371L337.851,278.387z"/>
	<path fill="#CECECE" d="M244.342,229.104l0.135-0.138h0.132v-0.132l-4.383-12.456l-2.733-2.194v-0.279l-0.691-5.075l-5.759-0.814
		h-0.123h-0.291v-0.139l-0.107-0.259v-0.158c-0.691-1.901-2.47-3.961-5.215-6.141c-1.502-1.245-3.014-2.058-4.249-2.341
		c-0.943-0.546-1.914-0.951-2.602-1.494c-1.79-1.237-7.939-2.206-18.759-2.486h-0.411l-1.223-1.907
		c-0.544-1.23-0.966-2.337-1.102-3.547c0-1.53,1.768-6.449,5.603-14.521l-1.898-6.021l-2.069-9.584
		c-0.278-1.373-2.59-2.606-6.692-3.837c-0.824-0.284-1.646-0.55-2.468-1.1c-1.512-0.683-2.614-1.924-3.145-3.418
		c-0.837-1.78-2.192-3.284-4.116-4.11l-0.146-0.14l-0.132-0.132l-1.635-8.488l-6.57,0.689l-0.705,1.755
		c-0.807,2.875-1.63,4.252-2.587,4.252l-4.248,1.38c-2.603,0.944-4.247,2.046-5.07,3.279c-0.4,0.546-0.812,2.198-1.102,4.383
		c-0.387,2.449-0.809,4.24-1.367,5.348c-0.812,1.781-2.034,3.146-3.957,3.835c-3.558,1.354-9.595-0.967-17.935-6.851l-11.231,14.367
		l1.369,5.894h0.133l0.133,0.272l-0.266,0.139v0.145c-0.557,0.809-1.369,1.367-2.337,1.5c-1.087,0.268-2.189-0.133-3.412-0.964
		c-1.102-0.821-4.248-1.504-9.321-1.788l-2.321-0.131l-3.414-0.28l-3.715,0.695l1.658,2.334c1.357,1.781,1.911,2.86,1.768,3.557
		l-1.5,8.895l0.689,4.788h0.133v0.149l-0.133,0.123l-2.748,8.905c-0.132,0.828-0.398,1.236-0.676,1.097h-0.267v-0.133l-0.424-0.826
		c-0.543-1.094-0.811-1.504-1.222-1.372c-0.278,0.14-0.702,0.689-0.822,1.928c-0.559,2.457-2.059,4.51-4.394,6.701l-2.457,1.924
		l-1.233,0.683h-0.134l-8.908,0.133l-3.412,3.28h-0.145h-0.266h-0.146l-9.44-1.375c-1.5,1.658-3.011,2.206-4.526,1.92
		c-1.378-0.401-3.69,0.139-6.994,1.38l-3.825,4.516l-0.122,0.274l-6.038,0.131v-5.054h-3.836l-0.689,2.188l-2.868,0.68h-0.278
		l-0.133-0.133h-0.132c-1.781-1.109-3.97-1.913-6.174-2.202c-1.22-0.122-2.72,0.693-4.925,2.613
		c-2.322,1.907-3.97,3.683-4.779,5.342c0.387,0.274,0.677,0.811,0.677,1.639c0.267,0.953,0.411,1.781,0.411,2.877
		c-0.144,1.087-0.555,1.778-1.088,2.315c-0.691,0.435-1.102,1.646-1.513,3.85l2.19,1.494l3.013-3.141l3.825,4.245v0.277l0.834,7.519
		v0.139h-0.145l-2.202,10.414h-0.532c-3.147,0-5.192,0.13-6.039,0.697c0.156,0.677,1.513,1.78,3.848,3.262l1.911-0.262h0.413
		l0.146,0.131l4.513,4.384c1.766,1.506,1.646,4.094-0.702,7.943l0.702,4.231l1.766,0.435h6.997l-3.56,3.273l2.057,1.079l2.736,1.528
		l7.394,3.142l0.146,0.125h0.268l0.678,11.235c0.12,2.186,1.779,3.83,5.058,4.932l0.556-0.271h0.144h0.134l7.675,1.105h0.543V307
		l0.12-0.254c0.847-1.525,1.38-2.604,1.38-2.881v-0.289c-0.146-1.23,0.411-2.317,1.513-3.146c1.09-0.822,1.779-1.627,2.177-2.609
		l0.148-0.116c0.411-1.104,1.776-1.38,4.1-0.693h0.146l2.589,1.494l8.639,1.653l5.338-0.401l3.825-1.651
		c0.702-0.976,1.235-1.365,1.646-1.642c0.688-0.14,1.645,0.137,2.758,1.091l0.535,0.266c0.555,0.411,0.954,1.261,1.498,2.759
		l2.748,2.042h2.056h0.123h0.289h0.123l2.894,1.243l5.322-0.422l3.013-0.95l7.818,0.684l3.413-0.97l3.968-1.627
		c0.824-0.555,1.781-0.972,3.146-1.383h7.54l2.735-0.965c1.102-0.677,2.058-1.102,2.868-1.102h4.394l2.059,1.54l5.868,1.216
		c0.835,0,1.657,0.693,3.024,1.924l2.457,1.633l0.278,0.279l5.616,0.143h0.146l2.589,1.355l3.424,0.686h0.146l2.868,0.416
		l0.822-1.631l-1.233-2.732l-0.543-2.762v-0.115h-0.146l0.424-0.411l1.9-2.623v-0.134h0.143v-0.139l1.912-1.381l-0.396-0.804
		l-0.836-2.746c0-0.402-0.4-0.689-1.224-1.229l-2.055-2.189l-2.602-2.191l-0.133-0.278l-0.278-0.124l0.132-0.142v-0.261l0.424-2.604
		v-1.907l-1.235-3.307l3.146-0.676l1.5-1.5h3.851l3.822-0.561h0.122l2.626,0.271l3-1.091l3.424-0.399l2.205-0.974h0.12l5.895-1.091
		l0.956-0.954l-0.265-1.092l-1.115-1.938v-0.124l-0.133-0.139v-0.147l0.279-2.055l0.146-0.131v-2.876l-0.546-2.456v-0.153
		l1.37-2.729c0.544-1.23,1.222-1.913,2.044-1.913l3.559,0.285c0.554,0,1.246-0.285,1.922-0.841l5.337-7.266v-0.122l0.132-0.139
		l2.892-2.335l0.267-0.261c1.09-0.272,1.768-0.684,2.19-0.968l0.691-0.677c0.943-1.224,1.767-1.793,2.321-1.793l4.661,0.963
		l3.955-1.905h0.148h0.145l2.31-0.275l1.924-0.822v-3.152l0.557-3.979v-0.137v-0.118l0.679-1.098V229.104z"/>
	<path fill="#CECECE" d="M248.99,275.937l-1.235,0.938c0,0.569,0.278,1.791,0.689,3.571v0.127l0.145,0.149h-0.145l-1.5,3.413
		l-2.057,0.822l-0.426,0.147h-0.132l-3.569-1.651h-0.12v-0.129l-6.706-6.17l-2.601-1.496l-4.105-1.52v-0.129h-0.142l-1.926-1.365
		l-3.424-1.091l-1.911,0.115h-0.135l-4.378-0.266h-0.133l-3.16-0.678h-1.913l-1.512,1.104c-0.822,0.403-1.911,0.531-3.279,0.814
		l-2.866,0.537l-2.472,0.828l-0.144,0.129v0.147v-0.147l-3.013,0.287l-3.146,1.233h-0.413l-2.6-0.271l-3.957,0.55h-3.293
		l-1.379,1.357h-0.132l-1.635,0.421l0.691,1.634v2.602l-0.426,2.342l2.324,1.906H183l1.913,2.185
		c1.233,0.96,1.792,1.632,1.792,2.461l0.676,2.062l0.967,2.065c-0.143,0-0.143,0.127-0.289,0.127l-2.603,1.913l-1.789,2.324
		l0.434,2.07l1.222,2.868l0.132,0.28v0.13l-0.278,1.088c-0.266,0.685-0.533,1.228-0.957,1.515c-0.811,0.689-2.189,0.689-4.368,0
		l-3.412-0.691h-0.171h-0.12l-2.47-1.229l-3.957-0.126l0.121,0.126l-0.396,6.849c-0.147,0.954-0.836,1.356-1.793,1.507
		c-0.398,0.139-0.679,0.685-0.555,1.77v0.142h-0.124l-0.263,1.78c0.942,0.815,1.643,1.507,1.898,2.057l0.689,3.281v1.241
		c-0.133,0.688-0.266,1.22-0.543,1.766l-0.957,2.752l-1.779,3.411v0.688l0.279,1.643l1.778,2.338
		c0.534,0.685,0.812,1.096,0.957,1.507l1.633,2.315l2.457,2.75c0.97,0.955,1.659,1.379,1.937,1.379l2.59-1.655
		c0.556-0.41,0.967-0.693,1.646-0.693c0.556,0,1.367,0.411,2.602,1.235h0.132v0.139l1.379,1.642l0.691,1.644l0.544,0.684l0.4,0.267
		l1.792,1.244l0.957,0.131c0.554,0.149,1.099,0.56,1.5,1.086c0.278,0.417,1.778,0.968,4.38,1.665h0.144l4.115,1.509h0.123h0.132
		l2.892,1.351l4.926,1.245l0.12,0.118l6.451,0.293l2.88-1.102h2.59v0.119l0.146,0.163l2.189,2.729v0.14l1.355,2.197l1.102,1.232
		l1.513,0.681l0.135,0.127l0.131,0.133l1.235,2.748v0.143h0.132v0.129l0.691,3.007l1.924,0.695h0.132h0.133l1.511,0.955l2.045-0.411
		l0.546-2.044v-0.156l0.158-0.131l2.31-2.315l2.602,0.666v0.284l1.234,2.746l2.602-0.97l0.279-2.598v-0.129v-0.149l0.133-0.133
		l1.766-0.959l-0.398-3.842v-0.259V360l2.044-4.247l2.059-0.818l-0.811-3.843h2.046l-0.146-1.766l-1.089-3.707v-0.264l0.278-2.596
		v-0.417l0.278-0.15l1.357-1.78l0.278-0.255h0.411l3.702,0.657h0.132l3.026,0.833l2.589-0.833l1.5,3.037l0.146,0.126v2.193
		l0.411,2.053c0.268,0.822,0.822,1.356,1.368,1.513h0.268c1.232,0.268,1.935,0.818,2.056,1.625c0.144,0.699,0.689,1.656,1.646,2.752
		l1.233,1.778v0.141l0.824,1.49l1.222-0.131l2.324-2.05l1.511,3.15l3.013,0.95h0.148l0.132,0.149l1.501,2.733l0.676,0.404
		l0.158-2.59V360v-0.408l6.014-0.149l0.135-0.533c0.144-0.289,0.144-0.839-0.135-1.239c-0.411-0.83-0.554-1.52-0.678-2.463
		c-0.144-1.094,0-1.924,0.267-2.189c0.411-0.55,0.689-0.55,1.367-0.431l2.469,0.85l0.268-1.795l-4.514-2.062h-0.278l-0.135-0.254
		v-0.149v-0.131l-0.676-5.479l0.146-3.409v-0.447v-0.252l7.514,0.954l1.926-1.778c0.411-0.677,0.263-1.228,0-1.359
		c-1.926-0.685-2.894-1.502-2.894-2.341c0-0.409,0.144-0.953,0.835-1.214l3.146-3.176l3.438-0.126l1.754-3.007v-2.881l2.615-0.537
		c0.677-2.046,1.113-3.146,1.365-3.565l1.103-2.331l-1.913-3.411v-0.135v-0.144l-1.234-4.654v-0.15l-0.833-4.778l-1.635-2.742
		l-2.468-2.474v-0.122v-0.15l-0.133-0.139l-0.133-2.596l-4.528,1.378l-0.133-0.146l-2.056-2.323l-6.16-4.666h-0.133l-2.334-3.014
		l-1.516-0.943l-0.954,1.496v0.278l-0.135,0.139h-0.131h-0.255l-1.949,0.139l-0.278,0.146h-0.122l-4.525-4.951
		c-0.956-0.394-1.91-1.363-3.267-2.734l-2.059-1.482l-0.144-0.16l-2.312-1.372l-1.393,1.083l-0.13,0.289l-0.123-0.139h-0.146
		l-1.232-0.271l-1.37,0.697l-0.146,0.124l-0.132,0.139h-0.133l-1.911,0.264C254.339,279.076,251.724,277.571,248.99,275.937"/>
	<path fill="#CECECE" d="M257.074,343.162l-3.159-0.97l-3.291-0.399l-1.09,1.224l-0.267,2.354l0.135,0.1l0.957,3.575l0.142,2.734
		v0.807h-1.645l0.678,3.305l-2.6,0.963l-1.091,2.061l1.37,1.092l0.278,0.133l4.789,3.815l0.135,0.153h0.145v0.126v0.145l0.677,3.418
		l2.205,3.146c0.53,0.837,1.222,1.654,2.457,2.743h0.133l0.13,0.14v0.145l-0.13,0.255v3.042c0.398,0.811,0.557,2.592,0.557,5.191
		c1.209,1.787,1.766,3.01,1.766,3.825c0,0.55,0.413,1.646,1.089,3.152v0.147c0.278,1.897,0.146,3.557-0.265,4.922
		c-0.411,0.959,0.145,2.735,1.632,5.192l0.147,0.145l0.144,0.279l-0.144,0.271l-2.191,4.798c0.411,1.092,0.556,1.907,0.556,2.446
		l-0.556,4.533c-0.268,1.498-0.268,2.326,0.411,2.596l0.821,0.556c1.223,0.551,1.648,1.228,1.648,1.907l-0.145,2.333l0.689,0.271
		l0.132,0.125l0.424-0.396c0.399-0.404,0.798-0.98,0.955-1.656l0.267-0.402l0.135-0.274c0.555-0.27,0.833-0.68,1.233-1.225
		c0.145-0.827,0.145-1.647-0.133-2.608l-0.267-0.676l0.678-0.139c2.179-0.551,3.437-0.411,3.835,0.536l1.089,2.755v0.132v0.12
		l0.559,4.522l1.778,0.954h0.133h0.132l1.114,0.984l1.076-1.249l1.237-0.95h0.411c0.967,0.261,1.514,0.95,1.779,1.898l0.533,3.561
		l0.156,0.561l3.691,7.934l1.5,1.511l0.146,0.131v0.156l0.677,3.285l0.278,3.132l0.146,0.271c0.957-1.378,1.755-2.03,2.312-1.775
		c0.545,0.149,0.705,0.397,0.705,0.976v0.8v2.479v0.677c0.688,0.128,1.22,0,1.367-0.398l1.368-1.926l1.5-1.505
		c0.968-0.704,1.924-1.228,3.024-1.228h0.122l2.878,0.692l0.824-0.417l1.5-1.931l-0.278-3.007c-0.944-1.637-1.366-3.015-1.103-3.98
		l0.426-2.45v-0.278l0.133-0.271l2.603-1.505h0.144l1.911-1.23l2.191-3.163l0.266-2.313l-2.457-5.747l5.47,2.462v-2.329v-0.133
		l2.07-1.797l3.959-1.096h0.289l2.337,5.074v0.28l-0.291,1.911l0.291,1.78c0.265,0.81,0.808,1.218,1.209,1.218
		c0.544,0,1.099-0.408,1.646-1.092l0.133-0.265h0.146l3.268-1.092h0.146c1.792,0,2.601,0.402,3.025,1.23l0.254,3.696v0.12
		l0.702,0.151l1.378,0.402l2.046-0.122l3.413-0.962l2.046-1.788l0.157-1.498l-0.97-1.089l-3.544-1.229l-0.291-0.152v-0.139
		l-4.101-4.101l0.411-0.27l2.056-1.776l0.134-0.139l2.057-0.82h0.41l2.748,0.535h0.12l0.146,0.133v-1.086l-1.232-2.055l-1.938-0.951
		l-2.589-3.836l-0.134-0.149v-0.146l-1.234-4.509v-3.418l2.202-2.046h3.279l7.675,0.681l3.556-5.06v-0.271h0.269l2.877-1.52
		l1.488-3.003l0.158-0.144l3.414-2.881l1.635-3.021v-0.133h0.143v-0.124l1.381-1.38l1.646-2.731l0.544-4.239v-0.404l0.133-0.142
		l2.203-1.523l0.531-0.542l-3.277-0.55l-5.483,0.285l-0.12-0.131l-2.069-1.665h-0.278v-0.126l-1.09-1.655l-0.268,0.153l-0.133,0.271
		c-0.288,0.418-0.967,0.551-1.789,0.551l-0.823,0.402c-0.278,0.149-0.411,0.278-0.821,0.149c-0.269,0-0.4-0.422-0.691-1.103
		c-0.133-0.676-0.398-1.354-1.223-2.054l-0.146-0.122v-0.15h-0.132l-0.679-1.78h-0.557l-2.057,1.372l-0.122,0.13h-0.146
		l-4.778,0.962h-0.292l-0.265-0.134l-3.148-2.204l-0.144-0.126v-0.133h-0.133l-0.823-1.647l-2.338,2.469
		c-1.633,1.901-2.865,2.464-3.689,1.901l-3.146-1.64l-2.192-0.262l-0.277,0.14l-2.047-1.509l-0.143-0.149l-0.4-0.122l0.97-3.703
		v-1.232l-1.247-0.553h-0.134l-2.88-3.152l0.145-2.324l-7.14-0.682l-2.722-1.52c-0.691-0.388-1.248-1.217-1.658-2.588l-0.4-0.959
		l-0.557-2.048l-0.957,0.124l-2.188,1.792l-2.592,3.144l0.535,2.326l0.81,3.02v0.127h0.159l-0.159,0.139v0.131
		c-0.252,0.822-1.089,1.226-2.298,1.226h-2.746l-1.646-0.807l-2.045,0.807l-0.424,0.157l-0.278-0.157l-0.278,1.927l-0.132,0.273
		v0.42h-0.413l-3.412-1.081c0,1.081,0.132,1.906,0.677,2.846c0.423,0.97,0.545,1.659,0.145,2.471l-0.411,1.108
		c-0.411,0.41-1.646,0.55-3.424,0.41h-2.324l-0.156,3.836l-2.99-1.094h-0.146l-0.146-0.152l-1.5-2.861l-3.278-1.098l-0.824-1.776
		l-1.234,0.944h-0.12l-2.07,0.411h-0.556l-1.089-2.455l-1.101-1.509l-0.132-0.145c-1.105-1.369-1.635-2.602-1.913-3.282
		c0-0.131-0.278-0.419-0.969-0.55l-0.521-0.139c-0.979-0.412-1.669-1.233-2.067-2.466l-0.546-2.324v-1.925l-0.97-1.77l-1.63,0.555
		h-0.148h-0.133H257.074z"/>
	<path fill="#CECECE" d="M72.5,298.378v0.14c-0.544,1.24-1.513,2.062-2.6,3.021c-0.812,0.42-1.09,1.083-1.09,1.916v0.41
		c0,0.68-0.411,1.781-1.502,3.422l-0.156,0.689c-0.265,0.398-0.812,0.676-1.766,0.676l-7.808-0.97v0.165l-0.545,1.755v0.15
		l-0.143,0.13c-2.046,2.875-3.424,4.944-3.559,6.299c-0.133,0.689,0.689,3.15,2.457,7.4l1.246,2.853
		c0.545,1.375,0.135,3.031-1.1,4.811l-2.468,2.464h-4.103l-0.825-4.507l-1.089,5.601l1.78,2.729c0.133,0.426,0.133,0.697,0,0.837
		l-0.267,0.266c-0.557,0.417-1.379,1.778-2.203,4.119c-0.834,2.04-0.413,4.109,1.235,6.293h3.292
		c1.076,0.28,2.732,2.046,5.045,5.191l0.146,0.287c0,0.949,0.411,1.64,1.1,2.191l7.249,6.709v0.126l3.293,4.107h1.922l2.046-3.703
		l0.265-0.252l0.146-0.152l5.07,1.229v0.15v0.271l0.691,3.426l6.014,6.971l2.046,0.83l0.156,0.146l0.946,0.53l0.143,0.146
		l4.527,6.71l3.679-0.557h0.278h0.133l0.291,0.291l0.122,0.266l3.146,6.563l3.849,2.339l3.135,0.821l1.511,4.246h2.335l0.122,0.125
		l4.95,2.743v0.131l0.12,0.146l3.569,4.385l5.192-0.957h0.291l1.901,0.822h0.146l3.278,2.863l5.895,0.426l3.558-0.554
		c4.791-0.821,7.804-0.422,8.906,0.825c0.678,1.107,0.265,2.188-1.38,3.545l-1.365,1.367c-0.413,0.7,0.144,1.791,1.921,3.405
		l0.133,0.302h-0.133l1.089,0.813l0.413-0.411c3.425-6.426,6.16-9.986,8.071-10.668c2.06-0.692,6.305,1.1,13.008,5.191l8.221,1.517
		l-0.135,0.271v0.28l-0.411,3.82l4.102,0.562l-0.132,5.195c1.233,2.331,2.202,3.701,2.759,4.112c0.798,0.535,4.901,0.535,12.163,0
		l4.259-2.191l4.104-5.735l4.803-0.155l2.311-0.699l9.04-5.189h0.133l0.132-0.142c5.206-0.55,8.229-0.679,9.028,0l5.896,4.931
		l1.79,0.681l0.265,0.272l2.337,0.977l0.133,0.123v-0.411v-0.14v-0.121v-0.126l0.969-4.136c-0.426-1.226-0.426-2.179,0-3.007
		c0.278-0.688,0.955-1.102,2.046-1.356c2.055-0.418,3.968,1.356,5.881,5.198l0.278,0.139h0.143l3.414-1.511
		c0.689-0.133,0.97-0.821,0.97-1.513l-0.691-2.476v-0.119c-0.279-1.09,0-2.066,1.102-2.471l1.22-0.95l3.015-3.285l2.057-4.526
		c-1.779-2.879-2.337-4.922-1.779-6.303l0.411-3.818c-0.824-1.651-1.246-2.752-1.246-3.688c0-0.44-0.533-1.658-1.622-3.302h-0.159
		v-0.425l-0.387-4.912c-0.144-0.822-0.292-1.925,0-3.285c-1.248-0.971-2.07-1.918-2.613-2.893l-2.059-2.734l-0.133-0.127v-0.26
		v-0.163l-0.702-3.409l-2.033-1.638v0.133l-3.98-3.152v0.261l0.557,4.246v0.15v0.402l-2.046,0.971l-0.289,2.586v0.424l-4.794,1.918
		l-1.644-3.822l-0.943-0.3l-1.502,1.519l-0.978,2.736l-3.414,0.949l-1.913-1.369l-2.746-0.81l-0.811-3.831l-1.101-2.348
		l-1.648-0.663l-0.13-0.291l-1.248-1.503l-1.209-2.178l-1.926-2.466h-1.646l-2.746,0.948l-0.122,0.139l-6.982-0.404l-5.35-1.094
		c-0.413-0.279-1.367-0.687-2.878-1.656l-4.105-1.351c-3.146-0.85-4.937-1.519-5.335-2.345l-0.692-0.412l-0.954-0.258l-2.457-1.376
		l-0.278-0.142c-0.424-0.549-0.824-0.959-1.102-1.503l-0.543-1.23l-1.089-1.63l-1.791-0.842l-0.679,0.404l-0.688,0.563l-0.4,0.271
		c-0.7,0.545-1.378,0.829-1.924,0.96c-1.1,0.273-2.179-0.287-3.422-1.642l-2.605-2.741c-0.955-1.228-1.645-2.203-1.923-2.881
		l-0.689-1.103c-0.944-0.954-1.633-1.904-2.046-2.729c-0.411-1.226-0.546-2.315-0.132-3.411v-0.146l1.778-3.013l0.969-3.152
		l0.398-2.05l-0.676-3.152l-2.059-1.79l0.411-2.596c0-1.92,0.678-2.865,2.046-3.137c0.411-0.14,0.688-0.424,0.556-0.968v-0.133
		l0.133-2.741v-0.139v-3.154h-0.278l-0.133-0.125l-0.546-0.271v-0.133h-0.13l-2.47-1.643h-0.144l-1.913-1.658l-6.44-1.231
		l-2.043-1.503h-3.825c-0.557,0-1.246,0.411-2.205,0.952h-0.13l-3.024,1.106h-7.516c-1.115,0.265-2.059,0.544-2.615,1.087
		c-0.809,0.691-2.335,1.247-4.381,1.921l-3.557,0.822v0.146h-0.278l-5.06-0.55l-0.411-0.148l0.132,0.148l-0.132-0.148l-1.768-0.128
		l-3.026,0.959l-6.012,0.543h-0.146l-0.135-0.146l-3.024-1.079h-2.457c-1.089-0.276-2.337-1.093-3.705-2.751l-0.133-0.278
		c-0.278-1.226-0.666-1.776-0.811-2.045l-0.689-0.411l-1.235-0.676l-1.1,1.087l-0.123,0.27l-4.394,1.776h-0.144h-0.254l-5.349,0.565
		c-0.824,0-2.324-0.419-4.381-0.963l-4.659-0.828H77.57l-2.736-1.509H72.5z"/>
	<path fill="#CECECE" d="M242.842,468.841l-0.557,1.803c0.822,0,1.923-0.551,3.014-1.388l0.146-0.133h0.265l5.471-0.688l3.571-1.774
		l1.366,1.914l0.278,0.128l-1.644,2.628l1.911,1.902v0.129v0.411l-1.38,5.754l3.57,2.597l6.426,0.278l-0.957,1.234
		c-4.1,5.062-6.013,8.066-5.894,9.044l2.482,0.533c3.279,0.285,5.192,1.232,5.881,2.486c0.822,1.62,1.633,3.272,2.335,5.176
		l3.69,2.055l2.324,0.425l4.805-4.106l2.457,3.682v0.153l0.133,0.118l0.823,3.433l2.056,0.404l3.147,1.101l0.822-0.274v-0.131
		l-0.544-3.573l-0.145-0.109l-1.78-8.086v-0.266l1.09-5.626l0.278,0.14h0.411l3.691,0.271l4.672-3.424l0.411,0.258
		c2.457,1.912,4.09,3.425,4.924,4.531c0.812-0.257,2.324-1.776,4.381-4.124l0.133-0.133l0.278-0.274l6.838,1.781l3.013-2.439
		l0.146-0.14l0.145-0.144h0.123l0.143,0.144l2.881,0.54l9.308-8.219l2.878,0.817l0.123,0.163l0.145,0.124l0.133,0.134l0.689,1.217
		l0.679-0.801h0.145v-0.146h0.134l2.746-1.509l2.059-1.911l-0.557-4.25l-0.413-0.528l-2.613,1.08c-0.812,0.292-1.5,0.54-2.457,0.54
		h-3c-0.968-0.14-1.511-0.411-1.925-0.955l-0.279-4.383c-0.955-0.55-1.368-0.809-1.768-0.809l-0.701,0.259l-0.953,0.55l-1.914,0.406
		h-0.546l-0.134-0.267l-1.099-1.914l-0.136-1.789l1.092-5.191h0.143v-0.127l1.238-2.619l-3.85-3.425l-0.133-0.13l-0.133-0.131
		v-3.982l0.133-0.127l2.201-6.313l-1.38-3.402l-1.222-0.287l-1.514,0.133l-1.511,2.331l-1.913-1.379l-1.911-1.085l-1.513-3.821
		l-0.558-2.755v-0.278l-0.118-0.126l0.41-0.285l1.778-2.443l0.397-0.284h0.133l1.381-0.289l1.513-0.402l7.116-0.264h0.133
		l0.969,0.404l0.254,0.131l1.114,0.42l1.922-0.816l1.622-1.254l0.822-1.349l0.147-0.691l-0.147-3.02l-1.498-0.254l-2.868,0.943
		c-0.837,0.964-1.778,1.642-2.748,1.642c-0.957,0-1.78-0.805-2.603-2.331h-0.133v-0.126l-0.145-1.92v-0.28l0.145-1.78l-1.513-3.689
		l-2.868,0.822l-1.234,1.086l0.41,4.136l-4.51-2.069l1.086,2.467l0.133,0.129v0.271l-0.398,2.735v0.281h-0.145l-2.603,3.687
		l-4.249,2.619l-0.397,2.451c-0.146,0.415,0.397,1.508,1.087,2.887l0.135,0.132v0.131l0.268,3.565v0.413l-0.122,0.14l-1.658,2.183
		l-0.122,0.147h-0.144l-1.234,0.822h-0.146h-0.123h-0.132h-0.146L298,442.555c-0.531,0-1.209,0.271-1.898,0.825l-1.381,1.513
		l-1.087,1.379c-0.691,1.217-1.648,1.496-3.146,1.217c-0.957-0.13-1.237-1.084-0.957-2.33v-0.948l-0.147-0.958l-0.544,0.679
		c-0.398,0.552-0.834,0.692-1.367,0.692c-0.558-0.141-0.968-0.692-1.235-1.666v-0.132l-0.278-3.131l-0.678-3.024l-1.366-1.355
		l-0.145-0.146l-2.868-6.576l-0.146-0.141l-0.812-1.905v-0.149h-0.143v-0.122l-0.546-3.572l-0.423-0.538l-0.533,0.398
		c-0.97,1.104-1.659,1.781-1.925,1.781c-0.412,0-1.088-0.55-2.191-1.355l-2.056-0.976l-0.266-0.126l-0.145-0.128v-0.15l-0.144-0.261
		l-0.124-2.753l-0.398-2.045l-1.113-2.753h-1.091c0.134,1.103,0,2.051-0.263,2.753c-0.281,0.815-0.837,1.356-1.648,2.045
		c-0.278,0.968-0.689,1.666-1.235,2.192c-0.822,0.821-1.511,0.821-2.333,0.271l-0.411-0.123c-0.813-0.277-0.959-1.249-0.813-3.029
		v-0.704l-1.791-1.077c-0.677-0.277-1.089-1.086-1.235-2.328l0.679-6.159l-0.265-0.95l-2.192,2.463l-1.5,1.094l-0.398,0.975
		c0.53,1.202,0.809,2.178,0.809,2.861c0,1.38-0.689,2.47-1.924,2.871l-2.457,0.955l-0.688,0.411l-0.134,0.967v3.829
		c0.134,1.23,0.278,1.919,0.677,1.919c0.836,0.42,1.78,0.42,2.602-0.263l0.822-0.426l2.603,6.037v0.133v0.261
		c-0.944,10.825-1.911,16.993-3.146,18.637c-0.543,0.55-0.967,0.819-1.766,0.952c-0.969,0-1.658-0.133-2.602-0.674
		c-3.57,7.115-5.894,10.795-6.983,11.352h0.122c-0.533,0.133-0.811,1.923-0.679,5.053l0.812,0.703l0.278,0.279l0.28,0.271
		L242.842,468.841z"/>
	<path fill="#CECECE" d="M363.457,406.283l-0.954-0.426l-1.103,0.681l-0.689,1.249c-0.557,1.223-1.1,1.903-2.045,1.903
		c-0.547,0-1.235-0.401-1.646-0.806l-0.143-0.146l-0.125-0.14l-0.422-1.36v-0.14l-0.121-1.779l-0.836-0.138l-0.132,0.138l-0.4,1.375
		v1.904l-0.155,0.14l-0.123,0.146l-1.646,2.184l-0.291,0.266h-0.252l-3.28-0.266h-0.289v0.142v0.124l-1.089,1.513l0.41,0.95h0.135
		l-0.97,1.52h-3.002v-0.539l-0.266-0.289l-0.423-0.287l-0.547,0.977l-0.133,0.398h-2.057l-0.119-0.121l-1.234-0.967l-0.146-0.287
		v-0.126h-0.146v-0.278l-2.202-0.4l-1.622,0.679l-0.967,0.702l2.745,3.129l3.572,1.1l0.119,0.152l0.146,0.126l1.779,1.651
		l-0.703,2.73v0.405h-0.119l-2.349,1.925v0.139h-0.108l-3.849,1.106h-0.133l-2.181,0.255h-0.156h-0.133l-1.514-0.539l-0.811-0.156
		l-0.821,1.378h-0.133v0.156l-1.792,1.218h-0.146l-2.444,1.1h-0.132l-2.883-0.967l-6.303,0.291l-1.368,0.404l-0.135,0.122h-1.232
		l-1.514,2.057l0.29,2.348l1.356,3.136l1.501,0.815h0.144v0.16l0.547,0.404l0.967-1.38l0.134-0.14l0.146-0.132h0.109l2.08-0.278
		h0.268v0.149l2.069,0.525l2.046,4.666h-0.148v0.133l-0.821,2.615l-0.679,1.627v0.141l-0.967,2.326v2.888l1.646,1.635h0.133
		l2.192,1.907l0.275,0.149l0.147,0.131l-1.647,3.851l-0.424,1.773l0.555-0.271h0.148l1.368-0.551l2.455-1.38h0.121l2.746,0.429
		h0.146l4.105,1.628h4.523l1.235-1.628l0.146-0.15l0.119-0.128l2.325-1.101l2.188-1.924l0.268-0.129l1.646-0.55l1.803-1.38
		l2.046-2.729l2.868,1.091l0.413,0.14v0.143l0.143,0.14c0.4,1.089,0.811,1.64,1.223,1.766l1.791-0.266h0.4l0.967,0.266h0.133v0.139
		l2.324,0.822h0.689l0.133-0.536l0.28-0.836v-0.139l0.131-0.127l0.146-0.139v-0.133l0.81-0.551l0.146-0.139l1.502-1.224h0.146
		l0.133-0.156h0.266l1.367,0.156c0-0.841,0.424-1.644,1.234-2.463c0.957-0.689,1.646-1.114,2.058-0.962l0.824-0.549h0.133v-0.152
		l0.678-0.67v-0.16h0.144l0.133-0.119h0.135l2.202-0.551h1.233l0.543-0.411l0.413-0.818l0.679-1.38l-0.255-0.118
		c-0.837-0.97-1.38-2.059-1.646-3.571l-0.156-0.133h0.156v-0.135l0.532-3.018c0-0.943,0.276-1.635,0.968-2.318l-0.278-2.476
		c-0.146-0.278-0.413-0.531-1.103-0.677l-4.378,1.776l0.265-4.511c0.146-0.697,1.514-1.907,4.113-3.425l-1.232-4.788
		c-0.278-1.651,0.146-2.88,1.232-3.984l-0.275-0.826h-1.357l-0.422,0.152l-0.691,1.925c-0.543,0.665-1.076,1.082-1.632,1.082h-0.269
		l-1.377-0.974h-0.136h-0.132v-0.108v-0.296l-0.412-0.955l-0.146-1.375v-0.121l-0.132,0.272l-0.133,0.397h-2.471l-0.265-0.549
		l-0.411-1.501v-2.044L364,409.429v-2.19L363.457,406.283z"/>
	<path fill="#CECECE" d="M391.256,441.732l0.145,0.162l0.266,0.257l-1.789,2.741c-0.668,0.815-1.635,1.379-2.735,1.379h-0.28
		l-1.354-0.841l-1.368,0.151l-2.747,2.039c-0.689,0.264-1.487-0.412-2.746-2.039l-0.798,1.776h-0.159l-0.132,0.13l-0.957,0.962
		h-1.779l-1.791,0.55l-2.166,1.614h-0.69l-0.833,0.577c-0.678,0.676-0.957,1.227-0.545,1.777l0.957,1.355l-3.825-0.398l-2.056,1.653
		l-0.281,0.676v0.146l-0.398,1.09l-0.145,0.126l-0.133,0.139h-1.924l-2.457-0.95l-0.824-0.143l-1.911,0.271
		c-0.835,0-1.791-0.959-2.613-2.457l-1.635-0.679l-1.379,2.038h-0.132l-1.914,1.654h-0.146v0.126h-0.265l-1.5,0.426l-2.192,1.916
		l-2.324,1.083l-1.658,2.195h-5.469l-4.261-1.644l-2.322-0.28l-2.045,1.102h-0.146l-1.367,0.55c-0.68,0.272-1.234,0.679-1.633,0.812
		l-0.278,0.691v1.627l0.677,1.125l3.291-1.125c0.691,0,1.648,0.434,2.883,1.125l0.264,0.129l0.147,0.126l0.133,4.679l0.676,0.101
		h2.881l1.791-0.395l0.268-0.277c1.101-0.545,2.046-0.938,3.278-1.101l0.557-0.109l0.255,0.395l0.848,1.651v0.125l0.397,4.509v0.432
		l-2.456,2.598h-0.144v0.14l-2.87,1.364l-0.967,1.094l0.413,0.825l5.904,0.526l0.119,0.156l0.146,0.133l2.322,1.387l5.204-0.141
		v0.668l0.268,2.594v0.273h0.146l-2.337,2.33c-0.278,3.016,0.278,4.772,1.513,5.223l4.381,2.319l3.424,2.324l2.868-1.356
		l0.278-0.156l0.278-0.14l0.122,0.14l4.395,3.3l0.688,0.271l1.101-1.356l0.267-0.278l0.12-0.151h0.145h0.146l2.589,0.43l0.558-4.518
		l3.28,5.874l2.735,0.146l0.422,0.133h0.267v0.248v1.801l1.113-0.272l4.503-6.037l1.924,2.897v-0.974v-0.155v-0.116l1.354-2.753
		l1.236-2.069h3.424l0.546-3.794h0.421l0.268,0.139l2.602,0.418l0.291-1.372l-0.98-2.206V489.1l0.557-1.507v-0.274l0.133-0.132
		h0.146v-0.126l7.116-3.845l-0.28-3.689v-0.106l1.367-2.756l0.279-0.551l2.178-5.077l0.156-0.132l1.778-1.781l1.091-2.047v-0.279
		l0.969-1.641l-0.835-2.063v-0.129h-0.134v-2.195h-1.091l-2.044,0.97c-0.967,0.676-2.348,0.397-4.115-0.697
		c-0.699-0.557-0.699-1.912-0.301-3.964l-1.077-0.144l-0.544,0.683c-1.234,1.38-2.201,2.191-2.47,2.191c-0.255,0-0.413,0-0.69-0.128
		c-0.119-0.412-0.398-1.094-0.398-2.189c0-1.235,0-2.065,0.398-2.344c0.277-0.387,0.545-0.55,0.836-0.265l2.603-4.79l0.677-1.774
		l0.412-2.046l-1.5-1.254c-0.426-0.395-0.545-1.361-0.293-2.735v-0.835c0-0.397-0.252-0.931-0.809-1.348h-0.279l-0.135,0.417
		c-0.41,1.083-1.367,1.635-2.865,1.216C393.034,441.447,392.21,441.447,391.256,441.732"/>
	<path fill="#CECECE" d="M383.039,378.209l-0.957-2.191l-1.512-2.191l-1.634-0.405h-0.147v-0.146h-0.133l-1.354-0.677h-0.292
		l-0.545,0.141l-1.789,0.258h-0.133l-0.278-0.127l-1.778-0.678v-0.15h-0.135v-0.133l-1.354-1.376l-1.513-1.518l-1.368-0.807
		l-1.5,1.376l-1.925,1.374l-0.556,4.101v0.146l-1.78,3.005v0.273h-0.121l-1.38,1.377l-1.646,3.133l-0.119,0.271
		c-1.246,0.982-2.338,1.926-3.438,2.735l-1.367,2.477c-0.269,0.693-1.355,1.497-3.425,2.341l-1.381,2.324l-2.311,3.14h-0.146v0.139
		h-0.279l-10.939-0.683l-1.233,1.233v2.334l1.09,4.507l2.335,3.288l1.911,1.112v0.127h0.147c1.088,1.363,1.633,2.33,1.633,3.006
		v1.774l-0.678,0.689l0.399,0.268h0.544l0.836-1.646h0.264l2.191,0.688l0.146,0.689h1.089l-0.28-0.829l-0.131-0.258l1.512-2.33
		c0.268-0.689,0.956-0.977,1.899-0.689l2.47,0.124l1.368-1.776v-1.642l0.556-1.776v-0.129l0.144-0.149l0.108-0.146l0.971-0.526
		v-0.141h0.146l0.144,0.141l2.046,0.262v0.265l0.413,1.65v0.83l0.275,1.232l0.547,0.129l0.678-0.95v-0.133l1.1-1.507l0.146-0.268
		l1.5-0.689h0.145l0.121-0.149l1.78,0.556h0.146l0.278,0.121l0.94,1.937v1.919l1.383,2.581v0.296v1.907l0.412,0.828h0.396
		l0.559-0.689l0.133-0.282l1.646,0.972h0.133h0.146v0.28v0.122l0.544,2.33l0.678,0.396l0.146-0.245l0.676-1.792v-0.133l0.135-0.277
		h0.144h0.146l0.945-0.551h0.144v-0.13h1.248l-0.292-0.689v-0.282l-0.678-6.427l-2.613-4.249l-4.913-5.734l-0.133-0.146
		l-0.278-3.712l-1.646-2.865v-0.126l-0.146-0.14l0.146-0.271l0.823-3.571h0.266h0.278l8.616-0.538l4.656-2.482l0.148-0.126
		c1.646-0.544,2.734-1.239,3-1.923C382.771,380.535,383.039,379.567,383.039,378.209"/>
	<path fill="#CECECE" d="M353.051,294.973l-0.823-0.165l-1.367,8.364l2.324,2.729l2.188,0.976h0.146l0.145,0.124l2.869,2.348
		l3.97,0.955h0.131l2.058,1.356h0.133v0.285l1.514,2.191l0.267,0.271l-0.121,0.265l-1.394,2.199
		c-0.266,0.271-0.266,0.947-0.266,2.05h0.133v2.603l-0.133,0.133l-1.234,4.103l-0.133,0.691h-0.266l-0.411-0.131l-1.79-0.411
		l-2.324,0.129l-2.058,0.691l-2.323,1.908l-0.547,0.55l3.014,1.51l-0.289,0.549c-0.121,0.677-0.799,1.364-1.9,1.781l-1.938,0.133
		l-3.133-1.237l-2.88-1.631h-1.235l-3.41,4.914l-0.68,1.65v2.854l1.355,2.354v0.128l0.836,2.185v0.29l0.121,3.135v0.422l0.145,0.263
		l-2.201,0.418h-4.092l-1.923,1.243l-0.823,1.361l0.135,0.133l0.821,4.111h0.156v1.639l0.944,1.929l2.867,1.902l4.248-0.965
		l2.059-1.349l0.279-0.163h1.91l1.09,2.627c0.676,0.68,1.234,1.356,1.513,2.178l0.956-0.133h0.276h0.268l0.146-0.265l1.912-1.521
		l1.768,3.157l1.924,1.23h2.734l2.069-0.271h0.411l4.938,0.683h0.107v0.126l2.071,1.237v0.133l1.768,1.372v0.146l1.243,1.373
		l1.37,0.545l2.202-0.267v-2.889l-1.115-1.905h-0.119v-0.155l-0.822-3.545l1.898-1.913l0.158-0.139h0.133l1.622-0.293h1.791
		l0.557-0.666l-1.089-1.521l-3.982-2.586l-0.955-1.525l-0.133-0.111l-0.146-0.16l0.146-0.251l1.088-2.059l0.267,0.264l2.748,0.69
		l7.249-0.271l0.133,0.123h0.143l2.059,0.699l1.357-1.241l-0.681-4.24l-2.601-1.644c-2.188-1.23-2.867-4.243-2.457-9.181
		l-2.188-1.089l-0.269-0.127h-0.277v-0.286v-0.14l-0.411-3.557l3.003-13.965c-1.236-4.113-1.902-6.849-1.902-8.223l-0.289-4.096
		l0.289-4.52v-0.278l0.254-0.284l2.734-2.047v-2.191c0-0.55-0.264-1.381-0.943-2.457l-1.791-1.922h-0.254v-0.404l-0.289-3.283
		v-0.143l-0.123-0.13l0.269-0.149v-0.139l3.557-4.507v-1.92l-1.1-2.057v-0.133l-0.147-0.285l1.777-2.185v-0.126h0.148l1.911-1.511
		l-0.267-1.781h-0.969l-1.488-0.284l-0.822,3.297l-0.412-0.122l-3.568-1.381l-2.192-0.419l0.821,3.418l-3.011,0.961l-4.38,2.33
		l-1.368,1.776v0.133h-0.133l-2.335,2.065l-0.4,3.289v0.254l-1.234,4.663h0.146l-0.557,2.182v0.165l-0.146,0.127l-1.5,2.052h-0.146
		v0.133l-0.122,0.146h-0.143l-3.295,0.404v0.133l-0.133-0.133l-4.924-1.647l-0.146-0.127L353.051,294.973z"/>
	<path fill="#CECECE" d="M416.996,258.115l0.555-0.682l-0.969-2.184l-0.955-1.085l-1.113,1.768v0.146l-1.768,2.037l-0.133,0.159
		h-0.277l-3.281,0.956h-0.277l-3.146-0.563l-1.778,0.563l-0.411,1.496l-0.133,0.28l-1.514,0.959l-0.265,0.139h-0.294l-2.72-0.291
		l-0.147,0.291v2.736l-0.131,0.132l-1.514,1.924v0.129h-0.135l-2.6,2.6h-0.121l-0.145,0.139l-2.748,0.551l-1.768,1.919l0.4,2.331
		v0.544l-0.4,0.145l-2.067,1.901l-1.104,1.378l0.824,1.776v0.137v0.127v2.608v0.144l-1.488,2.184v0.141l-2.058,2.314l0.267,2.743
		l1.791,1.653v0.139c0.812,1.371,1.223,2.476,1.223,3.407v3.024h-0.135l-0.143,0.154l-2.736,2.03l-0.267,4.129l0.267,4.106
		c0,1.357,0.557,3.953,1.912,7.794v0.128v0.277l-3.014,13.971l0.279,2.734l2.059,0.953l3.278-3.283h0.146l10.54-4.112l2.748-2.458
		l0.265-0.271l0.133,0.133h0.279l6.025,0.546c0.822,0,2.604-0.679,5.205-1.766v-2.867l0.133-0.167h0.133l1.658-1.488l-0.426-1.791
		v-0.133v-0.133v-0.272l0.135-0.128c0.557-0.561,0.557-1.1,0.133-1.521c-0.398-0.82-0.268-1.92,0.424-3.15l0.689-0.954l-0.145-1.913
		L414.104,307c-0.946-0.678-1.09-1.633-0.533-2.608c0.278-0.821,0.676-1.614,1.365-2.31l0.546-2.334l1.515-3.269l0.412-1.506
		l2.189-4.128l-1.501-2.608l-4.248-2.588h-0.278v-0.289l-0.824-2.179v-0.139v-0.27l0.411-3.696v-0.146l0.946-2.74
		c-0.122-0.938,0-1.626,0.41-2.181c0.291-0.273,0.689-0.554,1.113-0.554l2.59-0.411l0.678-1.491l0.703-4.528l-0.56-1.643
		l-2.321-0.542h-0.135l-2.733-1.377l-0.146-0.141v-0.263l-0.133-0.146l-0.133-3.285v-0.259v-0.411L416.996,258.115z"/>
	<path fill="#CECECE" d="M424.243,403.942l0.135-0.14h-0.268v-0.263l-1.101-2.062l-0.123-0.14v-0.265l0.27-3.283
		c0-0.422-0.413-0.821-1.225-1.372h-0.834l-1.366,1.636h-0.134l-3.426,1.644l-0.545-2.329v-0.254l0.266-1.101l-0.266-1.381
		l-0.411-0.128l-0.558,1.108h-0.119v0.122l-4.26,3.696l-0.146,0.266h-0.121h-0.278h-0.276l-1.225-0.55l-0.145-0.133l-1.365-1.225
		l-2.182-0.821l-0.156-0.127l-1.354-0.98l-4.514-0.947h-0.147l-3.014-1.502v0.132l-2.321-1.108l-3.024-0.266l-1.078,0.141
		l0.945,5.058h-0.402l-3.014,0.272h-1.643h-0.133l-1.646-1.101l-2.734,1.25l-2.471,3.283l-2.178,5.892l0.678,6.431l0.968,3.694
		c0.12,0.413,0.12,0.534,0,0.693l-0.424,0.122c-0.689,0.411-0.956,1.378-0.824,2.752l1.368,5.616l-0.398,0.271
		c-2.48,1.372-3.715,2.457-3.848,3.007l-0.268,1.913l2.324-0.952l0.133-0.133h0.135c1.656,0,2.613,0.544,2.745,1.9l0.4,3.033
		l-0.136,0.404l-0.265,0.263c-0.411,0.429-0.688,0.831-0.688,1.372l-0.4,3.152c0.146,1.11,0.532,1.908,1.089,2.319l2.88,3.434
		l2.591-2.049l2.069-0.279h0.122l0.13,0.279l1.383,0.405c0.41,0,0.822-0.124,1.232-0.553l1.225-1.78l-0.268-1.083
		c0.268-0.404,0.679-0.693,1.235-0.955h3.291c0.544,0.262,0.942,0.109,0.942-0.145c0.436-0.955,0.823-1.374,1.233-1.652
		c0.413,0,1.103,0.146,1.501,0.55c0.97,0.822,1.648,1.509,1.648,2.45l-0.268,2.483l0.543,0.397c0.824,0.704,1.367,1.38,1.367,1.931
		l-0.543,2.452c-0.4,1.381-0.824,2.353-1.367,2.606v-0.126l-2.045,4.388l0.664,0.271l3.291,0.125l0.691,0.287l-0.277,0.533
		c-0.414,1.371-0.533,2.326-0.414,3.013c1.104,0.677,1.781,1.094,2.205,0.677l1.91-0.805l0.957-0.398h1.791l1.767-1.926v-2.342
		c-0.144-0.815,0-1.354,0.278-1.776c0.532-0.411,1.646-0.411,3.279,0.561l3.291,2.052c1.104,0.806,1.912,1.084,2.469,1.084v-0.139
		c0.278-0.533,0-1.62-0.688-2.997l-1.78-2.734v-0.296h0.135l0.133-0.271c1.791-2.457,3.704-3.277,5.894-2.457l5.069,2.332
		l2.06-1.371h0.132v-0.139v-0.15l-0.291-0.273l0.159-0.12l0.132-0.278c1.646-2.735,2.179-4.799,1.646-5.888
		c-0.411-0.952-1.103-1.356-1.646-1.356h-0.412l-0.279-1.372h0.279c0.956-0.426,1.5-0.83,1.647-1.38l-0.411-0.689l-2.205-2.039
		v-0.146l-1.088-3.013c-0.412-2.324-0.68-4.379-0.412-6.31v-1.353l-1.354,1.23l-1.234,1.349l-0.424-5.735v-0.268h0.133
		c3.025-4.394,5.069-6.994,5.761-7.673l-1.381-4.107c-0.398-2.051-0.688-3.277-0.688-3.83l-2.457-1.106L424.243,403.942z"/>
	<path fill="#CECECE" d="M376.6,353.156l-0.144,0.531l0.7,0.826l3.559,2.458v0.163h0.144l2.181,2.457l-0.279,0.255l-1.355,1.665
		l-0.143,0.133l-0.137,0.277h-2.32l-1.383,0.131l-0.966,0.972l0.422,1.21v0.145l0.146,1.374l1.222,1.779v0.126v3.837l1.089,0.413
		l1.928,0.561h0.143l0.135,0.129l0.143,0.141l1.77,2.466v0.122l0.956,2.469v0.138v1.647c-0.136,0.955-0.411,1.777-0.679,2.318
		c-0.689,0.967-1.938,1.782-3.848,2.604l-4.66,2.741H375.1l-8.483,0.544l-0.557,2.067l1.526,2.729v0.139v0.14l0.387,3.557
		l4.657,5.481h0.135v0.121l1.924,3.16l0.132-0.407v-0.144l1.514-4.237l0.122-0.146l2.759-3.557l0.119-0.15l3.426-1.618h0.279
		l2.201,1.357l2.856-0.266l-0.955-4.787l0.544-0.146l2.613-0.266l2.735,0.127h0.277v0.139l5.471,2.463l4.659,0.961h0.135h0.143
		l1.514,1.108l2.178,0.805v0.122l1.367,1.25l0.823,0.264l1.513-1.363v-0.15l2.324-1.78l1.221-2.303l2.203,1.213v0.14v0.152
		l0.557,1.773v0.405l-0.291,1.1l0.146,0.278l1.368-0.689l1.913-1.907h1.778v0.131h0.144l1.224,0.809
		c0.822,0.829,1.09,1.507,0.822,2.192l-0.144,3.02l0.822,1.511l0.278,0.133c3.291-3.569,5.494-5.349,6.848-5.349h3.692l0.834-1.755
		l2.87-1.38h0.132l3.558-0.271l3.703-1.931v-0.134h2.323l-0.411-1.082l0.146-0.293l0.543-0.551l-5.069-10.803v-0.287l-0.136-0.124
		l2.205-3.028l-0.702-0.672l-3.692-0.683h-0.399v-0.278l-2.335-2.451l0.135-0.55l-0.135,0.123l-0.133,0.144l-2.069-1.359
		c-0.944,1.216-1.901,2.037-3.001,2.315c-0.956,0.419-2.456-0.673-4.525-3.142l-1.09-1.381c-0.146-0.265-1.113,0-2.604,0.542
		c-2.334,0.839-3.834,0.961-4.523,0.55c-0.678-0.681-0.957-2.039-0.678-3.829c0.133-1.509,0-2.33-0.279-2.734l-17.79-0.97
		c-1.659-0.666-3.024-1.355-3.702-2.044l-2.736-0.691c-1.102-0.406-3.146-2.177-5.891-5.603l-1.781,1.496l-2.734-0.826l-7.395,0.145
		L376.6,353.156z"/>
	<path fill="#CECECE" d="M466.006,472.681c1.232-0.148,1.924-0.677,2.201-1.366v-0.155l0.135-0.394h0.545l2.467-0.116v-1.798
		c-0.689,0-1.365-0.289-2.043-0.828l-4.127-3.679v-0.165l-1.78-5.198l-2.457-2.458c-3.013-0.138-5.349-0.138-6.981,0l-0.559,0.132
		l0.148,1.649v0.281v0.396h-0.412l-2.191,0.977l-0.424-0.29c-1.768-1.768-2.854-2.456-3.545-2.064
		c-4.803,2.354-7.527,3.445-8.352,2.881c-0.543,0.151-1.245,0.703-2.189,1.651l-0.423,0.551l-0.534-0.551
		c-1.377-1.229-2.056-2.328-2.056-3.154c0-0.528,0.956-1.626,2.59-3.418c1.923-2.187,2.88-3.417,2.88-3.688l-0.41-0.684
		c-0.547-0.271-1.636,0.278-3.004,1.372c-1.377,0.956-2.201,1.362-2.745,1.224c-0.278,0-0.557-0.41-0.691-1.092l-0.132-0.288
		l-1.235-2.191l-2.601,1.659l-0.268,0.271l-0.156-0.271h-0.121c-1.922-1.107-3.703-1.774-5.471-2.464
		c-1.232-0.425-2.467,0.126-3.715,1.642l1.248,2.046c0.823,2.061,1.234,3.425,0.823,4.385c-0.135,0.417-0.559,0.821-1.103,0.821
		c-0.811,0.281-2.046,0-3.559-1.228c-1.234-0.822-2.189-1.514-3.014-1.918l-1.633-0.683v0.133l0.133,0.266v3.025l-2.176,2.464v2.322
		l0.93,2.456l0.156,0.129l-1.523,2.354l-0.944,2.179v0.139l-2.058,2.061l-3.424,7.803l0.135,4.233l-0.135,0.163l-7.396,4.223
		l-0.397,0.796l0.941,2.2v0.156v0.131l-0.676,2.885l-3.014-0.42l-0.689,3.698h-3.835l-0.813,1.376l-1.088,2.32l-0.701,8.644
		l0.834,1.735l0.134,0.302v1.768l1.635,2.079l0.134,0.254v1.635l4.391-0.277l0.266-0.405v-0.133h0.146v-0.14l1.223-1.628
		l-2.734-2.482l-0.268-0.259l-1.514-1.239l-0.133-0.115l-0.133-0.156v-2.733h2.312l0.277-0.955l-0.954-2.758h5.349l9.45-4.51
		l1.21-2.031l0.29-0.695l1.911,0.805h0.146l0.122,0.422l0.832,0.95l0.959-0.124l-0.268-2.053h3.148l3.012,0.527l1.224-2.047
		l0.146-0.132v-0.128l0.266-0.14l3.291-0.954l0.545-4.812l3.413,3.013l1.378,0.292l0.679-0.818l-0.401-10.42v-0.276v-0.526
		l2.325,0.405h0.132l0.268,0.121l0.146,0.15l3.702,6.703l4.659-0.561l0.811-0.268l0.676-1.62l-1.367-1.108l-0.41-0.551l3.158-1.087
		l0.268-0.139l0.144-0.167l1.235,1.393l1.076-0.543v-2.053l0.702-0.15h2.337c1.633,0.15,2.854,0.97,3.811,2.203l0.292,0.543
		l0.954-3.272c0.533-0.826,1.633-0.958,3.291-0.3l0.268,0.161v0.139l0.121,0.14c0.145,0.126,0.426,0.266,0.559,0.266
		c0.689-0.266,3.17-1.925,7.126-5.066C463.138,474.337,464.228,473.232,466.006,472.681"/>
	<path fill="#CECECE" d="M466.563,392.443l-0.147-0.132l-3.013-2.61l-1.634,0.837c-1.102,2.448-2.602,3.968-4.525,4.64
		c-0.543,0.287-1.232,0.156-1.646-0.263c-0.543-0.681-0.277-2.186,0.702-4.533l-4.526,2.892l-0.146,0.284h-0.144h-3.959
		l-3.557,1.776v0.28l-3.836,0.107l-2.045,1.097l-0.957,1.925l-0.291,0.272h-4.523c-0.799,0-2.59,1.378-5.471,4.246
		c1.379,0.549,2.046,1.091,2.335,1.513l0.132,0.818v-0.134l2.06,7.659l0.146,0.407v0.555h-0.146l-0.28,0.137h-0.133l-5.48,7.542
		l0.277,1.907c0.822-0.7,1.501-0.803,2.057-0.553c0.679,0.271,0.957,1.38,0.679,3.007c-0.267,2.603,0.132,5.484,1.368,8.227
		l1.924,2.063c0.678,0.695,0.956,1.361,0.824,2.044l-0.946,1.365l1.224,1.628c0.677,1.378,0.133,3.711-1.513,7.003l1.778,3.02
		l0.266,0.665l1.102-0.665c1.791-1.655,3.279-2.069,4.514-1.655c0.823,0.277,1.246,0.966,1.367,1.655
		c0.146,0.948-0.943,2.601-3.426,5.058l-1.898,2.475l0.944,1.482c1.38-1.217,2.47-1.627,3.158-1.365
		c0.823,0,3.146-0.814,7.116-2.864c1.232-0.676,2.881,0,4.924,2.05l0.824-0.41l-0.133-1.64l-0.424-0.28
		c-0.268-0.396,0-0.815,0.424-1.215l-0.691-2.625c-0.133-0.399-0.133-0.956,0-1.354c0.411-0.417,0.97-0.688,1.516-0.966l1.232-1.104
		l-0.688-1.631v-0.143h0.13v-0.128c0.559-0.829,0.559-1.506,0.426-1.917c-0.556-0.962-0.145-1.641,0.942-2.59l1.525-1.379
		l-0.288-0.298l-0.414-0.395l1.792-0.809v-2.202c0-0.811,0.688-1.906,2.603-3.283l0.821-0.683l-2.057-2.33
		c-0.679-0.961-0.411-2.202,0.824-3.429v-0.262l4.248-3.568l0.12-0.964c-0.812-0.266-1.09-1.767-0.666-4.107
		c0.546-3.695,2.18-5.477,5.059-5.874h0.266l1.779,0.948h1.926l1.777-2.188l0.134-0.137l2.189-1.352l-0.265-1.95v-0.404l0.265-0.268
		l0.546-0.265l0.688-0.822l0.144-0.147l-1.378-2.325c-1.367-1.789-2.601-3.417-3.411-5.339c-0.689-1.23-0.546-2.609,0.41-4.109
		l-2.469-1.5L466.563,392.443z"/>
	<path fill="#CECECE" d="M477.781,410.79l-0.268,0.139l-2.322,1.663l-2.07,2.308h-0.119v0.278h-3.014l-1.646-0.961
		c-2.058,0.561-3.158,1.908-3.568,4.524l-0.135,2.317l1.646-1.496l-1.101,4.513v0.13v0.139l-4.516,3.982
		c-0.676,0.816-0.955,1.505-0.676,1.898l0.811,0.954c0.967,0.85,1.5,1.526,1.379,2.068c0,0.412-0.144,0.814-0.412,1.093l-2.88,2.473
		c0.146,0.681,0.146,1.78,0,3.007v0.401l-0.144,0.14l-1.089,0.435c0,0.652-0.268,1.1-0.946,1.76l-1.5,1.502v0.153
		c0.255,0.683,0.255,1.498-0.279,2.728c0.68,1.38,0.68,2.328,0,2.752l-1.367,1.374l-0.288,0.128l-0.692,0.278v0.266l0.98,3.292
		h0.268c2.325-0.268,4.781-0.268,7.525,0h0.268v0.119l3.014,3.035v0.123h0.135l1.775,5.07l3.718,3.422l1.5,0.551l0.133-4.255
		l3.411,3.435l0.559-0.557l2.468-5.063l0.4-2.865l0.41,0.14h0.278l2.615,0.123l-0.147-2.05v-0.419v-0.257h0.413l3.412,0.118
		c1.791-1.771,2.602-3.279,2.602-4.506l-0.556-4.92l3.036,0.938l0.822-1.373l-1.379-1.354l-0.397-0.552l2.722-2.731l0.133,0.248
		h0.266l1.672,0.982v-0.426l-1.102-2.457l0.399-0.411l0.702-0.41l-0.289-0.968l-1.383-2.59l0.291-0.146l0.279-0.259l3.69-2.059
		l0.134-1.526c-3.146-1.626-4.793-2.991-4.514-3.683c0.119-0.55,0.41-0.685,1.089-0.685l4.112,0.685l0.148-2.464v-0.263l2.041-2.067
		l0.559-1.518c-0.834-0.249-1.367-0.798-1.924-1.351l-0.133-0.271v-0.278l0.133-0.689l-0.133-0.277l-0.277-0.126l-0.135,0.126
		c-0.279,0.562-0.967,0.967-1.924,0.967c-1.5,0-2.735-0.689-3.703-1.659v-0.121h-0.133l-1.088-1.916l-0.269,0.26
		c-0.144,0.828-0.702,1.656-1.656,2.344c-1.791,0.814-3.411,1.093-5.06,0.403c-1.102-0.403-1.777-1.229-2.189-2.47l-0.413-2.729
		c-0.411-2.606-0.954-4.107-1.789-4.512c-0.812-0.564-1.646-0.697-2.323-0.564l0.145,2.336L477.781,410.79z"/>
	<path fill="#CECECE" d="M499.416,371.63c-1.51,0.689-2.719,1.25-3.688,1.366c-0.823,0-2.19-0.272-4.113-0.955l-3.146-0.411
		c-0.958,0.411-2.06,1.776-3.558,4.101l2.056,4.387l-3.425,1.931h-0.156l-2.727-0.833c1.104,2.062,1.371,3.279,0.971,3.83
		l-0.279,1.112c-0.691,1.631-1.234,2.597-1.791,3.133l-4.781,4.244l1.225,0.688l-0.799,0.692c-1.113,0.947-1.391,2.037-0.836,2.876
		l3.293,5.059h0.121v0.154l1.512,2.735v0.118l0.133,0.139l-0.133,0.287v0.271v0.133l-0.277,0.268c0.689,0,1.223,0.283,1.924,0.683
		c1.09,0.683,1.9,2.606,2.322,5.48l0.559,2.742c0.266,0.689,0.531,1.091,1.221,1.363c1.088,0.561,2.469,0.401,3.69-0.409
		c0.69-0.415,1.115-0.828,0.97-1.216l-0.146-0.144v-0.277l2.348-1.652l0.255,0.271l1.789,3.018c0.678,0.551,1.367,0.811,2.457,0.811
		l0.68-0.121l-0.545-1.644l2.613,1.091h0.691h0.119l0.146,0.272l2.47,1.922l0.664-1.077l-0.12-4.672l0.12-0.139l1.658-2.062
		c0.135-0.267,0-0.805-0.689-1.505l-0.412-0.401l0.267-0.279l0.146-0.278l0.411-0.118l3.424-5.609l0.278,0.118l0.679,0.133
		l0.278,0.146v0.27l-0.278,2.188h0.278l3.836-3.418l-0.279-1.791h-0.689l-1.367,0.149l2.336-6.292l-2.058-0.283h-0.278v-0.26
		l-0.689-0.822c-0.41-0.821-0.41-1.509,0.133-2.208l3.303-0.105h2.046c0-0.7-0.411-1.947-1.633-3.984l-2.881-0.97l3.013-2.881
		v-0.676l-1.513,0.265h-0.53v-0.126l-0.146-0.139l-0.136-0.269c-0.421-1.38-1.245-2.468-2.467-2.893l-5.482,0.158l-2.322,2.734
		v0.136l-0.691-0.136l-8.627-2.734l8.348-2.209c0.557,0,1.914-1.374,4.262-4.108l-2.881-2.053L499.416,371.63z"/>
	<path fill="#CECECE" d="M466.828,347.802h-0.145v-0.128c-1.5-5.198-2.854-8.066-3.824-8.488l-4.781-1.639
		c-2.758-0.831-4.672-1.37-5.48-1.92c-1.381-0.816-3.159-2.735-5.205-5.893h-0.821l0.146,0.15c0.252,1.1,1.367,3.007,3.691,5.742
		l0.133,0.146l0.119,0.261l-2.178,3.977c-0.824,1.505-1.646,2.183-2.457,1.904c-0.557-0.267-1.646-1.502-3.424-3.817l-2.336-0.69
		c0,0.69,0.412,2.052,1.368,4.241v0.146v0.121v0.15v0.128l-0.399,1.52l-2.469,1.081l-0.836,0.278
		c-0.398,0.417-0.398,1.1-0.266,1.902c0.266,2.072,0.133,3.303-0.266,3.852c-0.268,0.267-0.426,0.267-0.679,0.267h-0.158
		l-2.72-0.537c0.133,0.537,0.543,1.087,1.232,1.506c1.367,1.223,2.457,3.002,3.546,5.072l0.146,0.39l1.234-0.25
		c1.488-0.301,2.879,0,4.246,0.941l1.501,1.786l0.136,0.14v0.118h-0.136l-0.133,3.571c0.411,0.55,0.679,1.23,0.411,1.792
		c-0.278,0.682-0.832,1.089-1.779,1.215c-1.111,0-1.645,0.683-1.924,2.053v0.146l-1.088,2.329l1.645,1.633l3.56,0.703h0.278
		l1.766,1.898l-2.189,3.285l5.07,10.973l0.121,0.271l-0.824,0.955l0.291,0.816h0.123l9.315-5.899l-1.487,2.755
		c-1.245,2.062-1.937,3.83-2.201,5.076c1.645-0.689,3.012-1.932,3.834-4.129l0.133-0.271h0.135l2.601-1.378l0.146-0.264l3.705,3.294
		l4.09,0.146l0.156,0.126l1.912,1.23l5.057-4.381c0.414-0.415,0.812-1.243,1.368-2.608l0.546-1.092
		c0.144-0.543-0.546-1.909-1.914-4.246l-1.231-1.774l6.024,2.065l1.779-0.968l-1.779-3.85l-0.133-0.133l3.016-3.951l-1.234-1.93
		c-1.237-1.369-2.06-2.059-2.592-2.059l-0.289,0.139l-1.503,1.503l-0.278-0.122h-0.266l-2.48-0.83l-0.678-2.2
		c-0.968-0.127-1.911-0.666-2.734-1.622l-1.502-0.975c-1.244-0.537-1.924-1.226-1.924-1.918c-0.277-0.811,0-1.786,0.836-2.989
		c1.502-2.2,2.312-3.98,2.312-5.36v-1.766l0.965,0.124l3.139,0.139c0.288-0.263,0.688-1.633,1.242-4.106l-0.954-0.127
		c-2.202,1.499-3.837,2.457-5.069,2.875c-1.514,0.403-3.425-0.418-6.16-2.337v-0.14L466.828,347.802z"/>
	<path fill="#CECECE" d="M451.908,256.078l-0.412-0.278c-0.677,0-1.368,0.689-2.045,2.185l-0.424-0.271l-0.121,0.13l0.121,0.141
		l-1.221,1.233l-0.56,0.271l-1.5,0.826l-0.133,0.966c0.133,1.507-0.266,2.602-0.956,3.002l-0.557,1.659
		c-0.133,0.418-0.266,1.504-0.133,3.007l0.821,4.107c0.28,0.543,0.957,1.23,2.325,1.78l3.158,0.822c0.811,0,1.9-0.417,3.133-1.239
		l-0.822-1.49v-0.291v-0.133l0.279-1.248v-0.101l1.512-2.773h2.591l0.691-0.118c-0.268-0.819-1.103-2.323-2.593-4.252l-0.967-1.351
		c-0.543-1.114-1.089-2.348-1.234-3.981C452.584,257.434,452.174,256.615,451.908,256.078"/>
	<path fill="#CECECE" d="M439.455,250.863l-0.278,0.422l-0.411-0.144l-1.793-0.278l-0.133,0.838v0.411h-0.398l-2.88,1.079
		l-0.146,0.417c-0.412,0.96,0,1.789,0.969,2.88l0.266,0.265l-0.266,0.424c-0.823,1.35-2.068,2.729-3.426,3.688
		c-0.533,0.416-0.689,0.822-0.689,1.227l0.97,1.23l1.5,0.567l1.235,0.124c1.633,0,2.745,0.141,3.156,0.827l1.357,0.953
		c0.967,0.405,1.789,0.691,2.467,0.691c0.533,0,1.225-0.419,1.779-1.502l1.089-1.244l0.824-2.617l-0.679-3.014l1.102,0.287
		l1.779,0.132l0.809-0.543l0.278-0.667l-1.365-3.98l0.397-1.38c0.414-0.815,0.968-1.093,1.514-1.226h0.146l-0.278-0.959
		l-3.279,0.147v-0.147l-3.015-2.05c-1.233-0.809-2.468-0.957-3.567-0.685l-0.4,0.28c-0.291,0.533,0,1.096,0.811,1.367
		C439.588,249.222,439.854,249.919,439.455,250.863"/>
	<path fill="#CECECE" d="M490.523,216.094l-1.645,2.189c-0.28,0.418-0.402,1.231-0.147,2.603v0.82h-3.278h-0.123l-2.347-0.688
		l-1.778,2.754l-0.266,0.266l-2.191,1.357l-1.924,2.061l-0.266,0.411l-3.424,3.976v0.136h-0.133l-2.615,1.367l-2.045-1.367v-0.136
		l-1.926-2.062l-1.232-0.672l0.955,5.609l0.836,3.02l-2.068,1.9l-2.868,4.261v1.772l-0.136,0.139h-0.133l-0.676,1.102l0.531,0.938
		h1.112l3.946,1.1h0.145h0.146v0.146h0.133l0.822,0.824l1.089,0.533h0.28v0.156c0.411,0.533,0.674,1.093,0.674,1.626l0.414,1.254
		l4.258,1.227l1.212-0.29l1.245-1.633l3.281-6.292h0.144v-0.147l1.503-2.053l0.133-0.147l2.615-1.218l1.777-0.139
		c0.677-1.101,1.22-1.647,1.922-1.647c0.402,0,1.092,0.269,2.182,0.825l0.275,0.14v0.132l2.312,3.563v0.132h0.159v0.266l0.265,2.608
		l-0.144,2.885l-0.678,2.47v0.254h-0.146l-1.768,2.189l-0.822,1.781l0.133,3.02h0.279l0.943-0.409l1.102-0.961l0.279-0.271
		l0.133-0.285l1.378,1.246v0.13v2.194h-0.144l-1.234,0.535l-0.412,0.56v1.216l-0.145,0.151l-0.801,1.503h-0.156l-0.266,0.125
		l-1.09,0.15l-1.1,0.274l-0.824,1.519l0.133,0.26l4.527-0.552l0.821-0.695l1.489-3.951l10.155-10.407h0.265l2.192-1.109l0.13-0.133
		v0.133h1.791l1.779-0.405l1.9-0.815l1.393-1.5l2.189-6.02v-0.148l8.483-8.898v-0.135l-0.558-4.807
		c-0.412-0.13-0.943-0.408-1.221-0.802l-0.277-0.271v0.128L522,229.108c-0.679-0.271-1.09-0.554-1.646-1.241l-0.387-0.822v-0.139
		l-0.133-0.132v-7.386c-0.836-0.278-1.658-0.819-2.615-1.781l-1.778-1.924l-1.646-2.33c-0.268-0.539-0.268-1.354-0.135-2.602
		l0.135-0.684l-0.957-1.232l-0.144,1.094l-1.224,2.33h-0.411c-0.957,0-2.046-0.135-2.878-0.55c-0.824-0.275-1.225-0.958-1.225-1.78
		v-0.544h-0.689l-2.602,0.683l-1.912-1.919l-0.691-0.139l-0.676,0.689l0.811,1.369l0.279,0.411l-1.381,2.874h-0.12v0.148h-0.147
		l-2.467,2.735l-0.134,0.142h-0.278l-3.824,0.402L490.523,216.094z"/>
	<path fill="#CECECE" d="M493.537,174.199l-0.557-2.888l-1.366,0.829h-0.134l-3.293,1.229l-0.121-0.269l-0.557-0.135v1.511
		l-0.133,0.133l-1.658,2.463h-0.133v0.125h-0.146l-2.456,2.069h-0.278v0.261l-0.398-0.261c-1.648-0.697-2.748-1.513-3.014-2.195
		c-0.277-0.272-0.41-0.272-0.688-0.411l-1.768,0.265l-1.103,1.094l2.87,2.478l2.335,0.944l0.145,0.15h0.121l0.135,0.278v0.132
		l0.422,2.742h0.121v4.231l0.557,2.466l1.646,3.833l1.91,1.791l1.514-1.102l1.089-1.376v-0.126h0.133l1.927-2.321l1.646,1.506v0.133
		v0.133l1.644,3.154l2.046,0.808l1.091,3.292v0.146v0.133l-0.135,3.007v0.146h-0.145l-0.812,2.735l1.513,1.373l1.646-0.836
		l1.633-1.638l0.412,0.278l1.366,0.417l1.647,1.498l1.766-0.417c1.381-0.398,2.069,0,2.469,0.952v1.252l0.279,0.126l1.912,0.557
		l0.834-1.779v-0.691c0-0.556,0.135-1.093,0.559-1.226l1.088,0.133c1.502,0.676,2.191,1.628,2.191,2.741l-0.146,0.948v1.642
		l1.514,2.195l1.766,1.919c0.557,0.696,1.247,0.955,1.924,1.222h0.268c0.424,0.282,0.688,0.97,0.688,2.48v6.153
		c0.278,0.55,0.691,0.952,1.103,1.085h0.265c0.835-0.413,1.368-0.264,2.07,0.434l0.399,0.262c0.689,0.144,1.235,0.683,1.368,1.776
		l0.278,3.439l3.146-6.446c0.968-3.418,2.058-5.479,3.558-5.766c1.234-0.4,3.148,0.287,5.629,1.659l8.881,0.689l0.278-1.931
		l-4.116-3.963c-1.911-1.094-2.72-1.925-2.441-2.457l3.133,0.115c2.881,0.968,5.615-0.672,8.216-5.318h0.136l3.023-2.88l0.4-6.292
		v-0.696h0.4h0.275l2.363-0.558h0.385l0.28,0.145v0.147l4.79,5.06l1.369-0.541l0.266-0.822l-2.59-2.463l-0.41-0.271l-0.268-0.411
		l3.97-2.337l-0.291-5.753l-1.62,0.266h-0.158l-2.189-1.085c-0.813-0.133-1.902-0.668-3.533-1.644
		c-0.85-0.411-1.381-0.805-1.381-1.372v0.147c0,0.535-0.145,0.813-0.411,0.952c-0.413,0.272-0.969,0.411-1.937,0.411h-0.109
		l-0.158-0.139h-0.132l-1.925-1.372l-1.635,1.372c-0.822,0.683-1.367,1.226-1.367,1.775l0.811,1.794
		c0.413,0.53,0.413,0.815,0.268,1.229c-0.268,0.4-0.943,0.805-1.9,0.96l-0.824,0.408c-0.967,0.28-1.777,0.132-2.332-0.563
		l-0.268-0.404l-3.57-3.688c-1.633-0.535-2.59-1.239-3.001-2.053c-0.28-0.435-0.423-0.83-0.28-1.087
		c-0.143-1.252-0.396-2.062-0.688-2.479l-0.666,0.417l-0.144,0.266c0,0.417,0.144,0.828,0.544,1.361l0.131,0.279l0.135,0.156
		l-0.135,0.257l-1.912,3.147l-3.157-0.676l-0.688-0.417v-0.411c0.287-0.544,0.287-1.249,0-1.9l-0.387-1.101l-2.616-1.931
		l-0.134-0.139c-0.276,0.422-0.545,0.422-0.822,0.555l-2.468-0.276c-0.824-0.14-1.368-0.278-1.636-0.811
		c-0.132-0.265-0.132-0.836,0.12-1.511l0.147-0.419l-1.102-1.913l-4.779,0.28c0.133,0.689,0,1.094-0.279,1.633
		c-0.145,0.419-0.678,0.559-1.088,0.559c-0.679,0.278-1.516,0-2.205-0.688v-0.143h-0.132c-1.077-1.237-1.501-2.177-1.501-3.014
		l-0.955-1.348l-1.369,0.942c-1.245,0.678-2.066,0.678-2.467,0.145l-0.557-0.145l-1.367,0.145l-3.679,1.23
		c-0.835,0.536-1.526,0.684-2.058,0.684h-0.424c-1.354,0-2.179-0.42-2.734-0.963l-2.203-1.781L493.537,174.199z"/>
	<path fill="#CECECE" d="M578.696,148.46l-2.046-13.421l0.119-0.285h0.148c0.967-1.506,1.511-2.735,1.232-3.684l-0.557-0.83
		c-1.514-0.951-2.191-3.142-1.791-6.864h-1.199c-0.967-0.115-2.068,0.287-3.156,0.97c-1.115,0.822-1.781,1.792-1.927,2.47
		c-0.545,1.631-2.334,2.735-5.335,3.703l-0.688,4.235v0.152l-0.136,0.133l-1.5,2.741l-0.145,0.259h-0.146h-0.133l-13.553,2.47
		h-0.133h-0.41v-0.27L543.371,136l1.234-1.246l-1.513-2.04l-1.899-1.38l-0.16-0.122h-0.119v-0.142v-0.147l-0.689-3.696l-3.559,0.283
		l-0.266-0.283l-3.025-1.791l-10.83-1.903l-9.029-0.402l-0.268,0.245c-0.41,0-0.688-0.115-0.808-0.395l-5.216-11.771
		c-0.559-0.944-2.734-3.98-7.129-9.173c-4.09-5.065-6.427-7.812-7.129-8.344l-7.646-7.54l-1.234-0.695l-9.584-0.126h-0.135
		l-0.266-0.271c-0.98-0.699-2.335-1.381-4.392-1.792c-1.791-0.685-5.881,0.693-12.32,4.115l-0.278,0.15l0.278,1.904h0.12v0.132
		h-0.12v0.278l-1.101,2.191v0.127h-0.132l-0.146,1.526c0,1.232,0.277,2.596,0.699,3.702l0.946,0.691l2.056-0.156l1.769,0.402
		l0.7-0.539c0-1.244,0.41-2.188,0.943-2.468h1.379l4.795,1.373l1.088,0.127l-1.514,2.608v3.153c0,0.682,1.235,2.318,3.715,4.642
		c1.514,1.113,2.458,1.656,3.281,1.782l0.689-0.126l0.689-0.278l2.324-2.331l1.768-1.087v-0.128l3.701-0.567l1.104-2.317
		l3.277-1.931l2.869,1.664v0.128l0.291,0.14l2.732,4.649l1.102,3.155v0.4l-0.556,3.852l1.089,2.602v0.411l-0.811,3v2.734
		c0.811,2.454,1.223,4.117,1.223,4.528l-0.269,2.324v0.128l-1.378,1.93v0.127l-1.365,1.648l-0.135,3.016l0.824,3.145l0.119,0.139
		l-0.119,0.133l-0.824,4.787l-0.678,0.697c-0.57,0.405-1.246,0.405-2.057,0h-0.269l-1.245-1.373l-1.368,0.405l-1.778,1.905
		l-1.91,5.626v0.134l-0.133,0.135l-1.927,1.652h-0.267l-1.102,0.132l-2.189,3.146l1.101,2.069l0.265,0.262l2.736,3.435v0.128v1.096
		l3.027,0.411l0.544,2.735v0.146l0.411,3.279l0.811,0.683l2.735-0.822l2.614-1.507l0.41-0.26l0.957,4.654l1.234,1.762l0.277,0.156
		l0.945,1.92l2.068,1.637c0.256,0.4,0.957,0.4,1.633,0.4l0.691,0.15l1.235-0.55c0.941-0.419,1.911-0.831,2.987-0.954l0.837-0.426
		l1.911-0.134c0.689,0,0.967,0.134,1.378,0.56l2.735-1.781h0.279l0.267,0.129l0.132-0.129l0.292,0.262
		c1.087,1.232,1.633,2.341,1.633,2.874l1.235,2.057l0.953,0.278h0.123h0.146l-0.269-0.278c-0.143-0.677-0.143-1.088,0-1.359
		c0.269-0.419,0.824-0.698,1.648-0.698l5.045-0.132l0.158-0.135h0.268v0.267h0.263l1.516,2.878l-0.133,1.509h-0.135l1.913,0.396
		h0.143c-0.143-0.396-0.143-0.651,0.136-0.938l0.677-0.15l4.525,3.163c0.4,0.403,0.679,0.953,0.824,1.625l0.133,1.935l1.5,0.268
		l0.97-1.642c-0.413-0.821-0.679-1.659-0.559-2.185c0.146-0.566,0.268-0.972,0.824-1.231l0.411-0.405
		c0-0.285,0.133-0.438,0.424-0.563l1.222,0.125c0.679,0.438,1.235,1.796,1.513,4.128v0.255l0.279,0.156
		c0.121,0.541,0.93,0.946,2.178,1.363h0.135l0.144,0.139l4.382,4.509l2.056-0.674l-0.289-0.703
		c-0.534-0.682-0.665-1.357-0.665-1.769c0-0.966,0.665-1.92,2.031-2.866l2.336-2.061l2.746,1.904h0.547l0.543-2.998v-0.541
		l0.545-0.14l2.203,0.266c0.4,0.415,0.663,0.826,0.663,1.509c0,0.55-0.411,1.221-0.81,1.782l0.398,0.279
		c1.381,0.69,2.47,1.225,3.294,1.363h0.146l1.776,0.955l1.37-0.128l-2.047-10.016c-1.378-0.8-2.613-2.447-3.835-4.371
		c-0.956-1.635-0.413-3.966,1.766-6.709c1.235-1.357,2.746-2.736,4.381-4.099l0.146-0.284h1.924l0.146,0.284l1.619,0.683h3.424
		c1.357-0.683,2.616-2.746,3.983-6.044C579.242,158.587,579.242,154.626,578.696,148.46"/>
	<path fill="#CECECE" d="M499.695,284.703l-0.279,0.13c0,0.696-0.397,1.088-1.088,1.088l-5.348-0.553
		c-3.68-0.666-6.146-1.216-7.395-1.915l-7.54,7.138l0.28,3v0.277l-0.679,0.131c-5.881,0.822-9.04,0.282-9.44-1.652l-0.701-8.49
		l-6.838-0.404l-2.879,6.03l-0.279-2.596c-0.12-2.055-0.531-3.285-0.955-3.563l-3,1.509l-1.368,1.776l-0.158,0.128h-0.12
		l-2.734,0.961c-3.016,2.468-5.616,5.07-7.951,7.805l-7.248,9.864l1.51,3.425v0.55l-0.143,0.133
		c-0.533,0.819-0.268,2.053,0.554,3.422c0.957,1.775,1.636,3.683,1.636,5.883v0.426l-5.87,3.419v1.371l2.724,1.225
		c0.266,0.132,0.424,0.41,0.424,0.539v0.278c-0.158,0.676,0.945,1.652,2.988,2.6l5.082,1.377l1.501-0.97l1.635-2.331l1.368-3.961
		l3.98,1.507l0.545,0.41v0.266v0.158c-0.691,1.62-0.28,2.729,0.955,3.418l4.381,0.126c1.513-0.271,2.748-0.815,3.569-1.498
		c0.535-0.688,1.368-0.83,2.59-0.688c1.513,0.263,2.881,0.814,3.835,2.061l0.969-2.331l0.279-0.421h0.121
		c0.691-0.407,1.103-1.09,1.659-2.037c0.388-0.97,1.077-1.921,2.189-2.609l1.911-1.092l0.121-0.143l0.156,0.143h0.133l1.079,0.276
		l0.292,0.131l1.499-6.842v-0.146l2.179-0.408c2.203-1.504,3.303-2.737,3.157-3.828l-0.399-2.055
		c-0.555-1.376-0.555-2.339-0.277-2.757c0.412-0.398,0.677-0.526,1.088-0.526c0.957,0,2.059,0.276,3.16,0.819l0.279-2.191v-0.286
		l0.132-0.125l2.335-1.102l0.255-1.222h-1.368l-0.266-0.149l0.133-0.687v-0.415l0.133-0.274h0.411h0.267
		c0.969,0,2.068-0.527,3.293-1.631l8.639-6.175h0.266l2.736,1.254l1.102-0.161l-0.689-2.859v-0.278l0.144-0.125l0.136-0.141
		l1.5-2.48l-0.412-0.27l-0.956,0.27v0.156h-0.132l-2.749,0.404h-0.679h-0.133v-0.139l-0.133-0.422l-0.559-0.935H499.695z"/>
	<path fill="#CECECE" d="M511.884,366.16l0.954-1.101v-0.13l-3.424-2.727c-1.791-1.242-3.292-1.67-4.379-1.514l-1.502,0.533v2.886
		c-0.291,0.951-0.679,2.052-1.646,2.873l-0.557,0.533l1.367,1.67h0.157l0.388,1.083l1.658,0.676c0.957-0.676,1.622-0.948,2.324-0.81
		l2.867,0.536l0.133-0.953C510.357,367.797,511.06,366.71,511.884,366.16"/>
	<path fill="#CECECE" d="M492.025,336.033c-1.516-1.23-2.735-3.414-3.971-6.831c-3.957,0-6.305-0.691-7.396-2.063
		c-0.821-1.23-2.454-2.046-4.789-2.734l-0.678-0.146l0.678-2.318l-0.41-0.284l-0.682-0.133c-1.656,0.805-2.734,1.633-3.156,2.735
		c-0.543,1.093-1.234,2.05-2.044,2.741c-0.704,2.202-1.37,3.291-2.059,3.291c-0.411,0.127-0.69-0.139-0.97-0.562l-1.086-0.945
		c-0.824-0.418-1.634-0.835-2.338-0.835l-1.355,0.284c-0.967,0.97-2.323,1.652-4.38,1.92l-5.203-0.268
		c-1.659-0.841-2.323-2.474-1.926-4.533l-1.911-0.683l-0.957,2.742v0.126l-0.146,0.152l-0.41,0.543l1.234,0.278h0.278l0.133,0.126
		v0.146c2.337,3.145,4.102,5.213,5.082,5.741c0.533,0.278,2.166,0.822,5.049,1.652l4.948,1.78c1.487,0.677,2.987,3.703,4.646,9.027
		c2.18,1.511,3.56,2.192,4.517,2.062c0.954-0.411,2.587-1.372,4.924-2.875l0.134-0.139l0.145-0.135l0.278,0.135l2.454,0.541h0.281
		v0.411l-0.146,0.417c-0.812,3.278-1.501,5.186-2.057,5.755l-3.278,0.127v0.153c0,1.351-0.957,3.403-2.735,6.006
		c-0.546,0.83-0.681,1.506-0.681,1.917l3.148,2.191c0.811,0.967,1.367,1.229,2.057,1.229h0.678l0.679,2.342l1.5,0.526l0.835-0.812
		c0.4-0.404,0.954-0.676,1.367-0.537c1.366,0,2.471,0.822,3.838,2.601l1.232,1.64l0.133-0.131c0.811-0.546,2.337-0.413,4.516,0.262
		l3.567,0.825l3.28-1.087l1.365-0.691l0.959-0.688l-0.811-0.944c-0.278-0.569,0-1.248,0.676-1.924
		c0.824-0.679,1.368-1.381,1.368-2.192v-1.643c-0.278-0.827-0.146-1.377,0.147-1.648c0.266-0.53,1.221-0.815,2.322-1.094
		c1.778-0.263,3.969,0.563,6.559,2.742l-0.956-2.742l-1.5-2.046l-0.278-2.475l-2.312-0.414h-0.146v-0.124l-6.159-3.572l-3.024-0.53
		v-0.695l-0.123-3.153C494.904,340.814,493.258,337.274,492.025,336.033"/>
	<path fill="#CECECE" d="M468.342,251.83l-1.104-0.539h-0.131l-0.811-0.835l-3.836-1.096h-0.969l-0.679,0.265l-1.5-2.867
		l0.122-0.133l1.1-1.371v-1.627l0.133-0.286l0.681-1.088l-0.535-0.291l-2.057-0.404l-3.56-0.547h-0.275l-2.059-2.049v-0.14
		l-0.677-1.369l-0.146-0.411l1.102-2.868v-2.062l-0.146-0.557l-1.088,1.093l-0.135,0.146l-0.289,0.419l-0.268-0.419l-0.41-0.146
		l-2.047-1.635l-0.277-0.25v-0.3l-0.398-3.007l-0.969-1.504l-2.045,0.132l-1.247,2.202l-0.133,0.272l-0.133,0.128l-3.28-0.683
		l-0.555,3.009v3.016l-0.135,0.145l-1.791,2.729v0.272l-0.266,0.158h-0.133l-2.046,0.121l-2.069,1.634l-0.266,0.279h-0.278
		l-0.132-0.133l-3.838-1.248l-0.545,1.381v0.146l-1.646,2.741c-0.266,0.55-0.689,0.809-1.1,0.961l-1.646-0.278l-2.189-0.974
		l-0.413-0.266l-0.119-0.139v-0.133l-0.425-3.285l-0.678-2.472l-0.41-0.683l-0.944,1.917l-1.657,2.185l-1.379,3.166v0.126v0.14
		h-0.136l-1.235,1.791c0,0.533-0.397,1.355-1.232,2.587l0.835,3.146l4.115,4.526l1.365,2.864v0.28l-0.144,0.271h-0.135l-1.087,1.373
		l-0.278,0.268l-2.75,0.561l0.268,2.197l2.069,1.081l3.003,0.704l0.835,2.729v0.129v0.139l-0.689,4.666v0.125l-1.092,2.054v0.416
		h-0.278l-3.434,0.538v1.378l-0.959,3.014l-0.412,3.417l0.689,1.931l4.25,2.584l0.144,0.149l1.781,3.006v0.148l0.119,0.115
		l-0.119,0.139l-2.202,4.792l-0.546,1.376l-1.366,3.146l-0.545,2.463l-0.135,0.271v0.144c-0.699,0.533-1.113,1.104-1.381,1.904
		c-0.131,0.294-0.131,0.565,0.135,0.831l0.133,0.128l1.391,1.512l0.679,1.091l0.268-0.128l0.146,0.406v0.167v0.399v0.127
		l0.278,0.828l1.222,0.402l4.925,1.1c1.646,0,3.146-0.417,4.781-1.1c1.656-0.681,3.156-0.822,4.815-0.55l0.268-0.952l-1.658-3.696
		l-0.134-0.271h0.134l7.816-10.841l8.35-8.063h0.146l2.589-0.972l1.381-1.489v-0.139c1.09-0.811,2.046-1.376,3.146-1.781
		l-0.822-0.688l-1.779-1.792v-0.115h-0.146l-1.368-1.64l-0.144-0.271v-0.289l0.702-0.813l-1.778,0.402l-3.837-0.965
		c-1.501-0.669-2.47-1.492-2.748-2.444c-0.821-2.469-1.089-4.672-0.944-6.57c-0.557,0.683-1.245,0.812-1.924,0.812l-2.867-0.679
		l-1.924-1.374l-2.338-0.55h-1.087c-0.691,0-1.5-0.278-2.059-0.805c-0.821-0.565-1.22-1.108-1.368-1.676
		c-0.275-1.076,0-1.78,0.957-2.452c0.97-0.683,2.047-1.77,3.014-3.146c-0.967-1.215-1.354-2.468-0.967-3.696l0.145-0.147
		c0.146-0.662,1.246-1.221,3.293-1.899c0.142-0.695,0.41-1.108,0.688-1.232l2.047,0.124l-0.281-0.263
		c-1.367-0.831-1.766-1.785-1.076-2.883l1.076-0.828c1.248-0.404,2.748-0.265,4.236,0.556l3.171,2.198h2.868l0.956,0.802
		l0.278,1.099c0,0.695-0.399,1.106-0.957,1.106c-0.676,0-0.967,0.685-1.102,1.5l1.369,3.298c0.822-1.231,1.645-1.931,2.457-2.06
		c0.424,0,0.98,0.261,1.379,0.828c0.413,0.681,0.824,1.907,1.102,3.131c0.146,1.512,0.545,2.753,0.957,3.438l1.09,1.498
		c1.656,2.059,2.61,3.562,2.891,4.804l5.325-0.692l2.336-1.229l2.19-2.744l0.956-2.596v-0.139v-0.156l0.677-2.727v-0.13l0.145-0.274
		h0.123l2.069-1.375l0.411-0.272l-0.133-0.133l-3.44-1.102h-0.263v-0.128l-0.691-2.055L468.342,251.83z"/>
	<path fill="#CECECE" d="M399.461,329.052h-0.135l-10.395,4.246l-3.16,3.007c-0.531,4.66,0,7.407,1.648,8.236l3.012,1.906h0.135
		v0.139l0.809,5.056c2.615,3.421,4.406,5.198,5.361,5.631l3.014,0.669l0.4,0.129v0.144c0.423,0.546,1.367,1.106,3.158,1.633
		l8.203,0.411c6.028,0,9.453,0.432,10.131,1.098c0.689,0.566,0.833,1.937,0.689,3.977c-0.135,1.378,0,2.187,0.144,2.326l3.003-0.677
		c2.334-0.834,3.702-0.834,4.381-0.146l1.1,1.372c1.648,2.06,2.748,2.889,3.016,2.75c0.822-0.278,1.779-1.096,2.745-2.47
		l0.253-0.404l2.482,1.5l1.5-1.236c0.411-1.916,1.367-2.866,3.014-3.016l0.679-0.272l-0.268-0.552l-0.278-0.268l0.145-0.132
		l0.134-3.419c-1.09-1.646-2.457-2.209-3.981-1.93c-1.5,0.411-2.602,0.411-3-0.116c-0.268-0.43-0.268-0.702-0.268-1.252
		c-0.967-1.639-1.937-3.015-3.156-4.235c-1.658-1.376-2.046-2.602-1.658-3.83l0.291-0.422l3.834,0.676l-0.277-2.312
		c-0.146-1.371,0-2.331,0.676-3.025c0.291-0.531,0.957-0.815,1.648-0.948l1.645-0.535v-0.695c-1.234-2.606-1.645-4.518-1.102-5.349
		l0.823-0.683c0.423-0.146,1.779,0.144,3.703,0.822l0.133,0.126v0.284c1.503,1.785,2.324,2.892,2.748,3.146l2.589-4.235
		c-2.311-2.879-3.546-4.932-3.957-5.759l-2.068,1.371l-0.268-0.271l-5.48-1.372h-0.123v-0.132c-2.334-1.099-3.715-2.324-3.848-3.563
		l-3.279-1.509v-3.127l6.015-3.585c-0.265-1.637-0.666-3.285-1.368-4.657l-0.943-1.913l-4.127,0.425
		c-1.912,0.807-3.679,1.217-5.47,1.217l-4.248-0.959v-1.491l-0.677-0.146l-1.222-0.402l-0.278-0.828v-0.127l-0.146-0.399v-0.167
		v-0.406l-0.268,0.128l-0.276,3.581l-0.135,1.217c-0.268,0.689-0.545,1.106-0.268,1.371c0.679,0.962,0.533,2.064-0.143,3.008
		l0.545,2.341l-0.135,0.128l-0.268,0.148l-1.658,1.518v3.127l-0.41,0.139c-3.014,1.37-5.068,2.059-6.279,2.059l-6.053-0.41
		l-2.576,2.323H399.461z"/>
	<path fill="#CECECE" d="M518.309,442.282c-4.368,3.148-7.527,7.129-9.584,11.916c-1.768,4.106-3.146,6.166-4.103,6.703l0.956,7.533
		v0.128l-0.678,5.203c-0.278,1.672,0,2.748,0.413,3.043l5.603,3.688h0.144l0.12,0.422c0.291,1.205,1.115,2.286,2.191,3.662
		c0.569,0.854,1.248,1.249,1.791,1.52l0.822-9.049v-0.242l3.982-9.59l1.354-11.383v-0.139l0.147-0.118l1.22-3.016l-0.956-2.603
		v-0.146H521.6l-0.278-3.543l0.147-0.163l0.131-0.128l0.676-0.822l0.413-0.948L518.309,442.282z"/>
</g>
</svg>
