<?xml version="1.0" encoding="utf-8"?>
<!-- Generator: Adobe Illustrator 16.0.0, SVG Export Plug-In . SVG Version: 6.00 Build 0)  -->
<!DOCTYPE svg PUBLIC "-//W3C//DTD SVG 1.1//EN" "http://www.w3.org/Graphics/SVG/1.1/DTD/svg11.dtd">
<svg version="1.1" id="图层_1" xmlns="http://www.w3.org/2000/svg" xmlns:xlink="http://www.w3.org/1999/xlink" x="0px" y="0px"
	 width="600px" height="600px" viewBox="0 0 600 600" enable-background="new 0 0 600 600" xml:space="preserve">
<line fill="none" stroke="#293C54" stroke-width="10" stroke-miterlimit="10" x1="64.807" y1="376.145" x2="287.685" y2="376.145"/>
<line fill="none" stroke="#C23531" stroke-width="10" stroke-miterlimit="10" x1="64.06" y1="207.519" x2="286.938" y2="207.519"/>
<path fill="#FFFFFF" stroke="#C23531" stroke-width="10" stroke-miterlimit="10" d="M223.426,207.513
	c0,26.448-21.457,47.929-47.919,47.929c-26.47,0-47.935-21.48-47.935-47.929c0-26.451,21.464-47.916,47.935-47.916
	C201.969,159.597,223.426,181.062,223.426,207.513z"/>
<polygon fill="#FFFFFF" stroke="#293C54" stroke-width="10" stroke-miterlimit="10" points="175.501,421.211 123.46,421.211 
	149.48,376.145 175.501,331.075 201.52,376.145 227.539,421.211 "/>
<g enable-background="new    ">
	<path fill="#C23531" d="M418.094,185.051v42.854h-5.733v-1.72h-29.62v1.72h-5.447v-42.854H418.094z M382.74,190.163v16.005
		c3.439-0.669,7.022-1.673,10.271-2.962c-1.242-0.908-2.389-1.816-3.393-2.771c-0.955,0.812-1.959,1.529-2.914,2.15
		c-0.86-0.908-2.676-2.58-3.727-3.345c3.869-2.197,7.74-5.542,10.08-9.077H382.74z M412.36,221.169v-14.523
		c-0.956,1.099-2.007,2.628-2.532,3.631c-4.156-0.86-8.217-2.293-11.896-4.204c-1.242,0.669-2.531,1.242-3.822,1.815
		c3.775,0.812,8.266,2.197,10.941,3.392l-2.293,3.488c-2.819-1.29-7.883-3.01-11.896-3.87l1.768-2.437
		c-2.58,1.003-5.256,1.815-7.835,2.437c-0.382-1.099-1.242-2.724-2.054-3.87v14.142h22.598c-4.778-1.72-12.518-3.439-18.824-4.156
		l2.58-3.679c6.449,0.669,14.523,2.389,19.396,4.061l-2.341,3.774H412.36z M393.25,197.998c1.242,1.099,2.723,2.15,4.443,3.01
		c1.815-0.859,3.344-1.911,4.729-3.01H393.25z M412.36,190.163h-18.585l4.061,1.433c-0.477,0.717-1.002,1.481-1.576,2.198h10.415
		l0.812-0.191l3.2,1.911c-1.91,2.962-4.729,5.542-7.979,7.787c3.01,1.146,6.355,2.007,9.651,2.628V190.163z"/>
	<path fill="#C23531" d="M435.248,184.765c-0.812,2.866-1.768,5.78-2.914,8.647v34.35h-5.256v-23.84
		c-0.669,1.004-1.338,2.007-2.007,2.867c-0.382-1.386-1.624-4.683-2.483-6.163c3.2-4.3,5.971-10.846,7.596-17.343L435.248,184.765z
		 M435.726,185.434h16.243v5.303h-7.453c-0.334,1.815-0.668,3.535-1.099,5.255h4.108l0.956-0.143l3.249,0.764
		c-1.338,15.098-5.59,25.369-13.187,31.149c-0.765-1.337-2.293-3.296-3.487-4.348c2.962-1.958,5.351-5.063,7.262-8.981
		c-1.242-1.194-2.771-2.532-3.918-3.535l3.01-3.87c0.86,0.621,1.863,1.481,2.867,2.294c0.812-2.484,1.434-5.304,1.91-8.17h-4.203
		c-1.386,4.252-3.154,8.026-5.208,10.893c-0.86-0.907-2.962-2.771-4.108-3.631c3.201-4.204,5.303-10.702,6.497-17.677h-3.439
		V185.434z M458.323,215.675h-5.017v-27.423h5.017V215.675z M466.158,183.665v37.266c0,3.152-0.573,4.586-2.389,5.446
		c-1.768,0.955-4.635,1.099-8.6,1.099c-0.191-1.529-1.051-3.966-1.768-5.542c2.771,0.144,5.542,0.096,6.449,0.096
		c0.812-0.048,1.1-0.287,1.1-1.099v-37.266H466.158z"/>
	<path fill="#C23531" d="M515.227,202.011v6.163h-43.953v-6.163H515.227z"/>
</g>
<g enable-background="new    ">
	<path fill="#293C54" d="M418.094,356.262v42.854h-5.733v-1.72h-29.62v1.72h-5.447v-42.854H418.094z M382.74,361.374v16.005
		c3.439-0.669,7.022-1.673,10.271-2.962c-1.242-0.908-2.389-1.816-3.393-2.771c-0.955,0.812-1.959,1.529-2.914,2.15
		c-0.86-0.908-2.676-2.58-3.727-3.345c3.869-2.197,7.74-5.542,10.08-9.077H382.74z M412.36,392.38v-14.523
		c-0.956,1.099-2.007,2.628-2.532,3.631c-4.156-0.86-8.217-2.293-11.896-4.204c-1.242,0.669-2.531,1.242-3.822,1.815
		c3.775,0.812,8.266,2.197,10.941,3.392l-2.293,3.488c-2.819-1.29-7.883-3.01-11.896-3.87l1.768-2.437
		c-2.58,1.003-5.256,1.815-7.835,2.437c-0.382-1.099-1.242-2.724-2.054-3.87v14.142h22.598c-4.778-1.72-12.518-3.439-18.824-4.156
		l2.58-3.679c6.449,0.669,14.523,2.389,19.396,4.061l-2.341,3.774H412.36z M393.25,369.209c1.242,1.099,2.723,2.15,4.443,3.01
		c1.815-0.859,3.344-1.911,4.729-3.01H393.25z M412.36,361.374h-18.585l4.061,1.433c-0.477,0.717-1.002,1.481-1.576,2.198h10.415
		l0.812-0.191l3.2,1.911c-1.91,2.962-4.729,5.542-7.979,7.787c3.01,1.146,6.355,2.007,9.651,2.628V361.374z"/>
	<path fill="#293C54" d="M435.248,355.976c-0.812,2.866-1.768,5.78-2.914,8.647v34.35h-5.256v-23.84
		c-0.669,1.004-1.338,2.007-2.007,2.867c-0.382-1.386-1.624-4.683-2.483-6.163c3.2-4.3,5.971-10.846,7.596-17.343L435.248,355.976z
		 M435.726,356.645h16.243v5.303h-7.453c-0.334,1.815-0.668,3.535-1.099,5.255h4.108l0.956-0.143l3.249,0.764
		c-1.338,15.098-5.59,25.369-13.187,31.149c-0.765-1.337-2.293-3.296-3.487-4.348c2.962-1.958,5.351-5.063,7.262-8.981
		c-1.242-1.194-2.771-2.532-3.918-3.535l3.01-3.87c0.86,0.621,1.863,1.481,2.867,2.294c0.812-2.484,1.434-5.304,1.91-8.17h-4.203
		c-1.386,4.252-3.154,8.026-5.208,10.893c-0.86-0.907-2.962-2.771-4.108-3.631c3.201-4.204,5.303-10.702,6.497-17.677h-3.439
		V356.645z M458.323,386.886h-5.017v-27.423h5.017V386.886z M466.158,354.876v37.266c0,3.152-0.573,4.586-2.389,5.446
		c-1.768,0.955-4.635,1.099-8.6,1.099c-0.191-1.529-1.051-3.966-1.768-5.542c2.771,0.144,5.542,0.096,6.449,0.096
		c0.812-0.048,1.1-0.287,1.1-1.099v-37.266H466.158z"/>
	<path fill="#293C54" d="M514.414,388.558v6.546H471.99v-6.546H514.414z M510.449,360.991v6.259h-34.494v-6.259H510.449z"/>
</g>
</svg>
