<?xml version="1.0" encoding="utf-8"?>
<!-- Generator: Adobe Illustrator 16.0.0, SVG Export Plug-In . SVG Version: 6.00 Build 0)  -->
<!DOCTYPE svg PUBLIC "-//W3C//DTD SVG 1.1//EN" "http://www.w3.org/Graphics/SVG/1.1/DTD/svg11.dtd">
<svg version="1.1" id="图层_1" xmlns="http://www.w3.org/2000/svg" xmlns:xlink="http://www.w3.org/1999/xlink" x="0px" y="0px"
	 width="600px" height="600px" viewBox="0 0 600 600" enable-background="new 0 0 600 600" xml:space="preserve">
<path fill="#293C54" d="M300.169,138.816c-21.183,0-42.75,20.152-42.75,41.561c0,16.381,5.766,29.81,19.221,43.529
	c16.537,16.871,23.137,35.869,23.528,41.812c0.393-5.942,6.993-24.94,23.532-41.812c13.455-13.72,19.219-27.148,19.219-43.529
	C342.92,158.969,321.355,138.816,300.169,138.816z M300.169,138.879c-0.381-0.023-0.191-0.039,0-0.049
	C300.365,138.84,300.555,138.855,300.169,138.879z"/>
<polygon fill="#293C54" points="565.661,402.836 433.257,364.7 432.762,364.427 298.824,290.285 165.944,335.667 165.593,335.732 
	36.171,360.123 34.32,350.297 163.39,325.972 299.788,279.389 437.11,355.403 568.429,393.227 "/>
<polygon fill="#C13531" points="168.021,449.729 33.926,438.44 34.765,428.476 165.881,439.515 298.22,367.731 428.981,426.305 
	562.642,332.865 568.372,341.061 430.065,437.748 298.643,378.878 "/>
<g>
	<path fill="#FFFFFF" d="M298.768,192.656h-4.407v9.615H287.5v-9.615h-15.775v-5.008l13.822-22.436h8.814v21.834h4.407V192.656z
		 M287.5,187.047v-7.562c0-2.153,0.2-5.509,0.3-7.662h-0.2c-0.901,1.953-1.903,4.007-2.955,6.01l-5.759,9.214H287.5z"/>
	<path fill="#FFFFFF" d="M302.324,198.015C312.39,189,318.35,182.039,318.35,176.33c0-3.756-2.054-6.009-5.56-6.009
		c-2.704,0-4.958,1.752-6.811,3.806l-4.007-4.007c3.406-3.605,6.711-5.608,11.77-5.608c7.011,0,11.668,4.507,11.668,11.418
		c0,6.711-5.559,13.922-12.319,20.532c1.853-0.2,4.307-0.4,6.01-0.4h8.062v6.21h-24.839V198.015z"/>
</g>
<g>
	<path fill="#FFFFFF" d="M177.739,329.606c0,6.333-5.128,11.458-11.46,11.458c-6.326,0-11.456-5.125-11.456-11.458
		c0-6.327,5.13-11.46,11.456-11.46C172.611,318.146,177.739,323.279,177.739,329.606z"/>
	<path fill="#293C54" d="M166.279,344.064c-7.971,0-14.456-6.485-14.456-14.458c0-7.974,6.485-14.46,14.456-14.46
		c7.973,0,14.46,6.486,14.46,14.46C180.739,337.579,174.252,344.064,166.279,344.064z M166.279,321.146
		c-4.663,0-8.456,3.795-8.456,8.46c0,4.664,3.793,8.458,8.456,8.458c4.665,0,8.46-3.794,8.46-8.458
		C174.739,324.941,170.944,321.146,166.279,321.146z"/>
</g>
<g>
	<path fill="#FFFFFF" d="M311.629,284.835c0,6.325-5.131,11.462-11.458,11.462s-11.459-5.137-11.459-11.462
		c0-6.331,5.131-11.457,11.459-11.457S311.629,278.504,311.629,284.835z"/>
	<path fill="#293C54" d="M300.17,299.297c-7.973,0-14.459-6.488-14.459-14.462c0-7.972,6.486-14.457,14.459-14.457
		c7.972,0,14.458,6.485,14.458,14.457C314.629,292.809,308.143,299.297,300.17,299.297z M300.17,276.378
		c-4.664,0-8.459,3.794-8.459,8.457c0,4.666,3.795,8.462,8.459,8.462c4.664,0,8.458-3.796,8.458-8.462
		C308.629,280.172,304.834,276.378,300.17,276.378z"/>
</g>
<g>
	<circle fill="#FFFFFF" cx="35.951" cy="354.469" r="11.458"/>
	<path fill="#293C54" d="M35.951,368.926c-7.972,0-14.458-6.485-14.458-14.457s6.486-14.457,14.458-14.457
		c7.972,0,14.458,6.485,14.458,14.457S43.923,368.926,35.951,368.926z M35.951,346.012c-4.664,0-8.458,3.794-8.458,8.457
		s3.794,8.457,8.458,8.457s8.458-3.794,8.458-8.457S40.615,346.012,35.951,346.012z"/>
</g>
<g>
	<circle fill="#FFFFFF" cx="430.763" cy="359.369" r="11.458"/>
	<path fill="#293C54" d="M430.764,373.825c-7.973,0-14.459-6.485-14.459-14.456c0-7.972,6.486-14.457,14.459-14.457
		c7.972,0,14.457,6.485,14.457,14.457C445.221,367.34,438.735,373.825,430.764,373.825z M430.764,350.912
		c-4.664,0-8.459,3.794-8.459,8.457s3.795,8.456,8.459,8.456c4.663,0,8.457-3.793,8.457-8.456S435.427,350.912,430.764,350.912z"/>
</g>
<g>
	<path fill="#FFFFFF" d="M578.014,398.032c0,6.323-5.13,11.461-11.459,11.461c-6.326,0-11.458-5.138-11.458-11.461
		c0-6.333,5.132-11.461,11.458-11.461C572.884,386.571,578.014,391.699,578.014,398.032z"/>
	<path fill="#293C54" d="M566.555,412.493c-7.973,0-14.458-6.487-14.458-14.461s6.485-14.461,14.458-14.461
		s14.459,6.487,14.459,14.461S574.527,412.493,566.555,412.493z M566.555,389.571c-4.664,0-8.458,3.796-8.458,8.461
		s3.794,8.461,8.458,8.461s8.459-3.796,8.459-8.461S571.219,389.571,566.555,389.571z"/>
</g>
<g>
	<path fill="#FFFFFF" d="M177.74,442.749c0,6.331-5.128,11.46-11.46,11.46c-6.326,0-11.456-5.129-11.456-11.46
		c0-6.329,5.13-11.461,11.456-11.461C172.612,431.288,177.74,436.42,177.74,442.749z"/>
	<path fill="#C13531" d="M166.28,457.209c-7.971,0-14.456-6.486-14.456-14.46s6.485-14.461,14.456-14.461
		c7.973,0,14.46,6.487,14.46,14.461S174.253,457.209,166.28,457.209z M166.28,434.288c-4.663,0-8.456,3.796-8.456,8.461
		s3.793,8.46,8.456,8.46c4.665,0,8.46-3.795,8.46-8.46S170.945,434.288,166.28,434.288z"/>
</g>
<g>
	<path fill="#FFFFFF" d="M309.678,375.059c0,6.323-5.131,11.462-11.459,11.462c-6.327,0-11.458-5.139-11.458-11.462
		c0-6.333,5.132-11.457,11.458-11.457C304.547,363.602,309.678,368.726,309.678,375.059z"/>
	<path fill="#C13531" d="M298.218,389.521c-7.973,0-14.458-6.487-14.458-14.462c0-7.972,6.486-14.457,14.458-14.457
		c7.973,0,14.459,6.485,14.459,14.457C312.678,383.033,306.191,389.521,298.218,389.521z M298.218,366.602
		c-4.664,0-8.458,3.794-8.458,8.457c0,4.666,3.794,8.462,8.458,8.462c4.665,0,8.459-3.796,8.459-8.462
		C306.678,370.396,302.883,366.602,298.218,366.602z"/>
</g>
<g>
	<path fill="#FFFFFF" d="M47.408,433.012c0,6.324-5.127,11.454-11.457,11.454c-6.326,0-11.458-5.13-11.458-11.454
		c0-6.329,5.131-11.459,11.458-11.459C42.281,421.553,47.408,426.683,47.408,433.012z"/>
	<path fill="#C13531" d="M35.952,447.466c-7.972,0-14.458-6.484-14.458-14.454c0-7.973,6.486-14.459,14.458-14.459
		c7.971,0,14.457,6.486,14.457,14.459C50.408,440.981,43.923,447.466,35.952,447.466z M35.952,424.553
		c-4.664,0-8.458,3.795-8.458,8.459c0,4.661,3.794,8.454,8.458,8.454c4.663,0,8.457-3.793,8.457-8.454
		C44.408,428.348,40.615,424.553,35.952,424.553z"/>
</g>
<g>
	<circle fill="#FFFFFF" cx="430.763" cy="430.307" r="11.458"/>
	<path fill="#C13531" d="M430.764,444.764c-7.973,0-14.458-6.485-14.458-14.457c0-7.973,6.485-14.459,14.458-14.459
		c7.972,0,14.457,6.486,14.457,14.459C445.221,438.278,438.735,444.764,430.764,444.764z M430.764,421.848
		c-4.664,0-8.458,3.795-8.458,8.459c0,4.663,3.794,8.457,8.458,8.457c4.663,0,8.457-3.794,8.457-8.457
		C439.221,425.643,435.427,421.848,430.764,421.848z"/>
</g>
<g>
	<path fill="#FFFFFF" d="M578.014,336.963c0,6.325-5.13,11.461-11.459,11.461c-6.325,0-11.457-5.136-11.457-11.461
		c0-6.331,5.132-11.461,11.457-11.461C572.884,325.502,578.014,330.632,578.014,336.963z"/>
	<path fill="#C13531" d="M566.555,351.424c-7.972,0-14.457-6.487-14.457-14.461s6.485-14.461,14.457-14.461
		c7.973,0,14.459,6.487,14.459,14.461S574.527,351.424,566.555,351.424z M566.555,328.502c-4.663,0-8.457,3.796-8.457,8.461
		s3.794,8.461,8.457,8.461c4.664,0,8.459-3.796,8.459-8.461S571.219,328.502,566.555,328.502z"/>
</g>
<path fill="#C13531" d="M430.762,284.973c-21.186,0-42.75,20.153-42.75,41.568c0,16.37,5.766,29.8,19.221,43.526
	c16.538,16.865,23.137,35.873,23.529,41.808c0.394-5.935,6.992-24.942,23.531-41.808c13.453-13.727,19.221-27.156,19.221-43.526
	C473.514,305.126,451.944,284.973,430.762,284.973z M430.762,285.032c-0.382-0.018-0.195-0.033,0-0.042
	C430.955,284.999,431.148,285.015,430.762,285.032z"/>
<g>
	<path fill="#FFFFFF" d="M403.42,344.169c10.065-9.015,16.025-15.976,16.025-21.685c0-3.756-2.054-6.009-5.559-6.009
		c-2.705,0-4.958,1.752-6.812,3.806l-4.006-4.007c3.405-3.605,6.71-5.608,11.769-5.608c7.011,0,11.668,4.507,11.668,11.418
		c0,6.711-5.559,13.922-12.319,20.532c1.854-0.2,4.307-0.4,6.01-0.4h8.062v6.21H403.42V344.169z"/>
	<path fill="#FFFFFF" d="M432.967,329.746c0-12.82,5.008-19.08,12.57-19.08c7.512,0,12.52,6.31,12.52,19.08
		s-5.008,19.381-12.52,19.381C437.975,349.127,432.967,342.517,432.967,329.746z M451.096,329.746
		c0-10.366-2.404-13.371-5.559-13.371c-3.205,0-5.609,3.005-5.609,13.371c0,10.417,2.404,13.622,5.609,13.622
		C448.691,343.368,451.096,340.163,451.096,329.746z"/>
</g>
<path fill="#C13531" d="M166.282,300.148c-21.183,0-42.752,20.15-42.752,41.568c0,16.374,5.77,29.802,19.224,43.526
	c16.535,16.869,23.138,35.873,23.529,41.811c0.393-5.938,6.991-24.941,23.53-41.811c13.455-13.725,19.222-27.152,19.222-43.526
	C209.034,320.299,187.466,300.148,166.282,300.148z M166.282,300.212c-0.382-0.023-0.192-0.037,0-0.05
	C166.476,300.175,166.668,300.188,166.282,300.212z"/>
<g>
	<path fill="#FFFFFF" d="M140.892,357.644h7.962v-23.438h-6.71v-4.558c3.706-0.701,6.26-1.652,8.614-3.104h5.458v31.1h6.961v5.959
		h-22.285V357.644z"/>
	<path fill="#FFFFFF" d="M168.636,354.388c0-4.757,2.905-7.812,6.36-9.665v-0.25c-2.854-2.054-4.908-4.858-4.908-8.814
		c0-5.959,4.708-9.766,11.167-9.766c6.561,0,10.768,3.956,10.768,9.866c0,3.655-2.304,6.71-4.758,8.463v0.251
		c3.405,1.853,6.21,4.857,6.21,9.915c0,5.609-4.958,9.916-12.47,9.916C173.944,364.304,168.636,360.197,168.636,354.388z
		 M186.615,354.138c0-3.856-3.406-5.459-8.213-7.412c-2.003,1.603-3.405,4.106-3.405,6.861c0,3.355,2.754,5.509,6.21,5.509
		C184.311,359.096,186.615,357.343,186.615,354.138z M186.014,336.209c0-3.005-1.803-5.158-4.908-5.158
		c-2.504,0-4.507,1.652-4.507,4.607c0,3.506,2.854,5.208,6.761,6.761C185.162,340.516,186.014,338.413,186.014,336.209z"/>
</g>
</svg>
