<?xml version="1.0" encoding="utf-8"?>
<!-- Generator: Adobe Illustrator 16.0.0, SVG Export Plug-In . SVG Version: 6.00 Build 0)  -->
<!DOCTYPE svg PUBLIC "-//W3C//DTD SVG 1.1//EN" "http://www.w3.org/Graphics/SVG/1.1/DTD/svg11.dtd">
<svg version="1.1" id="图层_1" xmlns="http://www.w3.org/2000/svg" xmlns:xlink="http://www.w3.org/1999/xlink" x="0px" y="0px"
	 width="600px" height="600px" viewBox="0 0 600 600" enable-background="new 0 0 600 600" xml:space="preserve">
<g>
	<path opacity="0.5" fill="#CECECE" d="M300.296,72.863c-125.664,0-227.539,101.873-227.539,227.533
		s101.875,227.537,227.539,227.537c125.665,0,227.536-101.877,227.536-227.537S425.961,72.863,300.296,72.863z M300.296,456.249
		c-86.074,0-155.847-69.787-155.847-155.853c0-86.066,69.773-155.844,155.847-155.844c86.073,0,155.847,69.777,155.847,155.844
		C456.144,386.462,386.369,456.249,300.296,456.249z"/>
	<path fill="#CECECE" d="M300.296,208.336c-50.85,0-92.066,41.22-92.066,92.064c0,50.842,41.216,92.064,92.066,92.064
		c50.844,0,92.065-41.223,92.065-92.064C392.361,249.556,351.141,208.336,300.296,208.336z"/>
	<g>
		<rect x="298.562" y="302.246" fill="#293C54" width="3.594" height="276.455"/>
	</g>
	<g>
		<rect x="299.562" y="93.406" fill="#293C54" width="10" height="4.085"/>
	</g>
	<g>
		<rect x="299.562" y="190.54" fill="#293C54" width="10" height="4.087"/>
	</g>
	<g>
		<rect x="299.562" y="404.313" fill="#293C54" width="10" height="4.077"/>
	</g>
	<g>
		<rect x="299.562" y="501.448" fill="#293C54" width="10" height="4.077"/>
	</g>
	<g>
		<g>
			<path fill="#C23531" d="M300.296,529.182c-126.254,0-228.953-102.707-228.953-228.96c0-126.247,102.699-228.945,228.953-228.945
				c126.245,0,228.952,102.698,228.952,228.945C529.248,426.475,426.541,529.182,300.296,529.182z M300.296,75.359
				c-123.996,0-224.876,100.868-224.876,224.862c0,124.003,100.881,224.872,224.876,224.872
				c123.987,0,224.866-100.869,224.866-224.872C525.162,176.228,424.283,75.359,300.296,75.359z"/>
		</g>
	</g>
	<g>
		<g>
			<path fill="#C23531" d="M300.296,457.575c-86.769,0-157.345-70.591-157.345-157.354c0-86.757,70.576-157.343,157.345-157.343
				c86.753,0,157.345,70.586,157.345,157.343C457.642,386.984,387.05,457.575,300.296,457.575z M300.296,146.963
				c-84.506,0-153.262,68.754-153.262,153.259c0,84.512,68.756,153.265,153.262,153.265c84.505,0,153.257-68.753,153.257-153.265
				C453.554,215.717,384.802,146.963,300.296,146.963z"/>
		</g>
	</g>
	<g>
		<g>
			<path fill="#C23531" d="M300.296,393.428c-51.401,0-93.199-41.809-93.199-93.206c0-51.392,41.798-93.198,93.199-93.198
				c51.39,0,93.199,41.807,93.199,93.198C393.495,351.619,351.687,393.428,300.296,393.428z M300.296,211.107
				c-49.142,0-89.125,39.976-89.125,89.114c0,49.144,39.983,89.121,89.125,89.121c49.126,0,89.112-39.978,89.112-89.121
				C389.408,251.083,349.423,211.107,300.296,211.107z"/>
		</g>
	</g>
	<g>
		<polygon fill="#293C54" points="301.304,301.998 299.277,298.452 526.195,169.334 528.217,172.885 		"/>
	</g>
	<g>
		<polygon fill="#293C54" points="302.056,301.263 298.521,299.191 429.096,76.098 432.618,78.156 		"/>
	</g>
	<g>
		<polygon fill="#293C54" points="429.545,528.16 298.521,301.253 302.064,299.203 433.088,526.12 		"/>
	</g>
	<g>
		<polygon fill="#293C54" points="524.269,432.561 299.268,301.992 301.323,298.454 526.337,429.023 		"/>
	</g>
	<g>
		<polygon fill="#293C54" points="299.277,302.176 72.366,173.059 74.382,169.507 301.304,298.621 		"/>
	</g>
	<g>
		<polygon fill="#293C54" points="298.521,301.428 167.958,78.322 171.486,76.261 302.056,299.363 		"/>
	</g>
	<g>
		<polygon fill="#293C54" points="171.037,528.33 167.501,526.291 298.521,299.371 302.064,301.418 		"/>
	</g>
	<g>
		<polygon fill="#293C54" points="76.312,432.736 74.255,429.201 299.268,298.632 301.323,302.164 		"/>
	</g>
	<g>
		<rect x="21.996" y="298.613" fill="#293C54" width="556.602" height="3.572"/>
	</g>
	<g>
		<rect x="95.865" y="291.186" fill="#293C54" width="4.078" height="10"/>
	</g>
	<g>
		<rect x="193.001" y="291.186" fill="#293C54" width="4.071" height="10"/>
	</g>
	<g>
		<rect x="406.765" y="291.186" fill="#293C54" width="4.083" height="10"/>
	</g>
	<g>
		<rect x="503.898" y="291.186" fill="#293C54" width="4.083" height="10"/>
	</g>
	<g>
		<rect x="296.783" y="22.099" fill="#293C54" width="7.151" height="280.788"/>
	</g>
</g>
</svg>
