<?xml version="1.0" encoding="utf-8"?>
<!-- Generator: Adobe Illustrator 16.0.0, SVG Export Plug-In . SVG Version: 6.00 Build 0)  -->
<!DOCTYPE svg PUBLIC "-//W3C//DTD SVG 1.1//EN" "http://www.w3.org/Graphics/SVG/1.1/DTD/svg11.dtd">
<svg version="1.1" id="图层_1" xmlns="http://www.w3.org/2000/svg" xmlns:xlink="http://www.w3.org/1999/xlink" x="0px" y="0px"
	 width="600px" height="600px" viewBox="0 0 600 600" enable-background="new 0 0 600 600" xml:space="preserve">
<rect x="23.18" y="166.08" fill="#B73630" width="556.088" height="151.297"/>
<rect x="91.97" y="349.43" fill="#CDCECD" width="418.508" height="79.84"/>
<g enable-background="new    ">
	<path fill="#293C54" d="M114.764,209.567h38.166v7.037h-29.774v20.752h25.083v7.128h-25.083v24.09h30.767v7.128h-39.158V209.567z"
		/>
	<path fill="#293C54" d="M164.03,242.68c0-21.384,12.542-34.376,29.323-34.376c8.03,0,14.346,3.97,18.135,8.211l-4.511,5.413
		c-3.428-3.699-7.85-6.315-13.534-6.315c-12.542,0-20.842,10.285-20.842,26.797c0,16.691,7.939,27.157,20.571,27.157
		c6.315,0,11.098-2.797,15.338-7.398l4.602,5.233c-5.233,6.045-11.729,9.474-20.3,9.474
		C176.391,276.875,164.03,264.153,164.03,242.68z"/>
	<path fill="#293C54" d="M225.385,209.567h8.391v27.699h30.857v-27.699h8.301v66.135h-8.301v-31.218h-30.857v31.218h-8.391V209.567z
		"/>
	<path fill="#293C54" d="M321.389,255.491h-24.18l-6.406,20.211h-8.481l22.466-66.135h9.293l22.467,66.135h-8.842L321.389,255.491z
		 M319.314,248.815l-3.158-10.105c-2.437-7.489-4.512-14.707-6.678-22.376h-0.36c-2.075,7.76-4.24,14.887-6.587,22.376
		l-3.248,10.105H319.314z"/>
	<path fill="#293C54" d="M382.203,275.702l-16.06-28.06h-11.909v28.06h-8.392v-66.135h20.752c13.443,0,23.098,4.781,23.098,18.586
		c0,10.286-5.955,16.421-14.978,18.587l16.963,28.962H382.203z M354.234,240.875h11.098c10.375,0,16.06-4.15,16.06-12.722
		c0-8.752-5.685-11.819-16.06-11.819h-11.098V240.875z"/>
	<path fill="#293C54" d="M415.59,216.604h-20.03v-7.037h48.45v7.037H423.98v59.098h-8.391V216.604z"/>
	<path fill="#293C54" d="M447.082,267.04l4.963-5.684c4.781,4.962,11.457,8.21,18.314,8.21c8.662,0,13.895-4.33,13.895-10.826
		c0-6.768-4.781-8.933-11.006-11.729l-9.564-4.15c-6.135-2.617-13.443-7.309-13.443-16.963c0-10.195,8.842-17.594,20.842-17.594
		c7.85,0,14.797,3.339,19.488,8.211l-4.42,5.323c-4.061-3.79-8.934-6.226-15.068-6.226c-7.488,0-12.361,3.789-12.361,9.744
		c0,6.406,5.775,8.842,10.918,11.008l9.473,4.06c7.67,3.339,13.625,7.85,13.625,17.685c0,10.466-8.662,18.767-22.467,18.767
		C460.887,276.875,452.855,273.086,447.082,267.04z"/>
</g>
</svg>
