<?xml version="1.0" encoding="utf-8"?>
<!-- Generator: Adobe Illustrator 16.0.4, SVG Export Plug-In . SVG Version: 6.00 Build 0)  -->
<!DOCTYPE svg PUBLIC "-//W3C//DTD SVG 1.1//EN" "http://www.w3.org/Graphics/SVG/1.1/DTD/svg11.dtd">
<svg version="1.1" id="图层_1" xmlns="http://www.w3.org/2000/svg" xmlns:xlink="http://www.w3.org/1999/xlink" x="0px" y="0px"
	 width="600px" height="600px" viewBox="0 0 600 600" enable-background="new 0 0 600 600" xml:space="preserve">
<polygon fill="#CDCECD" points="498.562,388.541 361.306,286.987 150.945,228.2 150.945,30.725 172.149,30.725 172.149,212.107 
	370.803,267.633 372.359,268.793 511.246,371.543 "/>
<polygon fill="#CDCECD" points="297.263,550.246 276.93,544.156 356.885,271.002 544.155,127.477 557.059,144.294 375.259,283.653 
	"/>
<polygon fill="#CDCECD" points="51.348,346.027 36.344,331.059 154.064,212.651 169.068,227.62 "/>
<path fill="#C13531" d="M452.278,277.274c0,47.66-38.637,86.259-86.226,86.259c-47.605,0-86.187-38.6-86.187-86.259
	c0-47.588,38.581-86.152,86.187-86.152C413.642,191.122,452.278,229.686,452.278,277.274z"/>
<path fill="#293C54" d="M209.516,220.117c0,26.53-21.493,47.986-47.95,47.986c-26.458,0-47.951-21.456-47.951-47.986
	c0-26.459,21.493-47.879,47.951-47.879C188.022,172.238,209.516,193.658,209.516,220.117z"/>
<path fill="#CDCECD" d="M191.974,30.725c0,16.781-13.592,30.445-30.408,30.445c-16.854,0-30.445-13.664-30.445-30.445
	c0-16.816,13.592-30.444,30.445-30.444C178.382,0.281,191.974,13.909,191.974,30.725z"/>
<path fill="#293C54" d="M340.829,547.201c0,29.684-24.031,53.75-53.751,53.75c-29.647,0-53.751-24.066-53.751-53.75
	s24.104-53.713,53.751-53.713C316.798,493.488,340.829,517.518,340.829,547.201z"/>
<path fill="#293C54" d="M535.494,380.061c0,16.928-13.646,30.662-30.589,30.662c-16.944,0-30.626-13.734-30.626-30.662
	c0-16.926,13.682-30.625,30.626-30.625C521.849,349.436,535.494,363.135,535.494,380.061z"/>
<path fill="#CDCECD" d="M83.007,342.875c0,22.941-18.593,41.535-41.499,41.535c-22.943,0-41.572-18.594-41.572-41.535
	c0-22.906,18.629-41.5,41.572-41.5C64.414,301.375,83.007,319.969,83.007,342.875z"/>
<path fill="#293C54" d="M599.936,131.572c0,24.972-20.278,45.305-45.304,45.305c-25.027,0-45.343-20.333-45.343-45.305
	c0-25.08,20.315-45.376,45.343-45.376C579.657,86.196,599.936,106.492,599.936,131.572z"/>
</svg>
