<?xml version="1.0" encoding="utf-8"?>
<!-- Generator: Adobe Illustrator 16.0.0, SVG Export Plug-In . SVG Version: 6.00 Build 0)  -->
<!DOCTYPE svg PUBLIC "-//W3C//DTD SVG 1.1//EN" "http://www.w3.org/Graphics/SVG/1.1/DTD/svg11.dtd">
<svg version="1.1" id="图层_1" xmlns="http://www.w3.org/2000/svg" xmlns:xlink="http://www.w3.org/1999/xlink" x="0px" y="0px"
	 width="600px" height="600px" viewBox="0 0 600 600" enable-background="new 0 0 600 600" xml:space="preserve">
<polygon fill="#304555" points="505.65,168.06 440.523,266.523 371.386,111.951 309.271,226.144 246.661,195.614 159.658,365.589 
	101.828,283.117 26.49,397.021 26.49,505.875 100.803,505.875 163.318,505.875 242.476,505.875 312.287,505.875 370.854,505.875 
	437.949,505.875 507.07,505.875 574.299,505.875 574.299,287.645 "/>
<polygon fill="#C23531" points="503.862,297.085 430.977,352.205 372.303,251.211 319.076,360.816 247.039,312.92 167.714,443.856 
	100.803,383.051 26.49,459.61 26.49,561.531 574.299,561.531 574.299,381.254 "/>
<polygon fill="#CECECE" points="28.935,345.469 24.044,341.936 101.945,234.034 156.217,307.322 240.173,149.213 299.208,182.783 
	370.803,50.821 444.742,198.814 508.949,108.207 576.922,228.183 571.676,231.151 508.384,119.452 443.846,210.52 370.577,63.878 
	301.579,191.068 242.588,157.534 157.065,318.603 102.006,244.252 "/>
<path fill="#C23531" d="M121.193,242.061c0,10.521-8.532,19.041-19.035,19.041c-10.514,0-19.041-8.521-19.041-19.041
	c0-10.509,8.527-19.03,19.041-19.03C112.661,223.031,121.193,231.551,121.193,242.061z"/>
<path fill="#304555" d="M389.664,57.349c0,10.514-8.533,19.035-19.047,19.035c-10.513,0-19.033-8.521-19.033-19.035
	c0-10.514,8.521-19.035,19.033-19.035C381.131,38.314,389.664,46.835,389.664,57.349z"/>
</svg>
