<?xml version="1.0" encoding="utf-8"?>
<!-- Generator: Adobe Illustrator 16.0.0, SVG Export Plug-In . SVG Version: 6.00 Build 0)  -->
<!DOCTYPE svg PUBLIC "-//W3C//DTD SVG 1.1//EN" "http://www.w3.org/Graphics/SVG/1.1/DTD/svg11.dtd">
<svg version="1.1" id="图层_1" xmlns="http://www.w3.org/2000/svg" xmlns:xlink="http://www.w3.org/1999/xlink" x="0px" y="0px"
	 width="600px" height="600px" viewBox="0 0 600 600" enable-background="new 0 0 600 600" xml:space="preserve">
<path fill="#C13531" d="M564.842,373.297"/>
<rect x="160.826" y="79.402" fill="#293C54" width="10" height="440.917"/>
<rect x="297.426" y="79.402" fill="#293C54" width="10" height="440.954"/>
<rect x="431.074" y="79.402" fill="#293C54" width="10" height="440.954"/>
<rect x="24.06" y="79.402" fill="#293C54" width="10" height="440.916"/>
<rect x="567.675" y="79.402" fill="#293C54" width="10" height="440.954"/>
<polygon fill="#CDCECD" points="165.563,280.674 25.902,166.882 32.218,159.129 166.089,268.205 302.247,175.198 435.841,216.009 
	570.799,161.391 574.551,170.66 436.308,226.608 303.921,186.166 "/>
<polygon fill="#CDCECD" points="167.224,359.28 26.15,314.367 29.184,304.838 164.429,347.896 302.352,208.794 436.329,338.312 
	568.089,229.011 574.474,236.708 435.819,351.729 302.5,222.847 "/>
<polygon fill="#C13531" points="33.948,445.168 26.795,438.18 164.941,296.781 302.616,254.073 436.265,306.313 573.461,277.757 
	575.498,287.547 435.392,316.71 302.235,264.661 170.324,305.582 "/>
<polygon fill="#C13531" points="436.554,406.521 304.22,348.102 166.113,393.849 29.349,401.759 28.771,391.776 164.22,383.941 
	304.733,337.396 435.595,395.167 569.422,306.673 574.938,315.015 "/>
<g>
	<path fill="#FFFFFF" d="M177.613,388.386c0,6.331-5.128,11.46-11.46,11.46c-6.326,0-11.456-5.129-11.456-11.46
		c0-6.329,5.13-11.461,11.456-11.461C172.485,376.925,177.613,382.057,177.613,388.386z"/>
	<path fill="#C13531" d="M166.153,402.846c-7.971,0-14.456-6.486-14.456-14.46s6.485-14.461,14.456-14.461
		c7.973,0,14.46,6.487,14.46,14.461S174.126,402.846,166.153,402.846z M166.153,379.925c-4.663,0-8.456,3.796-8.456,8.461
		s3.793,8.46,8.456,8.46c4.665,0,8.46-3.795,8.46-8.46S170.818,379.925,166.153,379.925z"/>
</g>
<g>
	<path fill="#FFFFFF" d="M314.263,343.397c0,6.323-5.13,11.462-11.459,11.462c-6.327,0-11.458-5.139-11.458-11.462
		c0-6.333,5.132-11.457,11.458-11.457C309.133,331.94,314.263,337.064,314.263,343.397z"/>
	<path fill="#C13531" d="M302.804,357.859c-7.973,0-14.458-6.487-14.458-14.462c0-7.972,6.486-14.457,14.458-14.457
		s14.459,6.485,14.459,14.457C317.263,351.372,310.776,357.859,302.804,357.859z M302.804,334.94c-4.664,0-8.458,3.794-8.458,8.457
		c0,4.666,3.794,8.462,8.458,8.462s8.459-3.796,8.459-8.462C311.263,338.734,307.468,334.94,302.804,334.94z"/>
</g>
<g>
	<path fill="#FFFFFF" d="M40.148,394.779c0,6.324-5.127,11.454-11.457,11.454c-6.326,0-11.458-5.13-11.458-11.454
		c0-6.329,5.131-11.459,11.458-11.459C35.021,383.32,40.148,388.45,40.148,394.779z"/>
	<path fill="#C13531" d="M28.692,409.233c-7.972,0-14.458-6.484-14.458-14.454c0-7.973,6.486-14.459,14.458-14.459
		c7.971,0,14.457,6.486,14.457,14.459C43.148,402.749,36.663,409.233,28.692,409.233z M28.692,386.32
		c-4.664,0-8.458,3.795-8.458,8.459c0,4.661,3.794,8.454,8.458,8.454c4.663,0,8.457-3.793,8.457-8.454
		C37.148,390.115,33.355,386.32,28.692,386.32z"/>
</g>
<g>
	<circle fill="#FFFFFF" cx="436.488" cy="400.845" r="11.457"/>
	<path fill="#C13531" d="M436.488,415.302c-7.972,0-14.457-6.485-14.457-14.457c0-7.973,6.485-14.459,14.457-14.459
		s14.457,6.486,14.457,14.459C450.945,408.816,444.46,415.302,436.488,415.302z M436.488,392.386c-4.663,0-8.457,3.795-8.457,8.459
		c0,4.663,3.794,8.457,8.457,8.457s8.457-3.794,8.457-8.457C444.945,396.181,441.151,392.386,436.488,392.386z"/>
</g>
<g>
	<path fill="#FFFFFF" d="M584.297,310.844c0,6.325-5.13,11.461-11.459,11.461c-6.325,0-11.457-5.136-11.457-11.461
		c0-6.331,5.132-11.461,11.457-11.461C579.167,299.383,584.297,304.513,584.297,310.844z"/>
	<path fill="#C13531" d="M572.838,325.305c-7.972,0-14.457-6.487-14.457-14.461s6.485-14.461,14.457-14.461
		c7.973,0,14.459,6.487,14.459,14.461S580.811,325.305,572.838,325.305z M572.838,302.383c-4.663,0-8.457,3.796-8.457,8.461
		s3.794,8.461,8.457,8.461c4.664,0,8.459-3.796,8.459-8.461S577.502,302.383,572.838,302.383z"/>
</g>
<g>
	<path fill="#FFFFFF" d="M177.613,301.719c0,6.331-5.128,11.46-11.46,11.46c-6.326,0-11.456-5.129-11.456-11.46
		c0-6.329,5.13-11.461,11.456-11.461C172.485,290.258,177.613,295.39,177.613,301.719z"/>
	<path fill="#C13531" d="M166.153,316.179c-7.971,0-14.456-6.486-14.456-14.46s6.485-14.461,14.456-14.461
		c7.973,0,14.46,6.487,14.46,14.461S174.126,316.179,166.153,316.179z M166.153,293.258c-4.663,0-8.456,3.795-8.456,8.461
		c0,4.665,3.793,8.46,8.456,8.46c4.665,0,8.46-3.795,8.46-8.46C174.613,297.053,170.818,293.258,166.153,293.258z"/>
</g>
<g>
	<path fill="#FFFFFF" d="M314.264,259.364c0,6.323-5.131,11.462-11.459,11.462c-6.327,0-11.459-5.139-11.459-11.462
		c0-6.333,5.132-11.457,11.459-11.457C309.133,247.907,314.264,253.031,314.264,259.364z"/>
	<path fill="#C13531" d="M302.805,273.826c-7.973,0-14.459-6.488-14.459-14.462c0-7.972,6.486-14.457,14.459-14.457
		s14.459,6.485,14.459,14.457C317.264,267.338,310.777,273.826,302.805,273.826z M302.805,250.907c-4.664,0-8.459,3.794-8.459,8.457
		c0,4.666,3.795,8.462,8.459,8.462s8.459-3.796,8.459-8.462C311.264,254.701,307.469,250.907,302.805,250.907z"/>
</g>
<g>
	<path fill="#FFFFFF" d="M40.148,441.676c0,6.324-5.127,11.454-11.457,11.454c-6.326,0-11.458-5.13-11.458-11.454
		c0-6.329,5.131-11.459,11.458-11.459C35.021,430.217,40.148,435.347,40.148,441.676z"/>
	<path fill="#C13531" d="M28.692,456.13c-7.972,0-14.458-6.484-14.458-14.454c0-7.973,6.486-14.459,14.458-14.459
		c7.971,0,14.457,6.486,14.457,14.459C43.148,449.646,36.663,456.13,28.692,456.13z M28.692,433.217
		c-4.664,0-8.458,3.795-8.458,8.459c0,4.661,3.794,8.454,8.458,8.454c4.663,0,8.457-3.793,8.457-8.454
		C37.148,437.012,33.355,433.217,28.692,433.217z"/>
</g>
<g>
	<circle fill="#FFFFFF" cx="436.281" cy="400.845" r="11.457"/>
	<path fill="#C13531" d="M436.281,415.302c-7.972,0-14.457-6.485-14.457-14.457c0-7.973,6.485-14.459,14.457-14.459
		s14.457,6.486,14.457,14.459C450.738,408.816,444.253,415.302,436.281,415.302z M436.281,392.386c-4.663,0-8.457,3.795-8.457,8.459
		c0,4.663,3.794,8.457,8.457,8.457s8.457-3.794,8.457-8.457C444.738,396.181,440.944,392.386,436.281,392.386z"/>
</g>
<g>
	<path fill="#FFFFFF" d="M583.578,310.844c0,6.325-5.13,11.461-11.459,11.461c-6.325,0-11.457-5.136-11.457-11.461
		c0-6.331,5.132-11.461,11.457-11.461C578.448,299.383,583.578,304.513,583.578,310.844z"/>
	<path fill="#C13531" d="M572.119,325.305c-7.972,0-14.457-6.487-14.457-14.461s6.485-14.461,14.457-14.461
		c7.973,0,14.459,6.487,14.459,14.461S580.092,325.305,572.119,325.305z M572.119,302.383c-4.663,0-8.457,3.796-8.457,8.461
		s3.794,8.461,8.457,8.461c4.664,0,8.459-3.796,8.459-8.461S576.783,302.383,572.119,302.383z"/>
</g>
<g>
	<path fill="#FFFFFF" d="M40.148,309.092c0,6.324-5.127,11.454-11.457,11.454c-6.326,0-11.458-5.13-11.458-11.454
		c0-6.329,5.131-11.459,11.458-11.459C35.021,297.633,40.148,302.763,40.148,309.092z"/>
	<path fill="#CDCECD" d="M28.692,323.546c-7.972,0-14.458-6.484-14.458-14.454c0-7.973,6.486-14.459,14.458-14.459
		c7.971,0,14.457,6.486,14.457,14.459C43.148,317.062,36.663,323.546,28.692,323.546z M28.692,300.633
		c-4.664,0-8.458,3.795-8.458,8.459c0,4.661,3.794,8.454,8.458,8.454c4.663,0,8.457-3.793,8.457-8.454
		C37.148,304.428,33.355,300.633,28.692,300.633z"/>
</g>
<g>
	<path fill="#FFFFFF" d="M177.613,352.38c0,6.331-5.128,11.46-11.46,11.46c-6.326,0-11.456-5.129-11.456-11.46
		c0-6.329,5.13-11.461,11.456-11.461C172.485,340.919,177.613,346.051,177.613,352.38z"/>
	<path fill="#CDCECD" d="M166.153,366.84c-7.971,0-14.456-6.486-14.456-14.46s6.485-14.461,14.456-14.461
		c7.973,0,14.46,6.487,14.46,14.461S174.126,366.84,166.153,366.84z M166.153,343.919c-4.663,0-8.456,3.796-8.456,8.461
		s3.793,8.46,8.456,8.46c4.665,0,8.46-3.795,8.46-8.46S170.818,343.919,166.153,343.919z"/>
</g>
<g>
	<path fill="#FFFFFF" d="M314.264,215.817c0,6.323-5.131,11.462-11.459,11.462c-6.327,0-11.459-5.139-11.459-11.462
		c0-6.333,5.132-11.457,11.459-11.457C309.133,204.36,314.264,209.484,314.264,215.817z"/>
	<path fill="#CDCECD" d="M302.805,230.279c-7.973,0-14.459-6.488-14.459-14.462c0-7.972,6.486-14.457,14.459-14.457
		s14.459,6.485,14.459,14.457C317.264,223.792,310.777,230.279,302.805,230.279z M302.805,207.36c-4.664,0-8.459,3.794-8.459,8.457
		c0,4.666,3.795,8.462,8.459,8.462s8.459-3.796,8.459-8.462C311.264,211.154,307.469,207.36,302.805,207.36z"/>
</g>
<g>
	<circle fill="#FFFFFF" cx="436.281" cy="345.021" r="11.457"/>
	<path fill="#CDCECD" d="M436.281,359.479c-7.972,0-14.457-6.485-14.457-14.457c0-7.973,6.485-14.459,14.457-14.459
		s14.457,6.486,14.457,14.459C450.738,352.993,444.253,359.479,436.281,359.479z M436.281,336.562c-4.663,0-8.457,3.795-8.457,8.459
		c0,4.663,3.794,8.457,8.457,8.457s8.457-3.794,8.457-8.457C444.738,340.357,440.944,336.562,436.281,336.562z"/>
</g>
<g>
	<path fill="#FFFFFF" d="M583.578,282.287c0,6.325-5.129,11.461-11.459,11.461c-6.324,0-11.457-5.136-11.457-11.461
		c0-6.331,5.133-11.461,11.457-11.461C578.449,270.826,583.578,275.956,583.578,282.287z"/>
	<path fill="#C13531" d="M572.119,296.748c-7.972,0-14.457-6.487-14.457-14.461s6.485-14.461,14.457-14.461
		c7.973,0,14.459,6.487,14.459,14.461S580.092,296.748,572.119,296.748z M572.119,273.826c-4.663,0-8.457,3.795-8.457,8.461
		s3.794,8.461,8.457,8.461c4.664,0,8.459-3.795,8.459-8.461S576.783,273.826,572.119,273.826z"/>
</g>
<g>
	<path fill="#FFFFFF" d="M177.613,270.826c0,6.331-5.128,11.46-11.46,11.46c-6.326,0-11.456-5.129-11.456-11.46
		c0-6.329,5.13-11.461,11.456-11.461C172.485,259.365,177.613,264.497,177.613,270.826z"/>
	<path fill="#CDCECD" d="M166.153,285.286c-7.971,0-14.456-6.487-14.456-14.46c0-7.974,6.485-14.461,14.456-14.461
		c7.973,0,14.46,6.487,14.46,14.461C180.613,278.799,174.126,285.286,166.153,285.286z M166.153,262.365
		c-4.663,0-8.456,3.795-8.456,8.461c0,4.665,3.793,8.46,8.456,8.46c4.665,0,8.46-3.795,8.46-8.46
		C174.613,266.161,170.818,262.365,166.153,262.365z"/>
</g>
<g>
	<path fill="#FFFFFF" d="M40.148,163.008c0,6.324-5.127,11.454-11.457,11.454c-6.326,0-11.457-5.13-11.457-11.454
		c0-6.329,5.131-11.459,11.457-11.459C35.021,151.549,40.148,156.679,40.148,163.008z"/>
	<path fill="#CDCECD" d="M28.691,177.462c-7.972,0-14.457-6.484-14.457-14.454c0-7.973,6.485-14.459,14.457-14.459
		s14.457,6.486,14.457,14.459C43.148,170.978,36.663,177.462,28.691,177.462z M28.691,154.549c-4.663,0-8.457,3.795-8.457,8.459
		c0,4.662,3.794,8.454,8.457,8.454s8.457-3.792,8.457-8.454C37.148,158.344,33.354,154.549,28.691,154.549z"/>
</g>
<g>
	<path fill="#FFFFFF" d="M314.263,179.592c0,6.323-5.13,11.462-11.459,11.462c-6.326,0-11.458-5.139-11.458-11.462
		c0-6.333,5.132-11.457,11.458-11.457C309.133,168.135,314.263,173.259,314.263,179.592z"/>
	<path fill="#CDCECD" d="M302.804,194.054c-7.972,0-14.458-6.488-14.458-14.462c0-7.972,6.486-14.457,14.458-14.457
		c7.973,0,14.459,6.485,14.459,14.457C317.263,187.566,310.776,194.054,302.804,194.054z M302.804,171.135
		c-4.664,0-8.458,3.794-8.458,8.457c0,4.666,3.794,8.462,8.458,8.462c4.664,0,8.459-3.796,8.459-8.462
		C311.263,174.929,307.468,171.135,302.804,171.135z"/>
</g>
<g>
	<circle fill="#FFFFFF" cx="436.281" cy="220.463" r="11.457"/>
	<path fill="#CDCECD" d="M436.281,234.92c-7.972,0-14.457-6.485-14.457-14.457c0-7.973,6.485-14.459,14.457-14.459
		s14.457,6.486,14.457,14.459C450.738,228.435,444.253,234.92,436.281,234.92z M436.281,212.004c-4.663,0-8.457,3.795-8.457,8.459
		c0,4.663,3.794,8.457,8.457,8.457s8.457-3.794,8.457-8.457C444.738,215.799,440.944,212.004,436.281,212.004z"/>
</g>
<g>
	<path fill="#FFFFFF" d="M583.578,166.062c0,6.325-5.13,11.461-11.459,11.461c-6.325,0-11.457-5.136-11.457-11.461
		c0-6.331,5.132-11.461,11.457-11.461C578.448,154.602,583.578,159.731,583.578,166.062z"/>
	<path fill="#CDCECD" d="M572.119,180.523c-7.972,0-14.457-6.487-14.457-14.461s6.485-14.461,14.457-14.461
		c7.973,0,14.459,6.487,14.459,14.461S580.092,180.523,572.119,180.523z M572.119,157.602c-4.663,0-8.457,3.795-8.457,8.461
		s3.794,8.461,8.457,8.461c4.664,0,8.459-3.795,8.459-8.461S576.783,157.602,572.119,157.602z"/>
</g>
<g>
	<circle fill="#FFFFFF" cx="436.281" cy="309.089" r="11.457"/>
	<path fill="#C13531" d="M436.281,323.546c-7.972,0-14.457-6.485-14.457-14.457c0-7.973,6.485-14.459,14.457-14.459
		s14.457,6.486,14.457,14.459C450.738,317.061,444.253,323.546,436.281,323.546z M436.281,300.63c-4.663,0-8.457,3.795-8.457,8.459
		c0,4.663,3.794,8.457,8.457,8.457s8.457-3.794,8.457-8.457C444.738,304.425,440.944,300.63,436.281,300.63z"/>
</g>
<g>
	<path fill="#FFFFFF" d="M583.578,234.894c0,6.325-5.13,11.461-11.459,11.461c-6.325,0-11.457-5.136-11.457-11.461
		c0-6.331,5.132-11.461,11.457-11.461C578.448,223.433,583.578,228.562,583.578,234.894z"/>
	<path fill="#CDCECD" d="M572.119,249.354c-7.972,0-14.457-6.487-14.457-14.461s6.485-14.461,14.457-14.461
		c7.973,0,14.459,6.487,14.459,14.461S580.092,249.354,572.119,249.354z M572.119,226.433c-4.663,0-8.457,3.795-8.457,8.461
		s3.794,8.461,8.457,8.461c4.664,0,8.459-3.795,8.459-8.461S576.783,226.433,572.119,226.433z"/>
</g>
</svg>
