<?xml version="1.0" encoding="utf-8"?>
<!-- Generator: Adobe Illustrator 16.0.4, SVG Export Plug-In . SVG Version: 6.00 Build 0)  -->
<!DOCTYPE svg PUBLIC "-//W3C//DTD SVG 1.1//EN" "http://www.w3.org/Graphics/SVG/1.1/DTD/svg11.dtd">
<svg version="1.1" id="图层_1" xmlns="http://www.w3.org/2000/svg" xmlns:xlink="http://www.w3.org/1999/xlink" x="0px" y="0px"
	 width="600px" height="600px" viewBox="0 0 600 600" enable-background="new 0 0 600 600" xml:space="preserve">
<g>
	<path fill="#293C54" d="M124.263,435.037c0,34.291-27.819,62.09-62.144,62.09c-34.325,0-62.141-27.799-62.141-62.09
		c0-34.289,27.815-62.075,62.141-62.075C96.443,372.962,124.263,400.748,124.263,435.037z"/>
	<path fill="#C13531" d="M280.971,521.801c0,21.254-17.244,38.482-38.504,38.482c-21.273,0-38.514-17.229-38.514-38.482
		c0-21.24,17.24-38.473,38.514-38.473C263.727,483.328,280.971,500.561,280.971,521.801z"/>
	<path fill="#293C54" d="M544.068,400.352c0,55.905-45.382,101.219-101.32,101.219c-55.98,0-101.312-45.313-101.312-101.219
		c0-55.924,45.332-101.246,101.312-101.246C498.687,299.106,544.068,344.428,544.068,400.352z"/>
	<path fill="#C13531" d="M490.626,151.934c0,32.732-26.534,59.243-59.282,59.243c-32.744,0-59.279-26.511-59.279-59.243
		c0-32.702,26.535-59.226,59.279-59.226C464.092,92.708,490.626,119.232,490.626,151.934z"/>
	<path fill="#C13531" d="M599.979,78.651c0,21.259-17.244,38.49-38.518,38.49c-21.251,0-38.506-17.23-38.506-38.49
		c0-21.235,17.255-38.456,38.506-38.456C582.734,40.195,599.979,57.416,599.979,78.651z"/>
</g>
</svg>
