<?xml version="1.0" encoding="utf-8"?>
<!-- Generator: Adobe Illustrator 16.0.0, SVG Export Plug-In . SVG Version: 6.00 Build 0)  -->
<!DOCTYPE svg PUBLIC "-//W3C//DTD SVG 1.1//EN" "http://www.w3.org/Graphics/SVG/1.1/DTD/svg11.dtd">
<svg version="1.1" id="图层_1" xmlns="http://www.w3.org/2000/svg" xmlns:xlink="http://www.w3.org/1999/xlink" x="0px" y="0px"
	 width="600px" height="600px" viewBox="0 0 600 600" enable-background="new 0 0 600 600" xml:space="preserve">
<path fill="#293C54" d="M474.848,444.2c28.088,0,50.855,22.769,50.855,50.845c0,28.084-22.768,50.853-50.855,50.853
	c-28.079,0-50.848-22.769-50.848-50.853C424,466.969,446.769,444.2,474.848,444.2z"/>
<path fill="#293C54" d="M472.168,55.475c28.079,0,50.848,22.768,50.848,50.853c0,28.076-22.769,50.84-50.848,50.84
	c-28.088,0-50.849-22.764-50.849-50.84C421.319,78.243,444.08,55.475,472.168,55.475z"/>
<rect x="258.043" y="100.583" fill="#293C54" width="193.763" height="11.492"/>
<rect x="258.043" y="489.297" fill="#293C54" width="193.763" height="11.49"/>
<rect x="258.043" y="100.516" fill="#293C54" width="11.492" height="400.462"/>
<path fill="#C23531" d="M527.294,249.833c28.088,0,50.854,22.768,50.854,50.853s-22.767,50.841-50.854,50.841
	c-28.085,0-50.846-22.756-50.846-50.841S499.209,249.833,527.294,249.833z"/>
<rect x="85.522" y="294.996" fill="#C23531" width="400.462" height="11.49"/>
<path fill="#C23531" d="M73.434,249.899c28.085,0,50.852,22.768,50.852,50.844c0,28.085-22.767,50.853-50.852,50.853
	c-28.087,0-50.848-22.768-50.848-50.853C22.585,272.667,45.346,249.899,73.434,249.899z"/>
</svg>
