<?xml version="1.0" encoding="utf-8"?>
<!-- Generator: Adobe Illustrator 16.0.0, SVG Export Plug-In . SVG Version: 6.00 Build 0)  -->
<!DOCTYPE svg PUBLIC "-//W3C//DTD SVG 1.1//EN" "http://www.w3.org/Graphics/SVG/1.1/DTD/svg11.dtd">
<svg version="1.1" id="图层_1" xmlns="http://www.w3.org/2000/svg" xmlns:xlink="http://www.w3.org/1999/xlink" x="0px" y="0px"
	 width="600px" height="600px" viewBox="0 0 600 600" enable-background="new 0 0 600 600" xml:space="preserve">
<g>
	<line fill="none" stroke="#CDCECD" stroke-width="8" stroke-miterlimit="10" x1="9.5" y1="221.4" x2="585.6" y2="221.4"/>
	<line fill="none" stroke="#CDCECD" stroke-width="8" stroke-miterlimit="10" x1="9.5" y1="366.6" x2="585.6" y2="366.6"/>
	<line fill="none" stroke="#CDCECD" stroke-width="8" stroke-miterlimit="10" x1="201.6" y1="73.2" x2="201.6" y2="514.5"/>
	<line fill="none" stroke="#CDCECD" stroke-width="8" stroke-miterlimit="10" x1="393.6" y1="73.2" x2="393.6" y2="514.5"/>
	<rect x="159.3" y="137.6" opacity="0.2" fill="#293C54" width="316.8" height="290.4"/>
	<path fill="#CDCECD" d="M34.1,241.8"/>
	<path fill="#CDCECD" d="M81.3,313c0,13.9-11.3,25.2-25.2,25.2c-13.9,0-25.2-11.3-25.2-25.2c0-13.9,11.3-25.2,25.2-25.2
		C70,287.8,81.3,299.1,81.3,313z"/>
	<path fill="#CDCECD" d="M582.1,286.7c0,16.8-13.5,30.4-30.2,30.4c-16.7,0-30.2-13.6-30.2-30.4c0-16.8,13.5-30.4,30.2-30.4
		C568.5,256.3,582.1,269.9,582.1,286.7z"/>
	<path fill="#293C54" d="M215.2,312.7c0,19.5-15.8,35.3-35.3,35.3c-19.5,0-35.3-15.8-35.3-35.3c0-19.5,15.8-35.3,35.3-35.3
		C199.3,277.4,215.2,293.2,215.2,312.7z"/>
	<circle fill="#C13531" cx="266.5" cy="214.8" r="29.2"/>
	<path fill="#293C54" d="M344.4,322.5c0,14.7-11.9,26.7-26.7,26.7S291,337.2,291,322.5c0-14.7,11.9-26.7,26.7-26.7
		S344.4,307.7,344.4,322.5z"/>
	<path fill="#C13531" d="M424.4,286.4c0,9.4-7.7,17.1-17.1,17.1s-17.1-7.7-17.1-17.1c0-9.4,7.7-17.1,17.1-17.1
		S424.4,276.9,424.4,286.4z"/>
	<circle fill="#CDCECD" cx="511.6" cy="405.2" r="22.7"/>
	<rect x="9.5" y="73.2" fill="none" stroke="#CDCECD" stroke-width="8" stroke-miterlimit="10" width="579.1" height="438.7"/>
</g>
</svg>
