<?xml version="1.0" encoding="utf-8"?>
<!-- Generator: Adobe Illustrator 16.0.0, SVG Export Plug-In . SVG Version: 6.00 Build 0)  -->
<!DOCTYPE svg PUBLIC "-//W3C//DTD SVG 1.1//EN" "http://www.w3.org/Graphics/SVG/1.1/DTD/svg11.dtd">
<svg version="1.1" id="图层_1" xmlns="http://www.w3.org/2000/svg" xmlns:xlink="http://www.w3.org/1999/xlink" x="0px" y="0px"
	 width="600px" height="600px" viewBox="0 0 600 600" enable-background="new 0 0 600 600" xml:space="preserve">
<g>
	<polygon fill="#293C54" points="179.807,403.399 179.807,196.743 388.418,196.743 388.418,218.741 407.771,218.741 
		407.771,175.435 158.5,175.435 158.5,424.708 201.51,424.708 201.51,403.399 	"/>
	<path fill="#293C54" d="M237.214,359.41c-10.412-10.103-14.403-22.007-10.951-32.664c3.458-10.674,13.702-17.989,28.104-20.073
		l41.691-6.03l18.63-37.577c6.436-12.978,16.557-20.421,27.77-20.421c11.214,0,21.335,7.443,27.771,20.421l15.482,31.225v-46.415
		c0-15.875-12.87-28.744-28.746-28.744h-126.71c-15.875,0-28.745,12.869-28.745,28.744v126.833c0,15.876,12.87,28.745,28.745,28.745
		h34.533l2.553-14.813L237.214,359.41z"/>
	<path fill="#C13531" d="M347.415,429.348c-2.736-1.43-7.241-1.394-9.909,0l-39.013,20.419c-16.45,8.606-27.235,0.783-24.097-17.427
		l7.451-43.244c0.521-3.028-0.906-7.285-3.061-9.378l-31.563-30.623c-13.31-12.913-9.167-25.54,9.203-28.197l43.62-6.308
		c3.06-0.442,6.683-3.106,8.016-5.797l19.508-39.342c8.225-16.589,21.57-16.566,29.784,0l19.508,39.342
		c1.368,2.76,5.035,5.366,8.017,5.797l43.618,6.308c18.389,2.66,22.499,15.303,9.204,28.197l-31.562,30.623
		c-2.215,2.147-3.573,6.422-3.063,9.378l7.451,43.244c3.142,18.231-7.667,26.023-24.097,17.427L347.415,429.348z"/>
</g>
</svg>
