<?xml version="1.0" encoding="utf-8"?>
<!-- Generator: Adobe Illustrator 16.0.0, SVG Export Plug-In . SVG Version: 6.00 Build 0)  -->
<!DOCTYPE svg PUBLIC "-//W3C//DTD SVG 1.1//EN" "http://www.w3.org/Graphics/SVG/1.1/DTD/svg11.dtd">
<svg version="1.1" id="图层_1" xmlns="http://www.w3.org/2000/svg" xmlns:xlink="http://www.w3.org/1999/xlink" x="0px" y="0px"
	 width="600px" height="600px" viewBox="0 0 600 600" enable-background="new 0 0 600 600" xml:space="preserve">
<g>
	<line fill="none" stroke="#2E4454" stroke-width="10" stroke-miterlimit="10" x1="14.7" y1="524.8" x2="585.3" y2="524.8"/>
	<polygon fill="#B73630" points="577.9,116.5 388.1,336.6 206.9,279.2 15,431.4 21.5,440.2 208.5,291.6 391.3,349.6 585.3,124.6 
		586.3,123.5 	"/>
	<rect x="169.8" y="70.7" opacity="0.2" fill="#273B52" enable-background="new    " width="211.6" height="454.1"/>
</g>
<path fill="#FFFFFF" stroke="#C13531" stroke-width="6" stroke-miterlimit="10" d="M29.7,435.8c0,6.3-5.1,11.5-11.5,11.5
	c-6.3,0-11.5-5.1-11.5-11.5c0-6.3,5.1-11.5,11.5-11.5C24.6,424.4,29.7,429.5,29.7,435.8z"/>
<path fill="#FFFFFF" stroke="#C13531" stroke-width="6" stroke-miterlimit="10" d="M219.3,286.3c0,6.3-5.1,11.5-11.5,11.5
	c-6.3,0-11.5-5.1-11.5-11.5c0-6.3,5.1-11.5,11.5-11.5C214.2,274.8,219.3,280,219.3,286.3z"/>
<path fill="#FFFFFF" stroke="#C13531" stroke-width="6" stroke-miterlimit="10" d="M401.2,342.3c0,6.3-5.1,11.5-11.5,11.5
	c-6.3,0-11.5-5.1-11.5-11.5c0-6.3,5.1-11.5,11.5-11.5C396,330.9,401.2,336,401.2,342.3z"/>
<path fill="#FFFFFF" stroke="#C13531" stroke-width="6" stroke-miterlimit="10" d="M593.5,120.2c0,6.3-5.1,11.5-11.5,11.5
	c-6.3,0-11.5-5.1-11.5-11.5c0-6.3,5.1-11.5,11.5-11.5C588.4,108.7,593.5,113.8,593.5,120.2z"/>
</svg>
