<?xml version="1.0" encoding="utf-8"?>
<!-- Generator: Adobe Illustrator 16.0.4, SVG Export Plug-In . SVG Version: 6.00 Build 0)  -->
<!DOCTYPE svg PUBLIC "-//W3C//DTD SVG 1.1//EN" "http://www.w3.org/Graphics/SVG/1.1/DTD/svg11.dtd">
<svg version="1.1" id="图层_1" xmlns="http://www.w3.org/2000/svg" xmlns:xlink="http://www.w3.org/1999/xlink" x="0px" y="0px"
	 width="600px" height="600px" viewBox="0 0 600 600" enable-background="new 0 0 600 600" xml:space="preserve">
<path fill="#C13531" d="M491.576,73.682c0,0-137.257,252.951-150.24,273.107c-13.015,20.19-39.92,25.965-60.028,12.955
	c-20.161-12.995-25.991-39.904-12.979-60.029C281.308,279.513,491.576,73.682,491.576,73.682z"/>
<path fill="#293C54" d="M599.936,340.943c0-85.392-35.85-162.497-93.275-217.17l-10.958,27.438
	c47.603,49.159,77.036,116.053,77.036,189.732c0,78.502-33.463,149.291-86.742,199.126l18.299,20.134
	C563.074,505.401,599.936,427.462,599.936,340.943z"/>
<path fill="#293C54" d="M27.153,340.943c0-150.429,122.351-272.803,272.823-272.803c39.041,0,76.197,8.323,109.803,23.18
	l28.465-16.508c-41.438-21.611-88.467-33.914-138.268-33.914c-165.461,0-300.041,134.616-300.041,300.045
	c0,75.628,28.167,144.726,74.502,197.504l20.119-18.26C52.646,472.171,27.153,409.51,27.153,340.943z"/>
</svg>
