<?xml version="1.0" encoding="utf-8"?>
<!-- Generator: Adobe Illustrator 16.0.4, SVG Export Plug-In . SVG Version: 6.00 Build 0)  -->
<!DOCTYPE svg PUBLIC "-//W3C//DTD SVG 1.1//EN" "http://www.w3.org/Graphics/SVG/1.1/DTD/svg11.dtd">
<svg version="1.1" id="图层_1" xmlns="http://www.w3.org/2000/svg" xmlns:xlink="http://www.w3.org/1999/xlink" x="0px" y="0px"
	 width="600px" height="600px" viewBox="0 0 600 600" enable-background="new 0 0 600 600" xml:space="preserve">
<g>
	<g>
		<path fill="#CDCECD" d="M509.06,80.265l-1.037-3.238l-2.653-4.57l-2.206-1.18l-2.209,1.18l-1.325,2.653l-0.15,0.292h-0.293h-0.147
			l-4.13,0.733c-0.439,0.303-0.878,0.448-1.172,0.892l-0.888,1.029l-2.213,1.767l-0.581,0.294l-1.921,0.299
			c-0.881-0.15-2.199-0.889-3.968-2.203l-0.156-0.156c-2.946-2.946-4.422-5.008-4.422-6.188v-3.831V67.89v-0.146l0.45-0.737
			l-4.279-1.472l-0.141,1.472c0,0.44-0.448,1.031-1.186,1.476l-1.475,0.588l-0.587-0.145v-0.15l-2.205-0.44l0.438,1.62l-3.827-2.508
			h-0.146l-0.147-0.146l0,0c-0.587-1.62-0.89-3.24-0.89-5.005c0-1.479,0.146-2.363,0.733-2.948l0.897-1.622l-0.291-1.326
			l-3.844,0.587c-1.908,0.148-3.232,1.328-3.979,3.543v0.145l0,0l-2.205,3.387l2.205-0.152h0.146l0.158-0.143l0.145,0.295
			l1.769,0.737h0.292l0.29,0.152v0.438l0.297,3.094l0.883,2.943v0.149v0.146v0.147l-4.866,9.578
			c-0.871,1.32-1.318,4.861-1.612,10.16v0.441l-1.915,3.686l1.321,1.476v0.29c0.15,2.213,0,3.537-0.589,3.832l-0.438,0.146
			c-1.035,0.593-4.414,4.129-9.87,10.758l-0.442,0.447l-0.303-0.151l-0.43-0.296c-1.924-1.33-3.691-2.506-4.726-3.686
			c-0.879-0.59-3.095-1.027-6.775-1.027l-0.138,6.775l-0.15,0.145l-2.652,12.814c-0.595,1.619-0.737,4.568-0.737,8.992l1.03,1.322
			l0.885-1.766h0.15l0.146-0.291l3.391-1.77l9.426,1.465l1.027-1.176l1.33-2.355l0.294-0.146l0,0l0.146-0.145l3.686-0.742
			l4.858-0.289c1.475,0.289,3.243,2.209,5.448,5.158c5.898,2.941,9.137,5.592,9.872,7.953c0.438,1.176,0.438,2.057,0,3.092
			c-0.438,1.029-1.469,1.617-2.948,1.769h-0.146c-7.208-0.298-11.345-0.298-12.82,0.146l-3.529,2.351
			c-4.42,3.248-7.368,4.865-8.991,4.865l-2.938,0.445l-1.772,7.366c-0.445,2.214-1.187,3.681-2.506,4.713
			c-1.17,1.178-2.946,1.913-5.302,2.355c-2.8,0.446-5.159,1.472-7.368,2.804l-2.502,5.304l-0.152,0.144h-0.142h-0.146l-6.777,2.795
			h-0.443l-3.385-0.729c-2.655-0.444-4.721-1.184-6.042-2.065c-1.765-0.883-3.693-1.031-5.753-0.445
			c-1.767,2.511-2.647,5.604-2.501,8.992c0.15,1.765,0.587,2.94,1.025,3.238l1.041-0.146l1.176-0.736l0.303,4.715
			c0,1.624-0.593,2.8-1.778,3.682c-0.741,0.59-2.06,1.178-3.974,1.771l-1.181,0.293c-1.474,0.587-4.566,4.562-9.129,11.781v0.148
			h-0.151l-4.421,2.65c0.737,0,1.172,0.303,1.027,0.889c-0.144,0.588-0.587,0.73-1.758,0.885l-12.53-0.297
			c-13.99-0.438-24.888,3.389-32.695,11.347l-0.151,0.144l-0.301,0.156h-0.141l-5.161,0.58l-0.292,0.147h-0.299l-1.472-3.535
			l-5.302,1.326c-2.792,0.146-6.485-0.593-10.605-2.651c-3.829-1.613-7.216-3.834-10.609-6.479
			c-2.213-1.771-5.005-2.953-8.256-3.537l-4.707-0.445l-5.303,0.738c-3.828,0.587-7.665,0.587-11.198,0.291
			c-4.269-0.291-9.426-1.467-15.616-3.389l-0.438,0.885h0.147h0.146l0.145,0.146v0.148l0.147,1.474l1.328,2.796l3.089,3.838
			l0.15,0.439l-0.591,2.795v0.15h-0.145l-1.767,2.354l1.911,1.928c0.742,0.728,1.179,1.312,1.179,1.909l0.439,2.8l2.213,2.207v0.293
			l0.297,1.916v1.473l1.327,1.033l0.882-0.294l0.15-0.448c0.438-1.178,1.175-1.764,2.211-1.911l1.171-0.442l7.813-0.733l3.093-1.18
			l0.294-0.148l0.439-0.298l1.63,3.535h0.138l0,0c0.155,0.887,0,1.626-0.438,2.363l-4.273,6.036l0.298,1.034l1.913,1.912
			l1.915,1.182h0.147c0.888,1.178,1.618,1.912,2.51,2.205c1.023,0.301,2.055,1.178,2.938,2.361l0.15,0.445l1.479,0.584l0.433,0.146
			h0.154l0.435,1.623l0,0l0.152,1.623l0.589,2.355l3.678,0.592h0.298l0.143,0.143v0.151l0.154,0.292l1.031,2.06l2.942,1.031
			l2.061-1.031l-0.292-1.178l-1.915-1.769l0.293-0.291v-0.3l1.622-3.093h3.533l0.147,0.152l5.014,1.759l2.798-0.433l2.207-2.064
			c2.51-3.098,4.126-4.417,5.16-3.68l1.175-0.148c1.332,0,2.067,0.148,2.504,0.287c0.145,0.298,0.303,0.598,0.303,0.891
			c0,0.591,0.583,1.763,1.464,3.389v0.148v0.145l0.448,2.061v0.441l-0.586,2.354l0,0v0.15l-0.156,0.147l-2.498,2.947l-0.146,0.145
			l0,0l-5.306,2.354l-0.74,1.476l-0.733,4.279l0.442,2.059l1.324,2.215l0.587,0.436l1.769,1.184h6.19l5.155-0.737l0.739-0.739
			c0.735-0.885,1.477-1.18,1.913-1.18l3.53,0.587l0.301-0.587c-0.301-1.025-0.301-1.915,0.293-2.799l1.476-2.507v-4.704v-0.154
			l2.65-7.668l0.149-0.142v-0.152h0.141v-0.142l4.566-3.684l0.294-0.295l3.98,1.769l0,0c2.062,1.478,3.099,2.646,3.099,3.388
			l-0.301,3.242l-1.324,2.066l-1.029,2.945v3.234l1.029,1.478l1.324-0.15l0.301-0.144l2.207,0.144
			c1.178,0.593,1.916,1.624,2.507,3.097l1.32,0.443h0.152l0,0h0.142l5.01,2.356l2.217,0.731l3.087-0.435l1.328-1.769l1.766-7.223
			l0.154-3.978v-0.296l0.287-0.145l0.15-0.148l2.798-2.359l1.614-2.055l0.156-0.156l2.946-1.322l1.767-1.027l2.205-0.879
			l-1.174-4.429l5.005,0.593l0,0v0.146l0,0l2.653,1.033l0,0v-0.152l0.739-2.794v-0.442l0.443,0.145h0.292l2.355,0.59h1.18
			l2.213-2.507h0.145l0.144-0.14h0.146l2.952-0.594l2.504-2.359l1.33-1.912v-2.357c0-0.886,0.429-1.479,1.317-1.917l0,0h0.303h0.146
			l2.794,0.292l1.18-0.736l0.444-2.062l2.944-0.882h0.145h0.149l0,0l3.691,0.441l2.94-0.737l1.767-1.771l1.18-2.354l-2.205-2.357
			v-0.146l0,0l-0.451-1.771l0,0l-0.584-2.646v-0.15l1.325-2.355c0-0.738,0.443-1.773,1.617-2.947l1.622-3.241v-0.147h0.15
			l1.476-2.355l2.207-4.421l2.06,2.942l0.147,0.148v0.146l0.737,2.953v0.141l0.444,2.948l2.06,0.886h0.146l0,0l0,0l0.587,0.298
			l0.146-0.15l1.776-3.089l1.025-2.951l0.445,0.148l0.44,0.149l4.27,1.474l2.06-1.623l0.158-0.148h0.294l2.06-0.148l1.476-2.5v-3.1
			l1.029-4.719l0.289,0.158h0.448l3.243,0.73l1.464-2.644h0.154h0.294l2.948-0.301h0.441v0.148l0.298,0.152l1.477,2.059v0.146
			l0.142,0.149v0.289l0.289,2.948l1.476,1.326l2.062-1.921l0.437,0.595c0.741,0.735,1.035,1.472,1.035,2.357v2.651l-1.035,2.654
			l0.741,1.176l1.478,1.618l6.181,0.89l0.154,0.144l0,0l0.293,0.146l0,0l0.44,0.442l1.772-2.498h0.141l1.478-1.478l-0.589-2.214
			l-1.624-9.423l4.271,2.062h0.146h0.146l1.913,2.354l1.184,1.178l1.769-1.178l6.183-6.774l0,0h0.152l2.219-1.626l2.498-3.531
			l0.146-0.295l3.387,0.88h1.622c0-1.319,0.294-2.206,0.44-2.796l2.498-2.94l0.743-0.446l2.943,1.033l3.539-0.443l2.359-2.509
			l1.178-2.203l-0.738-1.182l-2.065,1.027l-0.146-0.144l-0.14-0.146l-2.662-2.359l-0.14-0.143l1.027-3.978l0.292-2.948l-0.729-2.508
			l-2.062-0.732v-0.146l-0.154-0.152l-0.143-0.143l-1.764-3.535l-0.293-0.446l-2.508,2.948l-2.507,1.62l-0.591,0.292l-0.146-0.138
			l-0.146-0.3l-2.655-2.512v-0.145l-1.913-4.122v-0.146l-0.881-2.951v-0.139l0,0v-4.426l-0.289-2.646l-2.072-0.745h-0.146v-0.145
			l-4.717-3.682l0.294-0.444l2.216-2.356v-0.148v-0.145h0.282l0,0l2.51-0.287h0.156c0.732,0,1.478,0.432,2.061,1.17l2.062,1.617
			l2.209-1.766l1.618-2.209v-1.912l-0.587-4.721l-0.447-1.913l-3.24-0.587v-1.914l-2.942-3.688l-0.147-0.139l-1.479-2.654
			l-0.29-0.293v-0.303l0,0l3.244-4.269v-0.148l0.146-0.146v-0.15h0.294l1.328-0.143l1.61-1.33l1.923-5.893h0.146v-0.14l2.356-2.656
			v-0.146h0.146h0.154l2.646-0.738v0.295l1.768,1.465l0.591,0.154l1.028-4.566l-1.028-3.244l-0.151-0.144v-0.298l0.448-3.682v-0.293
			l1.765-1.916l1.184-2.062l0.138-1.773c0-0.877-0.438-2.35-1.321-4.562l0,0l0,0v-3.531v-0.152l0.735-3.092
			c-0.589-1.324-1.027-2.361-1.027-3.093L509.06,80.265z"/>
		<path fill="#CDCECD" d="M300.892,259.7h-2.353l-0.741,1.62l1.329,1.327v0.148v0.143l0.585,1.919l0.146,0.149v0.436l-0.292,0.15
			l-3.239,1.621l-0.15,0.148l0,0h-0.147h-0.146c-2.506-0.298-3.827-1.029-4.271-2.066l-0.885-1.767l-4.421-0.882l-1.18-5.6
			c-0.883-0.146-1.614-0.589-2.064-1.18l-0.137-0.292c-0.738-1.028-1.332-1.626-2.215-1.765c-1.184-0.445-2.209-1.33-3.093-2.656
			l-1.767-1.029H275.7l0,0l0,0l-2.354-2.359l0,0l-0.591-2.061v-0.148l4.711-6.483c0.151-0.44,0.294-0.739,0.151-0.882l-0.885-2.066
			l-2.508,1.039h-0.146v0.145h-0.147l-6.481,0.443l-2.5,0.582l-0.891,0.89l-0.439,0.886c-0.584,0.736-1.464,1.169-2.802,0.879l0,0
			l-0.146-0.143l-2.207-1.622l-0.147-3.689c-1.181-0.88-1.919-1.763-2.216-2.503l-0.585-3.235l-1.47-1.765l-1.626-1.332
			l-0.731-0.446l2.654-3.383l0.588-1.917l-2.95-3.678h-0.147v-0.153l-1.324-2.948v-0.143l0,0l-0.297-1.475l-1.914-1.473v-0.15l0,0
			l0,0l-2.058-2.212l-2.655-0.442l-2.95,0.889l-0.442,0.588l-0.438,4.127v4.572l-0.448,0.141l-2.794,1.033l0,0v0.145l0,0
			l-2.647,0.146c-1.328,0.74-2.801,1.477-4.421,2.066l-0.294,0.154l0,0h-0.152l-5.009-1.188l-2.06,2.213
			c-0.446,0.588-1.47,1.178-2.8,1.475l-3.093,2.5l-1.622,2.504v0.151l-0.146,0.144c-0.881,1.328-1.614,2.357-2.215,2.801
			l-1.759,2.215v0.141l-0.147,0.145l-1.034,0.738c-0.737,0.301-1.476,0.443-2.066,0.443l-3.688-0.297l-0.877,1.332l-1.328,2.357
			l0.597,2.352l-0.294,5.744l1.025,1.771v0.147l0.444,1.326h2.055l3.541,0.739l4.564,0.294l2.062-0.294h0.302h0.146l3.978,1.472l0,0
			h0.148l2.061,1.621l4.41,1.616h0.154l2.949,1.774l7.216,6.629l3.242,1.469l1.328-0.583l1.328-2.514l-0.741-3.974
			c0-1.176,0.882-1.914,2.654-2.647l0.294-0.154l8.991,5.302l1.027-0.289l2.062-1.18h0.291l1.18,0.146l1.769-1.469l0.298-0.146
			l0.435,0.29l5.304,3.68l0.15,0.146l3.393,2.808c0.88,0.583,2.06,1.614,3.095,3.089l1.612,1.77l1.334-0.152l1.468-2.793
			l3.095,2.207h0.141h0.151l0,0l2.512,3.086l6.63,5.016l0,0l1.913,2.213l5.742-1.626l0.294,4.271l2.504,2.51l0,0v0.146l2.064,3.101
			v0.137v0.151v0.145l2.207,10.169l2.206,4.129l-2.948,7.51v0.443l-2.494,0.588v2.209l-0.152,0.146l-2.499,4.125H298.1l-3.534,0.295
			l-3.54,2.952c0.443,0.438,1.03,0.728,2.065,1.169c1.475,0.447,1.61,1.625,0.881,3.686v0.145l-2.503,2.51h-0.154l-0.141,0.299
			h-0.148h-0.152l-7.067-1.035l-0.146,2.505l0.735,5.308l5.893,2.498v0.294l0,0l2.209-0.733l0.146-0.146l0.299-0.149l0.15,0.296
			h0.14l1.629,0.881h2.499l0.878-0.147l-0.878-2.792l0,0l0,0l-0.586-2.954v-0.146v-0.294l0.142-0.143v-0.156l0.884-1.025
			l0.302-0.297l0,0l0.137-0.146l1.622-2.212l0.15-0.146l2.655-2.066h0.143v-0.145h0.146l0,0l3.24-0.442v0.89
			c0,1.023,0.152,1.764,0.293,2.207l0.599,1.33l0.879,1.91l2.948,1.625l8.105,0.73h0.295h0.44v0.445v0.297l-0.299,2.65l2.364,2.506
			l1.76,0.733l0.301,0.148v0.149l0.146,0.287v1.031v1.469l-0.731,2.947l1.025,0.744c1.174-0.146,2.207-0.146,3.239,0.594
			l3.391,1.611l2.059-1.611l2.209-2.363l0.146-1.031l0.145-0.293l0.304-0.149l0.291-0.294v-0.291l-0.739-3.099l-0.146-1.618
			l-0.147-0.146v-0.146l0.147-0.15v-0.147l1.182-1.911l0.146-0.15l0,0l2.354-1.623h0.156h4.856l0.739-0.289l-0.146-2.512
			l-0.745-2.207l-1.618-2.648l-0.138-0.144v-0.152v-3.679v-0.154l0,0l0.879-2.211l0,0l0.146-0.145l0,0l3.974-5.742l0.158-0.15h0.136
			l0.301-0.15h0.881l1.475,0.15l3.387,1.914l2.213,0.59l0.287-1.029l-0.435-0.293v-0.445c0-0.887,0.435-1.617,1.328-2.357
			l2.642-1.912l0.154-0.146l0,0v-0.152c1.476-0.438,2.356-0.734,2.945-0.734l2.357-0.295h0.293l0,0l1.476,0.295l1.028-3.686v-2.502
			c0-1.618,0-2.646,0.446-2.947l1.031-1.909l-1.326-1.774l-1.771-1.174l-3.683-1.033c-0.739,0-2.063-0.737-4.269-2.646l-2.219-1.041
			h-0.146l-0.141-0.143l-2.651-3.236h-2.51l-0.142-0.156h-0.15l-2.209-1.176l-1.328,1.765l-0.303,6.93l0.449,2.651h1.031l0.15,0.141
			l2.062,0.595v0.146v0.152l1.033,2.503h0.146v0.145l0,0v0.148l-0.595,4.562v0.295v0.147l-0.146,0.148
			c-0.735,0.44-1.324,0.735-2.061,1.18l-0.293,0.148l-0.147-0.148h-0.15l-1.031-0.29l-2.357,0.881h-0.141l0.141,0.438l0.153,0.146
			l0.436,3.981c0,0.591-0.289,0.879-0.884,1.031h-1.769c-0.881-0.152-1.321-0.44-1.769-0.885l-1.761-1.324l-0.149-0.15h-0.146
			v-0.145l-1.038-2.509c-0.288-0.292-1.025-0.729-2.497-1.176h-0.15h-0.146l-2.061-1.476h-0.299v-0.295l0,0l-0.589-2.502
			l0.303-1.914h0.146v-0.146l0,0l0.877-1.033v-0.735l-0.877-2.657l-2.065-1.907v-0.303l-0.591-6.034l-1.476-1.471h-0.146
			l-0.146-0.154l0,0l-1.18-2.795l-5.304-0.588c-1.329-0.444-2.205-1.326-2.802-2.51h-2.354c-0.883-0.292-1.769-0.877-2.798-1.916
			l-0.298-0.287c-0.585-0.594-1.183-1.479-1.759-2.655l0,0l-0.154-0.146l-0.44-2.362l0,0v-0.14v-0.152l0,0l0.885-4.566v-0.146
			l0.884-1.908v-0.154v-0.145h0.147l5.595-2.363l2.205-2.646l0.45-2.213l-0.292-1.614c-0.892-1.921-1.475-3.101-1.475-3.831
			l-1.182,0.144l-2.062-0.144c-0.437,0.144-1.622,1.466-3.239,3.385l-2.503,2.363h-0.148l-0.145,0.139
			c-1.921,0.445-3.252,0.736-3.981,0.445L300.892,259.7z"/>
		<path fill="#CDCECD" d="M340.078,261.024l-2.654,7.365v4.859v0.156l-1.466,2.5l-0.294,1.77c0.294,1.026-0.156,1.912-1.182,2.506
			l-0.293,0.146h-0.144l-0.157-0.146l-3.679-0.444l-1.917,1.771l-5.596,0.877l0,0h-2.363l1.484,1.034l5.293,0.599h0.301h0.294
			l0.146,0.135v0.149l1.328,3.245l1.474,1.025c0.441,0.589,0.735,1.479,0.735,3.101l0.143,3.974l1.769,1.618h0.147v0.147h0.148
			l0.886,2.947v1.628l-1.034,1.472l-0.294,1.32l0.442,1.475l1.767,1.176c1.923,0.736,2.946,1.186,3.395,1.922l1.032,2.203
			c1.176,0.598,1.764,1.18,2.057,1.768l1.328,0.443h0.147l-0.597-3.24c-0.142-0.736-0.142-1.472,0.156-1.766
			c0.293-0.441,0.583-0.738,1.174-0.887l2.203-0.738l0,0l0.156-0.146h0.146l0.146,0.146l1.031,0.295l1.327-0.734v-0.291l0.445-3.686
			l-0.888-1.77l-1.178-0.59l-1.479-0.148h-0.293l-0.282-0.146l-0.595-3.825l0.143-7.511l0.296-0.297l2.211-3.096l3.247,1.766h1.913
			l1.466-9.575c-0.44-1.03-0.88-1.767-1.767-2.21l-0.881-0.147v0.147h-0.439l-2.361,0.443l-0.146-0.295l-0.147-0.148l-1.622-2.066
			v-0.15l-0.146-0.14v-3.681l0.599-2.064l0.579-0.881c0-0.595,0.15-1.186,0.738-1.92l0.589-0.736l0.146-2.507l-2.211-2.056
			l-2.946-1.478L340.078,261.024z"/>
		<path fill="#CDCECD" d="M239.462,207.993l0.146-0.147h0.147v-0.15l-4.717-13.409l-2.941-2.352v-0.292l-0.739-5.46l-6.181-0.881
			h-0.146h-0.305v-0.143l-0.146-0.299v-0.145c-0.742-2.066-2.649-4.273-5.596-6.631c-1.618-1.322-3.24-2.205-4.568-2.506
			c-1.027-0.586-2.061-1.027-2.792-1.618c-1.919-1.33-8.546-2.357-20.185-2.649h-0.447l0,0l-1.325-2.071
			c-0.591-1.319-1.038-2.501-1.176-3.819c0-1.625,1.914-6.932,6.038-15.619l-2.064-6.484l0,0l-2.211-10.312
			c-0.289-1.473-2.799-2.797-7.211-4.129c-0.891-0.292-1.769-0.582-2.655-1.172c-1.618-0.74-2.803-2.061-3.394-3.685
			c-0.885-1.913-2.353-3.535-4.418-4.419l-0.14-0.152l-0.153-0.147l-1.77-9.134l-7.07,0.738l-0.737,1.918
			c-0.877,3.095-1.761,4.566-2.796,4.566l-4.572,1.473c-2.792,1.031-4.563,2.217-5.448,3.539c-0.438,0.586-0.888,2.355-1.17,4.709
			c-0.448,2.653-0.891,4.568-1.486,5.748c-0.877,1.908-2.205,3.391-4.264,4.127c-3.831,1.471-10.314-1.037-19.298-7.37
			l-12.081,15.466l1.475,6.338h0.144l0.146,0.295l-0.29,0.144v0.149c-0.594,0.886-1.475,1.467-2.508,1.619
			c-1.176,0.297-2.361-0.152-3.682-1.027c-1.174-0.885-4.57-1.621-10.019-1.913l-2.505-0.149l0,0l-3.686-0.293l-3.976,0.734
			l1.769,2.496c1.476,1.927,2.062,3.106,1.919,3.838l-1.625,9.582l0.741,5.148h0.146v0.148l-0.146,0.146l0,0l-2.948,9.578
			c-0.152,0.887-0.45,1.325-0.743,1.178h-0.292v-0.143l-0.438-0.888c-0.587-1.176-0.88-1.62-1.328-1.474
			c-0.293,0.144-0.733,0.744-0.88,2.061c-0.591,2.652-2.213,4.863-4.716,7.221l-2.656,2.064l-1.328,0.739l0,0h-0.14l-9.574,0.144
			l-3.689,3.535h-0.147h-0.293h-0.145l-10.17-1.474c-1.618,1.769-3.237,2.359-4.859,2.062c-1.478-0.439-3.979,0.15-7.505,1.47
			l-4.142,4.873l-0.141,0.284l-6.483,0.15v-5.45h-4.125l-0.737,2.355l-3.089,0.733h-0.294l0,0l-0.146-0.145h-0.15
			c-1.908-1.174-4.275-2.061-6.631-2.355c-1.32-0.146-2.942,0.741-5.306,2.799c-2.502,2.062-4.271,3.982-5.155,5.748
			c0.444,0.292,0.738,0.877,0.738,1.766c0.299,1.032,0.447,1.916,0.447,3.095c-0.148,1.178-0.595,1.911-1.186,2.501
			c-0.729,0.445-1.176,1.773-1.617,4.133l2.355,1.614l3.245-3.389l4.12,4.572v0.292l0.893,8.096v0.152H10.09l-2.366,11.198H7.14
			c-3.386,0-5.593,0.146-6.487,0.733c0.154,0.738,1.628,1.912,4.132,3.539l2.059-0.295h0.444l0.146,0.146l4.861,4.719
			c1.916,1.618,1.765,4.416-0.739,8.538l0.739,4.564l1.916,0.444h7.518l-3.838,3.539l2.209,1.18l0,0l2.954,1.617l7.947,3.383
			l0.15,0.154h0.293l0.738,12.078c0.148,2.362,1.917,4.127,5.46,5.301l0.583-0.283h0.146h0.144l8.254,1.172h0.589v-0.152
			l0.154-0.294c0.876-1.616,1.463-2.79,1.463-3.087v-0.294c-0.146-1.328,0.44-2.51,1.626-3.394c1.17-0.883,1.911-1.771,2.354-2.801
			l0.152-0.145c0.44-1.178,1.908-1.471,4.41-0.733h0.15l0,0l2.804,1.616l9.279,1.769l5.742-0.433l4.132-1.778
			c0.729-1.028,1.32-1.468,1.761-1.771c0.747-0.141,1.769,0.152,2.946,1.18l0.595,0.295c0.585,0.441,1.023,1.331,1.62,2.951
			l2.948,2.207h2.207h0.146h0.292h0.148l3.095,1.33l5.742-0.45l3.24-1.023l8.402,0.737l3.688-1.038l4.258-1.763
			c0.89-0.593,1.925-1.033,3.399-1.476h8.104l2.948-1.034c1.171-0.736,2.209-1.174,3.086-1.174h4.719l2.207,1.619l6.335,1.322
			c0.884,0,1.769,0.742,3.241,2.066l2.655,1.763l0.293,0.296l6.036,0.154l0,0h0.146l2.804,1.471l3.68,0.74h0.146l3.096,0.434
			l0.89-1.764l-1.328-2.951l-0.595-2.942v-0.145h-0.14l0.432-0.444l2.071-2.796v-0.15l0,0h0.145v-0.146l2.061-1.472l0,0l-0.44-0.885
			l-0.883-2.947c0-0.442-0.445-0.736-1.322-1.334l0,0l-2.216-2.348l-2.8-2.361l-0.146-0.285l-0.297-0.154l0.156-0.145v-0.299
			l0.438-2.8v-2.06l-1.328-3.533l3.388-0.736l1.611-1.62h4.135l4.124-0.595h0.147l2.803,0.296l3.234-1.178l3.689-0.44l2.354-1.029
			h0.147l6.335-1.18l1.027-1.031l-0.286-1.182l-1.184-2.065v-0.146l-0.152-0.145v-0.152l0.303-2.205l0.141-0.148v-3.095
			l-0.591-2.647l0,0v-0.15l1.483-2.948c0.579-1.327,1.32-2.062,2.205-2.062l3.826,0.301c0.591,0,1.329-0.301,2.066-0.893l5.751-7.81
			v-0.142l0.142-0.152l3.091-2.504l0.304-0.289c1.174-0.296,1.903-0.736,2.352-1.025l0.731-0.744
			c1.033-1.33,1.925-1.913,2.506-1.913l5.009,1.027l4.272-2.056l0,0h0.147l0,0h0.146l2.51-0.3l2.062-0.88v-3.393l0.583-4.273v-0.146
			l0,0v-0.141l0.741-1.184V207.993z"/>
		<path fill="#CDCECD" d="M244.473,258.378l-1.331,1.027c0,0.583,0.304,1.915,0.734,3.828v0.146l0.158,0.15h-0.158l-1.61,3.685
			l-2.217,0.891l-0.44,0.142h-0.146l-3.827-1.771h-0.15v-0.143l-7.221-6.633l-2.798-1.623l-4.42-1.618v-0.149l0,0h-0.154l0,0
			l-2.062-1.469l-3.681-1.178l-2.062,0.148h-0.142l-4.713-0.303h-0.146l-3.395-0.732h-2.062l-1.614,1.174
			c-0.893,0.443-2.072,0.598-3.543,0.891l-3.095,0.591l-2.646,0.878l-0.146,0.149v0.145v-0.145l-3.242,0.299l-3.389,1.319l0,0h-0.44
			l-2.803-0.294l-4.271,0.595H173.9l-1.464,1.469h-0.153l-1.77,0.436l0.73,1.779v2.796l-0.437,2.505l2.499,2.06h0.155l0,0l0,0
			l2.061,2.359c1.328,1.027,1.919,1.761,1.919,2.651l0.737,2.211l1.024,2.21c-0.146,0-0.146,0.144-0.292,0.144l-2.802,2.067
			l-1.911,2.503l0.443,2.207l1.329,3.09l0.139,0.296l0,0v0.151l-0.288,1.18c-0.299,0.732-0.587,1.32-1.034,1.615
			c-0.887,0.745-2.351,0.745-4.713,0l-3.683-0.731h-0.145l0,0h-0.146l-2.657-1.325l-4.274-0.148l0.154,0.148l-0.448,7.361
			c-0.146,1.034-0.88,1.471-1.909,1.621c-0.444,0.148-0.735,0.743-0.597,1.916v0.148h-0.139l-0.3,1.917
			c1.035,0.88,1.771,1.618,2.064,2.208l0.733,3.537v1.321c-0.146,0.739-0.295,1.331-0.587,1.919l-1.035,2.941l-1.915,3.686v0.741
			l0.303,1.767l1.914,2.5c0.587,0.74,0.88,1.178,1.025,1.624l1.769,2.505l2.656,2.947c1.025,1.025,1.767,1.47,2.061,1.47
			l2.792-1.769c0.597-0.439,1.034-0.735,1.772-0.735c0.591,0,1.471,0.442,2.8,1.328l0,0h0.153v0.146l1.464,1.767l0.741,1.768
			l0.593,0.734l0.444,0.295l1.906,1.328l1.034,0.15c0.584,0.143,1.173,0.59,1.622,1.178c0.297,0.439,1.911,1.031,4.715,1.761h0.146
			l4.414,1.63h0.15h0.15l3.09,1.473l5.302,1.314l0.154,0.154l6.924,0.294l3.09-1.178h2.797v0.15l0.146,0.144l2.355,2.945l0,0v0.147
			l1.475,2.363l1.18,1.319l1.628,0.738l0.141,0.15l0,0l0.15,0.149l1.327,2.942v0.146h0.148v0.145l0.737,3.24l2.057,0.742h0.15h0.146
			l0,0l1.618,1.032l2.209-0.448l0.595-2.203v-0.15l0.146-0.139l2.499-2.51l2.803,0.735v0.296l1.329,2.941l2.799-1.026l0.286-2.802
			v-0.145v-0.152l0.152-0.148l1.919-1.031l-0.449-4.123v-0.293v-0.143l0,0l2.213-4.574l2.208-0.885l-0.876-4.123h2.207l-0.147-1.916
			l-1.184-3.978l0,0v-0.294l0.304-2.799v-0.437l0.291-0.152l1.468-1.913l0.294-0.296h0.439l3.983,0.741h0.146l3.242,0.879
			l2.792-0.879l1.622,3.238l0.154,0.146v2.354l0.439,2.209c0.294,0.887,0.889,1.475,1.472,1.627h0.297
			c1.327,0.292,2.07,0.883,2.209,1.766c0.15,0.741,0.741,1.765,1.765,2.946l1.332,1.917l0,0v0.137l0.885,1.632l1.319-0.15
			l2.51-2.211l1.619,3.387l3.236,1.034h0.15l0.15,0.149l1.618,2.946l0.738,0.441l0.143-2.801v-0.143v-0.444l6.483-0.149l0.15-0.586
			c0.144-0.3,0.144-0.887-0.15-1.328c-0.438-0.887-0.585-1.623-0.731-2.655c-0.152-1.176,0-2.059,0.293-2.357
			c0.438-0.583,0.732-0.583,1.474-0.438l2.648,0.887l0.3-1.924l-4.867-2.207h-0.298l-0.137-0.295v-0.143v-0.15l-0.738-5.892
			l0.142-3.684v-0.438v-0.303l8.105,1.037l2.062-1.92c0.444-0.741,0.298-1.322,0-1.469c-2.062-0.74-3.097-1.619-3.097-2.501
			c0-0.45,0.156-1.03,0.888-1.33l3.383-3.39l3.688-0.142l1.915-3.247v-3.096l2.8-0.589c0.733-2.208,1.178-3.386,1.465-3.827
			l1.184-2.506l-2.058-3.684v-0.148l0,0v-0.14l-1.332-5.015v-0.143l-0.877-5.162l-1.769-2.943l-2.657-2.652v-0.143v-0.15
			l-0.146-0.149l-0.146-2.798l-4.863,1.472l-0.146-0.149l-2.205-2.498l-6.632-5.012h-0.15l-2.506-3.244l-1.616-1.029l-1.039,1.622
			v0.298l-0.146,0.143h-0.146h-0.288l-2.066,0.141l-0.291,0.15h-0.156l-4.86-5.299c-1.028-0.445-2.054-1.476-3.533-2.947
			l-2.207-1.619l-0.141-0.15l-2.506-1.473l-1.479,1.18l-0.146,0.293l-0.146-0.142h-0.147l-1.326-0.294l-1.475,0.734l-0.147,0.143
			l-0.146,0.146h-0.146l-2.061,0.294C250.213,261.761,247.413,260.141,244.473,258.378z"/>
		<path fill="#CDCECD" d="M253.163,330.71l-3.389-1.034l-3.533-0.44l-1.184,1.33l-0.294,2.498l0.146,0.147l1.027,3.831l0.156,2.943
			v0.889h-1.769l0.732,3.537l-2.792,1.027l-1.182,2.215l1.469,1.18l0.298,0.143l0,0l5.155,4.122l0.148,0.152h0.145v0.142v0.152
			l0.743,3.689l2.354,3.377c0.586,0.891,1.319,1.772,2.651,2.95h0.146l0.15,0.146v0.146l-0.15,0.297v3.244
			c0.444,0.882,0.591,2.797,0.591,5.597c1.317,1.917,1.916,3.236,1.916,4.122c0,0.59,0.437,1.77,1.178,3.393l0,0v0.148l0,0
			c0.293,2.059,0.146,3.831-0.302,5.299c-0.439,1.027,0.147,2.943,1.769,5.601l0.156,0.146l0.147,0.297l-0.147,0.291l-2.364,5.158
			c0.439,1.18,0.587,2.062,0.587,2.654l-0.587,4.863c-0.29,1.62-0.29,2.493,0.439,2.796l0.889,0.585
			c1.324,0.589,1.772,1.328,1.772,2.064l-0.151,2.51l0.732,0.289l0.156,0.144l0.438-0.433c0.438-0.448,0.882-1.035,1.032-1.774
			l0.298-0.435l0.141-0.301c0.589-0.296,0.883-0.736,1.323-1.324c0.145-0.887,0.145-1.768-0.147-2.797l-0.293-0.741l0.733-0.148
			c2.363-0.585,3.681-0.435,4.124,0.589l1.186,2.946v0.151v0.15l0.589,4.855l1.917,1.039h0.151h0.146l1.174,1.025l1.174-1.323
			l1.325-1.04h0.447c1.027,0.299,1.622,1.04,1.915,2.067l0.586,3.833l0.155,0.588l3.971,8.543l1.625,1.623l0.142,0.146v0.146
			l0.747,3.535l0,0l0.285,3.389l0.147,0.298c1.032-1.476,1.921-2.209,2.508-1.917c0.585,0.146,0.741,0.441,0.741,1.036v0.881v2.655
			v0.729c0.731,0.152,1.317,0,1.47-0.438l1.471-2.064l1.62-1.627c1.025-0.73,2.061-1.318,3.242-1.318h0.146l3.093,0.736l0.881-0.443
			l1.631-2.064l-0.303-3.238c-1.023-1.773-1.475-3.239-1.174-4.273l0.44-2.655v-0.294l0.143-0.295l0,0l2.8-1.62h0.154l0,0
			l2.057-1.324l2.357-3.389l0.299-2.497l-2.656-6.195l5.893,2.654v-2.498l0,0v-0.156l2.218-1.915l4.264-1.177h0.293l2.511,5.457
			v0.289l-0.294,2.061l0.294,1.914c0.293,0.886,0.89,1.328,1.328,1.328c0.587,0,1.17-0.442,1.761-1.172l0.15-0.298l0,0h0.14
			l3.544-1.182l0,0h0.147c1.915,0,2.796,0.44,3.239,1.323l0.294,3.982v0.141l0.739,0.149l1.47,0.446l2.207-0.154l3.689-1.023
			l2.209-1.92l0.143-1.621l-1.023-1.182l-3.833-1.321l0,0l-0.299-0.142l0,0v-0.152l-4.421-4.417l0.447-0.303l2.209-1.91l0.146-0.148
			l0,0l2.207-0.88l0,0h0.45l2.938,0.584h0.154l0.143,0.15v-1.18l-1.324-2.203l-2.061-1.036l-2.801-4.122l0,0l-0.147-0.15v-0.146
			l-1.324-4.86v-3.686l2.359-2.207h3.533l8.247,0.735l3.834-5.448v-0.294h0.292l3.097-1.627l1.61-3.242l0.158-0.148l3.68-3.09
			l1.769-3.239v-0.152h0.147v-0.144l0,0l1.471-1.471l1.769-2.945l0.587-4.569v-0.442l0.148-0.139l2.357-1.632l0.588-0.579
			l-3.534-0.599l-5.889,0.294l-0.146-0.142l-2.217-1.772h-0.293v-0.146l0,0l-1.176-1.771l-0.294,0.152l-0.152,0.294
			c-0.294,0.441-1.033,0.589-1.911,0.589l-0.889,0.438c-0.289,0.152-0.44,0.297-0.88,0.152c-0.292,0-0.444-0.44-0.742-1.18
			c-0.145-0.736-0.439-1.474-1.318-2.209l-0.146-0.152v-0.141h-0.147l-0.739-1.92h-0.587l-2.216,1.472l-0.136,0.145h-0.158
			l-5.155,1.038h-0.293l-0.294-0.15l-3.389-2.357l0,0l-0.145-0.146v-0.146h-0.146l-0.889-1.771l-2.502,2.653
			c-1.767,2.067-3.094,2.652-3.979,2.067l-3.393-1.767l-2.352-0.301l-0.293,0.146l-2.217-1.616l-0.138-0.149l-0.449-0.146
			l1.035-3.98v-1.326l-1.329-0.594h-0.145l-3.095-3.383l0.146-2.498l-7.661-0.738l-2.95-1.627c-0.737-0.445-1.322-1.328-1.769-2.796
			l-0.433-1.032l-0.595-2.207l-1.037,0.141l-2.354,1.92l-2.792,3.386l0.583,2.507l0.883,3.239v0.147h0.15l-0.15,0.15v0.146
			c-0.292,0.888-1.172,1.326-2.5,1.326h-2.948l-1.769-0.889l-2.207,0.889l-0.44,0.146l-0.301-0.146l-0.294,2.066l-0.136,0.293v0.437
			h-0.449l-3.688-1.176c0,1.176,0.152,2.054,0.747,3.091c0.433,1.035,0.587,1.769,0.139,2.654l-0.44,1.175
			c-0.445,0.444-1.767,0.591-3.682,0.444h-2.501l-0.155,4.127l-3.236-1.178h-0.146l-0.151-0.152l-1.621-3.087l-3.535-1.18
			l-0.885-1.919l-1.32,1.025h-0.158l-2.205,0.447h-0.584l-1.185-2.648l-1.171-1.624l-0.152-0.147
			c-1.18-1.475-1.763-2.793-2.065-3.537c0-0.148-0.292-0.438-1.029-0.584l-0.583-0.15c-1.035-0.441-1.765-1.329-2.215-2.65
			l-0.593-2.5v-2.073l-1.029-1.909l-1.759,0.592h-0.154h-0.146H253.163z"/>
		<path fill="#CDCECD" d="M54.579,282.534v0.146c-0.599,1.336-1.624,2.213-2.808,3.238c-0.88,0.441-1.17,1.182-1.17,2.062v0.45
			c0,0.729-0.444,1.909-1.626,3.676l-0.146,0.745c-0.293,0.44-0.884,0.733-1.913,0.733l-8.4-1.029v0.147l-0.584,1.915v0.143
			l-0.152,0.147l0,0c-2.207,3.093-3.68,5.302-3.828,6.776c-0.151,0.738,0.741,3.391,2.652,7.959l1.328,3.09
			c0.584,1.475,0.147,3.243-1.185,5.156l-2.647,2.653h-4.42l-0.877-4.86l-1.188,6.044l1.919,2.946c0.146,0.429,0.146,0.73,0,0.877
			l-0.294,0.293c-0.589,0.438-1.477,1.92-2.362,4.422c-0.881,2.211-0.444,4.42,1.324,6.777h3.541
			c1.174,0.293,2.95,2.209,5.452,5.599l0.146,0.3l0,0c0,1.028,0.438,1.762,1.175,2.354l7.812,7.217v0.145l3.535,4.418h2.061
			l2.212-3.976l0.294-0.29l0.15-0.152l5.45,1.33v0.147v0.29l0.732,3.686l6.479,7.512l2.217,0.883l0.146,0.148l1.025,0.594
			l0.156,0.148l4.861,7.215l3.978-0.591h0.293h0.144l0.293,0.296l0.147,0.295l3.389,7.068l4.131,2.506l3.378,0.885l1.621,4.568h2.51
			l0.147,0.148l0,0l5.302,2.946v0.144l0,0l0.146,0.148l3.837,4.715l5.595-1.027h0.296l2.058,0.881h0.154l3.537,3.091l6.326,0.446
			l3.83-0.599l0,0c5.163-0.875,8.406-0.431,9.577,0.888c0.737,1.182,0.293,2.359-1.472,3.834l-1.475,1.474
			c-0.432,0.73,0.15,1.913,2.065,3.683l0.15,0.301h-0.15l1.174,0.875l0.444-0.44c3.688-6.924,6.632-10.757,8.688-11.488
			c2.217-0.733,6.784,1.178,14.002,5.597l8.835,1.621l-0.146,0.293v0.29l-0.444,4.128l4.429,0.592l-0.153,5.6
			c1.326,2.504,2.358,3.974,2.951,4.418c0.875,0.591,5.304,0.591,13.11,0l4.562-2.355l4.42-6.188l5.156-0.15l2.499-0.733l9.728-5.6
			h0.155l0.142-0.148l0,0c5.6-0.589,8.831-0.73,9.72,0l6.339,5.311l1.915,0.73l0.291,0.292l2.501,1.034l0.156,0.154v-0.449v-0.146
			v-0.152v-0.142l1.029-4.415c-0.444-1.329-0.444-2.361,0-3.248c0.293-0.734,1.029-1.174,2.212-1.469
			c2.207-0.445,4.275,1.469,6.328,5.595l0.297,0.144h0.143l3.691-1.617c0.73-0.139,1.027-0.88,1.027-1.621l-0.735-2.649v-0.148
			c-0.292-1.176,0-2.207,1.18-2.649l1.32-1.04l3.242-3.526l2.215-4.865c-1.92-3.089-2.509-5.3-1.92-6.77l0.44-4.131
			c-0.882-1.766-1.322-2.945-1.322-3.981c0-0.437-0.593-1.763-1.767-3.53h-0.146v-0.445l-0.448-5.301
			c-0.14-0.88-0.294-2.062,0-3.537c-1.319-1.032-2.205-2.06-2.794-3.093l-2.213-2.95l-0.15-0.141v-0.295v-0.151l-0.731-3.68
			l-2.207-1.771v0.148l-4.278-3.389v0.292l0.593,4.571v0.147v0.438l-2.213,1.036l-0.294,2.792v0.444l-5.155,2.062l-1.767-4.118
			l-1.034-0.296l-1.612,1.617l-1.035,2.94l-3.682,1.038l-2.062-1.477l-2.948-0.885l-0.883-4.118l-1.176-2.51l-1.775-0.735
			l-0.147-0.292l-1.32-1.626l0,0l-1.326-2.352l-2.061-2.654h-1.774l-2.944,1.031l-0.154,0.15l-7.511-0.44l-5.74-1.184
			c-0.438-0.294-1.474-0.737-3.095-1.763l-4.414-1.473c-3.398-0.887-5.313-1.63-5.752-2.51l-0.731-0.441l-1.035-0.297l-2.649-1.471
			l-0.297-0.147c-0.444-0.583-0.883-1.03-1.174-1.618l-0.595-1.33l-1.174-1.767l-1.919-0.884l-0.738,0.439l-0.737,0.597
			l-0.438,0.286c-0.735,0.593-1.469,0.883-2.063,1.037c-1.172,0.291-2.355-0.298-3.677-1.773l-2.798-2.943
			c-1.036-1.319-1.773-2.357-2.065-3.096l-0.735-1.17c-1.039-1.039-1.769-2.066-2.209-2.946c-0.448-1.329-0.595-2.51-0.146-3.685
			v-0.152l0,0l1.907-3.237l1.031-3.391l0.444-2.209l-0.736-3.388l-2.216-1.918l0.447-2.799c0-2.066,0.741-3.098,2.213-3.389
			c0.442-0.148,0.735-0.439,0.589-1.027v-0.148l0.146-2.947v-0.145l0,0v-3.391h-0.293l-0.15-0.152l0,0l0,0l-0.591-0.293v-0.145
			h-0.146l-2.646-1.766l0,0h-0.151l-2.065-1.771l-6.924-1.325l0,0l-2.209-1.62h-4.128c-0.587,0-1.324,0.444-2.354,1.031h-0.156
			l-3.232,1.18h-8.108c-1.167,0.295-2.202,0.587-2.796,1.178c-0.881,0.739-2.507,1.328-4.708,2.059l-3.834,0.884v0.151h-0.298
			l-5.448-0.584l-0.44-0.156l0.15,0.156l-0.15-0.156l-1.913-0.141l-3.242,1.025l-6.483,0.594h-0.154l-0.139-0.148l-3.242-1.174
			h-2.654c-1.173-0.297-2.503-1.182-3.971-2.953l-0.15-0.293c-0.297-1.33-0.741-1.914-0.88-2.208l-0.741-0.444l-1.319-0.737
			l-1.188,1.182l-0.141,0.294l-4.721,1.914h-0.15h-0.286l-5.75,0.59c-0.878,0-2.5-0.444-4.719-1.031l-5.002-0.889h-0.147l0,0
			l-2.948-1.617H54.579z"/>
		<path fill="#CDCECD" d="M237.833,465.951l-0.582,1.915c0.887,0,2.057-0.596,3.246-1.477l0.139-0.15h0.298l5.893-0.729l3.83-1.926
			l1.478,2.068l0.287,0.147l-1.765,2.798l2.059,2.062v0.149v0.438l-1.468,6.192l3.829,2.794l6.926,0.297l-1.027,1.328
			c-4.426,5.449-6.491,8.695-6.337,9.721l2.656,0.592c3.524,0.295,5.59,1.328,6.326,2.65c0.88,1.77,1.771,3.534,2.506,5.598
			l3.979,2.209l2.508,0.448l5.147-4.425l2.653,3.977v0.148l0,0l0.15,0.146l0.888,3.679l2.207,0.442l0,0l3.389,1.18l0.88-0.284
			v-0.152l-0.589-3.831l-0.146-0.146l-1.913-8.692v-0.296l1.182-6.041l0.293,0.146h0.438l3.981,0.298l5.003-3.688l0.451,0.294
			c2.646,2.065,4.416,3.688,5.302,4.859c0.877-0.288,2.499-1.91,4.704-4.41l0.15-0.148l0.301-0.301l7.36,1.915l3.24-2.649
			l0.15-0.148l0.146-0.143h0.146l0.146,0.143l3.095,0.589l10.021-8.833l3.093,0.878l0,0l0.147,0.153l0.146,0.145l0.15,0.15
			l0.737,1.316l0.734-0.875h0.146v-0.148h0.146l2.948-1.619l2.207-2.066l-0.587-4.57l-0.44-0.587l-2.798,1.18l0,0
			c-0.886,0.298-1.623,0.587-2.658,0.587h-3.232c-1.035-0.145-1.622-0.438-2.065-1.025l-0.298-4.711
			c-1.03-0.591-1.475-0.892-1.915-0.892l-0.741,0.301l-1.023,0.591l-2.062,0.44h-0.595l-0.137-0.298l-1.184-2.068l-0.154-1.916l0,0
			l1.191-5.596l0,0h0.146v-0.146l1.318-2.79l-4.12-3.685l-0.158-0.15l-0.145-0.145v-4.276l0.145-0.149l2.363-6.772l-1.475-3.687
			l-1.329-0.295l-1.619,0.146l-1.62,2.508l-2.062-1.48l-2.058-1.174l-1.622-4.122l0,0l0,0l-0.591-2.946v-0.297l-0.144-0.146
			l0.44-0.296l1.916-2.648l0.438-0.299l0,0h0.147l1.473-0.296l1.622-0.44l7.665-0.295h0.146l1.029,0.441l0.296,0.149l1.176,0.44
			l2.06-0.885l1.772-1.328l0.889-1.475l0.143-0.736l-0.143-3.238l-1.626-0.295l-3.095,1.033c-0.883,1.035-1.914,1.77-2.948,1.77
			c-1.027,0-1.916-0.886-2.794-2.508l0,0h-0.146v-0.145l-0.146-2.067v-0.292l0.146-1.915l-1.621-3.978l-3.098,0.887l-1.328,1.182
			l0.448,4.415l-4.862-2.208l1.173,2.648l0.152,0.145v0.305l-0.444,2.947v0.289h-0.146l-2.804,3.974l0,0l-4.57,2.8l-0.429,2.652
			c-0.156,0.446,0.429,1.621,1.171,3.092l0.148,0.152v0.146l0.293,3.829v0.442l-0.146,0.15l-1.769,2.354l0,0l-0.143,0.15h-0.151
			l-1.328,0.883h-0.141h-0.152h-0.147h-0.146l-3.387-0.738c-0.583,0-1.328,0.298-2.069,0.883l-1.472,1.623l-1.174,1.471
			c-0.741,1.324-1.769,1.619-3.389,1.324c-1.027-0.138-1.33-1.174-1.027-2.502v-1.029l-0.152-1.031l-0.589,0.735
			c-0.443,0.589-0.878,0.735-1.465,0.735c-0.595-0.146-1.045-0.735-1.336-1.768v-0.144l-0.294-3.394l-0.731-3.236l-1.478-1.474l0,0
			l-0.145-0.15l-3.095-7.071l-0.147-0.146l-0.888-2.063v-0.146h-0.143v-0.146l-0.591-3.832l-0.448-0.588l-0.581,0.441
			c-1.037,1.182-1.772,1.916-2.066,1.916c-0.447,0-1.176-0.584-2.354-1.477l-2.216-1.031l-0.29-0.145l-0.148-0.15v-0.139
			l-0.142-0.298l-0.158-2.948l0,0l-0.443-2.211l-1.173-2.946h-1.181c0.148,1.18,0,2.207-0.292,2.946
			c-0.294,0.881-0.879,1.472-1.769,2.211c-0.294,1.035-0.73,1.767-1.321,2.352c-0.886,0.895-1.627,0.895-2.506,0.305l-0.438-0.154
			c-0.89-0.295-1.036-1.326-0.89-3.241v-0.735l-1.911-1.174c-0.742-0.302-1.184-1.182-1.331-2.509l0.732-6.626l-0.288-1.033
			l-2.357,2.65l-1.622,1.18l-0.438,1.029c0.586,1.326,0.879,2.361,0.879,3.092c0,1.482-0.731,2.654-2.062,3.095l-2.655,1.031
			l-0.731,0.44l-0.147,1.035v4.125c0.147,1.326,0.294,2.057,0.734,2.057c0.886,0.444,1.919,0.444,2.8-0.287l0.888-0.443l2.794,6.479
			v0.152l0,0v0.293c-1.025,11.639-2.061,18.264-3.385,20.032c-0.589,0.589-1.033,0.881-1.919,1.033
			c-1.033,0-1.765-0.152-2.796-0.739c-3.833,7.661-6.333,11.639-7.513,12.234h0.145c-0.594,0.142-0.884,2.055-0.733,5.445
			l0.881,0.739l0.305,0.3l0.291,0.283L237.833,465.951z"/>
		<path fill="#CDCECD" d="M367.628,398.624l-1.028-0.445l-1.18,0.742l-0.734,1.318c-0.585,1.33-1.18,2.068-2.212,2.068
			c-0.589,0-1.323-0.439-1.771-0.891l-0.138-0.141l-0.156-0.148l0,0l-0.44-1.474v-0.148l-0.146-1.915l-0.879-0.146l-0.156,0.146
			l-0.44,1.475v2.062l-0.143,0.148l-0.146,0.141l-1.769,2.359l-0.294,0.295h-0.303l-3.533-0.295h-0.296v0.148l0,0v0.146l-1.17,1.621
			l0.438,1.032h0.138l-1.021,1.618h-3.247v-0.585l-0.294-0.303l-0.449-0.29l-0.585,1.031l-0.146,0.441h-2.205l-0.147-0.139
			l-1.328-1.044l-0.143-0.29v-0.148h-0.15v-0.292l-2.354-0.438l-1.775,0.73l-1.025,0.741l2.95,3.385l3.826,1.185l0.147,0.142l0,0
			l0.143,0.149l1.927,1.766l-0.741,2.951l0,0v0.439h-0.146l-2.501,2.062v0.143h-0.156l-4.12,1.184h-0.146l-2.363,0.291l0,0h-0.147
			l0,0h-0.143l-1.626-0.586l-0.878-0.15l-0.891,1.475h-0.143v0.146l-1.915,1.324h-0.147l0,0l-2.645,1.178h-0.156l-3.096-1.027
			l-6.776,0.298l-1.47,0.437l-0.145,0.152h-1.328l-1.626,2.209l0.301,2.498l1.474,3.389l1.616,0.889h0.146v0.148l0.591,0.439
			l1.035-1.477l0.145-0.143l0.146-0.15h0.146l2.208-0.29h0.296v0.144l2.215,0.586l2.208,5.017h-0.146v0.144l-0.888,2.803l0,0
			l-0.734,1.763v0.156l-1.025,2.495v3.091l1.76,1.78h0.154l2.355,2.057l0.291,0.152l0.147,0.137l-1.769,4.128l-0.438,1.915
			l0.583-0.293h0.152l1.472-0.591l2.654-1.47h0.146l2.943,0.438h0.152l0,0l4.416,1.771h4.865l1.324-1.771l0.146-0.145l0.147-0.147
			l2.508-1.184l2.354-2.052l0.294-0.156l0,0l1.771-0.581l1.91-1.484l2.205-2.936l3.097,1.178l0.438,0.145v0.15l0.158,0.146
			c0.437,1.174,0.886,1.763,1.316,1.911l1.92-0.299h0.443l1.035,0.299h0.143v0.152l2.505,0.875h0.741l0.145-0.583l0.294-0.888v-0.15
			l0.143-0.144l0.15-0.146v-0.146l0.887-0.592l0.143-0.144l1.622-1.334h0.15l0.146-0.144h0.294l1.475,0.144
			c0-0.876,0.438-1.757,1.326-2.647c1.027-0.737,1.766-1.18,2.207-1.031l0.887-0.59h0.141v-0.143l0.741-0.742v-0.15h0.146
			l0.146-0.145h0.146l2.363-0.586h1.328l0.583-0.443l0.442-0.883l0,0l0.732-1.477l-0.294-0.143
			c-0.881-1.031-1.464-2.217-1.761-3.833l-0.15-0.148l0,0h0.15v-0.147l0.587-3.239c0-1.031,0.293-1.771,1.031-2.503l-0.296-2.65
			c-0.15-0.297-0.442-0.589-1.182-0.738l-4.715,1.918l0.303-4.865c0.136-0.736,1.614-2.061,4.412-3.688l-1.316-5.152
			c-0.303-1.766,0.145-3.096,1.316-4.272l-0.291-0.878h-1.476l-0.438,0.146l-0.739,2.061c-0.591,0.734-1.174,1.178-1.771,1.178
			h-0.289l-1.474-1.035h-0.15h-0.146v-0.143v-0.298l-0.44-1.031l-0.146-1.474v-0.139l-0.147,0.289l-0.146,0.445h-2.656l-0.294-0.596
			l-0.438-1.621v-2.205l-1.624-2.8v-2.357L367.628,398.624z"/>
		<path fill="#CDCECD" d="M397.534,436.775l0.158,0.147l0.291,0.291l-1.925,2.953c-0.741,0.883-1.767,1.471-2.946,1.471h-0.293
			l-1.468-0.885l-1.477,0.152l-2.944,2.201c-0.743,0.301-1.622-0.438-2.948-2.201l-0.881,1.919h-0.146l0,0l-0.156,0.138l0,0
			l-1.023,1.037h-1.925l-1.91,0.584l-2.363,1.771h-0.726l-0.889,0.592c-0.733,0.73-1.027,1.32-0.587,1.91l1.031,1.471l-4.128-0.439
			l-2.205,1.773l-0.295,0.738v0.137l-0.446,1.182l-0.146,0.146l-0.147,0.144h-2.062l-2.651-1.027l-0.892-0.144l-2.061,0.3
			c-0.88,0-1.913-1.033-2.796-2.657l-1.765-0.735l-1.475,2.209l0,0h-0.146l-2.061,1.765h-0.146v0.146h-0.292l-1.627,0.444
			l-2.358,2.063l0,0l-2.498,1.182l-1.769,2.351h-5.896l0,0l-4.561-1.763l-2.51-0.3l-2.213,1.18h-0.15l0,0l-1.468,0.587
			c-0.741,0.296-1.324,0.744-1.765,0.887l-0.301,0.741v1.763l0.741,1.184l3.533-1.184c0.733,0,1.769,0.442,3.097,1.184l0.298,0.139
			l0.143,0.15l0.143,5.009l0.738,0.147h3.093l1.923-0.442l0.294-0.296c1.178-0.587,2.21-1.023,3.533-1.168l0.591-0.156l0.299,0.443
			l0.879,1.768v0.15l0.44,4.857v0.444l-2.649,2.802h-0.154v0.141l-3.095,1.475l-1.025,1.18l0.44,0.887l6.336,0.584l0.147,0.154l0,0
			l0.143,0.146l2.502,1.473l5.604-0.146v0.737l0.293,2.796v0.29h0.147l-2.499,2.51c-0.299,3.243,0.29,5.153,1.62,5.595l4.707,2.505
			l3.689,2.508l3.092-1.476l0.295-0.148l0.298-0.148l0.146,0.148l4.715,3.537l0.733,0.3l1.178-1.481l0.294-0.295l0.146-0.146h0.147
			h0.154l2.796,0.441l0.587-4.855l3.533,6.337l2.95,0.143l0.447,0.146h0.29v0.299v1.912l1.174-0.293l4.865-6.484l2.061,3.095v-1.029
			l0,0v-0.148v-0.149l1.474-2.945l1.328-2.211h3.68l0.591-4.126h0.444l0.297,0.15l2.8,0.448l0.29-1.479l-1.033-2.362v-0.294
			l0.593-1.614v-0.301l0.15-0.146h0.143v-0.148l7.662-4.122l-0.296-3.976l0,0v-0.151l1.476-2.943l0.291-0.592l0,0l2.359-5.45
			l0.146-0.145l0,0l1.91-1.919l1.186-2.201v-0.3l0,0l1.032-1.767l-0.888-2.207v-0.156h-0.145v-2.355h-1.186l-2.209,1.033
			c-1.029,0.735-2.498,0.44-4.414-0.732c-0.739-0.596-0.739-2.069-0.291-4.274l-1.186-0.143l-0.589,0.728
			c-1.321,1.48-2.355,2.361-2.655,2.361c-0.289,0-0.439,0-0.737-0.152c-0.136-0.439-0.44-1.174-0.44-2.355
			c0-1.318,0-2.209,0.44-2.508c0.298-0.438,0.595-0.585,0.892-0.295l2.8-5.152l0.734-1.911l0.447-2.214l-1.631-1.327
			c-0.438-0.44-0.585-1.47-0.292-2.944v-0.883c0-0.441-0.293-1.034-0.879-1.471h-0.299l-0.15,0.437
			c-0.438,1.183-1.476,1.765-3.09,1.326C399.445,436.483,398.569,436.483,397.534,436.775L397.534,436.775z"/>
		<path fill="#CDCECD" d="M388.688,368.421l-1.02-2.351l-1.618-2.364l-1.776-0.441h-0.145v-0.146h-0.146l-1.478-0.735l0,0h-0.282
			l-0.599,0.146l-1.911,0.288h-0.145l-0.303-0.139l-1.916-0.742v-0.145h-0.146v-0.145l0,0l-1.47-1.474l-1.623-1.624l-1.472-0.88
			l-1.624,1.472l-2.06,1.469l-0.587,4.424v0.15l0,0l-1.916,3.236v0.291h-0.146l-1.475,1.479l-1.766,3.385l0,0l-0.15,0.296
			c-1.328,1.036-2.506,2.063-3.688,2.948l-1.475,2.652c-0.292,0.734-1.464,1.618-3.681,2.502l-1.466,2.511l0,0l-2.508,3.383h-0.146
			v0.145h-0.297l-11.784-0.733l-1.326,1.324v2.504l1.182,4.865l2.508,3.534l2.053,1.176v0.15h0.154l0,0
			c1.17,1.476,1.769,2.505,1.769,3.239v1.914l-0.745,0.739l0.446,0.292h0.593l0.888-1.766h0.282l2.363,0.734l0.146,0.739h1.176l0,0
			l-0.293-0.882l-0.146-0.298l1.616-2.502c0.301-0.735,1.033-1.031,2.069-0.735l2.647,0.143l1.479-1.921v-1.761l0.586-1.918v-0.141
			l0.143-0.15l0.156-0.146l1.023-0.594v-0.145h0.146l0.156,0.145l2.207,0.296v0.298l0.437,1.766v0.887l0.298,1.32l0.589,0.144
			l0.739-1.023v-0.144l1.18-1.625l0.146-0.293l1.622-0.734h0.145l0.146-0.15l1.916,0.59h0.146l0.293,0.146l1.033,2.067v2.055
			l1.478,2.802l0,0v0.298v2.065l0.429,0.873h0.447l0.587-0.73l0.154-0.297l1.766,1.027h0.15h0.146v0.303v0.146l0.579,2.503
			l0.74,0.438l0.155-0.293l0.73-1.914v-0.139l0.146-0.303h0.147h0.146l1.036-0.589h0.146v-0.152h1.328l-0.303-0.73v-0.297
			l-0.732-6.922l-2.801-4.566l-5.303-6.187l-0.146-0.15l-0.295-3.976l-1.766-3.095v-0.141l-0.148-0.154l0,0l0.148-0.29l0.887-3.835
			h0.291h0.294l9.289-0.587l5.008-2.654l0,0l0.142-0.146c1.765-0.59,2.95-1.326,3.238-2.065
			C388.403,370.927,388.688,369.89,388.688,368.421z"/>
		<path fill="#CDCECD" d="M356.434,278.854l-0.882-0.152l-1.479,8.993l2.506,2.947l2.365,1.03l0,0h0.142l0.143,0.14l3.099,2.506
			l4.273,1.039h0.143l2.213,1.471h0.15l0,0v0.293l1.622,2.356l0.287,0.299l-0.146,0.288l-1.475,2.359
			c-0.288,0.295-0.288,1.035-0.288,2.209h0.141v2.797l-0.141,0.147l0,0l-1.326,4.423l-0.151,0.734h-0.295l-0.44-0.145l-1.915-0.438
			l-2.504,0.142l-2.211,0.735l-2.51,2.064l-0.587,0.59l3.243,1.617l-0.292,0.59c-0.148,0.736-0.89,1.478-2.06,1.918l-2.062,0.145
			l-3.389-1.326l0,0l0,0l-3.095-1.766h-1.328l-3.68,5.305l-0.745,1.763v3.101l1.477,2.506v0.142l0,0l0,0l0.886,2.352v0.305
			l0.138,3.382v0.441l0.156,0.299l-2.359,0.44h-4.416l-2.06,1.329l-0.889,1.471l0.147,0.143l0.888,4.422h0.145v1.771l1.027,2.063
			l3.104,2.066l4.559-1.037l2.209-1.469l0.296-0.158h2.065l1.174,2.807c0.739,0.74,1.326,1.475,1.62,2.354l1.035-0.145h0.293h0.298
			l0.141-0.295l2.061-1.622l1.913,3.392l2.071,1.323h2.948l2.207-0.294h0.44l5.306,0.74h0.143v0.141l2.217,1.338l0,0l0,0v0.139
			l1.913,1.472v0.154l1.319,1.464l1.482,0.587l2.354-0.292v-3.087l-1.182-2.062h-0.141v-0.148l-0.894-3.833l2.065-2.058l0.15-0.154
			h0.156l1.76-0.292h1.913l0.587-0.733l-1.174-1.622l-4.268-2.798l-1.034-1.622l-0.156-0.154l-0.138-0.145l0.138-0.287l1.19-2.213
			l0.29,0.289l2.942,0.742l7.812-0.29l0.147,0.146h0.146l2.211,0.731l1.469-1.33l-0.741-4.561l-2.792-1.775
			c-2.354-1.321-3.095-4.562-2.65-9.867l-2.357-1.18l-0.3-0.145h-0.287v-0.291v-0.146l-0.448-3.831l3.242-15.028
			c-1.321-4.42-2.057-7.368-2.057-8.841l-0.298-4.424l0.298-4.855V284.6l0.288-0.299l0,0l2.948-2.209v-2.355
			c0-0.585-0.294-1.472-1.029-2.647l-1.919-2.071h-0.288v-0.44l-0.298-3.535v-0.145l-0.152-0.146l0.3-0.152v-0.144l3.834-4.862
			v-2.063l-1.18-2.209v-0.15l-0.152-0.284l1.919-2.363v-0.145h0.146l2.061-1.62l-0.293-1.917h-1.033l-1.618-0.293l-0.883,3.529
			l-0.443-0.146l-3.825-1.472l-2.367-0.438l0.894,3.68l-3.245,1.031l-4.723,2.502l-1.466,1.914l0,0v0.148h-0.145l-2.51,2.211
			l-0.44,3.535v0.295l-1.32,5.011h0.141l-0.589,2.354v0.152l0,0l-0.145,0.144l-1.62,2.213h-0.146v0.146l-0.151,0.15h-0.143
			l-3.535,0.436l0,0v0.149l-0.146-0.149l0,0l-5.308-1.762l-0.142-0.147L356.434,278.854z"/>
		<path fill="#CDCECD" d="M425.232,239.225l0.591-0.739l-1.034-2.359l-1.027-1.17l-1.182,1.909v0.147l0,0l0,0l-1.915,2.212l0,0
			l-0.146,0.146h-0.291l-3.535,1.03h-0.298l-3.394-0.585l-1.914,0.585l-0.44,1.618l0,0l-0.15,0.303l-1.616,1.025l-0.293,0.15h-0.292
			l-2.95-0.293l-0.146,0.293v2.943l-0.152,0.146l-1.62,2.061l0,0v0.148h-0.15l-2.796,2.805h-0.146l-0.147,0.14l-2.942,0.591
			l-1.927,2.062l0.45,2.508v0.59l-0.45,0.146l-2.205,2.063l-1.174,1.47l0.881,1.915v0.148v0.146v2.804l0,0v0.15l-1.618,2.355v0.146
			l-2.213,2.502l0.296,2.951l1.917,1.76v0.151l0,0c0.884,1.476,1.324,2.654,1.324,3.684v3.236h-0.146l-0.146,0.154l-2.948,2.208
			l-0.296,4.42l0.296,4.416c0,1.477,0.591,4.276,2.067,8.4v0.146v0.294l-3.245,15.029l0.297,2.946l2.207,1.031l3.535-3.539l0,0
			h0.146l11.344-4.418l2.952-2.654l0.293-0.292l0.147,0.149h0.291l6.481,0.588c0.893,0,2.798-0.737,5.6-1.919v-3.093l0.146-0.146
			h0.146l1.767-1.619l-0.438-1.914v-0.149v-0.145v-0.296l0.137-0.146c0.604-0.585,0.604-1.182,0.156-1.623
			c-0.44-0.885-0.293-2.066,0.448-3.389l0.733-1.027l0,0l-0.15-2.066l-2.209-2.654c-1.027-0.736-1.186-1.762-0.589-2.796
			c0.292-0.879,0.735-1.761,1.474-2.503l0.585-2.496l0,0l0,0l1.627-3.549l0.444-1.614l2.352-4.421l-1.618-2.802l-4.571-2.796h-0.292
			v-0.293l0,0l-0.882-2.359v-0.148v-0.296l0.443-3.978l0,0v-0.145l1.027-2.939c-0.141-1.04,0-1.775,0.444-2.367
			c0.293-0.289,0.733-0.588,1.182-0.588l2.796-0.44l0.739-1.618l0.731-4.867l-0.594-1.764l-2.491-0.592h-0.154l0,0l-2.95-1.472
			l-0.146-0.148v-0.298l-0.146-0.146l-0.146-3.529v-0.299v-0.438L425.232,239.225z"/>
		<path fill="#CDCECD" d="M433.039,396.115l0.146-0.144h-0.293v-0.297l-1.18-2.207l-0.149-0.152v-0.293l0.296-3.527
			c0-0.446-0.442-0.893-1.328-1.483h-0.881l-1.475,1.772h-0.147l0,0l-3.684,1.769l-0.583-2.504v-0.296l0.293-1.178l-0.293-1.48
			l-0.448-0.143l-0.583,1.178h-0.15v0.148l-4.57,3.979l-0.146,0.296h-0.145h-0.294h-0.294l-1.33-0.591l-0.145-0.145l-1.474-1.322
			l-2.357-0.893l0,0l-0.146-0.145l-1.471-1.035l-4.862-1.027l0,0h-0.146l-3.247-1.623v0.146l-2.507-1.172l-3.234-0.3l-1.185,0.147
			l1.032,5.454h-0.438l-3.242,0.292h-1.769h-0.146l0,0l-1.776-1.178l-2.938,1.332l-2.647,3.527l-2.357,6.34l0.733,6.924l1.027,3.969
			c0.146,0.453,0.146,0.59,0,0.742l-0.438,0.146c-0.735,0.44-1.025,1.476-0.884,2.946l1.469,6.043l-0.429,0.292
			c-2.654,1.478-3.992,2.653-4.136,3.239l-0.297,2.066l2.51-1.029l0.146-0.152h0.147c1.769,0,2.796,0.589,2.938,2.064l0.45,3.243
			l-0.149,0.437l-0.301,0.299c-0.431,0.44-0.733,0.885-0.733,1.472l-0.437,3.387c0.143,1.183,0.593,2.067,1.17,2.51l3.104,3.679
			l2.794-2.207l2.207-0.296h0.154l0.146,0.296l1.472,0.439c0.442,0,0.882-0.146,1.328-0.59l1.32-1.914l-0.291-1.178
			c0.291-0.438,0.735-0.739,1.326-1.037h3.537c0.583,0.298,1.023,0.15,1.023-0.139c0.448-1.035,0.892-1.479,1.334-1.769
			c0.438,0,1.176,0.148,1.616,0.589c1.031,0.881,1.769,1.616,1.769,2.65l-0.293,2.651l0.59,0.438c0.883,0.737,1.47,1.477,1.47,2.064
			l-0.587,2.652c-0.44,1.473-0.883,2.506-1.473,2.801v-0.145l-2.213,4.715l0.737,0.292l3.535,0.15l0.741,0.296l-0.293,0.581
			c-0.448,1.479-0.593,2.504-0.448,3.245c1.18,0.732,1.914,1.18,2.357,0.732l2.064-0.885l1.032-0.439h1.912l1.919-2.061v-2.508
			c-0.146-0.875,0-1.468,0.294-1.908c0.585-0.447,1.763-0.447,3.537,0.587l3.533,2.209c1.18,0.884,2.06,1.184,2.646,1.184v-0.156
			c0.303-0.581,0-1.771-0.73-3.236l-1.915-2.948v-0.295h0.154l0.139-0.296c1.914-2.649,3.978-3.537,6.335-2.649l5.449,2.503
			l2.218-1.476h0.136v-0.146v-0.146l-0.282-0.291l0.146-0.147l0.136-0.296c1.777-2.941,2.363-5.156,1.777-6.342
			c-0.449-1.025-1.18-1.464-1.777-1.464h-0.44l-0.292-1.478h0.292c1.038-0.439,1.622-0.88,1.769-1.477l-0.437-0.733l-2.359-2.207
			l0,0v-0.15l-1.18-3.238c-0.447-2.51-0.731-4.719-0.447-6.776v-1.474l-1.464,1.319l-1.33,1.475l-0.438-6.181l0,0v-0.292h0.146
			c3.241-4.721,5.448-7.521,6.181-8.252l-1.468-4.418c-0.44-2.214-0.737-3.542-0.737-4.131l-2.646-1.178L433.039,396.115z"/>
		<path fill="#CDCECD" d="M381.775,341.463l-0.151,0.585l0.738,0.893l3.825,2.645l0,0v0.146h0.15l2.35,2.657l-0.284,0.292
			l-1.473,1.764l-0.147,0.149l-0.146,0.294h-2.508l-1.478,0.154l-1.027,1.028l0.442,1.321v0.152l0.156,1.471l1.31,1.914v0.145v4.132
			l1.186,0.442l2.065,0.586h0.147l0,0l0.146,0.149l0.141,0.146l1.918,2.655v0.148l0,0l1.036,2.646v0.149l0,0v1.761
			c-0.152,1.037-0.447,1.919-0.741,2.51c-0.743,1.033-2.061,1.914-4.122,2.804l-5.009,2.94h-0.146l-9.139,0.587l-0.589,2.217
			l1.622,2.944v0.146v0.145l0.44,3.829l5.009,5.9h0.146l0,0v0.144l2.069,3.389l0.138-0.441v-0.152l1.627-4.564l0,0l0.146-0.148l0,0
			l2.952-3.83l0.142-0.145l3.686-1.768h0.284l2.363,1.472l3.095-0.292l-1.033-5.156l0.593-0.15l2.798-0.295l2.942,0.147h0.3v0.147
			l5.891,2.65l5.012,1.033h0.147l0,0h0.146l1.62,1.178l2.359,0.882v0.151l0,0l0,0l0,0l1.475,1.332l0.883,0.289l1.621-1.477v-0.145
			l2.501-1.914l1.33-2.502l2.352,1.32v0.143v0.158l0.595,1.91v0.437l-0.305,1.181l0.158,0.293l1.466-0.73l2.063-2.062h1.919v0.145
			h0.147l1.318,0.883c0.887,0.885,1.191,1.626,0.887,2.361l-0.146,3.238l0.879,1.621l0.305,0.144
			c3.529-3.825,5.885-5.738,7.364-5.738h3.972l0.888-1.919l3.095-1.47h0.147l3.826-0.292l3.985-2.071v-0.146h2.508l-0.447-1.177
			l0.15-0.297l0.581-0.587l-5.448-11.642v-0.294l-0.147-0.144l2.359-3.239l-0.737-0.737l-3.981-0.736h-0.441l0,0v-0.293
			l-2.507-2.655l0.152-0.593l-0.152,0.148l-0.148,0.144l-2.209-1.466c-1.025,1.322-2.058,2.209-3.232,2.504
			c-1.034,0.442-2.656-0.737-4.861-3.391l-1.186-1.463c-0.146-0.305-1.18,0-2.799,0.579c-2.499,0.884-4.121,1.031-4.858,0.587
			c-0.737-0.729-1.029-2.201-0.737-4.116c0.146-1.628,0-2.507-0.292-2.948l-19.158-1.033c-1.758-0.733-3.232-1.469-3.974-2.209
			l-2.95-0.739c-1.178-0.438-3.385-2.357-6.337-6.041l-1.914,1.628l-2.94-0.893l-7.956,0.145l0,0l0,0L381.775,341.463z"/>
		<path fill="#CDCECD" d="M477.978,470.067c1.317-0.141,2.061-0.737,2.344-1.469v-0.148l0.154-0.441h0.588l2.654-0.143v-1.915
			c-0.731,0-1.474-0.298-2.217-0.888l-4.411-3.979v-0.147l-1.92-5.592l-2.652-2.656c-3.236-0.152-5.74-0.152-7.509,0l-0.597,0.148
			l0.146,1.766v0.297v0.445h-0.437l-2.355,1.027l-0.438-0.299c-1.913-1.913-3.104-2.645-3.84-2.209
			c-5.155,2.508-8.102,3.689-8.971,3.094c-0.605,0.15-1.34,0.737-2.365,1.769l-0.447,0.591l-0.585-0.591
			c-1.476-1.321-2.209-2.501-2.209-3.382c0-0.596,1.034-1.771,2.794-3.684c2.067-2.359,3.095-3.682,3.095-3.984l-0.44-0.73
			c-0.587-0.293-1.767,0.29-3.239,1.464c-1.476,1.042-2.354,1.478-2.943,1.334c-0.301,0-0.594-0.442-0.741-1.174l-0.146-0.304
			l-1.324-2.36l-2.794,1.771l-0.305,0.303l-0.147-0.303h-0.146c-2.057-1.176-3.972-1.914-5.891-2.651
			c-1.323-0.442-2.653,0.146-3.978,1.771l1.324,2.207c0.881,2.207,1.33,3.686,0.881,4.715c-0.143,0.442-0.587,0.885-1.172,0.885
			c-0.889,0.297-2.207,0-3.833-1.323c-1.324-0.88-2.357-1.618-3.239-2.069l-1.766-0.73v0.146l0,0l0.147,0.29v3.245l-2.354,2.651
			v2.506l1.025,2.654l0.145,0.145l-1.62,2.503l-1.031,2.357v0.15l-2.21,2.203l-3.683,8.405l0.146,4.561l-0.146,0.154l-7.958,4.565
			l-0.437,0.881l1.027,2.359v0.146v0.151l-0.738,3.088l-3.23-0.441l-0.739,3.979h-4.132l-0.88,1.472l0,0l-1.182,2.502l-0.732,9.285
			l0.883,1.918l0.15,0.295v1.914l1.761,2.203l0.146,0.3v1.763l4.726-0.291l0.284-0.442v-0.146h0.154V517.8l1.323-1.761l-2.952-2.657
			l-0.29-0.293l-1.624-1.322l-0.141-0.148l-0.148-0.15v-2.947h2.504l0.294-1.027l-1.029-2.947h5.744l10.167-4.864l1.324-2.21
			l0.298-0.732l2.062,0.881h0.154l0.136,0.441l0.888,1.029l1.025-0.146l-0.293-2.205h3.393l3.239,0.582l1.328-2.204l0.146-0.146
			v-0.149l0.291-0.148l3.537-1.031l0.587-5.16l3.681,3.244l1.475,0.299l0.741-0.891l-0.439-11.192v-0.296v-0.588l2.5,0.441h0.146
			c0,0,0.231,0.1,0.292,0.146c0.047,0.029,0.12,0.101,0.158,0.146c1.234,1.655,3.974,7.225,3.974,7.225l5.001-0.587l0.888-0.297
			l0.735-1.772l-1.467-1.173l-0.442-0.59l3.387-1.182l0.297-0.145l0.146-0.146l1.326,1.472l1.174-0.595v-2.211l0.741-0.146h2.506
			c1.762,0.146,3.094,1.027,4.126,2.356l0.292,0.595l1.025-3.539c0.597-0.887,1.767-1.027,3.543-0.296l0.295,0.146v0.15l0.147,0.15
			c0.146,0.139,0.438,0.291,0.594,0.291c0.725-0.291,3.38-2.06,7.652-5.45C474.877,471.84,476.062,470.66,477.978,470.067z"/>
		<path fill="#CDCECD" d="M478.561,383.747l-0.146-0.152l-3.244-2.793l-1.765,0.875c-1.18,2.658-2.801,4.275-4.861,5.011
			c-0.595,0.292-1.319,0.15-1.767-0.292c-0.589-0.735-0.294-2.357,0.731-4.863l-4.863,3.095l-0.141,0.292h-0.151h-4.271
			l-3.827,1.919v0.292l-4.13,0.148l-2.214,1.18l-1.027,2.064l-0.292,0.295h-4.859c-0.883,0-2.796,1.469-5.893,4.562
			c1.471,0.592,2.208,1.18,2.5,1.623l0.146,0.883v-0.148l2.213,8.248l0,0l0.15,0.442v0.589h-0.15l-0.299,0.148h-0.147l-5.885,8.102
			l0.292,2.068c0.878-0.742,1.619-0.893,2.205-0.592c0.743,0.292,1.032,1.474,0.743,3.236c-0.298,2.804,0.143,5.896,1.475,8.842
			l2.059,2.21c0.733,0.733,1.034,1.472,0.879,2.213l-1.024,1.47l1.319,1.77c0.737,1.476,0.156,3.977-1.616,7.516l1.913,3.237
			l0.298,0.743l1.17-0.743c1.927-1.767,3.545-2.211,4.869-1.767c0.885,0.293,1.328,1.031,1.472,1.767
			c0.154,1.03-1.035,2.8-3.684,5.452l-2.061,2.656l1.027,1.613c1.473-1.324,2.654-1.77,3.393-1.474c0.882,0,3.386-0.882,7.661-3.085
			c1.324-0.738,3.099,0,5.302,2.203l0.888-0.442l-0.156-1.761l-0.438-0.296c-0.293-0.442,0-0.894,0.438-1.332l-0.731-2.792
			c-0.15-0.445-0.15-1.033,0-1.479c0.444-0.442,1.029-0.738,1.622-1.031l1.326-1.18l-0.741-1.769v-0.146h0.145v-0.15
			c0.597-0.882,0.597-1.611,0.44-2.059c-0.585-1.032-0.136-1.768,1.044-2.801l1.612-1.471l-0.284-0.298l-0.447-0.446l1.913-0.879
			v-2.357c0-0.884,0.741-2.06,2.794-3.529l0.887-0.739l0,0l-2.205-2.51c-0.734-1.025-0.444-2.354,0.876-3.683v-0.291l4.576-3.828
			l0.141-1.035c-0.882-0.295-1.17-1.916-0.735-4.418c0.595-3.978,2.359-5.896,5.452-6.337l0,0h0.294l1.915,1.037h2.066l1.911-2.363
			l0,0l0,0l0.142-0.147l2.362-1.473l-0.303-2.069v-0.431l0.303-0.299l0.59-0.294l0.739-0.882l0.141-0.147l-1.47-2.505
			c-1.473-1.916-2.801-3.686-3.68-5.742c-0.735-1.334-0.591-2.807,0.448-4.423l-2.666-1.624L478.561,383.747z"/>
		<path fill="#CDCECD" d="M490.636,403.479l-0.29,0.154l-2.506,1.763l-2.207,2.508h-0.146v0.292h-3.242l0,0l-1.769-1.031
			c-2.206,0.593-3.386,2.068-3.828,4.863l-0.146,2.51l1.769-1.621l-1.18,4.857v0.145v0.15l-4.864,4.27
			c-0.741,0.885-1.027,1.618-0.741,2.064l0.887,1.029c1.034,0.888,1.618,1.623,1.475,2.214c0,0.442-0.146,0.882-0.44,1.175
			l-3.095,2.654c0.146,0.737,0.146,1.917,0,3.238v0.438l-0.145,0.15l-1.178,0.448c0,0.733-0.298,1.173-1.039,1.911l-1.622,1.619
			v0.15c0.304,0.736,0.304,1.619-0.289,2.945c0.739,1.476,0.739,2.505,0,2.943l-1.479,1.477l-0.291,0.15l-0.732,0.29v0.298
			l1.023,3.531h0.294c2.51-0.294,5.166-0.294,8.105,0h0.293v0.145l3.25,3.249v0.144h0.146l1.913,5.454l3.978,3.682l1.628,0.583
			l0.137-4.557l3.684,3.677l0.595-0.591l2.657-5.445l0.429-3.097l0.447,0.15h0.294l2.796,0.144l-0.14-2.203v-0.446v-0.292h0.44
			l3.681,0.142c1.915-1.915,2.792-3.536,2.792-4.856l-0.583-5.309l3.249,1.03l0.878-1.472l-1.473-1.473l-0.45-0.589l2.95-2.946
			l0.151,0.295h0.297l1.765,1.033v-0.438l-1.178-2.658l0.438-0.442l0.739-0.443l-0.292-1.031l-1.473-2.798l0.288-0.146l0.299-0.297
			l3.974-2.207l0.152-1.623c-3.396-1.77-5.161-3.24-4.867-3.979c0.154-0.586,0.442-0.736,1.18-0.736l4.42,0.736l0.15-2.654v-0.287
			l2.207-2.213l0.585-1.62c-0.877-0.296-1.472-0.89-2.061-1.474l-0.141-0.289v-0.299l0.141-0.736l-0.141-0.299l-0.298-0.143
			l-0.146,0.143c-0.297,0.592-1.029,1.035-2.062,1.035c-1.617,0-2.948-0.736-3.977-1.773v-0.137h-0.151l-1.18-2.07l-0.295,0.294
			c-0.138,0.886-0.732,1.776-1.759,2.509c-1.921,0.887-3.687,1.178-5.455,0.441c-1.185-0.441-1.911-1.33-2.355-2.648l-0.44-2.947
			c-0.449-2.807-1.034-4.418-1.923-4.869c-0.88-0.585-1.769-0.735-2.506-0.585l0.152,2.505L490.636,403.479z"/>
		<path fill="#CDCECD" d="M513.913,361.35c-1.614,0.737-2.942,1.329-3.968,1.468c-0.886,0-2.361-0.288-4.424-1.025l-3.386-0.442
			c-1.035,0.442-2.219,1.915-3.839,4.422l2.211,4.711l-3.675,2.063h-0.157l-2.939-0.886c1.172,2.211,1.468,3.543,1.031,4.124
			l-0.299,1.182c-0.732,1.765-1.327,2.798-1.914,3.391l-5.155,4.562l1.329,0.741l-0.889,0.735c-1.178,1.027-1.475,2.207-0.88,3.1
			l3.535,5.444h0.141v0.144l1.626,2.947v0.148l0.146,0.147l-0.146,0.298v0.297v0.145l-0.294,0.297c0.734,0,1.328,0.292,2.062,0.736
			c1.174,0.733,2.06,2.797,2.498,5.887l0.595,2.946c0.294,0.739,0.587,1.18,1.321,1.476c1.185,0.59,2.656,0.438,3.982-0.44
			c0.736-0.438,1.172-0.884,1.031-1.329l-0.143-0.139v-0.303l2.5-1.769l0.294,0.297l1.913,3.242
			c0.739,0.585,1.475,0.878,2.654,0.878l0.734-0.137l0,0l-0.587-1.776l2.799,1.18h0.738h0.146l0.145,0.296l2.657,2.062l0.731-1.181
			l-0.146-5.002l0.146-0.154l0,0l1.772-2.207c0.143-0.291,0-0.882-0.737-1.617l-0.444-0.439l0.294-0.299l0.15-0.293l0.44-0.148
			l3.68-6.045l0.294,0.152l0.737,0.145l0.293,0.15v0.289l-0.293,2.359h0.293l4.128-3.68l-0.295-1.921h-0.732l-1.475,0.152
			l2.502-6.778l-2.21-0.292l0,0h-0.292v-0.292l-0.733-0.884c-0.448-0.89-0.448-1.628,0.143-2.363l3.537-0.147h2.209
			c0-0.736-0.444-2.063-1.769-4.271l-3.095-1.029l3.241-3.098v-0.729l-1.62,0.29h-0.585v-0.146l-0.146-0.145l-0.148-0.3
			c-0.45-1.473-1.327-2.656-2.659-3.098l-5.889,0.152l-2.51,2.945v0.148l-0.737-0.148l-9.275-2.945l8.983-2.355
			c0.593,0,2.061-1.474,4.57-4.428l-3.097-2.207L513.913,361.35z"/>
		<path fill="#CDCECD" d="M478.854,335.714h-0.147v-0.141c-1.617-5.602-3.089-8.693-4.118-9.138l-5.157-1.763
			c-2.948-0.885-5.02-1.479-5.896-2.066c-1.475-0.88-3.381-2.945-5.597-6.34h-0.883l0.146,0.148
			c0.286,1.182,1.476,3.246,3.979,6.191l0.146,0.148l0.147,0.293l-2.365,4.27c-0.887,1.621-1.758,2.358-2.646,2.062
			c-0.587-0.293-1.769-1.617-3.684-4.122l-2.503-0.737c0,0.737,0.444,2.205,1.47,4.566v0.148v0.145v0.154v0.142l-0.438,1.62
			l-2.656,1.18l0,0l-0.881,0.299c-0.444,0.437-0.444,1.172-0.301,2.057c0.301,2.211,0.154,3.539-0.294,4.129
			c-0.293,0.291-0.439,0.291-0.731,0.291H446.3l0,0l-2.948-0.586c0.15,0.586,0.594,1.172,1.326,1.624
			c1.475,1.322,2.65,3.233,3.84,5.442l0.136,0.448l0,0l1.326-0.294c1.622-0.301,3.099,0,4.562,1.029l1.626,1.918l0.15,0.143v0.146
			h-0.15l-0.15,3.831c0.447,0.591,0.741,1.33,0.447,1.915c-0.297,0.739-0.888,1.18-1.923,1.33c-1.172,0-1.761,0.73-2.059,2.201l0,0
			l0,0v0.15l-1.174,2.499l1.769,1.769l3.827,0.743h0.297l0,0l1.908,2.06l-2.352,3.534l5.448,11.793l0.146,0.29l-0.878,1.031
			l0.291,0.882h0.144l10.017-6.331l-1.616,2.944c-1.322,2.21-2.061,4.128-2.361,5.446c1.772-0.726,3.249-2.06,4.13-4.408
			l0.146-0.297h0.146l2.799-1.479l0.151-0.296l3.974,3.538l4.423,0.15l0.146,0.143l2.07,1.33l5.438-4.717
			c0.448-0.444,0.889-1.324,1.476-2.8l0.591-1.172c0.15-0.595-0.591-2.067-2.066-4.573l-1.318-1.918l6.474,2.215l1.916-1.037
			l-1.916-4.118l-0.145-0.151l3.245-4.271l-1.332-2.062c-1.328-1.476-2.207-2.215-2.792-2.215l-0.301,0.16l-1.614,1.61l-0.294-0.147
			h-0.289l-2.661-0.884l-0.741-2.354c-1.023-0.15-2.058-0.735-2.942-1.769l-1.616-1.035c-1.328-0.585-2.06-1.32-2.06-2.062
			c-0.302-0.881,0-1.913,0.878-3.24c1.622-2.357,2.501-4.274,2.501-5.742v-1.917l1.034,0.143l3.389,0.148
			c0.292-0.291,0.741-1.762,1.326-4.412l-1.034-0.154c-2.352,1.623-4.12,2.655-5.447,3.094c-1.623,0.447-3.682-0.438-6.632-2.498
			v-0.15L478.854,335.714z"/>
		<path fill="#CDCECD" d="M462.792,237.013l-0.438-0.296c-0.733,0-1.467,0.741-2.199,2.357l-0.447-0.298l-0.147,0.147l0.147,0.15
			l-1.327,1.326l-0.587,0.294l-1.625,0.886l-0.15,1.031c0.15,1.616-0.294,2.8-1.027,3.243l-0.587,1.766
			c-0.147,0.443-0.292,1.619-0.147,3.239l0.881,4.422c0.292,0.587,1.031,1.322,2.51,1.911l3.379,0.885
			c0.885,0,2.064-0.44,3.387-1.319l-0.877-1.62v-0.297v-0.148l0.294-1.326v-0.144l1.627-2.946h2.794l0.738-0.15
			c-0.298-0.887-1.182-2.506-2.8-4.568l-1.033-1.479c-0.597-1.174-1.18-2.499-1.326-4.264
			C463.535,238.485,463.09,237.599,462.792,237.013z"/>
		<path fill="#CDCECD" d="M449.387,231.415l-0.289,0.441l-0.444-0.145l-1.915-0.297l-0.146,0.883v0.443h-0.44l-3.099,1.178
			l-0.143,0.442c-0.438,1.028,0,1.919,1.034,3.097l0.294,0.295l-0.294,0.439c-0.892,1.473-2.212,2.943-3.691,3.975
			c-0.583,0.444-0.737,0.891-0.737,1.33l1.031,1.323l1.629,0.591l1.325,0.146c1.765,0,2.944,0.148,3.383,0.883l1.475,1.033
			c1.027,0.438,1.919,0.734,2.653,0.734c0.589,0,1.32-0.441,1.919-1.621l1.18-1.324l0.879-2.8l-0.734-3.238l1.173,0.294l1.924,0.146
			l0.871-0.591l0.304-0.739l-1.472-4.271l0.433-1.467c0.45-0.885,1.039-1.182,1.622-1.328h0.146l-0.293-1.033l-3.535,0.146v-0.146
			l-3.242-2.203c-1.322-0.891-2.651-1.039-3.827-0.74l-0.447,0.296c-0.286,0.585,0,1.18,0.888,1.472
			C449.535,229.646,449.835,230.382,449.387,231.415z"/>
		<path fill="#CDCECD" d="M504.342,193.997l-1.77,2.355c-0.29,0.445-0.437,1.322-0.146,2.799v0.887h-3.535h-0.146l0,0l-2.508-0.74
			l-1.91,2.949l-0.297,0.299l-2.363,1.465l-2.062,2.211l0,0l-0.291,0.446l0,0l-3.681,4.267v0.15h-0.146l-2.802,1.473l-2.209-1.473
			v-0.15l0,0l0,0l-2.062-2.212l-1.324-0.729l1.034,6.039l0.877,3.244l-2.205,2.056l-3.097,4.571v1.91l-0.146,0.146h-0.147
			l-0.741,1.182l0.587,1.031h1.182l4.274,1.178h0.147h0.146v0.146h0.15l0.887,0.885l1.176,0.593l0,0h0.287v0.142
			c0.45,0.596,0.743,1.182,0.743,1.77l0.44,1.33l4.568,1.319l1.328-0.294l1.321-1.759l3.537-6.782h0.15v-0.148l1.614-2.207
			l0.154-0.146l2.804-1.327l1.911-0.148c0.733-1.178,1.321-1.769,2.062-1.769c0.437,0,1.18,0.295,2.352,0.885l0.293,0.148v0.154
			l2.505,3.818v0.152h0.152v0.294l0.291,2.794l-0.145,3.098l0,0l-0.741,2.658l0,0v0.285H506.7l-1.92,2.357l-0.878,1.92l0.146,3.234
			h0.293l1.027-0.432l1.18-1.042l0.294-0.29l0.154-0.295l1.473,1.324v0.148v2.355h-0.155l-1.317,0.595l-0.448,0.589v1.326
			l-0.146,0.148l0,0l-0.881,1.615h-0.152l-0.295,0.148l-1.172,0.15l-1.184,0.297l-0.877,1.619l0.136,0.293l4.865-0.584l0.886-0.742
			l1.622-4.271l0,0l10.897-11.196h0.303l2.354-1.176l0.146-0.154v0.154h1.915l1.911-0.448l2.072-0.879l1.471-1.625l2.357-6.479l0,0
			v-0.148l9.129-9.58v-0.143l-0.579-5.157c-0.444-0.152-1.043-0.444-1.344-0.882l-0.293-0.298v0.15l-1.464,0.147
			c-0.734-0.298-1.178-0.59-1.769-1.325l-0.438-0.888v-0.143l-0.156-0.149v-7.958c-0.875-0.292-1.763-0.883-2.792-1.916
			l-1.915-2.062l-1.769-2.502c-0.294-0.59-0.294-1.471-0.151-2.801l0.151-0.736l-1.033-1.33l-0.142,1.186l-1.336,2.502h-0.438
			c-1.025,0-2.211-0.146-3.096-0.588c-0.882-0.296-1.326-1.033-1.326-1.914v-0.589h-0.735l-2.796,0.733l-2.066-2.061l-0.733-0.15
			l-0.739,0.738l0.886,1.473l0.29,0.438l-1.47,3.099h-0.145v0.148h-0.146l-2.651,2.945l-0.152,0.143h-0.286l-4.132,0.443
			L504.342,193.997z"/>
		<path fill="#CDCECD" d="M507.584,148.915l-0.587-3.094l-1.476,0.887h-0.152l-3.527,1.322l-0.146-0.287l-0.595-0.154v1.621
			l-0.146,0.148l-1.769,2.648h-0.147v0.155h-0.146l-2.654,2.209h-0.288v0.292l-0.444-0.292c-1.769-0.745-2.95-1.628-3.243-2.364
			c-0.294-0.293-0.44-0.293-0.732-0.445l-1.925,0.296l-1.174,1.186l3.099,2.647l2.501,1.029l0.146,0.15h0.15l0.142,0.293v0.148
			l0.439,2.952h0.156v4.558l0.587,2.662l1.766,4.12l2.062,1.915l1.622-1.182l1.182-1.467v-0.148h0.145l2.061-2.507l1.769,1.618
			v0.148l0,0l0,0v0.146l1.767,3.391l2.216,0.883l1.173,3.537v0.146v0.148l-0.14,3.238v0.145h-0.154l-0.879,2.952l1.62,1.472
			l1.765-0.881l1.762-1.772l0.447,0.298l1.478,0.443l0,0l0,0l1.767,1.615l1.903-0.441c1.481-0.441,2.217,0,2.666,1.031v1.328
			l0.288,0.146l2.066,0.588l0.876-1.914v-0.738c0-0.584,0.147-1.175,0.599-1.321l1.174,0.146c1.618,0.733,2.359,1.765,2.359,2.944
			l-0.15,1.027v1.769l1.624,2.365l1.906,2.056c0.6,0.734,1.328,1.033,2.069,1.333h0.293c0.444,0.29,0.741,1.028,0.741,2.647v6.632
			c0.296,0.585,0.734,1.03,1.175,1.174h0.291c0.887-0.442,1.478-0.294,2.217,0.448l0.438,0.283c0.743,0.156,1.324,0.746,1.477,1.922
			l0.292,3.688l3.379-6.93c1.035-3.68,2.216-5.889,3.832-6.183c1.334-0.446,3.4,0.294,6.049,1.767l9.569,0.736l0.294-2.062
			l-4.414-4.276c-2.059-1.179-2.946-2.057-2.656-2.647l3.397,0.145c3.086,1.033,6.036-0.731,8.837-5.744l0,0h0.147l3.243-3.093
			l0.438-6.778v-0.736h0.44h0.291l2.512-0.59h0.437l0.304,0.146v0.152l5.151,5.45l1.48-0.597l0.282-0.884l-2.798-2.647l-0.442-0.295
			l-0.293-0.442l4.274-2.501l-0.294-6.188l-1.767,0.291l0,0h-0.156l-2.354-1.178c-0.879-0.145-2.063-0.741-3.825-1.768
			c-0.888-0.439-1.477-0.887-1.477-1.476v0.155c0,0.586-0.156,0.881-0.449,1.031c-0.438,0.289-1.021,0.439-2.055,0.439h-0.15
			l-0.147-0.15h-0.143l-2.062-1.476l-1.769,1.476c-0.884,0.734-1.475,1.322-1.475,1.916l0.888,1.912
			c0.44,0.587,0.44,0.889,0.294,1.328c-0.294,0.442-1.031,0.881-2.062,1.029l-0.886,0.44c-1.037,0.299-1.919,0.145-2.501-0.589
			l-0.301-0.438l-3.831-3.976c-1.769-0.597-2.801-1.33-3.239-2.207c-0.294-0.441-0.44-0.892-0.294-1.184
			c-0.146-1.328-0.44-2.211-0.737-2.652l-0.737,0.441l-0.146,0.296c0,0.444,0.146,0.886,0.59,1.474l0.147,0.293l0.146,0.148
			l-0.146,0.292l-2.066,3.392l-3.383-0.738l-0.737-0.443l0,0v-0.441c0.294-0.582,0.294-1.318,0-2.061l-0.447-1.182l-2.804-2.061
			l-0.142-0.145c-0.287,0.438-0.585,0.438-0.882,0.582l-2.647-0.288c-0.89-0.149-1.477-0.294-1.763-0.881
			c-0.152-0.301-0.152-0.892,0.136-1.628l0.15-0.436l-1.178-2.064l-5.151,0.292c0.145,0.735,0,1.183-0.296,1.772
			c-0.152,0.436-0.737,0.587-1.186,0.587c-0.731,0.294-1.621,0-2.359-0.737v-0.142h-0.141c-1.182-1.328-1.622-2.362-1.622-3.245
			l-1.031-1.476l-1.469,1.029c-1.327,0.735-2.215,0.735-2.659,0.154l-0.587-0.154l-1.473,0.154l-3.976,1.319
			c-0.885,0.594-1.626,0.737-2.209,0.737h-0.444c-1.471,0-2.355-0.444-2.946-1.027l-2.355-1.927L507.584,148.915z"/>
		<path fill="#CDCECD" d="M599.222,121.218l-2.212-14.436l0.141-0.296h0.142c1.034-1.618,1.627-2.944,1.328-3.972l-0.587-0.887
			c-1.61-1.031-2.354-3.392-1.912-7.367h-1.328c-1.034-0.146-2.209,0.291-3.383,1.033c-1.188,0.88-1.919,1.915-2.065,2.652
			c-0.587,1.766-2.503,2.95-5.748,3.972l-0.735,4.568v0.146l-0.15,0.149l-1.609,2.947l-0.156,0.29h-0.146h-0.15l-14.585,2.663
			h-0.146h-0.438v-0.302l-4.27-4.569l1.33-1.325l-1.631-2.205l-2.062-1.474l-0.146-0.148h-0.145v-0.145v-0.148l-0.741-3.981
			l-3.821,0.296l-0.296-0.296l-3.245-1.911l-11.641-2.061l-9.718-0.445l-0.292,0.293c-0.447,0-0.741-0.146-0.888-0.437
			l-5.594-12.675c-0.598-1.033-2.95-4.275-7.667-9.873c-4.414-5.448-6.924-8.393-7.655-8.981l-8.252-8.107l-1.328-0.739
			l-10.316-0.141h-0.141l-0.298-0.294c-1.029-0.737-2.496-1.474-4.711-1.917c-1.913-0.74-6.333,0.735-13.261,4.421l-0.293,0.146
			l0.293,2.062h0.146v0.146h-0.146v0.299l-1.182,2.359v0.145h-0.146l-0.138,1.622c0,1.317,0.284,2.796,0.725,3.974l1.039,0.737
			l2.21-0.146l1.914,0.439l0.733-0.59c0-1.322,0.446-2.35,1.031-2.65h1.479l5.146,1.475l1.184,0.146l-1.621,2.802v3.387
			c0,0.734,1.328,2.504,3.982,5.006c1.616,1.182,2.647,1.772,3.535,1.919l0.732-0.146l0.741-0.298l2.5-2.502l1.914-1.182v-0.146l0,0
			l3.976-0.591l1.185-2.503l3.534-2.063l3.093,1.769v0.146l0.293,0.148l2.948,5.013l1.18,3.385v0.442l-0.594,4.128l1.188,2.792
			v0.447l-0.888,3.238v2.954c0.888,2.649,1.326,4.412,1.326,4.856l-0.299,2.5l0,0v0.15l-1.466,2.061v0.15l0,0l0,0l-1.476,1.767
			l-0.155,3.241l0.89,3.393l0,0l0.146,0.141l-0.146,0.152l0,0l-0.89,5.154l-0.73,0.739c-0.587,0.438-1.328,0.438-2.215,0h-0.295
			l-1.322-1.481l-1.47,0.446l-1.915,2.062l-2.07,6.046v0.144l-0.135,0.148l-2.072,1.764h-0.291l-1.184,0.147l-2.354,3.39
			l1.178,2.211l0.297,0.294l2.939,3.687v0.146v1.172l3.241,0.445l0.591,2.947v0.154l0.446,3.529l0.888,0.735l2.938-0.882
			l2.804-1.626l0.438-0.29l1.037,5.011l1.324,1.915l0.293,0.145l1.033,2.066l2.203,1.763c0.301,0.446,1.033,0.446,1.772,0.446
			l0.733,0.146l1.325-0.593c1.029-0.446,2.069-0.88,3.235-1.029l0.893-0.444l2.062-0.145c0.737,0,1.031,0.145,1.479,0.589
			l2.94-1.917h0.295l0.3,0.148l0.145-0.148l0.294,0.291c1.178,1.331,1.769,2.512,1.769,3.102l1.326,2.207l1.027,0.293h0.146h0.146
			l-0.293-0.293c-0.147-0.734-0.147-1.18,0-1.47c0.293-0.448,0.879-0.737,1.774-0.737l5.442-0.148l0.156-0.144h0.292v0.292h0.288
			l1.627,3.095l-0.152,1.614h-0.143l2.062,0.443h0.146c-0.146-0.443-0.146-0.734,0.147-1.028l0.741-0.151l4.857,3.391
			c0.444,0.444,0.738,1.029,0.894,1.77l0.138,2.063l1.618,0.296l1.038-1.773c-0.443-0.88-0.739-1.766-0.587-2.355
			c0.144-0.594,0.282-1.031,0.877-1.326l0.44-0.437c0-0.301,0.146-0.448,0.44-0.591l1.328,0.143c0.731,0.448,1.328,1.916,1.62,4.422
			v0.292l0.291,0.155c0.149,0.586,1.039,1.031,2.363,1.471h0.144l0.143,0.143l4.715,4.863l0,0l2.217-0.741l-0.294-0.735
			c-0.595-0.734-0.739-1.47-0.739-1.912c0-1.033,0.739-2.057,2.211-3.088l2.508-2.214l2.946,2.059h0.585l0.585-3.24V160.7
			l0.586-0.146l2.362,0.297c0.45,0.438,0.741,0.881,0.741,1.62c0,0.585-0.438,1.325-0.888,1.911l0.45,0.303
			c1.465,0.736,2.646,1.32,3.527,1.471h0.146l0,0l1.921,1.027l1.466-0.151l-2.207-10.747c-1.473-0.884-2.794-2.658-4.118-4.723
			c-1.039-1.76-0.452-4.265,1.911-7.211c1.319-1.473,2.948-2.948,4.715-4.42l0,0l0.147-0.295h2.062l0.146,0.295l1.769,0.738h3.69
			c1.465-0.738,2.792-2.947,4.263-6.484C599.802,132.123,599.802,127.849,599.222,121.218z"/>
		<path fill="#CDCECD" d="M514.214,267.806l-0.301,0.145c0,0.738-0.437,1.173-1.174,1.173l-5.742-0.581
			c-3.981-0.736-6.453-2.25-7.959-2.066c-2.772,0.346-8.104,7.663-8.104,7.663l0.304,3.241v0.295l-0.743,0.15
			c-6.329,0.876-9.726,0.289-10.174-1.777l-0.733-9.128l-7.362-0.444l-3.095,6.483l-0.294-2.8c-0.146-2.209-0.587-3.535-1.03-3.826
			l-3.248,1.617l-1.469,1.91l-0.142,0.152h-0.156l-2.935,1.029c-3.246,2.654-6.049,5.453-8.548,8.402l-7.808,10.605l1.618,3.679
			v0.589l0,0l-0.147,0.148c-0.598,0.891-0.295,2.207,0.586,3.68c1.034,1.918,1.77,3.984,1.77,6.34v0.445l-6.331,3.684v1.466
			l2.948,1.331c0.294,0.143,0.43,0.441,0.43,0.588v0.294c-0.136,0.735,1.046,1.769,3.251,2.8l5.452,1.475l1.618-1.031l1.769-2.508
			l1.474-4.27l4.269,1.617l0.585,0.443v0.296l0,0v0.146c-0.731,1.767-0.287,2.946,1.037,3.679l4.715,0.152
			c1.622-0.294,2.94-0.885,3.827-1.622c0.587-0.737,1.475-0.882,2.799-0.737c1.626,0.295,3.1,0.888,4.125,2.207l1.026-2.499
			l0.302-0.442h0.146c0.731-0.445,1.182-1.18,1.769-2.211c0.448-1.029,1.18-2.063,2.357-2.801l2.064-1.178l0.141-0.145l0.152,0.145
			h0.146l1.182,0.305l0,0l0.282,0.139l1.632-7.371v-0.141l2.354-0.446c2.355-1.622,3.535-2.938,3.389-4.122l-0.438-2.209
			c-0.595-1.473-0.595-2.508-0.294-2.948c0.444-0.444,0.732-0.585,1.171-0.585c1.034,0,2.216,0.297,3.397,0.881l0.294-2.354v-0.301
			l0.141-0.144l2.508-1.178l0.3-1.318h-1.474l-0.301-0.156l0.154-0.741v-0.438l0.146-0.297h0.44h0.29
			c1.026,0,2.208-0.586,3.537-1.764l9.275-6.63h0.301l2.946,1.325l1.182-0.147l-0.737-3.089v-0.298l0.148-0.15l0.145-0.14
			l1.61-2.656l-0.429-0.293l-1.034,0.293v0.146h-0.147l-2.95,0.44h-0.733h-0.143v-0.144l-0.158-0.443l-0.585-1.029H514.214z"/>
		<path fill="#CDCECD" d="M527.328,355.459l1.025-1.176l0,0l0,0v-0.15l-3.683-2.95c-1.913-1.324-3.537-1.769-4.715-1.614
			l-1.621,0.591v3.091c-0.294,1.033-0.734,2.209-1.769,3.091l-0.587,0.588l1.475,1.768h0.146l0.44,1.182l1.772,0.732
			c1.025-0.732,1.771-1.027,2.506-0.885l3.094,0.59l0.143-1.027C525.702,357.233,526.438,356.048,527.328,355.459z"/>
		<path fill="#CDCECD" d="M505.962,323.048c-1.62-1.321-2.946-3.681-4.267-7.365c-4.278,0-6.787-0.742-7.959-2.212
			c-0.888-1.319-2.656-2.209-5.155-2.946l-0.741-0.148l0.741-2.504l-0.447-0.296l-0.734-0.147c-1.767,0.889-2.946,1.775-3.39,2.947
			c-0.584,1.178-1.325,2.213-2.211,2.945c-0.735,2.361-1.478,3.539-2.211,3.539c-0.437,0.151-0.733-0.152-1.027-0.594l-1.178-1.031
			c-0.882-0.437-1.765-0.881-2.506-0.881l-1.472,0.298c-1.034,1.03-2.51,1.763-4.715,2.056l-5.601-0.293
			c-1.762-0.879-2.505-2.65-2.064-4.861l-2.062-0.734l-1.025,2.945l0,0v0.152l-0.146,0.145l-0.44,0.591l1.325,0.288h0.286
			l0.146,0.152v0.143c2.51,3.391,4.425,5.607,5.448,6.188c0.597,0.304,2.375,0.887,5.46,1.771l5.303,1.907
			c1.621,0.741,3.239,3.985,5,9.729c2.363,1.623,3.845,2.361,4.871,2.211c1.033-0.441,2.794-1.469,5.303-3.096l0.141-0.148
			l0.152-0.143l0.292,0.143l2.656,0.596h0.294v0.438l-0.147,0.445c-0.876,3.533-1.621,5.598-2.216,6.187l-3.533,0.148v0.149
			c0,1.473-1.033,3.678-2.941,6.479c-0.596,0.883-0.739,1.619-0.739,2.062l3.387,2.354c0.889,1.035,1.474,1.33,2.215,1.33h0.733
			l0.741,2.506l1.612,0.582l0.889-0.875c0.438-0.443,1.034-0.739,1.475-0.591c1.464,0,2.657,0.884,4.124,2.792l0,0l1.325,1.774
			l0.146-0.148c0.877-0.581,2.498-0.442,4.861,0.29l3.827,0.89l3.535-1.18l1.476-0.737l1.032-0.738l-0.886-1.027
			c-0.294-0.594,0-1.324,0.739-2.063c0.881-0.735,1.468-1.474,1.468-2.361v-1.763c-0.294-0.891-0.136-1.477,0.156-1.767
			c0.291-0.593,1.322-0.888,2.504-1.18c1.908-0.296,4.262,0.587,7.062,2.946l-1.023-2.946l-1.625-2.209l-0.294-2.657l-2.506-0.443
			h-0.146v-0.139l0,0l0,0l-6.629-3.837l-3.241-0.591v-0.73l-0.14-3.389C509.06,328.208,507.285,324.374,505.962,323.048z"/>
		<path fill="#CDCECD" d="M480.476,232.446l-1.181-0.59l0,0h-0.144l-0.882-0.882l-4.13-1.178h-1.027l-0.741,0.286l-1.62-3.09
			l0.145-0.143l1.184-1.475v-1.77l0.146-0.293l0.732-1.172l-0.587-0.303l-2.205-0.441l0,0l-3.839-0.592h-0.289l-2.209-2.209v-0.141
			l-0.739-1.478l-0.142-0.44l1.174-3.097v-2.209l-0.146-0.589l-1.184,1.176l-0.146,0.146l-0.292,0.444l-0.293-0.444l-0.44-0.146
			l-2.205-1.765l-0.305-0.298v-0.293l-0.433-3.242l-1.031-1.621l-2.218,0.146l-1.317,2.361l-0.156,0.295l-0.146,0.144l-3.53-0.733
			l-0.591,3.241v3.239l-0.152,0.147l-1.909,2.942v0.299l-0.298,0.146h-0.15l-2.205,0.149l-2.207,1.772l-0.293,0.287l0,0h-0.296
			l-0.155-0.141l-4.123-1.334l-0.587,1.475v0.148l-1.772,2.955c-0.289,0.581-0.733,0.88-1.17,1.025l-1.769-0.296l-2.359-1.032
			l-0.444-0.294l-0.146-0.147v-0.148l-0.438-3.535l-0.743-2.646l-0.44-0.744l-1.032,2.061l0,0l0,0l-1.764,2.367l-1.471,3.391v0.135
			l0,0v0.154h-0.156l-1.323,1.914c0,0.588-0.443,1.469-1.332,2.797l0.889,3.387l4.421,4.861l0,0l1.478,3.096v0.291l-0.147,0.298
			h-0.155l-1.175,1.474l-0.291,0.299l-2.948,0.587l0.293,2.355l2.217,1.18l3.236,0.737l0.884,2.941l0,0l0,0v0.148v0.148
			l-0.741,5.006l0,0v0.151l-1.172,2.208v0.448h-0.303l-3.673,0.579v1.478l-1.031,3.247l-0.448,3.677l0.738,2.067l4.569,2.793
			l0.147,0.152l1.913,3.239v0.148l0.146,0.149l-0.146,0.145l-2.354,5.154l-0.593,1.478l0,0l-1.472,3.385l-0.591,2.651l-0.146,0.295
			v0.15c-0.733,0.591-1.182,1.182-1.475,2.055c-0.147,0.301-0.147,0.595,0.137,0.891l0.156,0.15l1.476,1.611l0,0l0,0l0.741,1.184
			l0.293-0.145l0,0l0.146,0.437v0.154v0.435l0,0v0.148l0,0l0,0l0.291,0.891l1.33,0.438l5.303,1.18c1.769,0,3.388-0.441,5.156-1.18
			c1.769-0.737,3.387-0.886,5.159-0.588l0.294-1.033l-1.769-3.978l-0.15-0.294h0.15l8.393-11.637l8.984-8.695h0.146l2.804-1.027
			l1.475-1.622v-0.151c1.182-0.876,2.205-1.473,3.398-1.911l-0.896-0.741l-1.916-1.912v-0.143h-0.146l-1.471-1.779l-0.151-0.294
			V259.7l0.736-0.886l-1.908,0.444l-4.126-1.029c-1.627-0.738-2.652-1.626-2.944-2.653c-0.897-2.653-1.18-5.011-1.033-7.075
			c-0.595,0.738-1.33,0.891-2.065,0.891l-3.101-0.744l-2.062-1.467l-2.498-0.594h-1.175c-0.741,0-1.629-0.291-2.212-0.881
			c-0.881-0.589-1.33-1.184-1.478-1.77c-0.287-1.184,0-1.918,1.029-2.657c1.031-0.731,2.217-1.909,3.249-3.383
			c-1.032-1.327-1.477-2.655-1.032-3.978l0.143-0.146c0.146-0.74,1.332-1.326,3.545-2.061c0.138-0.737,0.429-1.184,0.731-1.33
			l2.207,0.146l-0.291-0.293c-1.476-0.885-1.916-1.912-1.184-3.094l1.184-0.888c1.318-0.44,2.944-0.294,4.562,0.597l3.387,2.35
			h3.093l1.044,0.883l0.284,1.186c0,0.738-0.44,1.178-1.023,1.178c-0.737,0-1.035,0.733-1.191,1.617l1.483,3.535
			c0.878-1.318,1.769-2.063,2.646-2.209c0.438,0,1.027,0.3,1.476,0.891c0.438,0.732,0.888,2.055,1.18,3.385
			c0.146,1.614,0.585,2.946,1.029,3.682l1.187,1.622c1.764,2.212,2.794,3.827,3.086,5.157l5.752-0.734l2.498-1.328l2.359-2.946
			l1.031-2.796v-0.154v-0.148l0.733-2.944v-0.15l0.154-0.29h0.147l2.206-1.469l0.44-0.3l-0.146-0.148l-3.688-1.182h-0.298v-0.146
			l-0.731-2.21L480.476,232.446z"/>
		<path fill="#CDCECD" d="M406.373,315.536h-0.152l-11.194,4.564l-3.389,3.242c-0.587,5.01,0,7.953,1.772,8.837l3.236,2.059h0.146
			v0.155l0.899,5.443c2.788,3.686,4.699,5.602,5.734,6.049l3.243,0.734l0.442,0.146v0.148c0.44,0.58,1.476,1.178,3.385,1.766
			l8.843,0.441c6.483,0,10.164,0.446,10.901,1.18c0.737,0.586,0.885,2.061,0.737,4.27c-0.146,1.477,0,2.357,0.147,2.502l3.243-0.732
			c2.497-0.882,3.972-0.882,4.715-0.143l1.17,1.472c1.768,2.208,2.954,3.087,3.248,2.94c0.873-0.295,1.919-1.166,2.944-2.646
			l0.292-0.441l2.648,1.619l1.626-1.329c0.442-2.058,1.471-3.089,3.243-3.241l0.734-0.288l-0.294-0.593l-0.293-0.299l0.139-0.142
			l0.154-3.682c-1.182-1.778-2.654-2.363-4.274-2.073c-1.622,0.447-2.796,0.447-3.244-0.142c-0.293-0.438-0.293-0.733-0.293-1.324
			c-1.035-1.771-2.062-3.243-3.383-4.566c-1.769-1.478-2.213-2.798-1.769-4.128l0.288-0.44l4.131,0.735l-0.303-2.5
			c-0.145-1.475,0-2.512,0.743-3.248c0.292-0.586,1.033-0.878,1.767-1.025l1.767-0.592v-0.73c-1.326-2.809-1.767-4.861-1.176-5.746
			l0.885-0.74c0.443-0.152,1.913,0.146,3.974,0.88l0,0l0.146,0.147v0.299c1.622,1.907,2.51,3.093,2.95,3.389l2.802-4.568
			c-2.505-3.094-3.829-5.305-4.278-6.183l-2.215,1.468l-0.282-0.292l-5.9-1.479h-0.146v-0.141c-2.51-1.182-3.974-2.506-4.119-3.834
			l-3.546-1.618v-3.391l6.485-3.831c-0.284-1.764-0.732-3.535-1.466-5.012l-1.031-2.055l-4.429,0.437
			c-2.061,0.882-3.974,1.33-5.887,1.33l-4.57-1.034v-1.624l-0.732-0.142l-1.33-0.438l-0.291-0.891l0,0v-0.148l0,0l0,0l-0.146-0.435
			v-0.154v-0.437l-0.293,0.145l-0.298,3.827l-0.15,1.33c-0.293,0.735-0.587,1.182-0.293,1.47c0.741,1.033,0.583,2.215-0.147,3.244
			l0.591,2.502l-0.15,0.154l-0.293,0.15l-1.769,1.61v3.391l-0.44,0.146c-3.24,1.472-5.449,2.209-6.779,2.209l-6.481-0.442
			l-2.792,2.508H406.373z"/>
		<path fill="#CDCECD" d="M534.25,437.366c-4.717,3.387-8.104,7.659-10.316,12.824c-1.917,4.412-3.383,6.621-4.417,7.215
			l1.034,8.105v0.143l0,0l-0.737,5.594c-0.297,1.771,0,2.949,0.435,3.246l6.034,3.979l0,0h0.156l0.146,0.436l0,0
			c0.291,1.326,1.178,2.508,2.363,3.973c0.585,0.898,1.318,1.332,1.909,1.636l0.889-9.731v-0.291l4.272-10.311l1.473-12.229v-0.15
			l0.147-0.142l1.318-3.251l-1.029-2.796v-0.145h-0.141l-0.296-3.832l0.147-0.142l0.148-0.152l0.731-0.884l0.438-1.029
			L534.25,437.366z"/>
		<path fill="#CDCECD" d="M389.136,523.55l-0.448,0.73v0.16l-0.138,0.287l-6.045,1.472l0.294,0.739l1.919,2.205
			c-0.142,0-0.444,0.152-0.589,0.152l-2.798,1.475l-4.42,3.379c-1.475,1.773-1.178,5.013,1.029,9.877l4.422,0.441h0.143v0.146
			l4.426,2.066l4.707-0.742c1.913-0.438,4.13-2.208,6.932-5.593h0.146l0.293-0.3l2.062-0.588l-0.591-6.19v-0.29l2.649-3.834v-0.145
			h0.146l2.069-1.622c0.29-1.767,0.144-3.387-0.595-4.71c-0.587-1.18-1.324-1.621-2.06-1.621l0.297,2.211l-3.979-0.744l-1.765,1.037
			h-0.15l0,0H389.136z"/>
	</g>
</g>
<rect x="-0.371" y="0.608" fill="none" width="599.993" height="599.996"/>
<path opacity="0.4" fill="#FFFFFF" d="M380.432,422.102c0,33.183-26.9,60.084-60.079,60.084c-33.188,0-60.077-26.901-60.077-60.084
	c0-33.174,26.889-60.069,60.077-60.069C353.531,362.032,380.432,388.928,380.432,422.102z"/>
<path opacity="0.4" fill="#FFFFFF" d="M337.099,275.039c0,28.701-23.269,51.961-51.965,51.961c-28.697,0-51.953-23.26-51.953-51.961
	c0-28.698,23.256-51.957,51.953-51.957C313.83,223.082,337.099,246.341,337.099,275.039z"/>
<path fill="#293C54" d="M451.316,236.778c0,0-65.903,48.329-160.546,53.373l-0.716,26.829l-30.311-43.47l32.318-33.509l-0.679,27.58
	C291.384,267.582,368.077,283.329,451.316,236.778z"/>
<path fill="#C13531" d="M453.296,238.537c0,0-86.921,65.729-114.063,177.196l32.995,9.376l-63.724,36.732l-33.566-64.004
	l29.713,8.364C304.65,406.202,341.865,304.682,453.296,238.537z"/>
</svg>
