<?xml version="1.0" encoding="utf-8"?>
<!-- Generator: Adobe Illustrator 16.0.4, SVG Export Plug-In . SVG Version: 6.00 Build 0)  -->
<!DOCTYPE svg PUBLIC "-//W3C//DTD SVG 1.1//EN" "http://www.w3.org/Graphics/SVG/1.1/DTD/svg11.dtd">
<svg version="1.1" id="图层_1" xmlns="http://www.w3.org/2000/svg" xmlns:xlink="http://www.w3.org/1999/xlink" x="0px" y="0px"
	 width="600px" height="600px" viewBox="0 0 600 600" enable-background="new 0 0 600 600" xml:space="preserve">
<rect x="197.615" y="242.823" fill="#293C54" width="20.989" height="343.006"/>
<path fill="#293C54" d="M411.446,542.894c-5.758,0-10.47-4.766-10.47-10.535V333.786c0-5.783,4.712-10.559,10.47-10.559
	c5.915,0,10.552,4.775,10.552,10.559v198.572C421.998,538.128,417.361,542.894,411.446,542.894z"/>
<path fill="#C13531" d="M411.337,0.101c-63.328,0-114.438,52.186-114.438,116.748c0,18.391,7.896,40.834,22.279,66.65
	c7.939,13.963,17.453,28.77,28.104,43.92c10.918,15.062,22.485,29.924,34.12,43.594c4.145,4.918,7.911,9.301,11.126,13.016
	c2.316,2.287,3.751,3.955,4.433,4.654c7.937,8.83,21.144,8.83,28.995-0.254c0.746-0.672,2.097-2.334,4.154-4.66
	c3.58-3.678,7.27-8.109,11.193-13.012c11.632-13.67,23.248-28.531,34.152-43.615c10.875-15.096,20.388-29.941,28.07-43.895
	c14.424-25.773,22.321-48.008,22.321-66.398C526.07,52.286,474.713,0.101,411.337,0.101z M411.337,167.894
	c-31.292,0-56.86-25.484-56.86-56.836c0-31.314,25.568-56.91,56.86-56.91c31.333,0,56.855,25.596,56.855,56.91
	C468.192,142.409,442.67,167.894,411.337,167.894z"/>
<path fill="#293C54" d="M584.648,600.099c-1.035,0-2.082-0.141-3.08-0.461l-170.311-51.988L210.712,599.78
	c-2.834,0.707-5.802,0.23-8.238-1.279L8.159,474.558c-3.052-1.955-4.867-5.305-4.867-8.883V134.304c0-3.717,1.968-7.156,5.182-9.057
	c3.294-1.855,7.272-1.855,10.551-0.066l190.683,108.668l77.714-18.104c5.685-1.33,11.306,2.189,12.62,7.854
	c1.359,5.668-2.139,11.316-7.864,12.625l-81.723,19.088c-2.576,0.602-5.288,0.184-7.549-1.121L24.274,152.454v307.443
	l185.607,118.35l198.94-51.699c1.879-0.51,3.847-0.475,5.698,0.102l159.612,48.732V257.608l-51.432-15.924
	c-5.549-1.717-8.659-7.619-6.907-13.156c1.686-5.537,7.553-8.674,13.171-6.932l58.79,18.195c4.397,1.369,7.401,5.455,7.401,10.051
	v339.738c0,3.32-1.572,6.484-4.255,8.461C589.079,599.392,586.858,600.099,584.648,600.099z"/>
</svg>
