<?xml version="1.0" encoding="utf-8"?>
<!-- Generator: Adobe Illustrator 16.0.0, SVG Export Plug-In . SVG Version: 6.00 Build 0)  -->
<!DOCTYPE svg PUBLIC "-//W3C//DTD SVG 1.1//EN" "http://www.w3.org/Graphics/SVG/1.1/DTD/svg11.dtd">
<svg version="1.1" id="图层_1" xmlns="http://www.w3.org/2000/svg" xmlns:xlink="http://www.w3.org/1999/xlink" x="0px" y="0px"
	 width="841.891px" height="1190.551px" viewBox="0 0 841.891 1190.551" enable-background="new 0 0 841.891 1190.551"
	 xml:space="preserve">
<g>
	<polygon fill="#CECECE" points="144,583 139.389,576.752 331.898,428.31 463.094,484.895 662.339,268.662 668.296,273.635 
		465.339,494.314 332.929,437.215 	"/>
	<path fill="#293C54" d="M181.075,569.863c0,14.612-11.853,26.458-26.462,26.458c-14.615,0-26.459-11.846-26.459-26.458
		c0-14.614,11.844-26.466,26.459-26.466C169.223,543.397,181.075,555.25,181.075,569.863z"/>
	<path fill="#C23531" d="M358.87,434.951c0,14.615-11.847,26.46-26.457,26.46c-14.615,0-26.468-11.845-26.468-26.46
		c0-14.609,11.853-26.465,26.468-26.465C347.023,408.486,358.87,420.343,358.87,434.951z"/>
	<path fill="#293C54" d="M490.022,487.878c0,14.612-11.847,26.46-26.457,26.46c-14.615,0-26.468-11.848-26.468-26.46
		c0-14.622,11.853-26.467,26.468-26.467C478.177,461.411,490.022,473.256,490.022,487.878z"/>
	<path fill="#C23531" d="M684.124,271.148c0,14.613-11.845,26.457-26.459,26.457c-14.609,0-26.462-11.844-26.462-26.457
		s11.853-26.47,26.462-26.47C672.279,244.679,684.124,256.535,684.124,271.148z"/>
	<rect x="128.316" y="681.188" fill="#293C54" width="112.315" height="161.121"/>
	<rect x="276.251" y="564.48" fill="#C23531" width="112.315" height="277.828"/>
	<rect x="424.383" y="620.028" fill="#293C54" width="112.314" height="222.28"/>
	<rect x="572.513" y="463.625" fill="#C23531" width="112.314" height="378.685"/>
</g>
</svg>
