<?xml version="1.0" encoding="utf-8"?>
<!-- Generator: Adobe Illustrator 16.0.0, SVG Export Plug-In . SVG Version: 6.00 Build 0)  -->
<!DOCTYPE svg PUBLIC "-//W3C//DTD SVG 1.1//EN" "http://www.w3.org/Graphics/SVG/1.1/DTD/svg11.dtd">
<svg version="1.1" id="图层_1" xmlns="http://www.w3.org/2000/svg" xmlns:xlink="http://www.w3.org/1999/xlink" x="0px" y="0px"
	 width="841.891px" height="1190.551px" viewBox="0 0 841.891 1190.551" enable-background="new 0 0 841.891 1190.551"
	 xml:space="preserve">
<g>
	<path fill="#293C54" d="M129.458,543.451c0-17.41,7.164-34.708,19.479-47.021c12.309-12.314,29.608-19.478,47.016-19.478
		c17.411,0,34.707,7.162,47.021,19.478c12.309,12.312,19.475,29.61,19.475,47.021c0,17.406-7.166,34.709-19.475,47.017
		c-12.314,12.309-29.61,19.479-47.021,19.479c-17.407,0-34.708-7.17-47.016-19.479C136.621,578.16,129.458,560.857,129.458,543.451
		L129.458,543.451z"/>
	<path fill="#293C54" d="M340.729,543.451c0-17.41,7.166-34.708,19.474-47.021c12.31-12.314,29.611-19.478,47.021-19.478
		c17.412,0,34.71,7.162,47.018,19.478c12.312,12.312,19.479,29.61,19.479,47.021c0,17.406-7.166,34.709-19.479,47.017
		c-12.308,12.309-29.605,19.479-47.018,19.479c-17.411,0-34.713-7.17-47.021-19.479C347.895,578.16,340.729,560.857,340.729,543.451
		L340.729,543.451z"/>
	<path fill="#293C54" d="M552.006,543.451c0-17.41,7.166-34.708,19.475-47.021c12.306-12.314,29.608-19.478,47.022-19.478
		c17.403,0,34.705,7.162,47.015,19.478c12.307,12.312,19.478,29.61,19.478,47.021c0,17.406-7.171,34.709-19.478,47.017
		c-12.31,12.309-29.61,19.479-47.015,19.479c-17.414,0-34.718-7.17-47.022-19.479C559.172,578.16,552.006,560.857,552.006,543.451
		L552.006,543.451z"/>
	<path fill="#FFFFFF" d="M552.006,543.451"/>
</g>
</svg>
