<?xml version="1.0" encoding="utf-8"?>
<!-- Generator: Adobe Illustrator 16.0.4, SVG Export Plug-In . SVG Version: 6.00 Build 0)  -->
<!DOCTYPE svg PUBLIC "-//W3C//DTD SVG 1.1//EN" "http://www.w3.org/Graphics/SVG/1.1/DTD/svg11.dtd">
<svg version="1.1" id="图层_1" xmlns="http://www.w3.org/2000/svg" xmlns:xlink="http://www.w3.org/1999/xlink" x="0px" y="0px"
	 width="600px" height="600px" viewBox="0 0 600 600" enable-background="new 0 0 600 600" xml:space="preserve">
<polygon fill="#C13531" points="16.36,533.52 4.655,515.914 203.173,383.965 398.392,500.697 587.499,467.27 591.188,488.115 
	394.333,522.902 203.753,408.986 "/>
<polygon fill="#C13531" points="583.843,400.818 394.089,285.139 200.641,311.193 4.174,166 16.831,148.955 206.319,289.08 
	398.698,263.18 594.862,382.752 "/>
<polygon fill="#C13531" points="17.999,296.795 3.059,281.867 201.981,82.938 398.509,207.473 587.31,170.773 591.339,191.523 
	394.304,229.869 204.946,109.91 "/>
<rect x="-0.064" y="32.066" fill="#293C54" width="21.186" height="536.146"/>
<rect x="192.909" y="32.066" fill="#293C54" width="21.183" height="536.146"/>
<rect x="385.833" y="32.066" fill="#293C54" width="21.125" height="536.146"/>
<rect x="578.721" y="32.066" fill="#293C54" width="21.215" height="536.146"/>
</svg>
