<?xml version="1.0" encoding="utf-8"?>
<!-- Generator: Adobe Illustrator 16.0.4, SVG Export Plug-In . SVG Version: 6.00 Build 0)  -->
<!DOCTYPE svg PUBLIC "-//W3C//DTD SVG 1.1//EN" "http://www.w3.org/Graphics/SVG/1.1/DTD/svg11.dtd">
<svg version="1.1" id="图层_1" xmlns="http://www.w3.org/2000/svg" xmlns:xlink="http://www.w3.org/1999/xlink" x="0px" y="0px"
	 width="600px" height="600px" viewBox="0 0 600 600" enable-background="new 0 0 600 600" xml:space="preserve">
<path fill="#C13531" d="M445.229,157.613l25.749-23.395c-41.845-43.252-99.8-70.77-164.11-72.754v34.793
	C360.993,98.201,409.765,121.299,445.229,157.613z"/>
<path fill="#C13531" d="M292.181,96.258V61.465c-14.301,0.443-28.252,2.072-41.808,4.93l8.227,33.828
	C269.503,97.998,280.714,96.682,292.181,96.258z"/>
<path fill="#C13531" d="M480.739,206.842l31.547-14.719c-8.607-16.949-19.186-32.711-31.397-46.975l-25.761,23.32
	C465.097,180.197,473.651,193.07,480.739,206.842z"/>
<path fill="#C13531" d="M299.507,503.771c-53.07,0-101.463-20.463-137.777-53.797l-24.454,24.748
	c42.651,39.57,99.624,63.814,162.231,63.814c18.533,0,36.511-2.195,53.812-6.166l-8.886-33.684
	C329.991,501.945,314.94,503.771,299.507,503.771z"/>
<path fill="#C13531" d="M403.296,475.221c5.691,10.492,11.232,20.678,16.612,30.574c32.036-18.797,59.324-44.873,79.534-75.93
	l-29.728-18.016C452.698,437.66,429.972,459.406,403.296,475.221z"/>
<path fill="#C13531" d="M477.397,399.318l29.688,18.039c13.642-24.029,23.227-50.559,27.852-78.785l-34.502-4.551
	C496.492,357.352,488.563,379.359,477.397,399.318z"/>
<path fill="#C13531" d="M518.53,205.371l-31.466,14.738c10.464,24.514,16.3,51.523,16.3,79.822c0,6.578-0.377,13.119-0.969,19.531
	l34.508,4.588c0.82-7.936,1.211-15.992,1.211-24.119C538.114,266.342,531.167,234.373,518.53,205.371z"/>
<path fill="#C13531" d="M117.204,208.863l-30.558-16.643c-15.394,30.318-24.509,64.316-25.572,100.367h34.739
	C96.941,262.564,104.466,234.242,117.204,208.863z"/>
<path fill="#C13531" d="M167.47,144.814L145.9,117.496c-20.646,17.434-38.382,38.363-52.165,61.854l30.492,16.615
	C135.731,176.621,150.426,159.312,167.47,144.814z"/>
<path fill="#C13531" d="M130.602,413.9l-29.518,18.426c7.663,11.422,16.269,22.131,25.763,32.033l24.452-24.74
	C143.742,431.645,136.771,423.027,130.602,413.9z"/>
<path fill="#C13531" d="M95.813,307.254H61.074c1.238,40.951,12.846,79.324,32.308,112.578l29.478-18.395
	C106.785,373.539,97.065,341.434,95.813,307.254z"/>
<path fill="#C13531" d="M453.444,299.932c0,4.336-0.283,8.66-0.635,12.938l35.003,4.635c0.567-5.805,0.855-11.629,0.855-17.572
	c0-26.074-5.34-50.938-14.905-73.576l-31.96,14.986C449.286,259.406,453.444,279.191,453.444,299.932z"/>
<path fill="#C13531" d="M172.975,387.463l-29.872,18.65c5.547,8.199,11.746,15.891,18.49,23.072l24.797-25.143
	C181.577,398.793,177.09,393.299,172.975,387.463z"/>
<path fill="#C13531" d="M172.058,81.166l-19.74-36.203c-10.295,5.924-20.215,12.355-29.596,19.5l25.577,32.371
	C155.876,91.137,163.823,85.967,172.058,81.166z"/>
<path fill="#C13531" d="M552.834,299.932c0,8.793-0.476,17.49-1.347,26.062l40.711,5.391c1.18-10.318,1.717-20.826,1.717-31.453
	c0-42.119-8.814-82.102-24.756-118.268l-37.342,17.457C545.298,230.064,552.834,264.148,552.834,299.932z"/>
<path fill="#C13531" d="M481.837,124.373l30.525-27.766C460.318,42.145,387.64,7.65,306.868,5.688v41.09
	C375.482,48.771,437.304,78.141,481.837,124.373z"/>
<path fill="#C13531" d="M232.674,55.656l-9.685-40.082c-20.172,5.41-39.555,12.984-57.765,22.352l19.695,36.207
	C200.03,66.395,216.052,60.182,232.674,55.656z"/>
<path fill="#C13531" d="M73.769,185.189l-36.175-19.77C17.893,203.736,6.369,246.834,5.229,292.588h41.146
	C47.49,254.023,57.241,217.615,73.769,185.189z"/>
<path fill="#C13531" d="M299.507,553.219c-66.625,0-127.263-25.848-172.522-68.043l-28.956,29.332
	c52.646,49.488,123.499,79.846,201.479,79.846c23.436,0,46.229-2.832,68.102-8.016l-10.494-39.818
	C338.581,550.855,319.313,553.219,299.507,553.219z"/>
<path fill="#C13531" d="M46.376,307.254H5.229c1.322,51.816,15.933,100.291,40.653,142.197L80.9,427.609
	C60.009,392.047,47.677,351.057,46.376,307.254z"/>
<path fill="#C13531" d="M145.9,307.254c-0.062-2.436-0.349-4.867-0.349-7.322c0-2.492,0.286-4.91,0.349-7.344
	c1.036-21.338,6.392-41.514,15.26-59.75l-31.048-16.939c-11.623,23.258-18.533,49.17-19.593,76.689
	c-0.062,2.434-0.19,4.852-0.19,7.344c0,2.455,0.128,4.887,0.19,7.322c1.248,31.355,10.101,60.746,24.825,86.373l29.88-18.596
	C153.919,354.826,147.08,331.809,145.9,307.254z"/>
<path fill="#C13531" d="M444.244,178.354c-3.136-3.756-6.435-7.365-9.842-10.881c-32.796-33.334-77.749-54.586-127.534-56.512
	v35.389c39.471,1.855,75.196,18.52,101.447,44.793c3.448,3.455,6.785,7.047,9.875,10.875c6.657,7.992,12.47,16.779,17.378,26.072
	l31.864-15C460.993,200.648,453.236,188.988,444.244,178.354z"/>
<path fill="#C13531" d="M428.472,247.592c-1.846-4.539-3.912-8.99-6.225-13.295c-4.312-7.969-9.284-15.453-14.959-22.387
	c-3.105-3.791-6.391-7.432-9.828-10.861c-23.581-23.311-55.389-38.145-90.592-40.014v33.178
	c25.431,1.811,48.479,12.523,65.859,29.209c3.571,3.441,6.905,7.031,9.908,10.902c3.548,4.379,6.709,9.127,9.459,14.059
	c2.37,4.275,4.451,8.719,6.219,13.324c4.596,11.861,7.263,24.738,7.263,38.225c0,2.213-0.249,4.416-0.354,6.605l32.959,4.422
	c0.308-3.658,0.58-7.293,0.58-11.027C438.761,281.393,435.054,263.773,428.472,247.592z"/>
<path fill="#C13531" d="M236.19,69.887c-15.452,4.264-30.188,10.041-44.261,17.131c-4.319,2.193-8.637,4.559-12.835,7.053
	c-7.508,4.371-14.783,9.121-21.646,14.26l21.548,27.295c5.41-3.912,10.944-7.607,16.752-11.029c4.168-2.49,8.465-4.824,12.879-7.062
	c11.337-5.652,23.29-10.324,35.754-13.807L236.19,69.887z"/>
<path fill="#C13531" d="M345.879,446.662c-4.659,1.506-9.388,2.736-14.204,3.773c-10.375,2.223-21.105,3.443-32.168,3.443
	c-39.461,0-75.425-15.055-102.634-39.52l-24.849,25.176c33.68,30.746,78.349,49.537,127.482,49.537
	c14.127,0,27.926-1.617,41.182-4.576c4.815-1.094,9.531-2.271,14.194-3.74c9.851-3.012,19.412-6.85,28.488-11.346
	c-6.575-12.045-15.388-28.264-16.912-31.094C359.802,441.539,353.028,444.479,345.879,446.662z"/>
<path fill="#C13531" d="M450.844,327.447c-2.972,16.32-8.386,31.828-16.098,45.934c-2.392,4.348-4.906,8.535-7.657,12.605
	c-12.414,18.34-28.775,33.713-47.771,45.307c1.602,2.814,10.398,19.031,16.926,31.043c24.449-14.574,45.246-34.461,60.984-58.102
	c2.659-4.086,5.176-8.273,7.614-12.545c10.149-18.252,17.354-38.266,21.017-59.582L450.844,327.447z"/>
<path fill="#C13531" d="M262.112,114.543c-4.811,0.934-9.6,2.133-14.307,3.49c-11.182,3.119-21.92,7.287-32.189,12.398
	c-4.37,2.189-8.705,4.543-12.897,7.084c-5.023,3.01-9.893,6.242-14.589,9.648c-3.976,2.908-7.793,5.967-11.527,9.164
	c-15.501,13.264-28.842,29.029-39.475,46.674l31.051,16.936c8.283-13.445,18.499-25.602,30.333-35.93
	c3.717-3.221,7.552-6.236,11.488-9.107c3.147-2.256,6.37-4.311,9.649-6.334c4.123-2.543,8.42-4.912,12.889-7.066
	c7.56-3.625,15.411-6.783,23.604-9.221c4.657-1.312,9.441-2.555,14.237-3.475c7.155-1.367,14.402-2.113,21.801-2.455v-35.389
	C281.899,111.391,271.864,112.541,262.112,114.543z"/>
<path fill="#C13531" d="M403.425,321.131c-1.987,9.688-5.317,18.855-9.746,27.357c-2.309,4.398-4.783,8.547-7.639,12.564
	c-7.967,11.199-18.031,20.768-29.607,28.148c-4.088,2.654-8.414,5.018-12.861,7.062c-3.232,1.463-6.516,2.814-9.963,3.986
	c-4.622,1.568-9.314,2.82-14.143,3.807c-6.526,1.23-13.097,1.912-19.959,1.912c-26.373,0-50.406-9.705-69-25.693
	c-3.758-3.182-7.233-6.631-10.471-10.322c-2.204-2.551-4.297-5.18-6.294-7.928l-28.243,17.635c3.496,4.869,7.188,9.475,11.25,13.902
	c3.26,3.621,6.794,7.098,10.468,10.338c24.546,21.854,56.862,35.289,92.29,35.289c9.743,0,19.235-1.062,28.455-2.934
	c4.799-1.025,9.562-2.336,14.146-3.834c5.99-1.908,11.74-4.324,17.335-7.021c4.411-2.105,8.695-4.473,12.907-6.951
	c16.643-10.365,31.074-23.967,42.16-40.105c2.76-4.068,5.25-8.246,7.645-12.592c6.723-12.328,11.465-25.943,14.123-40.277
	L403.425,321.131z"/>
<path fill="#C13531" d="M273.929,163.168c-4.941,0.867-9.643,1.988-14.324,3.404c-6.951,2.092-13.639,4.727-20.033,7.881
	c-4.438,2.129-8.75,4.428-12.934,7.01c-2.62,1.578-5.036,3.191-7.489,4.957c-4.056,2.818-7.871,5.912-11.527,9.135
	c-10.311,9.082-19.241,19.682-26.499,31.434c-2.596,4.184-4.951,8.459-7.092,12.928c-7.746,16.084-12.438,33.83-13.388,52.672
	c-0.14,2.434-0.402,4.852-0.402,7.344c0,2.455,0.263,4.887,0.402,7.322c1.087,21.699,7.107,42.064,17.075,59.982l28.19-17.527
	c-6.862-12.832-11.059-27.221-12.081-42.455c-0.127-2.436-0.4-4.867-0.4-7.322c0-2.492,0.273-4.91,0.4-7.344
	c0.895-13.068,4.125-25.504,9.389-36.828c2.027-4.453,4.38-8.781,6.998-12.887c5.053-7.902,11.109-14.988,17.997-21.264
	c3.602-3.299,7.44-6.412,11.473-9.166c0.94-0.67,1.907-1.213,2.833-1.854c4.134-2.582,8.441-4.934,12.91-7.008
	c3.877-1.766,7.865-3.408,11.988-4.709c4.652-1.512,9.402-2.57,14.294-3.383c3.423-0.592,6.932-1.043,10.472-1.277v-33.178
	C285.985,161.352,279.817,162.039,273.929,163.168z"/>
</svg>
