<?xml version="1.0" encoding="utf-8"?>
<!-- Generator: Adobe Illustrator 16.0.0, SVG Export Plug-In . SVG Version: 6.00 Build 0)  -->
<!DOCTYPE svg PUBLIC "-//W3C//DTD SVG 1.1//EN" "http://www.w3.org/Graphics/SVG/1.1/DTD/svg11.dtd">
<svg version="1.1" id="图层_1" xmlns="http://www.w3.org/2000/svg" xmlns:xlink="http://www.w3.org/1999/xlink" x="0px" y="0px"
	 width="600px" height="600px" viewBox="0 0 600 600" enable-background="new 0 0 600 600" xml:space="preserve">
<g>
	<path fill="#293C54" d="M560.092,75.67H39.909c-9.957,0-18.028,8.102-18.028,18.095v82.829h556.239V93.766
		C578.119,83.772,570.049,75.67,560.092,75.67z"/>
	<rect x="21.881" y="176.594" fill="#CDCECD" width="556.239" height="347.736"/>
	<g>
		<rect x="170.443" y="229.498" fill="#C13531" width="65.325" height="58.921"/>
		<rect x="267.336" y="229.498" fill="#C13531" width="65.327" height="58.921"/>
		<rect x="364.231" y="229.498" fill="#C13531" width="65.324" height="58.921"/>
		<rect x="461.123" y="229.498" fill="#C13531" width="65.322" height="58.921"/>
		<rect x="73.55" y="321.001" fill="#C13531" width="65.325" height="58.927"/>
		<rect x="170.445" y="321.001" fill="#C13531" width="65.325" height="58.927"/>
		<rect x="267.338" y="321.001" fill="#C13531" width="65.325" height="58.927"/>
		<rect x="364.231" y="321.001" fill="#C13531" width="65.326" height="58.927"/>
		<rect x="461.125" y="321.001" fill="#C13531" width="65.324" height="58.927"/>
		<rect x="73.552" y="412.502" fill="#C13531" width="65.325" height="58.926"/>
		<rect x="170.447" y="412.502" fill="#C13531" width="65.325" height="58.926"/>
		<rect x="267.341" y="412.502" fill="#C13531" width="65.324" height="58.926"/>
		<rect x="364.235" y="412.502" fill="#C13531" width="65.324" height="58.926"/>
	</g>
</g>
</svg>
