<?xml version="1.0" encoding="utf-8"?>
<!-- Generator: Adobe Illustrator 16.0.0, SVG Export Plug-In . SVG Version: 6.00 Build 0)  -->
<!DOCTYPE svg PUBLIC "-//W3C//DTD SVG 1.1//EN" "http://www.w3.org/Graphics/SVG/1.1/DTD/svg11.dtd">
<svg version="1.1" id="图层_1" xmlns="http://www.w3.org/2000/svg" xmlns:xlink="http://www.w3.org/1999/xlink" x="0px" y="0px"
	 width="600px" height="600px" viewBox="0 0 600 600" enable-background="new 0 0 600 600" xml:space="preserve">
<g>
	<line fill="none" stroke="#2E4454" stroke-width="10" stroke-miterlimit="10" x1="31.3" y1="346.2" x2="569.5" y2="346.2"/>
	<line fill="none" stroke="#2E4454" stroke-width="10" stroke-miterlimit="10" x1="36.3" y1="343.6" x2="36.3" y2="366.2"/>
	<line fill="none" stroke="#2E4454" stroke-width="10" stroke-miterlimit="10" x1="168.4" y1="343.6" x2="168.4" y2="366.2"/>
	<line fill="none" stroke="#2E4454" stroke-width="10" stroke-miterlimit="10" x1="300.4" y1="343.6" x2="300.4" y2="366.2"/>
	<line fill="none" stroke="#2E4454" stroke-width="10" stroke-miterlimit="10" x1="432.5" y1="343.6" x2="432.5" y2="366.2"/>
	<line fill="none" stroke="#2E4454" stroke-width="10" stroke-miterlimit="10" x1="564.6" y1="343.6" x2="564.6" y2="366.2"/>
	
		<line opacity="0.4" fill="none" stroke="#2E4454" stroke-width="10" stroke-miterlimit="10" enable-background="new    " x1="36.3" y1="344.4" x2="36.3" y2="324.7"/>
	
		<line opacity="0.4" fill="none" stroke="#2E4454" stroke-width="10" stroke-miterlimit="10" enable-background="new    " x1="168.4" y1="344.4" x2="168.4" y2="324.7"/>
	
		<line opacity="0.4" fill="none" stroke="#2E4454" stroke-width="10" stroke-miterlimit="10" enable-background="new    " x1="300.4" y1="344.4" x2="300.4" y2="324.7"/>
	
		<line opacity="0.4" fill="none" stroke="#2E4454" stroke-width="10" stroke-miterlimit="10" enable-background="new    " x1="432.5" y1="344.4" x2="432.5" y2="324.7"/>
	
		<line opacity="0.4" fill="none" stroke="#2E4454" stroke-width="10" stroke-miterlimit="10" enable-background="new    " x1="564.6" y1="344.4" x2="564.6" y2="324.7"/>
	<path opacity="0.6" fill="#AF352F" enable-background="new    " d="M128.5,290.4c0,20.9-17,37.7-37.7,37.7
		c-20.9,0-37.7-17-37.7-37.7c0-20.9,17-37.7,37.7-37.7C111.6,252.6,128.5,269.5,128.5,290.4z"/>
	<path opacity="0.6" fill="#AF352F" enable-background="new    " d="M218.4,231.8c32.4,0,58.6,26.2,58.6,58.6
		c0,32.4-26.2,58.6-58.6,58.6c-32.4,0-58.6-26.2-58.6-58.6C159.8,258.1,186,231.8,218.4,231.8z"/>
	<path opacity="0.6" fill="#AF352F" enable-background="new    " d="M307.1,290.4c0,17-13.7,30.7-30.7,30.7
		c-17,0-30.7-13.7-30.7-30.7c0-17,13.7-30.7,30.7-30.7C293.3,259.6,307.1,273.5,307.1,290.4z"/>
	<circle opacity="0.6" fill="#AF352F" enable-background="new    " cx="497.3" cy="290.4" r="38.9"/>
	<circle opacity="0.6" fill="#AF352F" enable-background="new    " cx="389.7" cy="290.4" r="22.8"/>
	
		<line opacity="0.4" fill="none" stroke="#2E4454" stroke-width="10" stroke-miterlimit="10" enable-background="new    " x1="36.3" y1="302.2" x2="36.3" y2="282.4"/>
	
		<line opacity="0.4" fill="none" stroke="#2E4454" stroke-width="10" stroke-miterlimit="10" enable-background="new    " x1="168.4" y1="302.2" x2="168.4" y2="282.4"/>
	
		<line opacity="0.4" fill="none" stroke="#2E4454" stroke-width="10" stroke-miterlimit="10" enable-background="new    " x1="300.4" y1="302.2" x2="300.4" y2="282.4"/>
	
		<line opacity="0.4" fill="none" stroke="#2E4454" stroke-width="10" stroke-miterlimit="10" enable-background="new    " x1="432.5" y1="302.2" x2="432.5" y2="282.4"/>
	
		<line opacity="0.4" fill="none" stroke="#2E4454" stroke-width="10" stroke-miterlimit="10" enable-background="new    " x1="564.6" y1="302.2" x2="564.6" y2="282.4"/>
	
		<line opacity="0.4" fill="none" stroke="#2E4454" stroke-width="10" stroke-miterlimit="10" enable-background="new    " x1="36.3" y1="259.9" x2="36.3" y2="240.2"/>
	
		<line opacity="0.4" fill="none" stroke="#2E4454" stroke-width="10" stroke-miterlimit="10" enable-background="new    " x1="168.4" y1="259.9" x2="168.4" y2="240.2"/>
	
		<line opacity="0.4" fill="none" stroke="#2E4454" stroke-width="10" stroke-miterlimit="10" enable-background="new    " x1="300.4" y1="259.9" x2="300.4" y2="240.2"/>
	
		<line opacity="0.4" fill="none" stroke="#2E4454" stroke-width="10" stroke-miterlimit="10" enable-background="new    " x1="432.5" y1="259.9" x2="432.5" y2="240.2"/>
	
		<line opacity="0.4" fill="none" stroke="#2E4454" stroke-width="10" stroke-miterlimit="10" enable-background="new    " x1="564.6" y1="259.9" x2="564.6" y2="240.2"/>
</g>
</svg>
