<?xml version="1.0" encoding="UTF-8"?>
<svg width="16px" height="16px" viewBox="0 0 16 16" version="1.1" xmlns="http://www.w3.org/2000/svg" xmlns:xlink="http://www.w3.org/1999/xlink">
    <!-- Generator: Sketch 48.2 (47327) - http://www.bohemiancoding.com/sketch -->
    <title>提示</title>
    <desc>Created with Sketch.</desc>
    <defs></defs>
    <g id="01-首页-设计稿" stroke="none" stroke-width="1" fill="none" fill-rule="evenodd" transform="translate(-144.000000, -2452.000000)">
        <g id="提示" transform="translate(144.000000, 2452.000000)" fill="#DD4541" fill-rule="nonzero">
            <path d="M15.108431,4.32611124 C15.0119486,4.13848559 14.8171971,4.0080411 14.5920715,4.0080411 C14.2740369,4.0080411 14.0167504,4.26535627 14.0167504,4.58163949 C14.0167504,4.68885414 14.0471245,4.79070806 14.0989391,4.87647979 L14.0971524,4.8782667 C14.5777778,5.814608 14.8493579,6.87603306 14.8493579,8 C14.8493579,11.7811034 11.7833613,14.8474425 8.00268007,14.8474425 C4.22199888,14.8474425 1.15421552,11.7811034 1.15421552,8 C1.15421552,4.21889658 4.22021217,1.15434443 8.00089336,1.15434443 C9.11758794,1.15434443 10.1717476,1.42238106 11.1026242,1.89591244 L11.1061977,1.8887648 C11.1883864,1.93522448 11.2848688,1.96202814 11.3867113,1.96202814 C11.704746,1.96202814 11.9620324,1.70471298 11.9620324,1.38842975 C11.9620324,1.15434443 11.8208822,0.952423498 11.6171971,0.863077954 C10.5308766,0.310922493 9.30340592,0 8.00089336,0 C3.58235623,0 0,3.58275631 0,8 C0,12.4172437 3.58235623,16 8.00089336,16 C12.4194305,16 16,12.4190306 16,8 C16,6.67589904 15.678392,5.42684834 15.108431,4.32611124 Z" id="Shape"></path>
            <path d="M12,2.5 C12,2.67863279 12.0952994,2.8436963 12.25,2.9330127 C12.4047005,3.0223291 12.5952995,3.0223291 12.75,2.9330127 C12.9047006,2.8436963 13,2.67863279 13,2.5 C13,2.32136721 12.9047006,2.1563037 12.75,2.0669873 C12.5952995,1.9776709 12.4047005,1.9776709 12.25,2.0669873 C12.0952994,2.1563037 12,2.32136721 12,2.5 Z" id="Shape"></path>
            <path d="M7,11.5 C7,11.7761424 7.22385763,12 7.5,12 C7.77614237,12 8,11.7761424 8,11.5 C8.00000001,11.3213672 7.90470055,11.1563037 7.75000001,11.0669873 C7.59529946,10.9776709 7.40470054,10.9776709 7.24999999,11.0669873 C7.09529945,11.1563037 6.99999999,11.3213672 7,11.5 Z" id="Shape"></path>
            <path d="M7.5,10 C7.77586207,10 8,9.72957746 8,9.40093897 L8,4.59906103 C8,4.27042254 7.77586207,4 7.5,4 C7.22570533,4 7,4.2685446 7,4.59906103 L7,9.40093897 C7,9.72957746 7.22413793,10 7.5,10 Z" id="Shape"></path>
        </g>
    </g>
</svg>